<?xml version="1.0" encoding="utf-8"?>
<!-- Generator: Adobe Illustrator 26.0.1, SVG Export Plug-In . SVG Version: 6.00 Build 0)  -->
<svg version="1.1" xmlns="http://www.w3.org/2000/svg" xmlns:xlink="http://www.w3.org/1999/xlink" x="0px" y="0px"
	 viewBox="0 0 2400 2400" style="enable-background:new 0 0 2400 2400;" xml:space="preserve">
<style type="text/css">
	.st0{display:none;fill:#26503A;}
	.st1{display:none;fill:#242424;stroke:#FFFFFF;stroke-width:0.5;stroke-miterlimit:10;}
	.st2{display:none;fill:#FFFFFF;}
	.st3{fill:#FFFFFF;stroke:#231F20;stroke-width:0.75;stroke-miterlimit:10;}
	.st4{fill-rule:evenodd;clip-rule:evenodd;fill:#FFFFFF;stroke:#231F20;stroke-width:0.75;stroke-miterlimit:10;}
	.st5{display:none;fill:#424143;stroke:#231F20;stroke-width:2;stroke-miterlimit:10;}
	.st6{fill:#FFFFFF;stroke:#000000;stroke-miterlimit:10;}
	.st7{fill:#424143;}
	.st8{fill:#FFFFFF;}
	.st9{fill:none;}
	.st10{fill-rule:evenodd;clip-rule:evenodd;fill:#424143;stroke:#231F20;stroke-miterlimit:10;}
	.st11{fill:#424143;stroke:#231F20;stroke-miterlimit:10;}
</style>
<g id="Background">
	<rect class="st0" width="2400" height="2400"/>
	<path class="st1" d="M1122.6,1623c0-3.1,2.5-5,5.6-5h7.5l131,163.3c0,0,0,0,0.6,0v-154.6c0-3.1,2.5-5.6,5.6-5.6h9.9
		c3.1,0,5.6,2.5,5.6,5.6v195c0,3.1-2.5,5-5.6,5h-5.6l-132.9-166.4l0,0v157.7c0,3.1-2.5,5.6-5.6,5.6h-10.6c-3.1,0-5.6-2.5-5.6-5.6
		V1623z"/>
	<circle id="Lettering-Template" class="st2" cx="1216.3" cy="845.6" r="423"/>
</g>
<g id="AP-Logo_00000026886051949588681230000006510708863788541871_">
	<g id="AP-Logo">
		<g id="Church_of_the_Nazarene">
			<g>
				<path class="st3" d="M536,1805.5c23.7,0,40.8,7.9,56.5,21.7c2,2,2,4.6,0,6.6l-6.6,6.6c-2,2.6-3.9,2-5.9,0
					c-12.5-10.5-28.9-17.8-44.7-17.8c-36.8,0-65.1,30.9-65.1,67.7c0,36.2,28.3,67.1,65.1,67.1c20.4,0,32.2-7.9,44.7-17.8
					c2.6-2,3.9-1.3,5.9-0.7l7.2,6.6c2,1.3,1.3,4.6,0,6.6c-15.8,15.8-36.2,23-57.2,23c-46.7,0-84.8-37.5-84.8-84.1
					C451.9,1843,489.3,1805.5,536,1805.5z"/>
				<path class="st3" d="M658.3,1812.1c0-2.6,2-4.6,4.6-4.6h9.2c2.6,0,4.6,2,4.6,4.6v68.4H772v-68.4c0-2.6,2-4.6,4.6-4.6h9.2
					c2.6,0,4.6,2,4.6,4.6v155.1c0,2.6-2,4.6-4.6,4.6h-9.2c-2.6,0-4.6-2-4.6-4.6v-71h-95.3v71c0,2.6-2,4.6-4.6,4.6h-9.2
					c-2.6,0-4.6-2-4.6-4.6V1812.1z"/>
				<path class="st3" d="M864.7,1812.1c0-2.6,2-4.6,4.6-4.6h9.2c2.6,0,4.6,2,4.6,4.6v98c0,27,16.4,47.3,44,47.3
					c27.6,0,44.7-20.4,44.7-47.3v-98c0-2.6,2-4.6,4.6-4.6h9.2c2.6,0,4.6,2,4.6,4.6v99.3c0,35.5-25,62.5-62.5,62.5
					c-36.8,0-61.8-27-61.8-62.5v-99.3H864.7z"/>
				<path class="st3" d="M1063.3,1812.1c0-2.6,2-4.6,4.6-4.6h60.5c28.3,0,51.3,21.7,51.3,50c0,21.7-14.5,39.4-34.8,48l32.2,59.2
					c1.3,3.3,0,6.6-3.9,6.6h-11.8c-2,0-3.3-1.3-3.9-2l-30.9-61.8h-44.7v59.8c0,2.6-2,4.6-4.6,4.6h-9.2c-2.6,0-4.6-2-4.6-4.6
					L1063.3,1812.1L1063.3,1812.1z M1127.7,1892.3c17.8,0,33.5-15.1,33.5-34.2c0-17.8-15.8-32.9-33.5-32.9h-45.4v67.1H1127.7z"/>
				<path class="st3" d="M1320.3,1805.5c23.7,0,40.8,7.9,56.5,21.7c2,2,2,4.6,0,6.6l-6.6,6.6c-2,2.6-3.9,2-5.9,0
					c-12.5-10.5-28.9-17.8-44.7-17.8c-36.8,0-65.1,30.9-65.1,67.7c0,36.2,28.3,67.1,65.1,67.1c20.4,0,32.2-7.9,44.7-17.8
					c2.6-2,3.9-1.3,5.9-0.7l7.2,6.6c2,1.3,1.3,4.6,0,6.6c-15.8,15.8-36.2,23-57.2,23c-46.7,0-84.8-37.5-84.8-84.1
					C1235.5,1843,1273.6,1805.5,1320.3,1805.5z"/>
				<path class="st3" d="M1442.6,1812.1c0-2.6,2-4.6,4.6-4.6h9.2c2.6,0,4.6,2,4.6,4.6v68.4h95.3v-68.4c0-2.6,2-4.6,4.6-4.6h9.2
					c2.6,0,4.6,2,4.6,4.6v155.1c0,2.6-2,4.6-4.6,4.6h-9.2c-2.6,0-4.6-2-4.6-4.6v-71H1461v71c0,2.6-2,4.6-4.6,4.6h-9.2
					c-2.6,0-4.6-2-4.6-4.6V1812.1z"/>
			</g>
			<g>
				<path class="st3" d="M300,2078.3c0-3.3,2.6-5.3,5.9-5.3h7.9l138.7,172.9c0,0,0,0,0.7,0v-163.7c0-3.3,2.6-5.9,5.9-5.9h10.5
					c3.3,0,5.9,2.6,5.9,5.9v206.4c0,3.3-2.6,5.3-5.9,5.3h-5.9L323,2117.8l0,0v167c0,3.3-2.6,5.9-5.9,5.9h-11.2
					c-3.3,0-5.9-2.6-5.9-5.9V2078.3z"/>
				<path class="st3" d="M541.9,2282.8l93.4-206.4c0.7-2,2.6-3.3,5.3-3.3h3.3c2.6,0,4.6,1.3,5.3,3.3l92.7,206.4
					c2,3.9-0.7,7.9-5.3,7.9H724c-2.6,0-4.6-2-5.3-3.3l-23-50.6H586.6l-22.4,50.6c-0.7,1.3-2.6,3.3-5.3,3.3h-12.5
					C542.6,2291.3,540,2286.7,541.9,2282.8z M687.9,2217.7c-15.1-33.5-29.6-67.1-44.7-100.6h-2.6l-44.7,100.6H687.9z"/>
				<path class="st3" d="M786.5,2279.5L898.2,2098v-0.7h-96.6c-3.3,0-5.9-2.6-5.9-5.9v-9.9c0-3.3,2.6-5.9,5.9-5.9h124.3
					c3.3,0,5.9,2.6,5.9,5.9v3.9L818.7,2269l0,0h101.2c3.3,0,5.9,2.6,5.9,5.9v9.9c0,3.3-2.6,5.9-5.9,5.9H792.4
					c-3.3,0-5.9-2.6-5.9-5.9V2279.5z"/>
				<path class="st3" d="M977.1,2282.8l93.4-206.4c0.7-2,2.6-3.3,5.3-3.3h3.3c2.6,0,4.6,1.3,5.3,3.3l92.7,206.4
					c2,3.9-0.7,7.9-5.3,7.9h-12.5c-2.6,0-4.6-2-5.3-3.3l-23-50.6h-109.1l-22.4,50.6c-0.7,1.3-2.6,3.3-5.3,3.3h-12.5
					C977.8,2291.3,975.2,2286.7,977.1,2282.8z M1123.1,2217.7c-15.1-33.5-29.6-67.1-44.7-100.6h-2.6l-44.7,100.6H1123.1z"/>
				<path class="st3" d="M1244,2081.6c0-3.3,2.6-5.9,5.9-5.9h79.5c36.8,0,67.1,28.9,67.1,65.7c0,28.3-19.1,51.9-45.4,62.5l42.1,78.2
					c2,3.9,0,9.2-5.3,9.2h-15.8c-2.6,0-4.6-1.3-4.6-2.6l-40.8-81.5h-58.5v78.2c0,3.3-2.6,5.9-5.9,5.9h-11.8c-3.3,0-5.9-2.6-5.9-5.9
					v-203.8H1244z M1327.5,2186.8c23.7,0,44-19.7,44-44.7c0-23.7-20.4-43.4-44-43.4h-59.8v88.1H1327.5z"/>
				<path class="st3" d="M1480.7,2081.6c0-3.3,2.6-5.9,5.9-5.9h121c3.3,0,5.9,2.6,5.9,5.9v9.2c0,3.3-2.6,5.9-5.9,5.9h-103.2v74.9
					h88.1c3.3,0,5.9,2.6,5.9,5.9v9.2c0,3.3-2.6,5.9-5.9,5.9h-88.1v78.2h103.2c3.3,0,5.9,2.6,5.9,5.9v9.2c0,3.3-2.6,5.9-5.9,5.9h-121
					c-3.3,0-5.9-2.6-5.9-5.9V2081.6z"/>
				<path class="st3" d="M1696.3,2078.3c0-3.3,2.6-5.3,5.9-5.3h7.9l138.7,172.9c0,0,0,0,0.7,0v-163.7c0-3.3,2.6-5.9,5.9-5.9h10.5
					c3.3,0,5.9,2.6,5.9,5.9v206.4c0,3.3-2.6,5.3-5.9,5.3h-5.3L1720,2117.8l0,0v167c0,3.3-2.6,5.9-5.9,5.9h-10.5
					c-3.3,0-5.9-2.6-5.9-5.9v-206.4H1696.3z"/>
				<path class="st3" d="M1967.9,2081.6c0-3.3,2.6-5.9,5.9-5.9h120.3c3.3,0,5.9,2.6,5.9,5.9v9.2c0,3.3-2.6,5.9-5.9,5.9h-103.2v74.9
					h88.1c3.3,0,5.9,2.6,5.9,5.9v9.2c0,3.3-2.6,5.9-5.9,5.9h-88.1v78.2h103.2c3.3,0,5.9,2.6,5.9,5.9v9.2c0,3.3-2.6,5.9-5.9,5.9h-121
					c-3.3,0-5.9-2.6-5.9-5.9v-204.5H1967.9z"/>
			</g>
			<g>
				<path class="st3" d="M1682.5,1874.5c14.5,0,26.3,11.8,26.3,26.3c0,14.5-11.8,26.3-26.3,26.3c-14.5,0-25.6-11.8-25.6-26.3
					C1656.9,1885.7,1668.1,1874.5,1682.5,1874.5z M1682.5,1917.2c9.2,0,16.4-7.2,16.4-16.4s-7.2-16.4-16.4-16.4
					c-9.2,0-16.4,7.9-16.4,16.4C1666.1,1909.4,1674,1917.2,1682.5,1917.2z"/>
				<path class="st3" d="M1720,1876.5c0-0.7,0.7-1.3,1.3-1.3h29.6c0.7,0,1.3,0.7,1.3,1.3v5.9c0,0.7-0.7,1.3-1.3,1.3h-21.7v13.8h17.8
					c0.7,0,1.3,0.7,1.3,1.3v5.9c0,0.7-0.7,1.3-1.3,1.3h-17.8v18.4c0,0.7-0.7,1.3-1.3,1.3h-6.6c-0.7,0-1.3-0.7-1.3-1.3V1876.5z"/>
				<path class="st3" d="M1787.1,1883.7h-11.2c-0.7,0-1.3-0.7-1.3-1.3v-5.9c0-0.7,0.7-1.3,1.3-1.3h31.6c0.7,0,1.3,0.7,1.3,1.3v5.9
					c0,0.7-0.7,1.3-1.3,1.3h-11.2v40.8c0,0.7-0.7,1.3-1.3,1.3h-6.6c-0.7,0-1.3-0.7-1.3-1.3L1787.1,1883.7L1787.1,1883.7z"/>
				<path class="st3" d="M1818.6,1876.5c0-0.7,0.7-1.3,1.3-1.3h6.6c0.7,0,1.3,0.7,1.3,1.3v19.1h23.7v-19.1c0-0.7,0.7-1.3,1.3-1.3
					h6.6c0.7,0,1.3,0.7,1.3,1.3v48c0,0.7-0.7,1.3-1.3,1.3h-6.6c-0.7,0-1.3-0.7-1.3-1.3v-19.7h-23.7v19.7c0,0.7-0.7,1.3-1.3,1.3h-6.6
					c-0.7,0-1.3-0.7-1.3-1.3V1876.5z"/>
				<path class="st3" d="M1875.8,1876.5c0-0.7,0.7-1.3,1.3-1.3h29.6c0.7,0,1.3,0.7,1.3,1.3v5.9c0,0.7-0.7,1.3-1.3,1.3H1885v11.8
					h17.8c0.7,0,1.3,0.7,1.3,1.3v5.9c0,0.7-0.7,1.3-1.3,1.3H1885v12.5h21.7c0.7,0,1.3,0.7,1.3,1.3v5.9c0,0.7-0.7,1.3-1.3,1.3h-29.6
					c-0.7,0-1.3-0.7-1.3-1.3V1876.5z"/>
			</g>
			<rect x="1656.9" y="1949.5" class="st4" width="253.1" height="11.2"/>
		</g>
		<g id="Avon-Park-Logo_00000070798094431849275280000002615969919565565097_">
			<g id="Avon-Park-Ring_00000164511881898484531090000005712956992516840589_">
				<path id="Avon-Park-Ring" class="st5" d="M1712,350.8c-132.5-132.5-308.6-205.4-496-205.4c-187.4,0-363.5,73-496,205.4
					c-132.5,132.5-205.4,308.6-205.4,496c0,187.4,73,363.5,205.4,496c132.5,132.5,308.6,205.4,496,205.4c187.4,0,363.5-73,496-205.4
					c132.5-132.5,205.4-308.6,205.4-496C1917.4,659.5,1844.5,483.3,1712,350.8z M1631.4,342.1l2.1,1.7c1.1,0.9,2.1,3.5,1.7,5.2
					l-51,192.3c-1,3.7-4.9,5-8,2.4l-13.2-10.9c-2.5-2.1-3-4.5-2.3-7.1l10.4-39.1l-68.8-56.8c-12.1,6-24.2,11.7-36.3,17.8
					c-1.8,0.9-4.9,1.2-7.4-0.9l-13.2-10.9c-3.2-2.6-2.6-6.7,0.9-8.3l179.7-86C1627.6,340.7,1630.4,341.2,1631.4,342.1z
					 M1334.5,390.6l64.4-165.7c1-2.5,3.9-4,6.7-2.9l58,22.5c31.3,12.1,47.2,47.1,35.5,77.4c-12.1,31-47.6,46.4-78.6,34.3l-36.9-14.3
					l-22.8,58.8c-1,2.5-4.1,3.9-6.7,2.9l-16.5-6.4C1334.7,396.1,1333.6,393.1,1334.5,390.6z M990.5,228.7l6.6-1.6l146.7,103.3
					l0.3-0.1l-29.8-123.5c-0.6-2.6,0.9-5.5,3.8-6.2l17-4.1c2.7-0.6,5.6,1.1,6.2,3.7l42.3,175.7c0.6,2.6-1.3,5.3-3.9,5.9l-6.9,1.7
					l-147.5-107l-0.3,0.1l30.6,127.1c0.6,2.6-0.9,5.5-3.8,6.2l-16.7,4c-2.7,0.6-5.6-1.1-6.2-3.7l-42.3-175.7
					C986,232,987.8,229.3,990.5,228.7z M813.1,332.1c42.9-33.6,104-26.5,137.1,15.8c33.1,42.3,25.1,102.8-17.9,136.4
					S828.9,511,795.8,468.8C762.7,426.5,770.2,365.7,813.1,332.1z M607,601.2l9.5-16.9c1.1-1.9,3.4-2.8,4.9-2.6l145.3,13l0.8-1.4
					l-86.3-117.6c-0.9-1.1-1.5-3.4-0.3-5.5l9.5-16.9c2-3.6,6.1-3.7,8.4-0.6L815,614.6c1,1.5,1.4,3.6,0.3,5.5l-1.3,2.4
					c-0.9,1.7-3,2.7-4.9,2.6l-198.3-16.3C607,608.4,605,604.8,607,601.2z M775.3,680.9l-3,16.9c-0.6,3.2-2.5,4.8-5.1,5.5L728,713.4
					l-15.8,87.8c11.2,7.6,22.1,15.3,33.3,22.9c1.7,1.1,3.4,3.7,2.9,6.9l-3,16.9c-0.7,4-4.5,5.6-7.7,3.3L574.6,736.9
					c-1.4-1.1-2.3-3.7-2.1-5.1l0.5-2.7c0.2-1.3,2-3.5,3.7-4l192.6-49.9C773,674.1,776,676.9,775.3,680.9z M1216,1263.5
					c-229.8,0-416.7-186.9-416.7-416.7S986.2,430.1,1216,430.1s416.7,186.9,416.7,416.7S1445.8,1263.5,1216,1263.5z M1650.6,673.4
					L1640,655c-1.1-1.9-0.7-4-0.1-5l43.4-67l-20.6-35.7l-59.3,34.3c-2.3,1.3-5.6,0.4-7-1.9l-8.9-15.3c-1.5-2.6-0.5-5.7,1.8-7
					l153.9-89c2.3-1.3,5.5-0.7,7,1.9l37.1,64.2c16.4,28.3,7.7,64.2-20,80.2c-21.4,12.4-47.4,8.2-67.4-7.7l-40.3,66.5
					C1657.6,676.9,1652.9,677.4,1650.6,673.4z M1860.7,810.4l-91.3-64.1l-74.9,97.7c-2.3,2.6-8.6,2.3-9.6-3.3l-3.7-21.5
					c-0.5-2.7,0.3-4.5,1-5.2l73.2-93.3l-82.3,14.3c-3.4,0.6-6.9-1.9-7.5-5.3l-2.7-15.6c-0.7-3.8,1.8-7,5.2-7.6l172.5-30
					c3.4-0.6,6.8,1.6,7.5,5.3l2.7,15.6c0.6,3.5-1.8,7-5.2,7.6l-73.3,12.7l90.2,62.4c1.5,0.8,3.2,2.5,3.5,4.6l3.5,20.2
					C1870.4,809.8,1865.3,813.4,1860.7,810.4z"/>
				<circle id="Circle-White-Background-Large" class="st6" cx="1200" cy="847" r="720"/>
				<circle id="Circle-Gray-Background" class="st7" cx="1200" cy="847" r="701.4"/>
				<circle id="Circle-White-Background-small" class="st8" cx="1200" cy="847.2" r="431"/>
				<path id="Naz_x5F_00000139988657508279429980000017720302897179587765_x5F_" class="st9" d="M1597.5,449.6
					c218.8,219.6,218.2,574.9-1.3,793.8s-574.9,218.2-793.8-1.3s-218.2-574.9,1.3-793.8S1378.7,230,1597.5,449.6z"/>
				<text id="Naz">				<textPath  xlink:href="#Naz_x5F_00000139988657508279429980000017720302897179587765_x5F_" startOffset="67.6874%">
<tspan  class="st8" style="font-family:'BrandonGrotesque-Medium'; font-size:281.6736px; letter-spacing:20;">  NAZ</tspan>				</textPath>
</text>
				<path id="Avon_x5F_Park_x5F_00000096771679973780229080000010306784721094355123_x5F_" class="st9" d="M1597.7,449.4
					c218.8,219.6,218.2,574.9-1.3,793.8s-574.9,218.2-793.8-1.3s-218.2-574.9,1.3-793.8S1378.9,229.8,1597.7,449.4z"/>
				<text id="Avon_Park">				<textPath  xlink:href="#Avon_x5F_Park_x5F_00000096771679973780229080000010306784721094355123_x5F_" startOffset="876.2421%">
<tspan  class="st8" style="font-family:'BrandonGrotesque-Medium'; font-size:281.6736px; letter-spacing:40;">  AVON  </tspan><tspan  class="st8" style="font-family:'BrandonGrotesque-Medium'; font-size:281.6736px; letter-spacing:35.1;">PARK</tspan>				</textPath>
</text>
			</g>
			<g id="Bird-Bible">
				<g id="Registered_Mark">
					<path class="st7" d="M942.9,1030.3h-2.8c-0.5,0-0.5,0-0.5,0.5l-0.5,6.5c0,0.5,0,0.5,0.5,0.5h0.5c0.5,0,0.5-0.5,0.5-0.5v-2.5
						h1.4l1.2,2.5l0.5,0.5h0.7c0.5,0,0.5-0.5,0.5-0.7c-0.5-0.7-0.7-1.4-1.2-2.5c0.7,0,1.9-0.7,1.9-2.1S944.2,1030.3,942.9,1030.3z
						 M942.6,1033.8h-1.9v-0.2v-2.1h1.9c0.7,0,1.2,0.5,1.2,1.2C943.8,1033.3,943.3,1033.8,942.6,1033.8z"/>
					<path class="st7" d="M941.7,1027.1c-3.9-0.2-6.9,3-6.9,6.9c0,3.9,3.2,6.9,6.9,6.9c3.7,0,6.9-3.2,6.9-6.9
						C948.6,1030.3,945.4,1027.1,941.7,1027.1z M942.2,1040c-3.7-0.5-6-2.8-6-6c0-3.2,2.8-6,6-6c3.2,0,6,2.5,6,6
						C948.2,1037.3,945.6,1040,942.2,1040z"/>
				</g>
				<g id="Bible">
					<path class="st10" d="M1258.7,1026.1c-2.8,0-46.6-0.5-96.4,0c-41.5,0.5-86.4,0-110.7,0c-0.7,0.5-1.4,0.7-1.9,1.2
						c-0.7,0.7-3.2,13-2.1,13c1.6,0,208.5,0,211,0c0.7-0.2,0.9-0.7,1.4-1.4c1.2-2.8,1.2-8.8,0.5-11.4
						C1260.1,1026.8,1259.1,1026.1,1258.7,1026.1z"/>
					<path class="st10" d="M991.4,1026.1c-0.7,0-4.4,0-4.9,0c-1.4,0-21.1,0-29.2,0c-0.7,0.5-2.1,0.7-2.5,1.6c0,0.7,0,10.7,0,11.3
						c0,0.5,0.9,1.2,2.1,1.2c8.1,0,27.8,0,29.6,0c0.2,0,4.4,0.2,5.6-1.2C992.5,1038.2,996.2,1026.1,991.4,1026.1z"/>
					<path class="st10" d="M1494.2,1026.6c-2.3-0.9-12.7-0.5-16-0.5c-12.3,0-144.3,0-199.4,0c-0.7,0.5-1.6,0.5-1.9,1.2
						c-0.5,0.9-0.5,10.9,0,11.6c0,0.7,0.7,1.4,1.9,1.4c53.7,0,212.2,0.5,214.7,0C1496.1,1039.6,1496.6,1027.5,1494.2,1026.6z"/>
					<path class="st10" d="M1203.8,963.6c-35.7-9.3-117,15.1-178.4,28.5c-22.9,4.9-51.7,8.1-61.2,10.2c-7.6,1.4-6.3,6.9-6.3,9
						c0,2.5,4.2,2.5,4.2,2.5H1257c0,0,2.5,0.2,1.4-2.5C1254.3,1002,1238.3,972.4,1203.8,963.6z"/>
					<path class="st10" d="M1496.3,1008.3c-0.5-1.2-2.1-3.2-3.9-3.5c-6.7-1.4-27.1-4.2-43.1-8.1c-43.3-10.7-98.2-31-122.8-22.7
						c-21.5,6.9-37.1,30.3-41.7,37.8c-1.2,1.9,1.2,2.1,1.2,2.1h208.7c0,0,1.2,0,1.4-0.5c0.5-0.5,1.2-0.7,1.2-1.4
						C1496.6,1011.1,1496.6,1009,1496.3,1008.3z"/>
					<path class="st11" d="M984.6,1065.1c-2.5,2.5-8.6,6.9-8.8,6.9c2.1,2.1,26.2,1.4,28.3,1.4c0.7,3.9-0.5,10.2-4.6,24.3
						c14.8-1.4,32.2-16.2,35.9-34.3c1.2-4.9,2.8-11.4,3.9-16.9c1.4-10,3.2-19.5,3.2-19.7c-13.2-0.2-27.3-0.2-41.2-0.2
						C999.9,1045.4,992.7,1056.7,984.6,1065.1z M1006.4,1043.5c0.5-0.7,0.7-1.4,1.2-1.4h7.4l2.1-7.9c0-0.5,0.7-0.7,1.4-0.7h2.8
						c0.7,0,1.2,0.5,1.2,0.7l-2.1,7.9h7.4c0.9,0.2,0.9,0.9,0.5,1.4l-0.7,2.8c-0.5,0.7-0.7,1.4-1.2,1.4h-7.4l-4.9,16.9
						c0,0.5-0.7,0.7-1.4,0.7h-2.8c-0.7,0-1.2-0.5-1.2-0.7l4.9-16.9h-7.4c-0.5,0-0.5-0.7-0.5-1.4L1006.4,1043.5z"/>
				</g>
				<g id="Bird">
					<path class="st11" d="M1264.7,926.5c-7.4-0.7-6.7,3.5,0,11.6c10.2,13,14.1,1.6,10.9-4.9C1273.5,928.6,1267,926.5,1264.7,926.5z
						"/>
					<path class="st11" d="M1149.6,804.7c-131.3-90.1-107-169.1-107-181.4c0-11.6-18.3,23.6-18.1,44.2
						c-1.4,63.5,58.6,111.6,57.9,111.6c-22.2-5.6-51.2-39.6-61.2-55.1c-0.5-0.7-2.5-2.1-1.2,2.1c2.1,6.7,9.5,26.2,30.3,44.5
						c19,15.3,47,36.8,99.8,36.8C1151.4,807.5,1151,805.6,1149.6,804.7z"/>
					<path class="st11" d="M1298.3,713.7c-19.7-10.2-44.9-15.5-38.9-11.6c0.5,0.5,70.2,48.6,90.1,83.4
						c30.3,53.3-5.3,111.9-16.9,115.4c-0.7,0.5-0.5-3.2-0.5-7.9c2.1-47.9-43.1-93.6-47.9-97.7c-12.3-10-23.6-18.3-34.3-25.7
						c10.7-6,17.4-25.7,11.6-39.1c-8.6-20.8-22.9-29.4-30.8-33.1c-1.9-1.2-6.3-2.5-3.9,1.4c13.7,18.1,3.5,49.1-16.9,43.8
						c-1.9-1.2-3.2-2.5-4.9-3.5c-14.8-14.1-36.6-49.3-8.6-115.1c0.7-0.7,0.5-3.2-2.5,0.5c-4.9,6-16.7,22.7-20.4,50.7
						c-1.2,10.7-1.4,18.8-0.7,25c-6.3-18.1-12.3-55.1,18.1-103.1c-8.1-4.9-110,94.5,12.7,172.6c59.8,37.8,82,62.5,89.4,76.7
						c16,30.3,17.6,71.3,5.6,96.1c-9.3,19-24.3,41.9-26.2,38.5c-4.2-8.6-1.9-35.9-48.6-53c-64.6-23.4-176,12.7-220.5-83.4
						c-21.8-42.4-4.6-99.1-1.2-116.5c0.5-2.8-33.8,10.9-41.2,53.3c-6.7,31-11.6,107.2,78.8,144.8c49.8,20.4,107,18.1,146.9,18.1
						c78.1,0,74.1,50,81.1,62.5c0.5,0.5,0.5,1.2,1.4,0c8.6-8.8,40.5-49.1,61.8-68.8C1462,813.7,1332.8,731.5,1298.3,713.7z"/>
				</g>
			</g>
		</g>
	</g>
</g>
</svg>
