<?xml version="1.0" encoding="utf-8"?>
<!-- Generator: Adobe Illustrator 26.0.1, SVG Export Plug-In . SVG Version: 6.00 Build 0)  -->
<svg version="1.1" xmlns="http://www.w3.org/2000/svg" xmlns:xlink="http://www.w3.org/1999/xlink" x="0px" y="0px"
	 viewBox="0 0 1200 1100" style="enable-background:new 0 0 1200 1100;" xml:space="preserve">
<style type="text/css">
	.st0{display:none;}
	.st1{display:inline;}
	.st2{fill:#FFFFFF;}
</style>
<g id="Background" class="st0">
	<rect id="Background_00000132775817888567325830000015336868771634727046_" class="st1" width="1200" height="1100"/>
</g>
<g id="Bird_White">
	<path id="Bird_eye_lg_00000139976983403245263930000013789327924786694028_" class="st2" d="M875.8,872.5
		c-5.8-11.2-22.5-16.5-29.3-17c-19.6-1.5-17.5,9.1-0.4,29C874,917,884.1,888.3,875.8,872.5z"/>
	<path id="Bird2_00000029736608741884454130000014436236221591422623_" class="st2" d="M273.6,467.9c50.5,38.1,124,92.2,264.3,91.6
		c3.1,0,1.7-4.7-2.2-7C188.4,327,252.2,128.1,252.2,97.6c0-29.3-48.8,59.3-47.3,110.4c-3.5,159.8,155,279.9,153.2,279.5
		C299,473.2,222.9,388.2,196,349.2c-1.2-1.6-6.9-4.9-3.2,5.4C199.1,373.9,218.5,422,273.6,467.9z"/>
	<path id="Bird1_00000095317628858607206720000002578148890894704021_" class="st2" d="M930.1,325.6
		c-52.5-25.4-118.8-38.9-102.4-29.4c0.9,0.6,185.9,122.5,238,209.2c80.4,133.8-14.4,280.4-44.4,289.4c-1.9,0.6-0.8-7.6-0.5-19.1
		c5.2-120.6-113.7-235-127.3-245.5c-32.4-25.1-62.7-46.3-90.9-65c28.2-14.8,45.6-64.5,31.1-98C811.1,315,773,293,752.9,283.3
		c-5.1-2.5-17.5-6.2-10.8,3.2c36.2,45.3,9.3,123.9-45.1,110.2c-4.3-2.9-8.6-5.8-12.7-8.7c-38.9-35.7-96.8-124-22.2-288.3
		c1.5-2.1,0.5-8.5-6.3,0.1c-13.2,15.4-44.1,57.1-54.6,128c-2.8,26.2-3.6,46.6-2.1,63.2c-16.6-44.9-33.1-139.1,47.5-258.9
		c-21.2-12.6-291.2,237.9,33.2,433.3c157.6,95,216.5,156.9,236.1,192.4c42.1,76.2,46.7,179,14.9,241.2
		c-24.7,48.2-64.2,105.8-68.9,97c-11.4-21.4-4.3-90.4-128.7-133.1c-171.1-58.7-466,32-583.8-209.2c-58.3-106.3-12-249.2-3-292.6
		c1.4-6.8-89.8,27.2-109.5,133.3c-18.1,77.6-31,269.1,208.7,362.6c131.7,51.4,282.8,45.3,388.7,45.5
		c206.3,0.3,193.5,119.7,211.8,150.2c0.5,0.8,4.5,9.3,7.1,6.5c27.3-13.4,107.3-122.2,163.4-172.1
		C1363.9,577.3,1021.7,369.9,930.1,325.6z"/>
</g>
<g id="Bird_Black" class="st0">
	<path id="Bird_eye_lg_00000093153663740680004260000012829700541056924342_" class="st1" d="M875.8,872.5
		c-5.8-11.2-22.5-16.5-29.3-17c-19.6-1.5-17.5,9.1-0.4,29C874,917,884.1,888.3,875.8,872.5z"/>
	<path id="Bird2_00000122680924740017709740000011670148935974499456_" class="st1" d="M273.6,467.9c50.5,38.1,124,92.2,264.3,91.6
		c3.1,0,1.7-4.7-2.2-7C188.4,327,252.2,128.1,252.2,97.6c0-29.3-48.8,59.3-47.3,110.4c-3.5,159.8,155,279.9,153.2,279.5
		C299,473.2,222.9,388.2,196,349.2c-1.2-1.6-6.9-4.9-3.2,5.4C199.1,373.9,218.5,422,273.6,467.9z"/>
	<path id="Bird1_00000160154197706315064100000008316407788755345796_" class="st1" d="M930.1,325.6
		c-52.5-25.4-118.8-38.9-102.4-29.4c0.9,0.6,185.9,122.5,238,209.2c80.4,133.8-14.4,280.4-44.4,289.4c-1.9,0.6-0.8-7.6-0.5-19.1
		c5.2-120.6-113.7-235-127.3-245.5c-32.4-25.1-62.7-46.3-90.9-65c28.2-14.8,45.6-64.5,31.1-98C811.1,315,773,293,752.9,283.3
		c-5.1-2.5-17.5-6.2-10.8,3.2c36.2,45.3,9.3,123.9-45.1,110.2c-4.3-2.9-8.6-5.8-12.7-8.7c-38.9-35.7-96.8-124-22.2-288.3
		c1.5-2.1,0.5-8.5-6.3,0.1c-13.2,15.4-44.1,57.1-54.6,128c-2.8,26.2-3.6,46.6-2.1,63.2c-16.6-44.9-33.1-139.1,47.5-258.9
		c-21.2-12.6-291.2,237.9,33.2,433.3c157.6,95,216.5,156.9,236.1,192.4c42.1,76.2,46.7,179,14.9,241.2
		c-24.7,48.2-64.2,105.8-68.9,97c-11.4-21.4-4.3-90.4-128.7-133.1c-171.1-58.7-466,32-583.8-209.2c-58.3-106.3-12-249.2-3-292.6
		c1.4-6.8-89.8,27.2-109.5,133.3c-18.1,77.6-31,269.1,208.7,362.6c131.7,51.4,282.8,45.3,388.7,45.5
		c206.3,0.3,193.5,119.7,211.8,150.2c0.5,0.8,4.5,9.3,7.1,6.5c27.3-13.4,107.3-122.2,163.4-172.1
		C1363.9,577.3,1021.7,369.9,930.1,325.6z"/>
</g>
</svg>
