<?xml version="1.0" encoding="utf-8"?>
<!-- Generator: Adobe Illustrator 26.0.1, SVG Export Plug-In . SVG Version: 6.00 Build 0)  -->
<svg version="1.1" id="Contact" xmlns="http://www.w3.org/2000/svg" xmlns:xlink="http://www.w3.org/1999/xlink" x="0px" y="0px"
	 viewBox="0 0 650.4 487.5" style="enable-background:new 0 0 650.4 487.5;" xml:space="preserve">
<style type="text/css">
	.st0{display:none;}
	.st1{fill:#C69C6D;}
	.st2{fill:#FFFFFF;stroke:#000000;stroke-width:0.5;stroke-miterlimit:10;}
	.st3{stroke:#FFFFFF;stroke-width:0.25;stroke-miterlimit:10;}
</style>
<g id="Background" class="st0">
	<rect class="st1" width="650.4" height="500.5"/>
</g>
<g id="Pastors">
	<g id="Patricia_Bridewell">
		<path class="st2" d="M109.1,215.5c0-0.6,0.5-1.2,1.2-1.2h15.3c8,0,14.5,6.5,14.5,14.3c0,8-6.6,14.5-14.5,14.5h-8.1v15.2
			c0,0.6-0.6,1.2-1.2,1.2h-6c-0.7,0-1.2-0.6-1.2-1.2V215.5z M125,235.2c3.6,0,6.7-2.9,6.7-6.7c0-3.5-3.1-6.3-6.7-6.3h-7.5v13H125z"
			/>
		<path class="st2" d="M151.8,243.1c2.6,0,4.7,0.7,4.7,0.7c0.1-3.3-1-4.5-3.4-4.5c-2.4,0-5.8,0.5-7.3,1c-0.9,0.3-1.4-0.3-1.5-1.2
			l-0.6-3.4c-0.2-1,0.3-1.4,0.9-1.6c0.5-0.2,4.7-1.2,8.8-1.2c8.1,0,10,4.2,10,11.2v14c0,0.6-0.6,1.2-1.2,1.2H160
			c-0.5,0-0.8-0.2-1.1-0.9l-0.8-1.7c-1.5,1.4-3.9,3.3-7.9,3.3c-5.2,0-8.8-3.4-8.8-8.8C141.5,246.7,145.2,243.1,151.8,243.1z
			 M152,254.6c2.1,0,4.1-1.7,4.5-2.5v-3.5c0,0-1.8-0.8-3.6-0.8c-2.5,0-4.2,1.4-4.2,3.5C148.6,253.2,150,254.6,152,254.6z"/>
		<path class="st2" d="M172.4,240.4h-2.2c-0.6,0-1.2-0.6-1.2-1.2v-4.3c0-0.7,0.5-1.2,1.2-1.2h2.2v-7.2c0-0.6,0.6-1.2,1.2-1.2
			l5.3-0.1c0.6,0,1.2,0.6,1.2,1.2v7.2h5.7c0.7,0,1.2,0.5,1.2,1.2v4.3c0,0.6-0.5,1.2-1.2,1.2h-5.7v10.3c0,1.8,1,2.1,2,2.1
			c1.1,0,2.5-0.5,3.2-0.7c0.7-0.3,1.2,0.1,1.4,0.7l1.3,4.1c0.3,0.6-0.1,1.3-0.7,1.5c-0.3,0.2-4.5,1.7-7.7,1.7c-5,0-7.2-3.1-7.2-8.3
			V240.4z"/>
		<path class="st2" d="M193.5,234.9c0-0.7,0.6-1.2,1.2-1.2h2.5c0.6,0,1,0.3,1.2,0.8l0.9,2.5c0.9-1.3,3.3-4,7.3-4c3.1,0,5.8,1,5,2.6
			l-2.4,4.2c-0.3,0.6-1,0.8-1.5,0.6c-0.2-0.1-1.2-0.4-1.9-0.4c-2.6,0-4.2,1.7-4.6,2.6v15.6c0,0.9-0.6,1.2-1.5,1.2h-5
			c-0.6,0-1.2-0.6-1.2-1.2V234.9z"/>
		<path class="st2" d="M215,220c0-2.5,1.9-4.5,4.4-4.5c2.5,0,4.5,2,4.5,4.5c0,2.5-2,4.5-4.5,4.5C217,224.5,215,222.5,215,220z
			 M215.6,234.9c0-0.7,0.6-1.2,1.2-1.2h5.4c0.6,0,1.2,0.5,1.2,1.2v23.4c0,0.6-0.6,1.2-1.2,1.2h-5.4c-0.6,0-1.2-0.6-1.2-1.2V234.9z"
			/>
		<path class="st2" d="M243.1,233c4,0,7.1,1.6,9.6,4.6c0.5,0.6,0.3,1.4-0.3,1.8l-3,2.8c-0.6,0.5-1.2,0.2-1.6-0.2
			c-1-1.2-2.7-2.1-4.5-2.1c-3.5,0-6.4,3-6.4,6.6c0,3.7,2.8,6.6,6.3,6.6c2.8,0,4-1.4,5.2-2.5c0.5-0.5,1.1-0.6,1.6-0.2l2.8,2.4
			c0.6,0.5,0.9,1.2,0.5,1.8c-2.2,3.4-5.6,5.4-10.3,5.4c-7.3,0-13.8-5.8-13.8-13.5C229.2,238.9,235.8,233,243.1,233z"/>
		<path class="st2" d="M258.3,220c0-2.5,1.9-4.5,4.4-4.5c2.5,0,4.5,2,4.5,4.5c0,2.5-2,4.5-4.5,4.5
			C260.3,224.5,258.3,222.5,258.3,220z M258.9,234.9c0-0.7,0.6-1.2,1.2-1.2h5.4c0.6,0,1.2,0.5,1.2,1.2v23.4c0,0.6-0.6,1.2-1.2,1.2
			h-5.4c-0.6,0-1.2-0.6-1.2-1.2V234.9z"/>
		<path class="st2" d="M283.1,243.1c2.6,0,4.7,0.7,4.7,0.7c0.1-3.3-1-4.5-3.4-4.5c-2.4,0-5.8,0.5-7.3,1c-0.9,0.3-1.4-0.3-1.5-1.2
			l-0.6-3.4c-0.2-1,0.3-1.4,0.9-1.6c0.5-0.2,4.7-1.2,8.8-1.2c8.1,0,10,4.2,10,11.2v14c0,0.6-0.6,1.2-1.2,1.2h-2.3
			c-0.5,0-0.8-0.2-1.1-0.9l-0.8-1.7c-1.5,1.4-3.9,3.3-7.9,3.3c-5.2,0-8.8-3.4-8.8-8.8C272.7,246.7,276.4,243.1,283.1,243.1z
			 M283.2,254.6c2.1,0,4.1-1.7,4.5-2.5v-3.5c0,0-1.8-0.8-3.6-0.8c-2.5,0-4.2,1.4-4.2,3.5C279.8,253.2,281.2,254.6,283.2,254.6z"/>
		<path class="st2" d="M318.6,215.5c0-0.6,0.5-1.2,1.2-1.2h14.9c7.7,0,13.7,5.2,13.7,11.9c0,5-4.1,8.8-7.1,10.3
			c3.4,1.1,8.4,4.6,8.4,10.5c0,7.2-6.2,12.5-14.2,12.5h-15.7c-0.7,0-1.2-0.6-1.2-1.2V215.5z M334,233.2c3.3,0,5.6-2.6,5.6-5.8
			s-2.3-5.5-5.6-5.5H327v11.3H334z M334.9,251.8c3.2,0,5.8-2.5,5.8-5.9c0-3.2-3.2-5.6-6.6-5.6H327v11.5H334.9z"/>
		<path class="st2" d="M355.6,234.9c0-0.7,0.6-1.2,1.2-1.2h2.5c0.6,0,1,0.3,1.2,0.8l0.9,2.5c0.9-1.3,3.3-4,7.3-4c3.1,0,5.8,1,5,2.6
			l-2.4,4.2c-0.3,0.6-1,0.8-1.5,0.6c-0.2-0.1-1.2-0.4-1.9-0.4c-2.6,0-4.2,1.7-4.6,2.6v15.6c0,0.9-0.6,1.2-1.5,1.2h-5
			c-0.6,0-1.2-0.6-1.2-1.2V234.9z"/>
		<path class="st2" d="M377.1,220c0-2.5,1.9-4.5,4.4-4.5c2.5,0,4.5,2,4.5,4.5c0,2.5-2,4.5-4.5,4.5
			C379.1,224.5,377.1,222.5,377.1,220z M377.7,234.9c0-0.7,0.6-1.2,1.2-1.2h5.4c0.6,0,1.2,0.5,1.2,1.2v23.4c0,0.6-0.6,1.2-1.2,1.2
			H379c-0.6,0-1.2-0.6-1.2-1.2V234.9z"/>
		<path class="st2" d="M404.3,233c2.6,0,4.6,0.7,5.8,1.2v-18.6c0-0.6,0.6-1.2,1.2-1.2h5.5c0.6,0,1.2,0.6,1.2,1.2v42.7
			c0,0.6-0.6,1.2-1.2,1.2h-2.5c-0.6,0-1-0.5-1.2-1.2l-0.6-2c0,0-3.1,3.9-8.5,3.9c-7.1,0-12.5-6.1-12.5-13.5
			C391.4,239,396.5,233,404.3,233z M404.9,253.1c3.4,0,5-2.6,5.5-4.2v-7.5c0,0-1.8-1.5-5.1-1.5c-3.6,0-6.3,3-6.3,6.6
			S401.4,253.1,404.9,253.1z"/>
		<path class="st2" d="M437.1,233c6.7,0,12.1,5,12.1,12c0,0.5-0.1,1.3-0.1,1.7c-0.1,0.6-0.6,1.1-1.2,1.1h-16.6
			c0.2,2.6,2.5,5.6,6.2,5.6c2,0,3.9-0.8,5.1-1.6c0.6-0.4,1.2-0.5,1.7,0l2.7,3c0.5,0.5,0.6,1.2-0.1,1.7c-2.1,2-5.5,3.5-9.7,3.5
			c-7.8,0-13.3-6.1-13.3-13.5C423.9,239.2,429.4,233,437.1,233z M441.7,243.3c-0.2-2.4-2.3-4.4-4.7-4.4c-2.6,0-4.7,1.9-5.1,4.4
			H441.7z"/>
		<path class="st2" d="M452,235.1c-0.4-0.8,0.2-1.5,1.1-1.5h4.7c0.4,0,1,0.3,1.2,0.8l3.9,11.5h0.1l6.6-12.4c0.1-0.3,0.5-0.6,1-0.6
			h0.5c0.6,0,0.8,0.3,1,0.6l6.6,12.4h0.1l3.9-11.5c0.3-0.7,0.8-0.8,1.5-0.8h4.2c0.9,0,1.5,0.6,1.2,1.5l-8.1,24.3
			c-0.1,0.4-0.5,0.7-1.2,0.7H480c-0.5,0-0.8-0.3-1-0.6l-8.2-15h-0.1l-8.1,15c-0.2,0.3-0.5,0.6-1,0.6h-0.3c-0.6,0-1-0.3-1.1-0.7
			L452,235.1z"/>
		<path class="st2" d="M506,233c6.7,0,12.1,5,12.1,12c0,0.5-0.1,1.3-0.1,1.7c-0.1,0.6-0.6,1.1-1.2,1.1h-16.6
			c0.2,2.6,2.5,5.6,6.2,5.6c2,0,3.9-0.8,5.1-1.6c0.6-0.4,1.2-0.5,1.7,0l2.7,3c0.5,0.5,0.6,1.2-0.1,1.7c-2.1,2-5.5,3.5-9.7,3.5
			c-7.8,0-13.3-6.1-13.3-13.5C492.8,239.2,498.3,233,506,233z M510.6,243.3c-0.2-2.4-2.3-4.4-4.7-4.4c-2.6,0-4.7,1.9-5.1,4.4H510.6z
			"/>
		<path class="st2" d="M523.6,215.5c0-0.6,0.6-1.2,1.2-1.2h5.5c0.6,0,1.2,0.6,1.2,1.2v42.7c0,0.6-0.6,1.2-1.2,1.2h-5.5
			c-0.6,0-1.2-0.6-1.2-1.2V215.5z"/>
		<path class="st2" d="M539.3,215.5c0-0.6,0.6-1.2,1.2-1.2h5.5c0.6,0,1.2,0.6,1.2,1.2v42.7c0,0.6-0.6,1.2-1.2,1.2h-5.5
			c-0.6,0-1.2-0.6-1.2-1.2V215.5z"/>
	</g>
	<g id="Associate_Pastor">
		<path class="st3" d="M103.3,183.7l15.5-33.4c0.1-0.3,0.4-0.5,0.8-0.5h0.5c0.5,0,0.7,0.2,0.8,0.5l15.4,33.4
			c0.3,0.6-0.1,1.3-0.8,1.3h-4.3c-0.7,0-1.1-0.3-1.4-1l-2.4-5.4h-14.9l-2.4,5.4c-0.2,0.5-0.6,1-1.4,1h-4.3
			C103.4,185,103,184.3,103.3,183.7z M124.8,173.1l-5-10.9h-0.1l-4.9,10.9H124.8z"/>
		<path class="st3" d="M138.3,182.6l1.3-2.7c0.2-0.5,0.7-0.6,1.1-0.3c0,0,2.2,1.2,4.5,1.2c1,0,1.7-0.4,1.7-1.2
			c0-0.9-0.7-1.4-3.3-2.5c-3.8-1.5-5.6-3.5-5.6-6.5c0-3,2.2-5.9,7.3-5.9c2.9,0,5.1,0.8,6.1,1.5c0.4,0.3,0.7,0.8,0.4,1.3l-1.2,2.5
			c-0.2,0.4-0.8,0.5-1.2,0.3c0,0-2.2-1-4.1-1c-1.2,0-1.7,0.5-1.7,1.1c0,0.9,0.9,1.2,2.7,1.9c3.8,1.5,6.7,3.1,6.7,7
			c0,3.3-2.9,6.1-7.9,6.1c-3.3,0-5.6-1-6.6-1.8C138.3,183.4,138.1,183,138.3,182.6z"/>
		<path class="st3" d="M156.4,182.6l1.3-2.7c0.2-0.5,0.7-0.6,1.1-0.3c0,0,2.2,1.2,4.5,1.2c1,0,1.7-0.4,1.7-1.2
			c0-0.9-0.7-1.4-3.3-2.5c-3.8-1.5-5.6-3.5-5.6-6.5c0-3,2.2-5.9,7.3-5.9c2.9,0,5.1,0.8,6.1,1.5c0.4,0.3,0.7,0.8,0.4,1.3l-1.2,2.5
			c-0.2,0.4-0.8,0.5-1.2,0.3c0,0-2.2-1-4.1-1c-1.2,0-1.7,0.5-1.7,1.1c0,0.9,0.9,1.2,2.7,1.9c3.8,1.5,6.7,3.1,6.7,7
			c0,3.3-2.9,6.1-7.9,6.1c-3.3,0-5.6-1-6.6-1.8C156.4,183.4,156.2,183,156.4,182.6z"/>
		<path class="st3" d="M184.4,164.6c5.6,0,10.2,4.8,10.2,10.4c0,5.7-4.6,10.5-10.2,10.5s-10.2-4.8-10.2-10.5
			C174.2,169.4,178.8,164.6,184.4,164.6z M184.4,180.1c2.6,0,4.8-2.3,4.8-5.1c0-2.8-2.1-5-4.8-5c-2.7,0-4.8,2.2-4.8,5
			C179.6,177.8,181.7,180.1,184.4,180.1z"/>
		<path class="st3" d="M208.2,164.6c3.1,0,5.5,1.2,7.4,3.5c0.3,0.4,0.2,1-0.2,1.4l-2.3,2.2c-0.4,0.4-0.9,0.1-1.2-0.1
			c-0.8-0.9-2-1.6-3.4-1.6c-2.7,0-4.9,2.3-4.9,5.1c0,2.8,2.1,5.1,4.8,5.1c2.1,0,3.1-1,4-1.9c0.3-0.3,0.8-0.4,1.2-0.1l2.1,1.8
			c0.5,0.4,0.7,0.9,0.3,1.4c-1.7,2.6-4.3,4.2-7.9,4.2c-5.6,0-10.6-4.5-10.6-10.4C197.5,169.2,202.6,164.6,208.2,164.6z"/>
		<path class="st3" d="M219.9,154.6c0-1.9,1.5-3.4,3.4-3.4c1.9,0,3.5,1.5,3.5,3.4s-1.5,3.4-3.5,3.4
			C221.4,158.1,219.9,156.5,219.9,154.6z M220.4,166c0-0.5,0.4-0.9,0.9-0.9h4.1c0.5,0,0.9,0.4,0.9,0.9v18c0,0.5-0.4,0.9-0.9,0.9
			h-4.1c-0.5,0-0.9-0.4-0.9-0.9V166z"/>
		<path class="st3" d="M238.9,172.4c2,0,3.6,0.5,3.6,0.5c0.1-2.5-0.7-3.4-2.6-3.4c-1.8,0-4.4,0.4-5.6,0.7c-0.7,0.2-1-0.2-1.1-0.9
			l-0.4-2.6c-0.1-0.7,0.2-1.1,0.7-1.2c0.4-0.1,3.6-0.9,6.8-0.9c6.2,0,7.7,3.2,7.7,8.6V184c0,0.5-0.4,0.9-0.9,0.9h-1.8
			c-0.3,0-0.6-0.1-0.8-0.7l-0.6-1.3c-1.1,1-3,2.5-6.1,2.5c-4,0-6.7-2.6-6.7-6.8C231,175.1,233.9,172.4,238.9,172.4z M239,181.2
			c1.6,0,3.1-1.3,3.4-1.9v-2.7c0,0-1.3-0.6-2.8-0.6c-1.9,0-3.2,1.1-3.2,2.7C236.4,180.1,237.5,181.2,239,181.2z"/>
		<path class="st3" d="M254.8,170.3h-1.7c-0.5,0-0.9-0.4-0.9-0.9V166c0-0.5,0.4-0.9,0.9-0.9h1.7v-5.5c0-0.5,0.4-0.9,0.9-0.9l4.1,0
			c0.5,0,0.9,0.4,0.9,0.9v5.6h4.4c0.5,0,0.9,0.4,0.9,0.9v3.3c0,0.5-0.4,0.9-0.9,0.9h-4.4v7.9c0,1.4,0.7,1.6,1.5,1.6
			c0.8,0,1.9-0.3,2.4-0.5c0.5-0.2,0.9,0,1.1,0.5l1,3.1c0.2,0.5-0.1,1-0.5,1.2c-0.2,0.1-3.5,1.3-5.9,1.3c-3.8,0-5.5-2.4-5.5-6.4
			V170.3z"/>
		<path class="st3" d="M279.6,164.6c5.1,0,9.3,3.9,9.3,9.2c0,0.3,0,1-0.1,1.3c0,0.5-0.5,0.8-0.9,0.8h-12.8c0.1,2,1.9,4.3,4.8,4.3
			c1.5,0,3-0.6,3.9-1.2c0.5-0.3,0.9-0.4,1.3,0l2,2.3c0.3,0.3,0.4,0.9,0,1.3c-1.6,1.5-4.2,2.7-7.4,2.7c-6,0-10.2-4.7-10.2-10.4
			C269.5,169.4,273.7,164.6,279.6,164.6z M283.1,172.5c-0.1-1.8-1.7-3.4-3.6-3.4c-2,0-3.6,1.5-3.9,3.4H283.1z"/>
		<path class="st3" d="M305.8,151.2c0-0.5,0.4-0.9,0.9-0.9h11.7c6.1,0,11.2,5,11.2,11c0,6.2-5,11.2-11.1,11.2h-6.2V184
			c0,0.5-0.4,0.9-0.9,0.9h-4.6c-0.5,0-0.9-0.4-0.9-0.9V151.2z M318.1,166.3c2.8,0,5.1-2.2,5.1-5.2c0-2.7-2.3-4.8-5.1-4.8h-5.8v10
			H318.1z"/>
		<path class="st3" d="M338.7,172.4c2,0,3.6,0.5,3.6,0.5c0.1-2.5-0.7-3.4-2.6-3.4c-1.8,0-4.4,0.4-5.6,0.7c-0.7,0.2-1-0.2-1.1-0.9
			l-0.4-2.6c-0.1-0.7,0.2-1.1,0.7-1.2c0.4-0.1,3.6-0.9,6.8-0.9c6.2,0,7.7,3.2,7.7,8.6V184c0,0.5-0.4,0.9-0.9,0.9H345
			c-0.3,0-0.6-0.1-0.8-0.7l-0.6-1.3c-1.1,1-3,2.5-6.1,2.5c-4,0-6.7-2.6-6.7-6.8C330.7,175.1,333.6,172.4,338.7,172.4z M338.8,181.2
			c1.6,0,3.1-1.3,3.4-1.9v-2.7c0,0-1.3-0.6-2.8-0.6c-1.9,0-3.2,1.1-3.2,2.7C336.2,180.1,337.2,181.2,338.8,181.2z"/>
		<path class="st3" d="M352.4,182.6l1.3-2.7c0.2-0.5,0.7-0.6,1.1-0.3c0,0,2.2,1.2,4.5,1.2c1,0,1.7-0.4,1.7-1.2
			c0-0.9-0.7-1.4-3.3-2.5c-3.8-1.5-5.6-3.5-5.6-6.5c0-3,2.2-5.9,7.3-5.9c2.9,0,5.1,0.8,6.1,1.5c0.4,0.3,0.7,0.8,0.4,1.3l-1.2,2.5
			c-0.2,0.4-0.8,0.5-1.2,0.3c0,0-2.2-1-4.1-1c-1.2,0-1.7,0.5-1.7,1.1c0,0.9,0.9,1.2,2.7,1.9c3.8,1.5,6.7,3.1,6.7,7
			c0,3.3-2.9,6.1-7.9,6.1c-3.3,0-5.6-1-6.6-1.8C352.4,183.4,352.2,183,352.4,182.6z"/>
		<path class="st3" d="M372.7,170.3H371c-0.5,0-0.9-0.4-0.9-0.9V166c0-0.5,0.4-0.9,0.9-0.9h1.7v-5.5c0-0.5,0.4-0.9,0.9-0.9l4.1,0
			c0.5,0,0.9,0.4,0.9,0.9v5.6h4.4c0.5,0,0.9,0.4,0.9,0.9v3.3c0,0.5-0.4,0.9-0.9,0.9h-4.4v7.9c0,1.4,0.7,1.6,1.5,1.6
			c0.8,0,1.9-0.3,2.4-0.5c0.5-0.2,0.9,0,1.1,0.5l1,3.1c0.2,0.5-0.1,1-0.5,1.2c-0.2,0.1-3.5,1.3-5.9,1.3c-3.8,0-5.5-2.4-5.5-6.4
			V170.3z"/>
		<path class="st3" d="M397.6,164.6c5.6,0,10.2,4.8,10.2,10.4c0,5.7-4.6,10.5-10.2,10.5s-10.2-4.8-10.2-10.5
			C387.3,169.4,391.9,164.6,397.6,164.6z M397.6,180.1c2.6,0,4.8-2.3,4.8-5.1c0-2.8-2.1-5-4.8-5c-2.7,0-4.8,2.2-4.8,5
			C392.8,177.8,394.9,180.1,397.6,180.1z"/>
		<path class="st3" d="M412.2,166c0-0.5,0.4-0.9,0.9-0.9h1.9c0.4,0,0.7,0.2,0.9,0.6l0.7,1.9c0.7-1,2.5-3.1,5.6-3.1
			c2.3,0,4.4,0.7,3.8,2l-1.8,3.2c-0.2,0.4-0.7,0.6-1.1,0.4c-0.1,0-0.9-0.3-1.4-0.3c-2,0-3.2,1.3-3.5,2v12c0,0.7-0.4,0.9-1.1,0.9
			h-3.8c-0.5,0-0.9-0.4-0.9-0.9V166z"/>
		<path class="st3" d="M429.4,168.2c0-2,1.6-3.6,3.6-3.6c2,0,3.6,1.6,3.6,3.6s-1.6,3.6-3.6,3.6C431,171.8,429.4,170.2,429.4,168.2z
			 M433,178.3c2,0,3.6,1.6,3.6,3.6s-1.6,3.6-3.6,3.6c-2,0-3.6-1.6-3.6-3.6S431,178.3,433,178.3z"/>
	</g>
	<g id="Curt_Napier">
		<path class="st2" d="M129.2,71.6c6.6,0,11.3,2.1,15.7,6c0.6,0.5,0.6,1.3,0.1,1.8l-4,4.1c-0.5,0.5-1.1,0.5-1.6,0
			c-2.7-2.4-6.4-3.8-10-3.8c-8.3,0-14.5,6.9-14.5,15c0,8.1,6.2,14.9,14.5,14.9c3.9,0,7.2-1.5,9.9-3.7c0.5-0.5,1.2-0.4,1.6,0l4,4.1
			c0.5,0.5,0.4,1.3-0.1,1.7c-4.4,4.3-10,6.3-15.8,6.3c-13,0-23.4-10.3-23.4-23.2S116.2,71.6,129.2,71.6z"/>
		<path class="st2" d="M149.6,92.8c0-0.7,0.6-1.2,1.2-1.2h5.3c0.6,0,1.2,0.5,1.2,1.2v12.7c0,3.4,1.8,5.5,4.7,5.5
			c2.7,0,4.8-2.5,5.2-4.8V92.8c0-1,0.4-1.2,1.4-1.2h4.9c0.6,0,1.2,0.5,1.2,1.2v23.4c0,0.6-0.6,1.2-1.2,1.2h-2.4c-0.6,0-1-0.5-1.2-1
			l-0.8-2.1c-1.2,1-3.6,3.7-8.7,3.7c-8.1,0-11-6.1-11-12.7V92.8z"/>
		<path class="st2" d="M182.8,92.8c0-0.7,0.6-1.2,1.2-1.2h2.5c0.6,0,1,0.3,1.2,0.8l0.9,2.5c0.9-1.3,3.3-4,7.3-4c3.1,0,5.8,1,5,2.6
			l-2.4,4.2c-0.3,0.6-1,0.8-1.5,0.6c-0.2-0.1-1.2-0.4-1.9-0.4c-2.6,0-4.2,1.7-4.6,2.6v15.6c0,0.9-0.6,1.2-1.5,1.2h-5
			c-0.6,0-1.2-0.6-1.2-1.2V92.8z"/>
		<path class="st2" d="M206.3,98.4H204c-0.6,0-1.2-0.6-1.2-1.2v-4.3c0-0.7,0.5-1.2,1.2-1.2h2.2v-7.2c0-0.6,0.6-1.2,1.2-1.2l5.3-0.1
			c0.6,0,1.2,0.6,1.2,1.2v7.2h5.7c0.7,0,1.2,0.5,1.2,1.2v4.3c0,0.6-0.5,1.2-1.2,1.2H214v10.3c0,1.8,1,2.1,2,2.1
			c1.1,0,2.5-0.5,3.2-0.7c0.7-0.3,1.2,0.1,1.4,0.7l1.3,4.1c0.3,0.6-0.1,1.3-0.7,1.5c-0.3,0.2-4.5,1.7-7.7,1.7c-5,0-7.2-3.1-7.2-8.3
			V98.4z"/>
		<path class="st2" d="M243.6,72.8c0-0.6,0.6-1.2,1.2-1.2h1.6l27,28.5h0.1V73.5c0-0.6,0.5-1.2,1.2-1.2h6c0.6,0,1.2,0.6,1.2,1.2v43.4
			c0,0.6-0.6,1.2-1.2,1.2h-1.6l-27.1-29.6H252v27.7c0,0.6-0.5,1.2-1.2,1.2h-5.9c-0.6,0-1.2-0.6-1.2-1.2V72.8z"/>
		<path class="st2" d="M298.7,101.1c2.6,0,4.7,0.7,4.7,0.7c0.1-3.3-1-4.5-3.4-4.5c-2.4,0-5.8,0.5-7.3,1c-0.9,0.3-1.4-0.3-1.5-1.2
			l-0.6-3.4c-0.2-1,0.3-1.4,0.9-1.6c0.5-0.2,4.7-1.2,8.8-1.2c8.1,0,10,4.2,10,11.2v14c0,0.6-0.6,1.2-1.2,1.2h-2.3
			c-0.5,0-0.8-0.2-1.1-0.9l-0.8-1.7c-1.5,1.4-3.9,3.3-7.9,3.3c-5.2,0-8.8-3.4-8.8-8.8C288.3,104.6,292.1,101.1,298.7,101.1z
			 M298.8,112.6c2.1,0,4.1-1.7,4.5-2.5v-3.5c0,0-1.8-0.8-3.6-0.8c-2.5,0-4.2,1.4-4.2,3.5C295.5,111.1,296.8,112.6,298.8,112.6z"/>
		<path class="st2" d="M325.9,135.5c0,0.8-0.4,1.2-1.6,1.2h-5.2c-0.6,0-1.2-0.6-1.2-1.2V92.8c0-0.7,0.6-1.2,1.2-1.2h2.5
			c0.5,0,0.9,0.3,1.1,0.8l0.8,2.1c1-1.3,4.2-3.5,8.4-3.5c7.1,0,12.5,6.1,12.5,13.5c0,7.6-5.8,13.5-12.9,13.5c-2.5,0-4.9-0.9-5.8-1.4
			V135.5z M330.6,111.1c3.6,0,6.3-3,6.3-6.6s-2.5-6.6-6-6.6c-3.3,0-4.9,2.6-5.3,3.9v7.7C325.6,109.6,327.4,111.1,330.6,111.1z"/>
		<path class="st2" d="M349.8,78c0-2.5,1.9-4.5,4.4-4.5c2.5,0,4.5,2,4.5,4.5c0,2.5-2,4.5-4.5,4.5C351.7,82.4,349.8,80.4,349.8,78z
			 M350.4,92.8c0-0.7,0.6-1.2,1.2-1.2h5.4c0.6,0,1.2,0.5,1.2,1.2v23.4c0,0.6-0.6,1.2-1.2,1.2h-5.4c-0.6,0-1.2-0.6-1.2-1.2V92.8z"/>
		<path class="st2" d="M377.3,91c6.7,0,12.1,5,12.1,12c0,0.5-0.1,1.3-0.1,1.7c-0.1,0.6-0.6,1.1-1.2,1.1h-16.6
			c0.2,2.6,2.5,5.6,6.2,5.6c2,0,3.9-0.8,5.1-1.6c0.6-0.4,1.2-0.5,1.7,0l2.7,3c0.5,0.5,0.6,1.2-0.1,1.7c-2.1,2-5.5,3.5-9.7,3.5
			c-7.8,0-13.3-6.1-13.3-13.5C364.1,97.2,369.6,91,377.3,91z M381.9,101.3c-0.2-2.4-2.3-4.4-4.7-4.4c-2.6,0-4.7,1.9-5.1,4.4H381.9z"
			/>
		<path class="st2" d="M394.9,92.8c0-0.7,0.6-1.2,1.2-1.2h2.5c0.6,0,1,0.3,1.2,0.8l0.9,2.5c0.9-1.3,3.3-4,7.3-4c3.1,0,5.8,1,5,2.6
			l-2.4,4.2c-0.3,0.6-1,0.8-1.5,0.6c-0.2-0.1-1.2-0.4-1.9-0.4c-2.6,0-4.2,1.7-4.6,2.6v15.6c0,0.9-0.6,1.2-1.5,1.2h-5
			c-0.6,0-1.2-0.6-1.2-1.2V92.8z"/>
	</g>
	<g id="Lead_Pastor">
		<path class="st3" d="M107.7,9.1c0-0.5,0.4-0.9,0.9-0.9h4.6c0.5,0,0.9,0.4,0.9,0.9V37h12.7c0.5,0,0.9,0.4,0.9,0.9V42
			c0,0.5-0.4,0.9-0.9,0.9h-18.3c-0.5,0-0.9-0.4-0.9-0.9V9.1z"/>
		<path class="st3" d="M140.1,22.6c5.1,0,9.3,3.9,9.3,9.2c0,0.3,0,1-0.1,1.3c0,0.5-0.5,0.8-0.9,0.8h-12.8c0.1,2,1.9,4.3,4.8,4.3
			c1.5,0,3-0.6,3.9-1.2c0.5-0.3,0.9-0.4,1.3,0l2,2.3c0.3,0.3,0.4,0.9,0,1.3c-1.6,1.5-4.2,2.7-7.4,2.7c-6,0-10.2-4.7-10.2-10.4
			C129.9,27.4,134.1,22.6,140.1,22.6z M143.6,30.5c-0.1-1.8-1.7-3.4-3.6-3.4c-2,0-3.6,1.5-3.9,3.4H143.6z"/>
		<path class="st3" d="M160.1,30.4c2,0,3.6,0.5,3.6,0.5c0.1-2.5-0.7-3.4-2.6-3.4c-1.8,0-4.4,0.4-5.6,0.7c-0.7,0.2-1-0.2-1.1-0.9
			l-0.4-2.6c-0.1-0.7,0.2-1.1,0.7-1.2c0.4-0.1,3.6-0.9,6.8-0.9c6.2,0,7.7,3.2,7.7,8.6V42c0,0.5-0.4,0.9-0.9,0.9h-1.8
			c-0.3,0-0.6-0.1-0.8-0.7l-0.6-1.3c-1.1,1-3,2.5-6.1,2.5c-4,0-6.7-2.6-6.7-6.8C152.1,33.1,155,30.4,160.1,30.4z M160.2,39.2
			c1.6,0,3.1-1.3,3.4-1.9v-2.7c0,0-1.3-0.6-2.8-0.6c-1.9,0-3.2,1.1-3.2,2.7C157.6,38.1,158.7,39.2,160.2,39.2z"/>
		<path class="st3" d="M183.3,22.6c2,0,3.5,0.5,4.4,0.9V9.1c0-0.5,0.4-0.9,0.9-0.9h4.2c0.5,0,0.9,0.4,0.9,0.9V42
			c0,0.5-0.4,0.9-0.9,0.9H191c-0.4,0-0.8-0.4-0.9-0.9l-0.5-1.5c0,0-2.3,3-6.5,3c-5.4,0-9.6-4.7-9.6-10.4
			C173.4,27.2,177.4,22.6,183.3,22.6z M183.8,38.1c2.6,0,3.8-2,4.2-3.2v-5.8c0,0-1.4-1.1-3.9-1.1c-2.8,0-4.8,2.3-4.8,5.1
			S181.1,38.1,183.8,38.1z"/>
		<path class="st3" d="M212.5,9.1c0-0.5,0.4-0.9,0.9-0.9h11.7c6.1,0,11.2,5,11.2,11c0,6.2-5,11.2-11.1,11.2H219V42
			c0,0.5-0.4,0.9-0.9,0.9h-4.6c-0.5,0-0.9-0.4-0.9-0.9V9.1z M224.8,24.3c2.8,0,5.1-2.2,5.1-5.2c0-2.7-2.3-4.8-5.1-4.8H219v10H224.8z
			"/>
		<path class="st3" d="M245.4,30.4c2,0,3.6,0.5,3.6,0.5c0.1-2.5-0.7-3.4-2.6-3.4c-1.8,0-4.4,0.4-5.6,0.7c-0.7,0.2-1-0.2-1.1-0.9
			l-0.4-2.6c-0.1-0.7,0.2-1.1,0.7-1.2c0.4-0.1,3.6-0.9,6.8-0.9c6.2,0,7.7,3.2,7.7,8.6V42c0,0.5-0.4,0.9-0.9,0.9h-1.8
			c-0.3,0-0.6-0.1-0.8-0.7l-0.6-1.3c-1.1,1-3,2.5-6.1,2.5c-4,0-6.7-2.6-6.7-6.8C237.4,33.1,240.3,30.4,245.4,30.4z M245.5,39.2
			c1.6,0,3.1-1.3,3.4-1.9v-2.7c0,0-1.3-0.6-2.8-0.6c-1.9,0-3.2,1.1-3.2,2.7C242.9,38.1,243.9,39.2,245.5,39.2z"/>
		<path class="st3" d="M259.1,40.5l1.3-2.7c0.2-0.5,0.7-0.6,1.1-0.3c0,0,2.2,1.2,4.5,1.2c1,0,1.7-0.4,1.7-1.2c0-0.9-0.7-1.4-3.3-2.5
			c-3.8-1.5-5.6-3.5-5.6-6.5c0-3,2.2-5.9,7.3-5.9c2.9,0,5.1,0.8,6.1,1.5c0.4,0.3,0.7,0.8,0.4,1.3l-1.2,2.5c-0.2,0.4-0.8,0.5-1.2,0.3
			c0,0-2.2-1-4.1-1c-1.2,0-1.7,0.5-1.7,1.1c0,0.9,0.9,1.2,2.7,1.9c3.8,1.5,6.7,3.1,6.7,7c0,3.3-2.9,6.1-7.9,6.1
			c-3.3,0-5.6-1-6.6-1.8C259.1,41.3,258.9,40.9,259.1,40.5z"/>
		<path class="st3" d="M279.4,28.3h-1.7c-0.5,0-0.9-0.4-0.9-0.9V24c0-0.5,0.4-0.9,0.9-0.9h1.7v-5.5c0-0.5,0.4-0.9,0.9-0.9l4.1,0
			c0.5,0,0.9,0.4,0.9,0.9v5.6h4.4c0.5,0,0.9,0.4,0.9,0.9v3.3c0,0.5-0.4,0.9-0.9,0.9h-4.4v7.9c0,1.4,0.7,1.6,1.5,1.6
			c0.8,0,1.9-0.3,2.4-0.5c0.5-0.2,0.9,0,1.1,0.5l1,3.1c0.2,0.5-0.1,1-0.5,1.2c-0.2,0.1-3.5,1.3-5.9,1.3c-3.8,0-5.5-2.4-5.5-6.4V28.3
			z"/>
		<path class="st3" d="M304.3,22.6c5.6,0,10.2,4.8,10.2,10.4c0,5.7-4.6,10.5-10.2,10.5S294,38.7,294,32.9
			C294,27.3,298.6,22.6,304.3,22.6z M304.3,38.1c2.6,0,4.8-2.3,4.8-5.1c0-2.8-2.1-5-4.8-5c-2.7,0-4.8,2.2-4.8,5
			C299.5,35.8,301.6,38.1,304.3,38.1z"/>
		<path class="st3" d="M319,24c0-0.5,0.4-0.9,0.9-0.9h1.9c0.4,0,0.7,0.2,0.9,0.6l0.7,1.9c0.7-1,2.5-3.1,5.6-3.1c2.3,0,4.4,0.7,3.8,2
			l-1.8,3.2c-0.2,0.4-0.7,0.6-1.1,0.4c-0.1,0-0.9-0.3-1.4-0.3c-2,0-3.2,1.3-3.5,2v12c0,0.7-0.4,0.9-1.1,0.9h-3.8
			c-0.5,0-0.9-0.4-0.9-0.9V24z"/>
		<path class="st3" d="M336.1,26.1c0-2,1.6-3.6,3.6-3.6c2,0,3.6,1.6,3.6,3.6s-1.6,3.6-3.6,3.6C337.7,29.7,336.1,28.1,336.1,26.1z
			 M339.7,36.3c2,0,3.6,1.6,3.6,3.6s-1.6,3.6-3.6,3.6c-2,0-3.6-1.6-3.6-3.6S337.7,36.3,339.7,36.3z"/>
	</g>
</g>
<g id="City_State_Zip">
	<path class="st3" d="M44.7,464.4l17.1-36.7c0.2-0.3,0.4-0.6,0.9-0.6h0.5c0.5,0,0.8,0.3,0.9,0.6l16.9,36.7c0.3,0.7-0.1,1.4-0.9,1.4
		h-4.8c-0.8,0-1.2-0.3-1.6-1.1l-2.7-5.9H54.7l-2.7,5.9c-0.2,0.5-0.7,1.1-1.6,1.1h-4.8C44.8,465.8,44.4,465.1,44.7,464.4z
		 M68.4,452.7l-5.5-12h-0.2l-5.4,12H68.4z"/>
	<path class="st3" d="M79.9,445.3c-0.3-0.7-0.1-1.3,0.8-1.3h4.8c0.5,0,0.8,0.3,1,0.6l4.4,10.2c0.1,0,0.1,0,0.1,0l4.7-10.2
		c0.3-0.5,0.7-0.6,1.3-0.6h4.3c0.8,0,1.2,0.6,0.8,1.3L92,465.8c-0.2,0.3-0.4,0.5-0.9,0.5h-0.3c-0.5,0-0.8-0.3-0.9-0.5L79.9,445.3z"
		/>
	<path class="st3" d="M115.3,443.4c6.2,0,11.3,5.2,11.3,11.4c0,6.3-5.1,11.5-11.3,11.5s-11.3-5.2-11.3-11.5
		C104.1,448.6,109.1,443.4,115.3,443.4z M115.3,460.4c2.9,0,5.3-2.5,5.3-5.6c0-3.1-2.4-5.5-5.3-5.5c-3,0-5.3,2.5-5.3,5.5
		C110.1,457.9,112.4,460.4,115.3,460.4z"/>
	<path class="st3" d="M131.5,445c0-0.6,0.5-1,1-1h2.1c0.5,0,0.8,0.3,0.9,0.7l0.8,2c0.8-0.9,3.5-3.2,7.7-3.2c7,0,9.8,5.2,9.8,10.9
		v10.5c0,0.5-0.5,1-1,1h-4.5c-0.6,0-1-0.5-1-1v-10.8c0-2.8-1.5-4.6-4.1-4.6c-2.9,0-4.6,2-5.2,3.4v12c0,0.8-0.3,1-1.4,1h-4.1
		c-0.5,0-1-0.5-1-1V445z"/>
	<path class="st3" d="M173.8,428.6c0-0.5,0.4-1,1-1h12.9c6.8,0,12.3,5.5,12.3,12.1c0,6.8-5.5,12.3-12.2,12.3H181v12.8
		c0,0.5-0.5,1-1,1h-5.1c-0.6,0-1-0.5-1-1V428.6z M187.4,445.3c3.1,0,5.7-2.5,5.7-5.7c0-3-2.6-5.3-5.7-5.3H181v11H187.4z"/>
	<path class="st3" d="M210.1,452c2.2,0,4,0.6,4,0.6c0.1-2.8-0.8-3.8-2.9-3.8s-4.9,0.4-6.2,0.8c-0.8,0.2-1.2-0.3-1.3-1l-0.5-2.8
		c-0.2-0.8,0.3-1.2,0.8-1.4c0.4-0.2,4-1,7.5-1c6.9,0,8.5,3.5,8.5,9.5v11.8c0,0.5-0.5,1-1,1h-2c-0.4,0-0.7-0.2-0.9-0.8l-0.7-1.5
		c-1.3,1.1-3.3,2.8-6.7,2.8c-4.4,0-7.4-2.8-7.4-7.5C201.3,455,204.4,452,210.1,452z M210.2,461.7c1.8,0,3.5-1.5,3.8-2.1v-3
		c0,0-1.5-0.7-3.1-0.7c-2.1,0-3.6,1.2-3.6,2.9C207.3,460.5,208.5,461.7,210.2,461.7z"/>
	<path class="st3" d="M226.3,445c0-0.6,0.5-1,1-1h2.1c0.5,0,0.8,0.3,1,0.7l0.8,2.1c0.8-1.1,2.8-3.4,6.2-3.4c2.6,0,4.9,0.8,4.2,2.2
		l-2,3.5c-0.3,0.5-0.8,0.7-1.3,0.5c-0.2-0.1-1-0.3-1.6-0.3c-2.2,0-3.5,1.5-3.9,2.2v13.2c0,0.8-0.5,1-1.3,1h-4.2c-0.5,0-1-0.5-1-1
		V445z"/>
	<path class="st3" d="M245,428.6c0-0.5,0.5-1,1-1h4.7c0.5,0,1,0.5,1,1v23.6l7.6-7.6c0.4-0.3,0.8-0.7,1.4-0.7h5c0.9,0,1.3,1,0.7,1.6
		l-8.2,8.3l9.8,10.4c0.5,0.6,0.2,1.5-0.7,1.5h-5.9c-0.3,0-0.8-0.2-0.9-0.4l-8.7-9.8v9.2c0,0.5-0.5,1-1,1h-4.7c-0.5,0-1-0.5-1-1
		V428.6z"/>
	<path class="st3" d="M275.4,457.4c2.4,0,5.5,1.7,5.5,7.1c0,6.7-4.2,10.5-6.3,11.8c-0.5,0.3-0.9,0.4-1.4-0.1l-0.8-0.9
		c-0.4-0.4-0.3-1,0.2-1.5c0.6-0.5,4.4-3.4,4.4-8c-0.1,0-0.9,0.4-2.1,0.4c-2.4,0-4.4-2-4.4-4.4C270.6,459.4,272.6,457.4,275.4,457.4z
		"/>
	<path class="st3" d="M300,428.6c0-0.5,0.4-1,1-1h22.4c0.6,0,1,0.5,1,1v4.5c0,0.5-0.4,1-1,1h-16.3v10.3h13.6c0.5,0,1,0.5,1,1v4.5
		c0,0.5-0.5,1-1,1h-13.6v13.8c0,0.5-0.5,1-1,1H301c-0.6,0-1-0.5-1-1V428.6z"/>
	<path class="st3" d="M328.5,428.6c0-0.5,0.5-1,1-1h4.6c0.5,0,1,0.5,1,1v36.1c0,0.5-0.5,1-1,1h-4.6c-0.5,0-1-0.5-1-1V428.6z"/>
	<path class="st3" d="M351.3,443.4c6.2,0,11.3,5.2,11.3,11.4c0,6.3-5.1,11.5-11.3,11.5s-11.3-5.2-11.3-11.5
		C340.1,448.6,345.1,443.4,351.3,443.4z M351.3,460.4c2.9,0,5.3-2.5,5.3-5.6c0-3.1-2.4-5.5-5.3-5.5c-3,0-5.3,2.5-5.3,5.5
		C346.1,457.9,348.4,460.4,351.3,460.4z"/>
	<path class="st3" d="M367.5,445c0-0.6,0.5-1,1-1h2.1c0.5,0,0.8,0.3,1,0.7l0.8,2.1c0.8-1.1,2.8-3.4,6.2-3.4c2.6,0,4.9,0.8,4.2,2.2
		l-2,3.5c-0.3,0.5-0.8,0.7-1.3,0.5c-0.2-0.1-1-0.3-1.6-0.3c-2.2,0-3.5,1.5-3.9,2.2v13.2c0,0.8-0.5,1-1.3,1h-4.2c-0.5,0-1-0.5-1-1
		V445z"/>
	<path class="st3" d="M385.7,432.4c0-2.1,1.6-3.8,3.7-3.8c2.1,0,3.8,1.7,3.8,3.8c0,2.1-1.7,3.8-3.8,3.8
		C387.4,436.2,385.7,434.5,385.7,432.4z M386.2,445c0-0.6,0.5-1,1-1h4.6c0.5,0,1,0.4,1,1v19.8c0,0.5-0.5,1-1,1h-4.6
		c-0.5,0-1-0.5-1-1V445z"/>
	<path class="st3" d="M408.7,443.4c2.2,0,3.9,0.6,4.9,1v-15.8c0-0.5,0.5-1,1-1h4.7c0.5,0,1,0.5,1,1v36.1c0,0.5-0.5,1-1,1h-2.1
		c-0.5,0-0.9-0.4-1-1l-0.5-1.7c0,0-2.6,3.3-7.2,3.3c-6,0-10.5-5.2-10.5-11.5C397.8,448.5,402.2,443.4,408.7,443.4z M409.2,460.4
		c2.9,0,4.2-2.2,4.6-3.5v-6.3c0,0-1.5-1.3-4.3-1.3c-3.1,0-5.3,2.5-5.3,5.6C404.2,457.9,406.3,460.4,409.2,460.4z"/>
	<path class="st3" d="M434.1,452c2.2,0,4,0.6,4,0.6c0.1-2.8-0.8-3.8-2.9-3.8s-4.9,0.4-6.2,0.8c-0.8,0.2-1.2-0.3-1.3-1l-0.5-2.8
		c-0.2-0.8,0.3-1.2,0.8-1.4c0.4-0.2,4-1,7.5-1c6.9,0,8.5,3.5,8.5,9.5v11.8c0,0.5-0.5,1-1,1h-2c-0.4,0-0.7-0.2-0.9-0.8l-0.7-1.5
		c-1.3,1.1-3.3,2.8-6.7,2.8c-4.4,0-7.4-2.8-7.4-7.5C425.3,455,428.5,452,434.1,452z M434.2,461.7c1.8,0,3.5-1.5,3.8-2.1v-3
		c0,0-1.5-0.7-3.1-0.7c-2.1,0-3.6,1.2-3.6,2.9C431.4,460.5,432.5,461.7,434.2,461.7z"/>
	<path class="st3" d="M461.3,460.1l2.8-2.7c0.5-0.4,1-0.4,1.4,0c0.2,0.2,3.4,2.9,6.8,2.9c3,0,5.8-2.1,5.8-5.1c0-2.8-2.6-5.4-7.6-5.4
		h-3.1c-0.6,0-1-0.4-1-1.1v-3.4c0-0.7,0.4-1.1,1-1.1h3.1c4.5,0,6.8-2.2,6.8-5c0-3-2.5-5-5.3-5c-2.9,0-4.6,1.5-5.5,2.6
		c-0.4,0.4-1,0.5-1.5,0.1l-2.7-2.5c-0.4-0.4-0.4-1,0-1.4c0,0,4.2-4.8,10.3-4.8c6.4,0,11.7,3.9,11.7,10c0,4.2-3.2,7.4-5.7,8.5v0.2
		c2.6,1.1,6.6,4,6.6,8.9c0,6.2-5.1,10.6-12.6,10.6c-6.9,0-10.2-3.4-11.4-4.9C460.9,461.1,460.9,460.5,461.3,460.1z"/>
	<path class="st3" d="M489.9,460.1l2.8-2.7c0.5-0.4,1-0.4,1.4,0c0.2,0.2,3.4,2.9,6.8,2.9c3,0,5.8-2.1,5.8-5.1c0-2.8-2.6-5.4-7.6-5.4
		h-3.1c-0.6,0-1-0.4-1-1.1v-3.4c0-0.7,0.4-1.1,1-1.1h3.1c4.5,0,6.8-2.2,6.8-5c0-3-2.5-5-5.3-5c-2.9,0-4.6,1.5-5.5,2.6
		c-0.4,0.4-1,0.5-1.5,0.1l-2.7-2.5c-0.4-0.4-0.4-1,0-1.4c0,0,4.2-4.8,10.3-4.8c6.4,0,11.7,3.9,11.7,10c0,4.2-3.2,7.4-5.7,8.5v0.2
		c2.6,1.1,6.6,4,6.6,8.9c0,6.2-5.1,10.6-12.6,10.6c-6.9,0-10.2-3.4-11.4-4.9C489.6,461.1,489.6,460.5,489.9,460.1z"/>
	<path class="st3" d="M525.8,446.7v-0.2c-2.3-1.2-5.7-4.2-5.7-8.5c0-6.1,5.3-10,11.9-10c6.9,0,12.1,3.9,12.1,10
		c0,4.1-3.4,7.1-5.7,8.4v0.2c2.5,1.3,6.6,4.4,6.6,9.1c0,5.9-5.1,10.5-13.1,10.5c-7.9,0-12.9-4.5-12.9-10.5
		C519.2,451.1,524.3,447.5,525.8,446.7z M532.2,460.8c3,0,5.7-2,5.7-5c0-2.5-2-5-5.7-5.8c-3.7,0.8-5.7,3.3-5.7,5.8
		C526.5,458.7,529.2,460.8,532.2,460.8z M537.2,438.4c0-2.6-2.3-4.6-5.1-4.6c-2.6,0-4.9,2-4.9,4.6c0,2.5,1.5,4.4,5,5.2
		C535.6,442.8,537.2,440.7,537.2,438.4z"/>
	<path class="st3" d="M549.4,463.5c3.6-4.4,10.5-13.3,14.2-18.2c1.7-2.1,2.8-4.2,2.8-6.1c0-2.5-1.9-5-5.8-5c-2.6,0-4.9,1.9-6.2,3.2
		c-0.4,0.4-1,0.4-1.5,0l-2.6-2.6c-0.3-0.3-0.4-1-0.1-1.4c0,0,4.3-5.3,10.8-5.3c7.9,0,12.2,5,12.2,10.9c0,3.5-1.5,5.8-3.7,8.8
		c-2.4,3.3-6.5,8.5-9.4,12.1h11.9c0.5,0,1,0.5,1,1v3.8c0,0.5-0.5,1-1,1h-21.6c-0.6,0-1-0.5-1-1V463.5z"/>
	<path class="st3" d="M596.9,427.5c0.8-0.2,1.3,0.1,1.5,0.8l1.3,3.2c0.3,0.7,0.1,1.3-1,1.6c-2.6,0.8-10.4,4.5-12.1,10.5
		c0.9-0.5,3.7-1.5,6.3-1.5c5.5,0,11.2,4,11.2,11.8c0,6.9-5.7,12.5-12.4,12.5c-8.6,0-13.1-6.9-13.1-15.1
		C578.6,435.3,592.1,429,596.9,427.5z M597.8,453.7c0-3.5-2.8-6.4-6.3-6.4c-3.6,0-5.8,2.8-6.4,4.7c0,3.7,2,8,6.4,8
		C595,460.1,597.8,457.2,597.8,453.7z"/>
</g>
<g id="Address">
	<path class="st3" d="M3.1,387.5l14.3-29.6H2.9c-0.5,0-1-0.5-1-1v-3.8c0-0.5,0.5-1,1-1h22.9c0.5,0,1,0.5,1,1v0.4l-16.4,34.2
		c-0.4,0.9-0.9,1.5-1.9,1.5H4.5c-0.7,0-1.4-0.2-1.4-1V387.5z"/>
	<path class="st3" d="M29.9,370.6c0-12,5.1-19.1,13.8-19.1s13.8,7.1,13.8,19.1s-5.1,19.1-13.8,19.1S29.9,382.6,29.9,370.6z
		 M50.4,370.6c0-8.1-2.4-12.7-6.6-12.7c-4.2,0-6.6,4.6-6.6,12.7c0,8.1,2.4,12.7,6.6,12.7C48,383.3,50.4,378.7,50.4,370.6z"/>
	<path class="st3" d="M63.5,387.5l14.3-29.6H63.3c-0.5,0-1-0.5-1-1v-3.8c0-0.5,0.5-1,1-1h22.9c0.5,0,1,0.5,1,1v0.4l-16.4,34.2
		c-0.4,0.9-0.9,1.5-1.9,1.5h-4.1c-0.7,0-1.4-0.2-1.4-1V387.5z"/>
	<path class="st3" d="M100.9,352.3c-0.2-0.8,0.2-1.3,1-1.3h5.1c0.4,0,0.9,0.4,1,0.8l5.7,21.8h0.2l8.7-22.5c0.1-0.3,0.4-0.6,0.9-0.6
		h1c0.5,0,0.8,0.3,0.9,0.6l8.8,22.5h0.2l5.6-21.8c0.1-0.4,0.5-0.8,1-0.8h5.1c0.8,0,1.2,0.5,1,1.3L136.8,389c-0.1,0.4-0.5,0.8-1,0.8
		h-0.9c-0.5,0-0.8-0.3-0.9-0.6l-9.8-24.7h-0.3l-9.7,24.7c-0.2,0.3-0.4,0.6-0.9,0.6h-0.9c-0.4,0-0.9-0.3-1-0.8L100.9,352.3z"/>
	<path class="st3" d="M169.9,351.2c0.1-0.4,0.4-0.8,1-0.8h0.9c0.4,0,0.8,0.2,0.9,0.5l12.1,25.8c0.1,0,0.1,0,0.2,0L197,351
		c0.2-0.3,0.4-0.5,0.9-0.5h0.9c0.6,0,0.9,0.4,1,0.8l6.5,36.7c0.2,0.8-0.3,1.3-1,1.3h-5c-0.5,0-0.9-0.4-1-0.8l-3.2-20.7
		c-0.1,0-0.2,0-0.2,0l-9.6,21.5c-0.1,0.3-0.4,0.6-0.9,0.6h-1c-0.5,0-0.8-0.3-0.9-0.6l-9.7-21.5c0,0-0.1,0-0.2,0l-3.2,20.7
		c-0.1,0.4-0.5,0.8-1,0.8h-4.9c-0.7,0-1.2-0.5-1-1.3L169.9,351.2z"/>
	<path class="st3" d="M218.8,375.4c2.2,0,4,0.6,4,0.6c0.1-2.8-0.8-3.8-2.9-3.8s-4.9,0.4-6.2,0.8c-0.8,0.2-1.2-0.3-1.3-1l-0.5-2.8
		c-0.2-0.8,0.3-1.2,0.8-1.4c0.4-0.2,4-1,7.5-1c6.9,0,8.5,3.5,8.5,9.5v11.8c0,0.5-0.5,1-1,1h-2c-0.4,0-0.7-0.2-0.9-0.8l-0.7-1.5
		c-1.3,1.1-3.3,2.8-6.7,2.8c-4.4,0-7.4-2.8-7.4-7.5C210,378.4,213.2,375.4,218.8,375.4z M218.9,385.1c1.8,0,3.5-1.5,3.8-2.1v-3
		c0,0-1.5-0.7-3.1-0.7c-2.1,0-3.6,1.2-3.6,2.9C216,383.9,217.2,385.1,218.9,385.1z"/>
	<path class="st3" d="M234.6,355.8c0-2.1,1.6-3.8,3.7-3.8c2.1,0,3.8,1.7,3.8,3.8c0,2.1-1.7,3.8-3.8,3.8
		C236.2,359.6,234.6,357.9,234.6,355.8z M235,368.4c0-0.6,0.5-1,1-1h4.6c0.5,0,1,0.4,1,1v19.8c0,0.5-0.5,1-1,1h-4.6
		c-0.5,0-1-0.5-1-1V368.4z"/>
	<path class="st3" d="M248.3,368.4c0-0.6,0.5-1,1-1h2.1c0.5,0,0.8,0.3,0.9,0.7l0.8,2c0.8-0.9,3.5-3.2,7.7-3.2c7,0,9.8,5.2,9.8,10.9
		v10.5c0,0.5-0.5,1-1,1h-4.5c-0.6,0-1-0.5-1-1v-10.8c0-2.8-1.5-4.6-4.1-4.6c-2.9,0-4.6,2-5.2,3.4v12c0,0.8-0.3,1-1.4,1h-4.1
		c-0.5,0-1-0.5-1-1V368.4z"/>
	<path class="st3" d="M288.4,383.8l2-3.4c0.4-0.8,1.4-0.8,1.9-0.4c0.3,0.2,4.7,3.4,8.3,3.4c2.9,0,5-1.9,5-4.2c0-2.8-2.4-4.7-7-6.5
		c-5.2-2.1-10.3-5.3-10.3-11.8c0-4.9,3.6-10.5,12.4-10.5c5.6,0,9.9,2.8,11,3.7c0.5,0.3,0.7,1.3,0.3,1.8l-2.1,3.1
		c-0.4,0.7-1.3,1.1-1.9,0.7c-0.4-0.3-4.6-3-7.6-3c-3.1,0-4.8,2.1-4.8,3.8c0,2.6,2,4.3,6.5,6.1c5.3,2.1,11.5,5.3,11.5,12.3
		c0,5.6-4.9,10.8-12.6,10.8c-6.9,0-11-3.2-12.1-4.3C288.2,385,287.9,384.7,288.4,383.8z"/>
	<path class="st3" d="M319,373.1h-1.9c-0.5,0-1-0.5-1-1v-3.7c0-0.6,0.4-1,1-1h1.9v-6.1c0-0.5,0.5-1,1-1l4.5-0.1c0.5,0,1,0.5,1,1v6.1
		h4.8c0.6,0,1,0.4,1,1v3.7c0,0.5-0.4,1-1,1h-4.8v8.7c0,1.5,0.8,1.7,1.7,1.7c0.9,0,2.1-0.4,2.7-0.6s1,0.1,1.2,0.6l1.1,3.4
		c0.2,0.5-0.1,1.1-0.6,1.3c-0.3,0.2-3.8,1.4-6.5,1.4c-4.2,0-6.1-2.6-6.1-7V373.1z"/>
	<path class="st3" d="M336.8,368.4c0-0.6,0.5-1,1-1h2.1c0.5,0,0.8,0.3,1,0.7l0.8,2.1c0.8-1.1,2.8-3.4,6.2-3.4c2.6,0,4.9,0.8,4.2,2.2
		l-2,3.5c-0.3,0.5-0.8,0.7-1.3,0.5c-0.2-0.1-1-0.3-1.6-0.3c-2.2,0-3.5,1.5-3.9,2.2v13.2c0,0.8-0.5,1-1.3,1h-4.2c-0.5,0-1-0.5-1-1
		V368.4z"/>
	<path class="st3" d="M365,366.8c5.7,0,10.3,4.3,10.3,10.2c0,0.4-0.1,1.1-0.1,1.5c-0.1,0.5-0.5,0.9-1,0.9H360
		c0.2,2.2,2.1,4.7,5.3,4.7c1.7,0,3.3-0.7,4.3-1.4c0.5-0.3,1-0.4,1.4,0l2.3,2.6c0.4,0.4,0.5,1-0.1,1.4c-1.8,1.7-4.6,3-8.2,3
		c-6.6,0-11.3-5.2-11.3-11.5C353.8,372.1,358.4,366.8,365,366.8z M368.8,375.5c-0.2-2-1.9-3.7-4-3.7c-2.2,0-4,1.6-4.3,3.7H368.8z"/>
	<path class="st3" d="M389.4,366.8c5.7,0,10.3,4.3,10.3,10.2c0,0.4-0.1,1.1-0.1,1.5c-0.1,0.5-0.5,0.9-1,0.9h-14.1
		c0.2,2.2,2.1,4.7,5.3,4.7c1.7,0,3.3-0.7,4.3-1.4c0.5-0.3,1-0.4,1.4,0l2.3,2.6c0.4,0.4,0.5,1-0.1,1.4c-1.8,1.7-4.6,3-8.2,3
		c-6.6,0-11.3-5.2-11.3-11.5C378.2,372.1,382.9,366.8,389.4,366.8z M393.3,375.5c-0.2-2-1.9-3.7-4-3.7c-2.2,0-4,1.6-4.3,3.7H393.3z"
		/>
	<path class="st3" d="M405.5,373.1h-1.9c-0.5,0-1-0.5-1-1v-3.7c0-0.6,0.4-1,1-1h1.9v-6.1c0-0.5,0.5-1,1-1l4.5-0.1c0.5,0,1,0.5,1,1
		v6.1h4.8c0.6,0,1,0.4,1,1v3.7c0,0.5-0.4,1-1,1H412v8.7c0,1.5,0.8,1.7,1.7,1.7c0.9,0,2.1-0.4,2.7-0.6s1,0.1,1.2,0.6l1.1,3.4
		c0.2,0.5-0.1,1.1-0.6,1.3c-0.3,0.2-3.8,1.4-6.5,1.4c-4.2,0-6.1-2.6-6.1-7V373.1z"/>
	<path class="st3" d="M435.1,377.7v-3.7c0-0.6,0.4-1,1-1h12.2c0.6,0,1,0.4,1,1v3.7c0,0.5-0.4,1-1,1h-12.2
		C435.5,378.7,435.1,378.3,435.1,377.7z"/>
	<path class="st3" d="M469.5,352c0-0.5,0.4-1,1-1h12.6c6.5,0,11.6,4.4,11.6,10.1c0,4.2-3.5,7.5-6,8.7c2.9,0.9,7.1,3.9,7.1,8.9
		c0,6.1-5.3,10.5-12,10.5h-13.3c-0.6,0-1-0.5-1-1V352z M482.5,367c2.8,0,4.7-2.2,4.7-4.9c0-2.7-1.9-4.6-4.7-4.6h-5.9v9.6H482.5z
		 M483.2,382.7c2.7,0,4.9-2.1,4.9-5c0-2.7-2.7-4.7-5.6-4.7h-6v9.7H483.2z"/>
	<path class="st3" d="M510.7,366.8c6.2,0,11.3,5.2,11.3,11.4c0,6.3-5.1,11.5-11.3,11.5s-11.3-5.2-11.3-11.5
		C499.5,372,504.5,366.8,510.7,366.8z M510.7,383.8c2.9,0,5.3-2.5,5.3-5.6c0-3.1-2.4-5.5-5.3-5.5c-3,0-5.3,2.5-5.3,5.5
		C505.4,381.3,507.7,383.8,510.7,383.8z"/>
	<path class="st3" d="M524.6,387.6l7.1-9.6l-6.9-9.1c-0.5-0.7-0.1-1.6,0.8-1.6h4.6c0.7,0,1.3,0.1,1.8,0.8l3.6,5.1h0.1l3.6-5.1
		c0.4-0.6,0.9-0.8,1.6-0.8h4.9c0.9,0,1.2,0.9,0.7,1.6l-6.9,9.1l7,9.6c0.5,0.7,0.2,1.6-0.7,1.6h-4.8c-0.7,0-1.2-0.3-1.5-0.9l-3.9-5.5
		h-0.1l-4.2,5.9c-0.2,0.2-0.6,0.4-0.9,0.4h-5.3C524.3,389.2,524.1,388.3,524.6,387.6z"/>
	<path class="st3" d="M568,362l-4.8,1c-0.5,0.1-1-0.2-1.1-0.7l-0.3-2.7c-0.1-0.4,0.1-0.8,0.3-1l7.9-6.6h3.8c0.5,0,1,0.5,1,1v35
		c0,0.5-0.4,1-1,1H569c-0.6,0-1-0.5-1-1V362z"/>
	<path class="st3" d="M587.6,362l-4.8,1c-0.5,0.1-1-0.2-1.1-0.7l-0.3-2.7c-0.1-0.4,0.1-0.8,0.3-1l7.9-6.6h3.8c0.5,0,1,0.5,1,1v35
		c0,0.5-0.4,1-1,1h-4.7c-0.6,0-1-0.5-1-1V362z"/>
	<path class="st3" d="M607.2,362l-4.8,1c-0.5,0.1-1-0.2-1.1-0.7l-0.3-2.7c-0.1-0.4,0.1-0.8,0.3-1l7.9-6.6h3.8c0.5,0,1,0.5,1,1v35
		c0,0.5-0.4,1-1,1h-4.7c-0.6,0-1-0.5-1-1V362z"/>
	<path class="st3" d="M628.3,370.1V370c-2.3-1.2-5.7-4.2-5.7-8.5c0-6.1,5.3-10,11.9-10c6.9,0,12.1,3.9,12.1,10
		c0,4.1-3.4,7.1-5.7,8.4v0.2c2.5,1.3,6.6,4.4,6.6,9.1c0,5.9-5.1,10.5-13.1,10.5c-7.9,0-12.9-4.5-12.9-10.5
		C621.6,374.5,626.7,370.9,628.3,370.1z M634.6,384.1c3,0,5.7-2,5.7-5c0-2.5-2-5-5.7-5.8c-3.7,0.8-5.7,3.3-5.7,5.8
		C628.9,382.1,631.7,384.1,634.6,384.1z M639.6,361.8c0-2.6-2.3-4.6-5.1-4.6c-2.6,0-4.9,2-4.9,4.6c0,2.5,1.5,4.4,5,5.2
		C638.1,366.2,639.6,364.1,639.6,361.8z"/>
</g>
</svg>
