<?xml version="1.0" encoding="utf-8"?>
<!-- Generator: Adobe Illustrator 26.0.1, SVG Export Plug-In . SVG Version: 6.00 Build 0)  -->
<svg version="1.1" xmlns="http://www.w3.org/2000/svg" xmlns:xlink="http://www.w3.org/1999/xlink" x="0px" y="0px"
	 viewBox="0 0 122.1 116.1" style="enable-background:new 0 0 122.1 116.1;" xml:space="preserve">
<style type="text/css">
	.st0{fill-rule:evenodd;clip-rule:evenodd;fill:#4D4D4D;}
	.st1{fill:#FFFFFF;}
	.st2{display:none;}
	.st3{display:inline;}
</style>
<g id="Background">
	<rect x="0" y="0" class="st0" width="122.1" height="116.1"/>
</g>
<g id="Layer_1">
	<g id="Bird-White">
		<path id="Bird_eye_lg_00000093153663740680004260000012829700541056924342_" class="st1" d="M90.2,95.4c-0.6-1.3-2.4-1.9-3.1-1.9
			c-2.1-0.2-1.9,1,0,3.3C90,100.4,91,97.2,90.2,95.4z"/>
		<path id="Bird2_00000122680924740017709740000011670148935974499456_" class="st1" d="M26.3,49.3c5.4,4.3,13.3,10.4,28.3,10.4
			c0.3,0,0.2-0.5-0.2-0.8C17.2,33.4,24,10.9,24,7.4c0-3.3-5.2,6.7-5.1,12.5c-0.4,18,16.6,31.6,16.4,31.6C29,49.9,20.9,40.3,18,35.9
			c-0.1-0.2-0.7-0.6-0.3,0.6C18.3,38.6,20.4,44.1,26.3,49.3z"/>
		<path id="Bird1_00000160154197706315064100000008316407788755345796_" class="st1" d="M96.5,33.2c-5.6-2.9-12.7-4.4-11-3.3
			c0.1,0.1,19.9,13.8,25.5,23.6c8.6,15.1-1.5,31.7-4.8,32.7c-0.2,0.1-0.1-0.9-0.1-2.2c0.6-13.6-12.2-26.5-13.6-27.7
			c-3.5-2.8-6.7-5.2-9.7-7.3c3-1.7,4.9-7.3,3.3-11.1c-2.4-5.9-6.5-8.3-8.7-9.4c-0.5-0.3-1.8-0.7-1.1,0.4c3.9,5.1,1,13.9-4.8,12.4
			c-0.5-0.3-0.9-0.7-1.4-1c-4.2-4-10.4-14-2.4-32.6c0.2-0.2,0.1-0.9-0.7,0.1c-1.4,1.7-4.7,6.4-5.8,14.4c-0.3,3-0.4,5.3-0.2,7.1
			c-1.8-5.1-3.5-15.6,5.1-29.2C63.9-1.4,35,26.8,69.7,48.9C86.6,59.6,92.9,66.6,95,70.6c4.5,8.6,5,20.2,1.6,27.2
			c-2.6,5.4-6.9,11.9-7.4,10.9c-1.2-2.4-0.5-10.2-13.8-15C57.1,87.2,25.6,97.4,13,70.2c-6.2-12-1.3-28.1-0.3-33
			c0.1-0.8-9.6,3.1-11.7,15.1C-1,61-2.4,82.6,23.3,93.1c14.1,5.8,30.3,5.1,41.6,5.1c22.1,0,21,14.2,23,17.7c0.1,0.1,0.1,0.3,0.4,0
			c2.4-2.5,11.5-13.9,17.5-19.5C143,61.5,106.3,38.2,96.5,33.2z"/>
	</g>
	<g id="Bird-Black_00000091717733450531639020000017869034867852984510_" class="st2">
		<path id="Bird_eye_lg_00000039131896994232507890000004694423004760393111_" class="st3" d="M90.2,95.4c-0.6-1.3-2.4-1.9-3.1-1.9
			c-2.1-0.2-1.9,1,0,3.3C90,100.4,91,97.2,90.2,95.4z"/>
		<path id="Bird2_00000084507393046869779300000006471565033563898533_" class="st3" d="M26.3,49.3c5.4,4.3,13.3,10.4,28.3,10.4
			c0.3,0,0.2-0.5-0.2-0.8C17.2,33.4,24,10.9,24,7.4c0-3.3-5.2,6.7-5.1,12.5c-0.4,18,16.6,31.6,16.4,31.6C29,49.9,20.9,40.3,18,35.9
			c-0.1-0.2-0.7-0.6-0.3,0.6C18.3,38.6,20.4,44.1,26.3,49.3z"/>
		<path id="Bird1_00000022533339734034142420000018055486367844263562_" class="st3" d="M96.5,33.2c-5.6-2.9-12.7-4.4-11-3.3
			c0.1,0.1,19.9,13.8,25.5,23.6c8.6,15.1-1.5,31.7-4.8,32.7c-0.2,0.1-0.1-0.9-0.1-2.2c0.6-13.6-12.2-26.5-13.6-27.7
			c-3.5-2.8-6.7-5.2-9.7-7.3c3-1.7,4.9-7.3,3.3-11.1c-2.4-5.9-6.5-8.3-8.7-9.4c-0.5-0.3-1.8-0.7-1.1,0.4c3.9,5.1,1,13.9-4.8,12.4
			c-0.5-0.3-0.9-0.7-1.4-1c-4.2-4-10.4-14-2.4-32.6c0.2-0.2,0.1-0.9-0.7,0.1c-1.4,1.7-4.7,6.4-5.8,14.4c-0.3,3-0.4,5.3-0.2,7.1
			c-1.8-5.1-3.5-15.6,5.1-29.2C63.9-1.4,35,26.8,69.7,48.9C86.6,59.6,92.9,66.6,95,70.6c4.5,8.6,5,20.2,1.6,27.2
			c-2.6,5.4-6.9,11.9-7.4,10.9c-1.2-2.4-0.5-10.2-13.8-15C57.1,87.2,25.6,97.4,13,70.2c-6.2-12-1.3-28.1-0.3-33
			c0.1-0.8-9.6,3.1-11.7,15.1C-1,61-2.4,82.6,23.3,93.1c14.1,5.8,30.3,5.1,41.6,5.1c22.1,0,21,14.2,23,17.7c0.1,0.1,0.1,0.3,0.4,0
			c2.4-2.5,11.5-13.9,17.5-19.5C143,61.5,106.3,38.2,96.5,33.2z"/>
	</g>
</g>
</svg>
