<?xml version="1.0" encoding="utf-8"?>
<!-- Generator: Adobe Illustrator 26.0.1, SVG Export Plug-In . SVG Version: 6.00 Build 0)  -->
<svg version="1.1" id="Layer_1" xmlns="http://www.w3.org/2000/svg" xmlns:xlink="http://www.w3.org/1999/xlink" x="0px" y="0px"
	 viewBox="0 0 414.1 375" style="enable-background:new 0 0 414.1 375;" xml:space="preserve">
<style type="text/css">
	.st0{display:none;}
	.st1{display:inline;fill-rule:evenodd;clip-rule:evenodd;fill:#A6DDEC;stroke:#000000;stroke-width:1.1232;stroke-miterlimit:10;}
	.st2{display:inline;fill:#242424;}
	.st3{display:inline;fill:#2F5A41;}
	.st4{fill:#FFFFFF;stroke:#000000;stroke-width:0.5;stroke-miterlimit:10;}
	.st5{fill-rule:evenodd;clip-rule:evenodd;fill:#FFFFFF;stroke:#000000;stroke-width:0.5;stroke-miterlimit:10;}
	.st6{fill:#FFFFFF;}
	.st7{fill:#FFFFFF;stroke:#000000;stroke-width:2;stroke-miterlimit:10;}
	.st8{display:none;fill:#15E86F;stroke:#000000;stroke-miterlimit:10;}
</style>
<g id="Background_00000004529568606700434190000005445028059765178280_" class="st0">
	<path class="st1" d="M340.9,203.6c-0.1,76.3-59.6,138.2-133,138.2s-133-61.9-133-138.2s59.6-138.7,133-138.2
		C281.9,65.9,341,127.4,340.9,203.6z"/>
	<path class="st2" d="M155.1,97.9c0-0.5,0.4-0.8,0.9-0.8h1.2l21.1,26.3c0,0,0,0,0.1,0v-25c0-0.5,0.4-0.9,0.9-0.9h1.6
		c0.5,0,0.9,0.4,0.9,0.9v31.4c0,0.5-0.4,0.8-0.9,0.8H180l-21.4-26.8l0,0v25.4c0,0.5-0.4,0.9-0.9,0.9H156c-0.5,0-0.9-0.4-0.9-0.9
		V97.9z"/>
	<rect class="st3" width="414.1" height="375"/>
</g>
<g id="AP_Logo">
	<g id="Church_of_the_Nazarene">
		<g>
			<path class="st4" d="M106.1,284.2c3.6,0,6.2,1.2,8.6,3.3c0.3,0.3,0.3,0.7,0,1l-1,1c-0.3,0.4-0.6,0.3-0.9,0
				c-1.9-1.6-4.4-2.7-6.8-2.7c-5.6,0-9.9,4.7-9.9,10.3c0,5.5,4.3,10.2,9.9,10.2c3.1,0,4.9-1.2,6.8-2.7c0.4-0.3,0.6-0.2,0.9-0.1
				l1.1,1c0.3,0.2,0.2,0.7,0,1c-2.4,2.4-5.5,3.5-8.7,3.5c-7.1,0-12.9-5.7-12.9-12.8C93.2,290,99,284.2,106.1,284.2z"/>
			<path class="st4" d="M124.7,285.3c0-0.4,0.3-0.7,0.7-0.7h1.4c0.4,0,0.7,0.3,0.7,0.7v10.4H142v-10.4c0-0.4,0.3-0.7,0.7-0.7h1.4
				c0.4,0,0.7,0.3,0.7,0.7v23.6c0,0.4-0.3,0.7-0.7,0.7h-1.4c-0.4,0-0.7-0.3-0.7-0.7v-10.8h-14.5v10.8c0,0.4-0.3,0.7-0.7,0.7h-1.4
				c-0.4,0-0.7-0.3-0.7-0.7C124.7,308.9,124.7,285.3,124.7,285.3z"/>
			<path class="st4" d="M156,285.3c0-0.4,0.3-0.7,0.7-0.7h1.4c0.4,0,0.7,0.3,0.7,0.7v14.9c0,4.1,2.5,7.2,6.7,7.2s6.8-3.1,6.8-7.2
				v-14.9c0-0.4,0.3-0.7,0.7-0.7h1.4c0.4,0,0.7,0.3,0.7,0.7v15.1c0,5.4-3.8,9.5-9.5,9.5c-5.6,0-9.4-4.1-9.4-9.5v-15.1H156z"/>
			<path class="st4" d="M186.3,285.3c0-0.4,0.3-0.7,0.7-0.7h9.2c4.3,0,7.8,3.3,7.8,7.6c0,3.3-2.2,6-5.3,7.3l4.9,9c0.2,0.5,0,1-0.6,1
				h-1.8c-0.3,0-0.5-0.2-0.6-0.3l-4.7-9.4h-6.8v9.1c0,0.4-0.3,0.7-0.7,0.7H187c-0.4,0-0.7-0.3-0.7-0.7V285.3z M196,297.4
				c2.7,0,5.1-2.3,5.1-5.2c0-2.7-2.4-5-5.1-5h-6.9v10.2H196z"/>
			<path class="st4" d="M225.3,284.2c3.6,0,6.2,1.2,8.6,3.3c0.3,0.3,0.3,0.7,0,1l-1,1c-0.3,0.4-0.6,0.3-0.9,0
				c-1.9-1.6-4.4-2.7-6.8-2.7c-5.6,0-9.9,4.7-9.9,10.3c0,5.5,4.3,10.2,9.9,10.2c3.1,0,4.9-1.2,6.8-2.7c0.4-0.3,0.6-0.2,0.9-0.1
				l1.1,1c0.3,0.2,0.2,0.7,0,1c-2.4,2.4-5.5,3.5-8.7,3.5c-7.1,0-12.9-5.7-12.9-12.8C212.5,290,218.2,284.2,225.3,284.2z"/>
			<path class="st4" d="M243.9,285.3c0-0.4,0.3-0.7,0.7-0.7h1.4c0.4,0,0.7,0.3,0.7,0.7v10.4h14.5v-10.4c0-0.4,0.3-0.7,0.7-0.7h1.4
				c0.4,0,0.7,0.3,0.7,0.7v23.6c0,0.4-0.3,0.7-0.7,0.7h-1.4c-0.4,0-0.7-0.3-0.7-0.7v-10.8h-14.5v10.8c0,0.4-0.3,0.7-0.7,0.7h-1.4
				c-0.4,0-0.7-0.3-0.7-0.7L243.9,285.3L243.9,285.3z"/>
		</g>
		<g>
			<path class="st4" d="M70.1,325.8c0-0.5,0.4-0.8,0.9-0.8h1.2l21.1,26.3c0,0,0,0,0.1,0v-24.9c0-0.5,0.4-0.9,0.9-0.9h1.6
				c0.5,0,0.9,0.4,0.9,0.9v31.4c0,0.5-0.4,0.8-0.9,0.8h-0.8l-21.4-26.8l0,0v25.4c0,0.5-0.4,0.9-0.9,0.9h-1.6c-0.5,0-0.9-0.4-0.9-0.9
				v-31.4H70.1z"/>
			<path class="st4" d="M106.9,356.9l14.2-31.4c0.1-0.3,0.4-0.5,0.8-0.5h0.5c0.4,0,0.7,0.2,0.8,0.5l14.1,31.4
				c0.3,0.6-0.1,1.2-0.8,1.2h-1.9c-0.4,0-0.7-0.3-0.8-0.5l-3.5-7.7h-16.6l-3.4,7.7c-0.1,0.2-0.4,0.5-0.8,0.5h-1.9
				C107,358.1,106.7,357.5,106.9,356.9z M129.1,347c-2.3-5.1-4.5-10.2-6.8-15.3h-0.4l-6.8,15.3H129.1z"/>
			<path class="st4" d="M144.2,356.4l17-27.6v-0.1h-14.7c-0.5,0-0.9-0.4-0.9-0.9v-1.5c0-0.5,0.4-0.9,0.9-0.9h18.9
				c0.5,0,0.9,0.4,0.9,0.9v0.6l-17.2,27.9l0,0h15.4c0.5,0,0.9,0.4,0.9,0.9v1.5c0,0.5-0.4,0.9-0.9,0.9h-19.3c-0.5,0-0.9-0.4-0.9-0.9
				L144.2,356.4L144.2,356.4z"/>
			<path class="st4" d="M173.1,356.9l14.2-31.4c0.1-0.3,0.4-0.5,0.8-0.5h0.5c0.4,0,0.7,0.2,0.8,0.5l14.1,31.4
				c0.3,0.6-0.1,1.2-0.8,1.2h-1.9c-0.4,0-0.7-0.3-0.8-0.5l-3.5-7.7h-16.6l-3.4,7.7c-0.1,0.2-0.4,0.5-0.8,0.5h-1.9
				C173.2,358.1,172.8,357.5,173.1,356.9z M195.3,347c-2.3-5.1-4.5-10.2-6.8-15.3h-0.4l-6.8,15.3H195.3z"/>
			<path class="st4" d="M213.7,326.3c0-0.5,0.4-0.9,0.9-0.9h12.1c5.6,0,10.2,4.4,10.2,10c0,4.3-2.9,7.9-6.9,9.5l6.4,11.9
				c0.3,0.6,0,1.4-0.8,1.4h-2.4c-0.4,0-0.7-0.2-0.7-0.4l-6.2-12.4h-8.9v11.9c0,0.5-0.4,0.9-0.9,0.9h-1.8c-0.5,0-0.9-0.4-0.9-0.9v-31
				H213.7z M226.5,342.2c3.6,0,6.7-3,6.7-6.8c0-3.6-3.1-6.6-6.7-6.6h-9.1v13.4H226.5z"/>
			<path class="st4" d="M249.7,326.3c0-0.5,0.4-0.9,0.9-0.9H269c0.5,0,0.9,0.4,0.9,0.9v1.4c0,0.5-0.4,0.9-0.9,0.9h-15.7V340h13.4
				c0.5,0,0.9,0.4,0.9,0.9v1.4c0,0.5-0.4,0.9-0.9,0.9h-13.4V355H269c0.5,0,0.9,0.4,0.9,0.9v1.4c0,0.5-0.4,0.9-0.9,0.9h-18.4
				c-0.5,0-0.9-0.4-0.9-0.9L249.7,326.3L249.7,326.3z"/>
			<path class="st4" d="M282.5,325.8c0-0.5,0.4-0.8,0.9-0.8h1.2l21.1,26.3c0,0,0,0,0.1,0v-24.9c0-0.5,0.4-0.9,0.9-0.9h1.6
				c0.5,0,0.9,0.4,0.9,0.9v31.4c0,0.5-0.4,0.8-0.9,0.8h-0.8l-21.4-26.8l0,0v25.4c0,0.5-0.4,0.9-0.9,0.9h-1.6c-0.5,0-0.9-0.4-0.9-0.9
				v-31.4H282.5z"/>
			<path class="st4" d="M323.8,326.3c0-0.5,0.4-0.9,0.9-0.9h18.4c0.5,0,0.9,0.4,0.9,0.9v1.4c0,0.5-0.4,0.9-0.9,0.9h-15.7V340h13.4
				c0.5,0,0.9,0.4,0.9,0.9v1.4c0,0.5-0.4,0.9-0.9,0.9h-13.4V355h15.7c0.5,0,0.9,0.4,0.9,0.9v1.4c0,0.5-0.4,0.9-0.9,0.9h-18.4
				c-0.5,0-0.9-0.4-0.9-0.9V326.3z"/>
		</g>
		<g>
			<path class="st4" d="M280.5,294.7c2.2,0,4,1.8,4,4s-1.8,4-4,4s-3.9-1.8-3.9-4S278.3,294.7,280.5,294.7z M280.5,301.2
				c1.4,0,2.5-1.1,2.5-2.5s-1.1-2.5-2.5-2.5s-2.5,1.2-2.5,2.5C278,300.1,279.1,301.2,280.5,301.2z"/>
			<path class="st4" d="M286.2,295c0-0.1,0.1-0.2,0.2-0.2h4.5c0.1,0,0.2,0.1,0.2,0.2v0.9c0,0.1-0.1,0.2-0.2,0.2h-3.3v2.1h2.7
				c0.1,0,0.2,0.1,0.2,0.2v0.9c0,0.1-0.1,0.2-0.2,0.2h-2.7v2.8c0,0.1-0.1,0.2-0.2,0.2h-1c-0.1,0-0.2-0.1-0.2-0.2V295z"/>
			<path class="st4" d="M296.4,296.2h-1.7c-0.1,0-0.2-0.1-0.2-0.2v-1c0-0.1,0.1-0.2,0.2-0.2h4.8c0.1,0,0.2,0.1,0.2,0.2v0.9
				c0,0.1-0.1,0.2-0.2,0.2h-1.7v6.2c0,0.1-0.1,0.2-0.2,0.2h-1c-0.1,0-0.2-0.1-0.2-0.2L296.4,296.2L296.4,296.2z"/>
			<path class="st4" d="M301.2,295c0-0.1,0.1-0.2,0.2-0.2h1c0.1,0,0.2,0.1,0.2,0.2v2.9h3.6V295c0-0.1,0.1-0.2,0.2-0.2h1
				c0.1,0,0.2,0.1,0.2,0.2v7.3c0,0.1-0.1,0.2-0.2,0.2h-1c-0.1,0-0.2-0.1-0.2-0.2v-3h-3.6v3c0,0.1-0.1,0.2-0.2,0.2h-1
				c-0.1,0-0.2-0.1-0.2-0.2V295z"/>
			<path class="st4" d="M309.9,295c0-0.1,0.1-0.2,0.2-0.2h4.5c0.1,0,0.2,0.1,0.2,0.2v0.9c0,0.1-0.1,0.2-0.2,0.2h-3.3v1.8h2.7
				c0.1,0,0.2,0.1,0.2,0.2v0.9c0,0.1-0.1,0.2-0.2,0.2h-2.7v1.9h3.3c0.1,0,0.2,0.1,0.2,0.2v0.9c0,0.1-0.1,0.2-0.2,0.2h-4.5
				c-0.1,0-0.2-0.1-0.2-0.2V295z"/>
		</g>
		<rect x="276.6" y="306.1" class="st5" width="38.5" height="1.7"/>
	</g>
	<g id="Bird-Bible">
		<g id="Registered_Mark">
			<path class="st6" d="M142.2,256.2v-0.6h0.5c0.2,0,0.3,0.1,0.3,0.3s-0.1,0.3-0.3,0.3H142.2z M141.8,257.2c0,0.1,0,0.1,0.1,0.1h0.1
				c0.1,0,0.1-0.1,0.1-0.1v-0.7h0.4l0.3,0.7l0.1,0.1h0.2c0.1,0,0.1-0.1,0.1-0.2c-0.1-0.2-0.2-0.4-0.3-0.7c0.2,0,0.5-0.2,0.5-0.6
				s-0.3-0.6-0.7-0.6h-0.8c-0.1,0-0.1,0-0.1,0.1L141.8,257.2L141.8,257.2z M140.9,256.3c0-0.9,0.8-1.7,1.7-1.7s1.7,0.7,1.7,1.7
				c0,0.9-0.7,1.7-1.7,1.7C141.6,257.9,140.9,257.2,140.9,256.3 M140.5,256.3c0,1.1,0.9,2,2,2s2-0.9,2-2s-0.9-2-2-2
				C141.4,254.3,140.5,255.2,140.5,256.3"/>
		</g>
		<g id="Bible">
			<path id="Cover_Left" class="st5" d="M172.6,254.1c6.9,0,19.6,0.1,31.4,0c14.1-0.1,26.5,0,27.3,0c0.1,0,0.4,0.2,0.5,0.4
				c0.2,0.7,0.2,2.4-0.1,3.2c-0.1,0.2-0.2,0.3-0.4,0.4c-0.7,0-59.3,0-59.8,0c-0.3,0,0.4-3.5,0.6-3.7
				C172.2,254.3,172.4,254.2,172.6,254.1z"/>
			<path id="Cover-Left-Left" class="st5" d="M145.9,254.1c2.3,0,7.9,0,8.3,0c0.1,0,1.2,0,1.4,0c1.4,0,0.3,3.4,0.2,3.7
				c-0.3,0.4-1.5,0.3-1.6,0.3c-0.5,0-6.1,0-8.4,0c-0.3,0-0.6-0.2-0.6-0.3c0-0.2,0-3,0-3.2C145.3,254.3,145.7,254.2,145.9,254.1z"/>
			<path id="Cover-Right" class="st5" d="M237,254.1c15.6,0,53,0,56.5,0c0.9,0,3.9-0.1,4.5,0.1c0.6,0.2,0.5,3.7-0.2,3.9
				c-0.7,0.1-45.6,0-60.8,0c-0.3,0-0.5-0.2-0.5-0.4c-0.1-0.2-0.1-3,0-3.3C236.5,254.2,236.8,254.2,237,254.1z"/>
			<path id="Left" class="st5" d="M147.9,247.3c2.7-0.6,10.8-1.5,17.3-2.9c17.4-3.8,40.4-10.7,50.5-8.1c9.8,2.5,14.3,10.9,15.5,13.5
				c0.3,0.8-0.4,0.7-0.4,0.7h-83.5c0,0-1.2,0-1.2-0.7C146.1,249.3,145.7,247.7,147.9,247.3z"/>
			<path id="Right" class="st5" d="M298.6,249c-0.1-0.3-0.6-0.9-1.1-1c-1.9-0.4-7.7-1.2-12.2-2.3c-12.3-3-27.8-8.8-34.8-6.4
				c-6.1,2-10.5,8.6-11.8,10.7c-0.3,0.5,0.3,0.6,0.3,0.6h59.1c0,0,0.3,0,0.4-0.1s0.3-0.2,0.3-0.4C298.7,249.8,298.7,249.2,298.6,249
				z"/>
			<path class="st4" d="M158.4,254.2c-0.4,5.3-2.4,8.5-4.7,10.9c-0.7,0.7-2.4,2-2.5,2c0.6,0.6,7.4,0.4,8,0.4
				c0.2,1.1-0.1,2.9-1.3,6.9c4.2-0.4,9.1-4.6,10.2-9.7c0.3-1.4,0.8-3.2,1.1-4.8c0.4-2.8,0.9-5.5,0.9-5.6
				C166.3,254.2,162.3,254.2,158.4,254.2z M166,259l-0.2,0.8c-0.1,0.2-0.2,0.4-0.3,0.4h-2.1L162,265c0,0.1-0.2,0.2-0.4,0.2h-0.8
				c-0.2,0-0.3-0.1-0.3-0.2l1.4-4.8h-2.1c-0.1,0-0.1-0.2-0.1-0.4l0.2-0.8c0.1-0.2,0.2-0.4,0.3-0.4h2.1l0.6-2.2
				c0-0.1,0.2-0.2,0.4-0.2h0.8c0.2,0,0.3,0.1,0.3,0.2l-0.6,2.2h2.1C166.1,258.7,166.1,258.9,166,259z"/>
		</g>
		<g id="Bird">
			<path id="Bird_eye_lg_00000093153663740680004260000012829700541056924342_" class="st4" d="M236.1,227.8
				c-0.6-1.3-2.4-1.9-3.1-1.9c-2.1-0.2-1.9,1,0,3.3C235.9,232.8,237,229.6,236.1,227.8z"/>
			<path id="Bird2_00000122680924740017709740000011670148935974499456_" class="st4" d="M172.3,181.7c5.4,4.3,13.3,10.4,28.3,10.4
				c0.3,0,0.2-0.5-0.2-0.8c-37.2-25.5-30.3-47.9-30.3-51.4c0-3.3-5.2,6.7-5.1,12.5c-0.4,18,16.6,31.6,16.4,31.6
				c-6.3-1.6-14.5-11.2-17.3-15.6c-0.1-0.2-0.7-0.6-0.3,0.6C164.3,171,166.4,176.5,172.3,181.7z"/>
			<path id="Bird1_00000160154197706315064100000008316407788755345796_" class="st4" d="M242.5,165.6c-5.6-2.9-12.7-4.4-11-3.3
				c0.1,0.1,19.9,13.8,25.5,23.6c8.6,15.1-1.5,31.7-4.8,32.7c-0.2,0.1-0.1-0.9-0.1-2.2c0.6-13.6-12.2-26.5-13.6-27.7
				c-3.5-2.8-6.7-5.2-9.7-7.3c3-1.7,4.9-7.3,3.3-11.1c-2.4-5.9-6.5-8.3-8.7-9.4c-0.5-0.3-1.8-0.7-1.1,0.4c3.9,5.1,1,13.9-4.8,12.4
				c-0.5-0.3-0.9-0.7-1.4-1c-4.2-4-10.4-14-2.4-32.6c0.2-0.2,0.1-0.9-0.7,0.1c-1.4,1.7-4.7,6.4-5.8,14.4c-0.3,3-0.4,5.3-0.2,7.1
				c-1.8-5.1-3.5-15.6,5.1-29.2c-2.3-1.4-31.2,26.8,3.6,48.9c16.9,10.7,23.2,17.7,25.3,21.7c4.5,8.6,5,20.2,1.6,27.2
				c-2.6,5.4-6.9,11.9-7.4,10.9c-1.2-2.4-0.5-10.2-13.8-15c-18.3-6.6-49.9,3.6-62.5-23.6c-6.2-12-1.3-28.1-0.3-33
				c0.1-0.8-9.6,3.1-11.7,15.1c-1.9,8.8-3.3,30.4,22.3,41c14.1,5.8,30.3,5.1,41.6,5.1c22.1,0,21,14.2,23,17.7c0.1,0.1,0.1,0.3,0.4,0
				c2.4-2.5,11.5-13.9,17.5-19.5C288.9,193.9,252.3,170.6,242.5,165.6z"/>
		</g>
	</g>
	<g id="Avon-Park">
		<path id="A_00000108998848306536634000000008282620404493097871_" class="st7" d="M78.5,168.1c-1.8-0.7-6.6-2.6-9.3-3.5
			c-2.7-1-5.9-2.1-9.6-3.3c0.1,1.6,0.3,3.3,0.6,5.1s0.8,3.7,1.3,5.6c0.5,1.9,1.2,3.8,2,5.7s1.6,3.7,2.6,5.4c1.3,0.1,2.5,0,3.7-0.2
			s4.8-1.1,6-1.3l-1.4,13.7c-4.3,0.8-8.7,1.3-13.7,1.5s-10,0-15.1-0.7c-4.5-0.6-8.6-1.7-12.3-3.4s-6.9-3.8-9.5-6.3s-4.5-5.4-5.7-8.6
			c-1.2-3.2-1.6-6.7-1.1-10.3s1.7-6.8,3.8-9.7s4.7-5.2,7.9-7.1c3.2-1.8,6.8-3.2,10.8-3.9c4-0.8,8.2-0.8,12.6-0.3
			c1.1,0.1,2.4,0.3,3.8,0.6c1.4,0.2,3.2,0.7,5.4,1.2c2.2,0.6,4.8,1.4,7.9,2.5s8.5,3.3,13,5.1L78.5,168.1z M46.3,159
			c-2.1,0-4.1,0.2-6,0.7s-3.6,1.2-5,2.1c-1.4,0.9-2.6,2-3.5,3.2c-0.9,1.3-1.5,2.7-1.7,4.2c-0.2,1.8,0,3.5,0.8,5.1s1.9,3,3.5,4.2
			s3.4,2.2,5.6,3.1c2.2,0.8,4.6,1.4,7.2,1.8c1.8,0.2,3.5,0.4,5.1,0.4c-1-1.8-1.8-3.7-2.6-5.9s-1.4-4.4-1.9-6.6
			c-0.5-2.2-0.9-4.4-1.2-6.5C46.4,162.5,46.3,160.6,46.3,159z"/>
		<path id="V" class="st7" d="M50.4,84.7c5.8,3.7,10.9,7.3,15.4,11s8.5,7.6,12.1,11.7c3.6,4.2,7.2,8.5,10,13.6
			c2.2,4.1,3,6.8,3.9,13.6c-14.7,2.9-21.8,2.1-33,0.4c-11.2-1.7-21.1-4.2-29.7-7.6l4.5-12c5.6,2.1,11.9,4,19,5.6s14.8,2.8,23.2,3.6
			c-4.1-5.5-9-10.8-14.5-15.6c-5.5-4.9-11.5-9.4-18-13.6L50.4,84.7z"/>
		<path id="O" class="st7" d="M78.5,50.6c2.5-2.2,5.2-3.8,8-4.6s5.7-1,8.6-0.5s5.8,1.6,8.6,3.3c2.9,1.8,5.6,4.1,8.2,7.1
			c3.1,3.6,5.7,7.5,7.7,11.7s3.4,8.4,4,12.5s0.5,8-0.3,11.6s-2.6,6.6-5.2,8.9c-2.5,2.2-5.2,3.7-8.1,4.5c-2.9,0.7-5.9,0.8-8.9,0.2
			c-3-0.6-6-1.9-9-3.8s-5.9-4.4-8.6-7.5c-3-3.4-5.4-7.1-7.3-11.2s-3.1-8.1-3.6-12.1s-0.3-7.8,0.6-11.3
			C74.1,55.8,75.9,52.9,78.5,50.6z M87.6,60.1c-1.3,1.1-2.1,2.8-2.3,4.9s0,4.4,0.6,6.9s1.5,5,2.8,7.5s2.7,4.7,4.4,6.6
			c1.2,1.4,2.6,2.6,4,3.7c1.4,1,2.9,1.8,4.3,2.3s2.8,0.7,4.1,0.6c1.3-0.1,2.5-0.6,3.5-1.5c1.3-1.2,2.1-2.8,2.2-4.9
			c0.2-2.1,0-4.4-0.7-6.9s-1.7-5-3-7.6s-2.9-4.9-4.7-6.9c-2.7-3.1-5.4-5.1-8.1-6C92,57.8,89.6,58.3,87.6,60.1z"/>
		<path id="N" class="st7" d="M129,18.6c0,1,0.2,2.1,0.5,3.2s0.6,2.1,0.9,2.9c0.4-2.4,1.3-4.3,2.7-5.9s3.2-2.8,5.3-3.6
			c5.1-1.9,9.6-1.6,13.7,0.9c4,2.5,7.4,7.4,10.2,14.6c4.4,11.5,6.5,24.8,6.3,40.8L155.9,76c0.1-2.7-0.5-10.7-0.8-14.1
			c-0.3-3.5-0.7-7-1.2-10.4c-0.5-3.5-1.1-6.7-1.8-9.8s-1.4-5.5-2.1-7.3c-2.1-5.5-4.6-7.7-7.5-6.6c-3.3,1.3-5.1,4.1-5.4,8.7
			c-0.3,4.5,0.8,10.1,3.3,16.7c1,2.7,2.4,5.6,4.2,8.9c1.8,3.3,5.9,12.3,8,15.5L142.2,83c-2.8-4.3-6.9-11.9-9.5-17.2
			c-2.5-5.3-5-11.1-7.4-17.4c-1.8-4.6-3.2-8.8-4.3-12.7c-1.1-3.9-2-7.5-2.6-10.8L129,18.6z"/>
		<path id="P" class="st7" d="M263.3,13.5c7.2,3.4,13,6.6,17.4,9.6c4.3,3,7.5,5.9,9.4,8.8s2.8,5.9,2.7,9.1
			c-0.2,3.1-1.1,6.5-2.8,10.2c-2.4,5.1-6.2,8.5-11.5,10.5c-5.3,1.9-12,1.9-20.1,0.1c-1,2.3-2,4.6-2.9,6.8c-1,2.2-1.4,3.3-2.4,5.3
			L240.6,70c2.2-4.7,4.8-10,7-14.9s4.3-9.8,6.2-14.6c2-4.8,3.8-9.5,5.4-14C260.7,21.8,262.2,17.6,263.3,13.5z M270.3,31.6
			c-1.1,3.3-2.2,6.4-3.4,9.5c-1.2,3-2.3,5.8-3.4,8.3c8,1.6,13.2-0.2,15.7-5.4c0.5-1,0.6-2,0.4-3.1s-0.7-2.2-1.5-3.3
			s-1.9-2.1-3.2-3.2C273.5,33.3,272,32.4,270.3,31.6z"/>
		<path id="A" class="st7" d="M299.1,103.6c1.6-1,3.7-2.2,6-3.8c2.4-1.5,5.2-3.4,8.5-5.6c-1.3-0.9-2.8-1.8-4.4-2.6
			c-1.6-0.8-3.4-1.6-5.2-2.3c-1.8-0.7-3.7-1.3-5.7-1.8s-3.9-0.9-5.9-1.2c-0.8,1-1.1,1.4-2.1,3c-0.6,1-1.4,2.3-2.5,4.2l-10.6-7.7
			c1.9-4,4.7-8,7.5-12.1s6-8,9.6-11.6c3.2-3.2,6.6-5.8,10.1-7.8c3.6-2,7.1-3.2,10.7-3.8c3.6-0.5,7-0.3,10.3,0.7s6.3,2.7,8.9,5.3
			c2.6,2.5,4.4,5.5,5.4,8.9s1.3,6.9,0.9,10.5s-1.6,7.3-3.4,11s-4.3,7.1-7.4,10.2c-0.8,0.8-1.7,1.7-2.8,2.7c-1.1,1-2.5,2.2-4.3,3.6
			s-4,3-6.8,4.8c-2.7,1.8-4.4,2.6-8.5,5.1L299.1,103.6z M323.5,84.9c1.3-1.7,2.3-3.4,3-5.2c0.8-1.8,1.2-3.5,1.4-5.2
			c0.2-1.7,0-3.2-0.5-4.7s-1.2-2.8-2.3-3.9c-1.3-1.3-2.8-2.1-4.6-2.4c-1.7-0.3-3.5-0.2-5.4,0.2c-1.9,0.5-3.8,1.4-5.8,2.6
			c-2,1.3-3.9,2.8-5.8,4.7c-1.3,1.3-2.4,2.6-3.4,3.8c2,0.3,4.1,0.8,6.3,1.5c2.2,0.7,4.4,1.6,6.4,2.5c2.1,0.9,4,1.9,5.9,3
			C320.6,82.9,322.2,83.9,323.5,84.9z"/>
		<path id="R" class="st7" d="M369.6,95.2c0.5,0.8,1.1,1.8,1.8,2.9c0.6,1.1,1.3,2.4,2,3.8c2,4,3.4,7.9,4.2,11.5
			c0.8,3.7,0.9,7,0.5,10.1c-0.5,3.1-1.6,5.9-3.3,8.3c-1.7,2.4-4.1,4.4-7.2,5.9c-3.9,1.9-7.8,2.6-11.7,2c-3.9-0.6-7.5-2.5-10.8-5.5
			c-0.3,5.4-4.6,15.5-12.9,22.4l-4-10.8c2.2-2.1,9.3-11.5,5.6-18.3c-2.7,1.3-5.2,2.5-7.5,3.5c-2.2,1-2.2,1-4.3,2.2l-7.4-11
			c9.4-4.1,18.9-8.3,28.7-13.1c4.4-2.2,8.8-4.4,13.2-6.7S365.3,97.6,369.6,95.2z M363.3,112.8c-2,1.2-4.3,2.5-7,3.9
			c-2.6,1.3-5.5,2.8-8.5,4.3c2.3,2.7,4.4,4.6,6.5,5.6c2.1,1.1,4.5,0.9,7.2-0.4c2.1-1,3.3-2.6,3.5-4.8S364.7,116.4,363.3,112.8z"/>
		<path id="K" class="st7" d="M391.8,184.8c-0.9-0.7-4.9-2.8-6.4-3.7c-1.5-0.8-3-1.7-4.8-2.5c-1.7-0.9-3.5-1.7-5.4-2.5
			s-3.7-1.5-5.3-2.1s-3.2-1-4.6-1.3s-2.4-0.4-3.1-0.3c-0.5,0.1-1.8,0.6-2.5,1.5s-1.3,3.4-1.9,4.9c-5.8,14.2-12,16.8-17.7,19.8
			l-0.9-12.6c5.4-3.4,7.3-7.5,7.4-11.2c-1,0.3-3.6,1-4.9,1.3s-3.1,0.4-3.9,0.6l-3-12.5c1.5-0.3,5-0.8,7.7-1.3s5.7-1.1,9.1-1.8
			s6.9-1.4,10.6-2.2s7.3-1.6,10.8-2.4c3.5-0.8,6.7-1.6,9.7-2.3s5.4-1.3,7.3-1.9l2.9,12.5c-1.5,0.4-3,0.7-4.5,1s-3.1,0.6-4.7,0.9
			c2.5,0.7,4.9,1.5,7.2,2.7c2.3,1.1,4.5,2.5,6.5,4.3L391.8,184.8z"/>
	</g>
</g>
<polygon class="st8" points="340.1,196.9 270.2,197.9 270.2,192.1 340.1,192.1 "/>
</svg>
