<?xml version="1.0" encoding="utf-8"?>
<!-- Generator: Adobe Illustrator 26.0.1, SVG Export Plug-In . SVG Version: 6.00 Build 0)  -->
<svg version="1.1" id="Layer_1" xmlns="http://www.w3.org/2000/svg" xmlns:xlink="http://www.w3.org/1999/xlink" x="0px" y="0px"
	 viewBox="0 0 601 601" style="enable-background:new 0 0 601 601;" xml:space="preserve">
<style type="text/css">
	.st0{fill:#4A4B4C;stroke:#000000;stroke-miterlimit:10;}
	.st1{display:none;fill-rule:evenodd;clip-rule:evenodd;fill:#A6DDEC;stroke:#000000;stroke-width:1.1232;stroke-miterlimit:10;}
	.st2{display:none;fill:#242424;stroke:#000000;stroke-miterlimit:10;}
	.st3{display:none;fill:#2F5A41;stroke:#000000;stroke-miterlimit:10;}
	.st4{fill:#4A4B4C;stroke:#000000;stroke-width:0.5;stroke-miterlimit:10;}
	.st5{fill-rule:evenodd;clip-rule:evenodd;fill:#4A4B4C;stroke:#000000;stroke-width:0.5;stroke-miterlimit:10;}
	.st6{fill-rule:evenodd;clip-rule:evenodd;fill:#4A4B4C;stroke:#000000;stroke-miterlimit:10;}
	.st7{fill:#4A4B4C;stroke:#000000;stroke-width:2;stroke-miterlimit:10;}
	.st8{display:none;fill:#15E86F;stroke:#000000;stroke-miterlimit:10;}
	.st9{fill-rule:evenodd;clip-rule:evenodd;fill:#FFF35F;stroke:#000000;stroke-width:1.1232;stroke-miterlimit:10;}
</style>
<g id="Background_00000004529568606700434190000005445028059765178280_">
	<rect x="2.6" y="0.1" class="st0" width="600" height="600"/>
	<path class="st1" d="M493.9,347.3c-0.1,110.6-86.4,200.2-192.7,200.2s-192.7-89.7-192.7-200.2s86.4-201,192.7-200.2
		C408.5,147.8,494.1,236.9,493.9,347.3z"/>
	<path class="st2" d="M224.7,194.2c0-0.7,0.6-1.2,1.3-1.2h1.7l30.6,38.1c0,0,0,0,0.1,0v-36.2c0-0.7,0.6-1.3,1.3-1.3h2.3
		c0.7,0,1.3,0.6,1.3,1.3v45.5c0,0.7-0.6,1.2-1.3,1.2h-1.3l-31-38.8l0,0v36.8c0,0.7-0.6,1.3-1.3,1.3H226c-0.7,0-1.3-0.6-1.3-1.3
		V194.2z"/>
	<rect y="52.3" class="st3" width="600" height="543.3"/>
</g>
<g id="AP_Logo">
	<g id="Church_of_the_Nazarene">
		<g>
			<path class="st4" d="M145.3,450.9c5.5,0,9.4,1.8,13.1,5c0.5,0.5,0.5,1.1,0,1.5l-1.5,1.5c-0.5,0.6-0.9,0.5-1.4,0
				c-2.9-2.4-6.7-4.1-10.4-4.1c-8.5,0-15.1,7.2-15.1,15.7c0,8.4,6.6,15.5,15.1,15.5c4.7,0,7.5-1.8,10.4-4.1c0.6-0.5,0.9-0.3,1.4-0.2
				l1.7,1.5c0.5,0.3,0.3,1.1,0,1.5c-3.7,3.7-8.4,5.3-13.3,5.3c-10.8,0-19.7-8.7-19.7-19.5C125.7,459.8,134.5,450.9,145.3,450.9z"/>
			<path class="st4" d="M173.7,452.6c0-0.6,0.5-1.1,1.1-1.1h2.1c0.6,0,1.1,0.5,1.1,1.1v15.9H200v-15.9c0-0.6,0.5-1.1,1.1-1.1h2.1
				c0.6,0,1.1,0.5,1.1,1.1v36c0,0.6-0.5,1.1-1.1,1.1h-2.1c-0.6,0-1.1-0.5-1.1-1.1v-16.5H178v16.5c0,0.6-0.5,1.1-1.1,1.1h-2.1
				c-0.6,0-1.1-0.5-1.1-1.1C173.7,488.6,173.7,452.6,173.7,452.6z"/>
			<path class="st4" d="M221.4,452.6c0-0.6,0.5-1.1,1.1-1.1h2.1c0.6,0,1.1,0.5,1.1,1.1v22.7c0,6.2,3.8,11,10.2,11s10.4-4.7,10.4-11
				v-22.7c0-0.6,0.5-1.1,1.1-1.1h2.1c0.6,0,1.1,0.5,1.1,1.1v23c0,8.2-5.8,14.5-14.5,14.5c-8.5,0-14.3-6.2-14.3-14.5v-23H221.4z"/>
			<path class="st4" d="M267.6,452.6c0-0.6,0.5-1.1,1.1-1.1h14c6.6,0,11.9,5,11.9,11.6c0,5-3.4,9.1-8.1,11.1l7.5,13.7
				c0.3,0.8,0,1.5-0.9,1.5h-2.7c-0.5,0-0.8-0.3-0.9-0.5l-7.2-14.3h-10.4v13.9c0,0.6-0.5,1.1-1.1,1.1h-2.1c-0.6,0-1.1-0.5-1.1-1.1
				V452.6z M282.3,471c4.1,0,7.8-3.5,7.8-7.9c0-4.1-3.7-7.6-7.8-7.6h-10.5V471H282.3z"/>
			<path class="st4" d="M327,450.9c5.5,0,9.4,1.8,13.1,5c0.5,0.5,0.5,1.1,0,1.5l-1.5,1.5c-0.5,0.6-0.9,0.5-1.4,0
				c-2.9-2.4-6.7-4.1-10.4-4.1c-8.5,0-15.1,7.2-15.1,15.7c0,8.4,6.6,15.5,15.1,15.5c4.7,0,7.5-1.8,10.4-4.1c0.6-0.5,0.9-0.3,1.4-0.2
				l1.7,1.5c0.5,0.3,0.3,1.1,0,1.5c-3.7,3.7-8.4,5.3-13.3,5.3c-10.8,0-19.7-8.7-19.7-19.5C307.5,459.8,316.2,450.9,327,450.9z"/>
			<path class="st4" d="M355.3,452.6c0-0.6,0.5-1.1,1.1-1.1h2.1c0.6,0,1.1,0.5,1.1,1.1v15.9h22.1v-15.9c0-0.6,0.5-1.1,1.1-1.1h2.1
				c0.6,0,1.1,0.5,1.1,1.1v36c0,0.6-0.5,1.1-1.1,1.1h-2.1c-0.6,0-1.1-0.5-1.1-1.1v-16.5h-22.1v16.5c0,0.6-0.5,1.1-1.1,1.1h-2.1
				c-0.6,0-1.1-0.5-1.1-1.1L355.3,452.6L355.3,452.6z"/>
		</g>
		<g>
			<path class="st4" d="M90.5,514.3c0-0.8,0.6-1.2,1.4-1.2h1.8l32.2,40.1c0,0,0,0,0.2,0v-38c0-0.8,0.6-1.4,1.4-1.4h2.4
				c0.8,0,1.4,0.6,1.4,1.4v47.9c0,0.8-0.6,1.2-1.4,1.2h-1.2L96,523.5l0,0v38.7c0,0.8-0.6,1.4-1.4,1.4h-2.4c-0.8,0-1.4-0.6-1.4-1.4
				v-47.9H90.5z"/>
			<path class="st4" d="M146.6,561.7l21.6-47.9c0.2-0.5,0.6-0.8,1.2-0.8h0.8c0.6,0,1.1,0.3,1.2,0.8l21.5,47.9
				c0.5,0.9-0.2,1.8-1.2,1.8h-2.9c-0.6,0-1.1-0.5-1.2-0.8l-5.3-11.7h-25.3l-5.2,11.7c-0.2,0.3-0.6,0.8-1.2,0.8h-2.9
				C146.7,563.5,146.3,562.6,146.6,561.7z M180.4,546.6c-3.5-7.8-6.9-15.5-10.4-23.3h-0.6l-10.4,23.3H180.4z"/>
			<path class="st4" d="M203.4,561l25.9-42.1v-0.2h-22.4c-0.8,0-1.4-0.6-1.4-1.4v-2.3c0-0.8,0.6-1.4,1.4-1.4h28.8
				c0.8,0,1.4,0.6,1.4,1.4v0.9l-26.2,42.5l0,0h23.5c0.8,0,1.4,0.6,1.4,1.4v2.3c0,0.8-0.6,1.4-1.4,1.4h-29.4c-0.8,0-1.4-0.6-1.4-1.4
				V561H203.4z"/>
			<path class="st4" d="M247.4,561.7l21.6-47.9c0.2-0.5,0.6-0.8,1.2-0.8h0.8c0.6,0,1.1,0.3,1.2,0.8l21.5,47.9
				c0.5,0.9-0.2,1.8-1.2,1.8h-2.9c-0.6,0-1.1-0.5-1.2-0.8l-5.3-11.7h-25.3l-5.2,11.7c-0.2,0.3-0.6,0.8-1.2,0.8h-2.9
				C247.6,563.5,247,562.6,247.4,561.7z M281.3,546.6c-3.5-7.8-6.9-15.5-10.4-23.3h-0.6l-10.4,23.3H281.3z"/>
			<path class="st4" d="M309.3,515.1c0-0.8,0.6-1.4,1.4-1.4h18.4c8.5,0,15.5,6.7,15.5,15.2c0,6.6-4.4,12-10.5,14.5l9.8,18.1
				c0.5,0.9,0,2.1-1.2,2.1H339c-0.6,0-1.1-0.3-1.1-0.6l-9.4-18.9h-13.6v18.1c0,0.8-0.6,1.4-1.4,1.4h-2.7c-0.8,0-1.4-0.6-1.4-1.4
				v-47.3H309.3z M328.8,539.3c5.5,0,10.2-4.6,10.2-10.4c0-5.5-4.7-10.1-10.2-10.1h-13.9v20.4H328.8z"/>
			<path class="st4" d="M364.2,515.1c0-0.8,0.6-1.4,1.4-1.4h28c0.8,0,1.4,0.6,1.4,1.4v2.1c0,0.8-0.6,1.4-1.4,1.4h-23.9V536h20.4
				c0.8,0,1.4,0.6,1.4,1.4v2.1c0,0.8-0.6,1.4-1.4,1.4h-20.4v18h23.9c0.8,0,1.4,0.6,1.4,1.4v2.1c0,0.8-0.6,1.4-1.4,1.4h-28
				c-0.8,0-1.4-0.6-1.4-1.4L364.2,515.1L364.2,515.1z"/>
			<path class="st4" d="M414.2,514.3c0-0.8,0.6-1.2,1.4-1.2h1.8l32.2,40.1c0,0,0,0,0.2,0v-38c0-0.8,0.6-1.4,1.4-1.4h2.4
				c0.8,0,1.4,0.6,1.4,1.4v47.9c0,0.8-0.6,1.2-1.4,1.2h-1.2l-32.6-40.8l0,0v38.7c0,0.8-0.6,1.4-1.4,1.4h-2.4c-0.8,0-1.4-0.6-1.4-1.4
				v-47.9H414.2z"/>
			<path class="st4" d="M477.1,515.1c0-0.8,0.6-1.4,1.4-1.4h28c0.8,0,1.4,0.6,1.4,1.4v2.1c0,0.8-0.6,1.4-1.4,1.4h-23.9V536H503
				c0.8,0,1.4,0.6,1.4,1.4v2.1c0,0.8-0.6,1.4-1.4,1.4h-20.4v18h23.9c0.8,0,1.4,0.6,1.4,1.4v2.1c0,0.8-0.6,1.4-1.4,1.4h-28
				c-0.8,0-1.4-0.6-1.4-1.4V515.1z"/>
		</g>
		<g>
			<path class="st4" d="M411.1,466.9c3.4,0,6.1,2.7,6.1,6.1s-2.7,6.1-6.1,6.1c-3.4,0-5.9-2.7-5.9-6.1S407.8,466.9,411.1,466.9z
				 M411.1,476.8c2.1,0,3.8-1.7,3.8-3.8c0-2.1-1.7-3.8-3.8-3.8c-2.1,0-3.8,1.8-3.8,3.8C407.3,475.1,409,476.8,411.1,476.8z"/>
			<path class="st4" d="M419.8,467.4c0-0.2,0.2-0.3,0.3-0.3h6.9c0.2,0,0.3,0.2,0.3,0.3v1.4c0,0.2-0.2,0.3-0.3,0.3h-5v3.2h4.1
				c0.2,0,0.3,0.2,0.3,0.3v1.4c0,0.2-0.2,0.3-0.3,0.3h-4.1v4.3c0,0.2-0.2,0.3-0.3,0.3h-1.5c-0.2,0-0.3-0.2-0.3-0.3V467.4z"/>
			<path class="st4" d="M435.3,469.2h-2.6c-0.2,0-0.3-0.2-0.3-0.3v-1.5c0-0.2,0.2-0.3,0.3-0.3h7.3c0.2,0,0.3,0.2,0.3,0.3v1.4
				c0,0.2-0.2,0.3-0.3,0.3h-2.6v9.5c0,0.2-0.2,0.3-0.3,0.3h-1.5c-0.2,0-0.3-0.2-0.3-0.3L435.3,469.2L435.3,469.2z"/>
			<path class="st4" d="M442.6,467.4c0-0.2,0.2-0.3,0.3-0.3h1.5c0.2,0,0.3,0.2,0.3,0.3v4.4h5.5v-4.4c0-0.2,0.2-0.3,0.3-0.3h1.5
				c0.2,0,0.3,0.2,0.3,0.3v11.1c0,0.2-0.2,0.3-0.3,0.3h-1.5c-0.2,0-0.3-0.2-0.3-0.3v-4.6h-5.5v4.6c0,0.2-0.2,0.3-0.3,0.3H443
				c-0.2,0-0.3-0.2-0.3-0.3V467.4z"/>
			<path class="st4" d="M455.9,467.4c0-0.2,0.2-0.3,0.3-0.3h6.9c0.2,0,0.3,0.2,0.3,0.3v1.4c0,0.2-0.2,0.3-0.3,0.3h-5v2.7h4.1
				c0.2,0,0.3,0.2,0.3,0.3v1.4c0,0.2-0.2,0.3-0.3,0.3H458v2.9h5c0.2,0,0.3,0.2,0.3,0.3v1.4c0,0.2-0.2,0.3-0.3,0.3h-6.9
				c-0.2,0-0.3-0.2-0.3-0.3V467.4z"/>
		</g>
		<rect x="405.2" y="484.3" class="st5" width="58.7" height="2.6"/>
	</g>
	<g id="Bird-Bible">
		<g id="Registered_Mark">
			<path d="M200.4,408.2v-0.9h0.8c0.3,0,0.5,0.2,0.5,0.5s-0.2,0.5-0.5,0.5H200.4z M199.7,409.8c0,0.2,0,0.2,0.2,0.2h0.2
				c0.2,0,0.2-0.2,0.2-0.2v-1.1h0.6l0.5,1.1l0.2,0.2h0.3c0.2,0,0.2-0.2,0.2-0.3c-0.2-0.3-0.3-0.6-0.5-1.1c0.3,0,0.8-0.3,0.8-0.9
				c0-0.6-0.5-0.9-1.1-0.9h-1.2c-0.2,0-0.2,0-0.2,0.2L199.7,409.8L199.7,409.8z M198.4,408.4c0-1.4,1.2-2.6,2.6-2.6s2.6,1.1,2.6,2.6
				c0,1.4-1.1,2.6-2.6,2.6C199.4,410.8,198.4,409.8,198.4,408.4 M197.8,408.4c0,1.7,1.4,3,3,3s3-1.4,3-3s-1.4-3-3-3
				C199.1,405.3,197.8,406.7,197.8,408.4"/>
		</g>
		<g id="Bible">
			<path id="Cover_Left" class="st6" d="M246.7,405c10.5,0,29.9,0.2,47.8,0c21.5-0.2,40.4,0,41.6,0c0.2,0,0.6,0.3,0.8,0.6
				c0.3,1.1,0.3,3.7-0.2,4.9c-0.2,0.3-0.3,0.5-0.6,0.6c-1.1,0-90.4,0-91.1,0c-0.5,0,0.6-5.3,0.9-5.6
				C246.1,405.3,246.4,405.2,246.7,405z"/>
			<path id="Cover-Left-Left" class="st6" d="M206,405c3.5,0,12,0,12.6,0c0.2,0,1.8,0,2.1,0c2.1,0,0.5,5.2,0.3,5.6
				c-0.5,0.6-2.3,0.5-2.4,0.5c-0.8,0-9.3,0-12.8,0c-0.5,0-0.9-0.3-0.9-0.5c0-0.3,0-4.6,0-4.9C205.1,405.3,205.7,405.2,206,405z"/>
			<path id="Cover-Right" class="st6" d="M344.8,405c23.8,0,80.8,0,86.1,0c1.4,0,5.9-0.2,6.9,0.2s0.8,5.6-0.3,5.9
				c-1.1,0.2-69.5,0-92.7,0c-0.5,0-0.8-0.3-0.8-0.6c-0.2-0.3-0.2-4.6,0-5C344.1,405.2,344.5,405.2,344.8,405z"/>
			<path id="Left" class="st6" d="M209,394.7c4.1-0.9,16.5-2.3,26.4-4.4c26.5-5.8,61.6-16.3,77-12.3c14.9,3.8,21.8,16.6,23.6,20.6
				c0.5,1.2-0.6,1.1-0.6,1.1H208.1c0,0-1.8,0-1.8-1.1C206.3,397.7,205.7,395.3,209,394.7z"/>
			<path id="Right" class="st6" d="M438.7,397.3c-0.2-0.5-0.9-1.4-1.7-1.5c-2.9-0.6-11.7-1.8-18.6-3.5c-18.7-4.6-42.4-13.4-53-9.8
				c-9.3,3-16,13.1-18,16.3c-0.5,0.8,0.5,0.9,0.5,0.9h90.1c0,0,0.5,0,0.6-0.2c0.2-0.2,0.5-0.3,0.5-0.6
				C438.8,398.5,438.8,397.6,438.7,397.3z"/>
			<path class="st0" d="M225,405.2c-0.6,8.1-3.7,13-7.2,16.6c-1.1,1.1-3.7,3-3.8,3c0.9,0.9,11.3,0.6,12.2,0.6
				c0.3,1.7-0.2,4.4-2,10.5c6.4-0.6,13.9-7,15.5-14.8c0.5-2.1,1.2-4.9,1.7-7.3c0.6-4.3,1.4-8.4,1.4-8.5
				C237.1,405.2,231,405.2,225,405.2z M236.6,412.5l-0.3,1.2c-0.2,0.3-0.3,0.6-0.5,0.6h-3.2l-2.1,7.3c0,0.2-0.3,0.3-0.6,0.3h-1.2
				c-0.3,0-0.5-0.2-0.5-0.3l2.1-7.3h-3.2c-0.2,0-0.2-0.3-0.2-0.6l0.3-1.2c0.2-0.3,0.3-0.6,0.5-0.6h3.2l0.9-3.4
				c0-0.2,0.3-0.3,0.6-0.3h1.2c0.3,0,0.5,0.2,0.5,0.3l-0.9,3.4h3.2C236.8,412,236.8,412.3,236.6,412.5z"/>
		</g>
		<g id="Bird">
			<path id="Bird_eye_lg_00000093153663740680004260000012829700541056924342_" class="st0" d="M343.4,364.9c-0.9-2-3.7-2.9-4.7-2.9
				c-3.2-0.3-2.9,1.5,0,5C343.1,372.6,344.8,367.7,343.4,364.9z"/>
			<path id="Bird2_00000122680924740017709740000011670148935974499456_" class="st0" d="M246.2,294.7c8.2,6.6,20.3,15.9,43.1,15.9
				c0.5,0,0.3-0.8-0.3-1.2c-56.7-38.9-46.2-73-46.2-78.3c0-5-7.9,10.2-7.8,19.1c-0.6,27.4,25.3,48.2,25,48.2
				c-9.6-2.4-22.1-17.1-26.4-23.8c-0.2-0.3-1.1-0.9-0.5,0.9C234,278.4,237.2,286.8,246.2,294.7z"/>
			<path id="Bird1_00000160154197706315064100000008316407788755345796_" class="st0" d="M353.2,270.1c-8.5-4.4-19.4-6.7-16.8-5
				c0.2,0.2,30.3,21,38.9,36c13.1,23-2.3,48.3-7.3,49.8c-0.3,0.2-0.2-1.4-0.2-3.4c0.9-20.7-18.6-40.4-20.7-42.2
				c-5.3-4.3-10.2-7.9-14.8-11.1c4.6-2.6,7.5-11.1,5-16.9c-3.7-9-9.9-12.7-13.3-14.3c-0.8-0.5-2.7-1.1-1.7,0.6
				c5.9,7.8,1.5,21.2-7.3,18.9c-0.8-0.5-1.4-1.1-2.1-1.5c-6.4-6.1-15.8-21.3-3.7-49.7c0.3-0.3,0.2-1.4-1.1,0.2
				c-2.1,2.6-7.2,9.8-8.8,21.9c-0.5,4.6-0.6,8.1-0.3,10.8c-2.7-7.8-5.3-23.8,7.8-44.5c-3.5-2.1-47.5,40.8,5.5,74.5
				c25.8,16.3,35.4,27,38.6,33.1c6.9,13.1,7.6,30.8,2.4,41.5c-4,8.2-10.5,18.1-11.3,16.6c-1.8-3.7-0.8-15.5-21-22.9
				c-27.9-10.1-76,5.5-95.2-36c-9.4-18.3-2-42.8-0.5-50.3c0.2-1.2-14.6,4.7-17.8,23c-2.9,13.4-5,46.3,34,62.5
				c21.5,8.8,46.2,7.8,63.4,7.8c33.7,0,32,21.6,35,27c0.2,0.2,0.2,0.5,0.6,0c3.7-3.8,17.5-21.2,26.7-29.7
				C423.9,313.3,368.1,277.8,353.2,270.1z"/>
		</g>
	</g>
	<g id="Avon-Park">
		<path id="A_00000108998848306536634000000008282620404493097871_" class="st7" d="M105.3,275c-3-1.2-10-4.2-14-5.7
			c-4.1-1.6-8.9-3.4-14.5-5.4c0.1,2.4,0.3,5,0.7,7.8s1.1,5.7,1.8,8.6c0.7,2.9,1.7,5.8,2.8,8.8c1.2,2.9,2.3,5.7,3.8,8.3
			c7,0.4,11.9-1.5,15.4-2.9c-1,6.3-1.9,13.9-2.3,21.7c-7.1,0.9-14.2,1.8-21.8,1.9s-15.2-0.4-23-1.6c-6.8-1.1-13-2.9-18.6-5.6
			c-5.6-2.7-10.4-6-14.2-9.9c-3.9-3.9-6.7-8.4-8.4-13.3s-2.2-10.3-1.3-15.7c0.9-5.5,2.8-10.3,6.1-14.6c3.3-4.3,7.3-7.8,12.3-10.5
			c4.9-2.6,10.5-4.6,16.6-5.6c6.1-1.1,12.5-0.9,19.2,0c1.7,0.2,3.6,0.5,5.8,1c2.1,0.4,4.9,1.2,8.2,2c3.3,1,7.3,2.3,11.9,4.1
			c4.7,1.8,12.6,4.7,19.4,7.6C111.1,255.9,108.2,264.5,105.3,275z M56.6,260c-3.2-0.1-6.3,0.2-9.2,0.9c-2.9,0.7-5.5,1.7-7.7,3
			c-2.2,1.3-4,3-5.4,4.8c-1.4,1.9-2.4,4.1-2.7,6.3c-0.4,2.7-0.1,5.3,1,7.8c1.2,2.5,2.8,4.6,5.2,6.5s5.1,3.5,8.4,4.9
			c3.3,1.3,7,2.3,10.9,3c2.7,0.4,5.3,0.7,7.8,0.8c-1.5-2.8-2.6-5.7-3.8-9.1c-1.1-3.4-2-6.8-2.7-10.1c-0.7-3.4-1.2-6.7-1.6-9.9
			C56.6,265.3,56.5,262.4,56.6,260z"/>
		<path id="V" class="st7" d="M60.5,147.4c9,5.3,17,10.5,24,15.9c7.1,5.4,13.3,11.1,19,17.2c5.7,6.2,11.4,12.6,16,20.2
			c3.6,6.1,5.5,9.7,7.2,20c-22.2,5.2-33.7,4.8-50.8,2.8c-17.1-2-32.4-5.3-45.6-10l6.2-18.5c8.6,2.9,18.3,5.5,29.2,7.5
			c10.9,2.1,22.7,3.5,35.5,4.2c-6.5-8.2-14.3-16-22.9-23c-8.6-7.2-18-13.7-28.1-19.8L60.5,147.4z"/>
		<path id="O" class="st7" d="M97.6,99c3.5-3.9,7.4-7,11.6-8.8c4.2-1.8,8.8-2.8,13.4-2.7c4.7,0.1,9.5,1.2,14.2,3.2
			c4.9,2.1,9.7,5.1,14.4,9.1c5.6,4.9,10.6,10.3,14.6,16.3c4,6,7.1,12.2,9,18.3c1.8,6.2,2.5,12.2,2,17.9c-0.5,5.7-2.5,11.2-6.1,15.3
			c-3.5,3.9-7.6,6.3-12,8.2c-4.4,1.7-9.1,2.5-14,2.3c-4.8-0.3-9.8-1.6-15-3.9c-5.1-2.3-10.2-5.5-15.1-9.6c-5.4-4.6-10-9.7-13.9-15.6
			c-3.9-5.9-6.6-11.8-8.3-17.8c-1.6-6-2.1-11.9-1.5-17.5C91.8,107.9,94,103.1,97.6,99z M113.9,111.6c-1.8,2-2.7,4.8-2.6,8
			c0.1,3.3,0.9,6.8,2.4,10.5c1.5,3.7,3.4,7.4,6,10.9c2.6,3.6,5.3,6.6,8.3,9.2c2.2,1.9,4.6,3.4,7.1,4.8c2.4,1.2,4.9,2.1,7.3,2.6
			c2.3,0.5,4.6,0.5,6.6,0c2-0.4,3.8-1.5,5.2-3.1c1.8-2.1,2.7-4.8,2.4-8c-0.1-3.3-0.9-6.8-2.6-10.5s-3.7-7.3-6.3-11
			c-2.6-3.7-5.6-6.9-8.9-9.6c-4.9-4.2-9.6-6.7-14-7.4C120.4,107.1,116.7,108.4,113.9,111.6z"/>
		<path id="N" class="st7" d="M176.8,51c0.2,1.5,0.6,3.1,1.3,4.8c0.6,1.6,1.2,3.1,1.8,4.2c0.2-3.7,1.3-6.8,3.2-9.5
			c1.9-2.7,4.4-4.9,7.4-6.6c40.3-19.9,62.8,38.2,63.4,80.7c0,0-8.7,1.8-20.2,6.1c-6.2-45.9-17.4-72.9-35-68.5
			c-5.3,1.3-7.1,7.3-6.8,14.3c0.3,6.9,10.1,29.5,31.2,58.7c-8.1,3-17.7,8.5-17.7,8.5c-11.6-12.9-24.8-37.6-29.4-46.6
			c-3.4-6.6-6.2-12.7-8.5-18.4c-2.3-5.7-4.2-11-5.6-15.8L176.8,51z"/>
		<path id="P" class="st7" d="M383.3,40.3c11,5.2,19.8,10.1,26.5,14.6c6.6,4.6,11.4,9,14.3,13.4c2.9,4.4,4.3,9,4.1,13.9
			c-0.3,4.7-1.7,9.9-4.3,15.5c-3.7,7.8-9.4,13-17.5,16c-8.1,2.9-18.3,2.9-30.6,0.2c-1.6,4.1-2.4,7.1-3.8,10.4
			c-1.3,3.1-2.1,5-3.7,8.4c-7.3-2.8-19.6-6.4-19.6-6.4c3.4-7.2,7.3-15.2,10.7-22.7c3.4-7.5,6.6-14.9,9.4-22.3
			c3-7.3,5.8-14.5,8.2-21.3C379.4,53,381.6,46.6,383.3,40.3z M394,67.9c-1.7,5-3.4,9.8-5.2,14.5c-1.8,4.6-3.5,8.8-5.2,12.7
			c12.2,2.4,20.1-0.3,23.9-8.2c0.8-1.5,0.9-3,0.6-4.7c-0.3-1.7-1.1-3.4-2.3-5c-1.2-1.7-2.9-3.2-4.9-4.9
			C398.9,70.5,396.6,69.1,394,67.9z"/>
		<path id="A" class="st7" d="M437.6,177c3.2-1.3,5.9-2.7,9.4-5.2c3.7-2.3,7.9-5.2,13-8.5c-2-1.4-4.3-2.7-6.7-4s-5.2-2.4-7.9-3.5
			c-2.7-1.1-5.6-2-8.7-2.7s-5.9-1.4-9-1.8c-1.2,1.5-1.7,2.1-3.2,4.6c-0.9,1.5-2.1,3.5-3.8,6.4c0,0-9.3-7.7-16.8-11.8
			c3.4-6.8,7.8-12.1,12-18.4c4.3-6.2,9.1-12.2,14.6-17.7c4.9-4.9,10.1-8.8,15.4-11.9c5.5-3,10.8-4.9,16.3-5.8
			c5.5-0.8,10.7-0.5,15.7,1.1c5,1.5,9.6,4.1,13.6,8.1c4,3.8,6.7,8.4,8.2,13.6c1.5,5.2,2,10.5,1.4,16c-0.6,5.5-2.4,11.1-5.2,16.8
			c-2.7,5.6-6.6,10.8-11.3,15.5c-1.2,1.2-2.6,2.6-4.3,4.1c-1.7,1.5-3.8,3.4-6.6,5.5c-2.7,2.1-6.1,4.6-10.4,7.3
			c-4.1,2.7-5.8,3.4-12.1,7.2C451.4,191.9,445.5,184.5,437.6,177z M475.1,149.1c2-2.6,3.5-5.2,4.6-7.9c1.2-2.7,1.8-5.3,2.1-7.9
			c0.3-2.6,0-4.9-0.8-7.2c-0.8-2.3-1.8-4.3-3.5-5.9c-2-2-4.3-3.2-7-3.7c-2.6-0.5-5.3-0.3-8.2,0.3c-2.9,0.8-5.8,2.1-8.8,4
			c-3,2-5.9,4.3-8.8,7.2c-2,2-3.7,4-5.2,5.8c3,0.5,6.2,1.2,9.6,2.3c3.4,1.1,6.7,2.4,9.8,3.8c3.2,1.4,6.1,2.9,9,4.6
			C470.6,146.1,473.1,147.6,475.1,149.1z"/>
		<path id="R" class="st7" d="M546.8,162.8c0.8,1.2,1.7,2.7,2.7,4.4c0.9,1.7,2,3.7,3,5.8c3,6.1,5.2,12,6.4,17.5
			c1.2,5.6,1.4,10.7,0.8,15.4c-0.8,4.7-2.4,9-5,12.7c-2.6,3.7-6.2,6.7-11,9c-5.9,2.9-11.9,4-17.8,3c-5.9-0.9-11.4-3.8-16.5-8.4
			c-0.5,8.2-6.4,24.5-19.1,35c0,0-3.2-9-7.2-17.9c3.3-3.1,14.7-16.9,9-27.3c-4.1,2-7.9,3.8-11.4,5.3c-3.4,1.5-4.5,2.2-7.1,3.4
			c-5.8-10.2-11.3-17.5-11.3-17.5c13.3-5.8,28.4-11.6,44.4-19.4c6.7-3.4,13.4-6.7,20.1-10.2C533.6,170.3,540.3,166.5,546.8,162.8z
			 M537.2,189.7c-3,1.8-6.6,3.8-10.7,5.9c-4,2-8.4,4.3-13,6.6c3.5,4.1,6.7,7,9.9,8.5c3.2,1.7,6.9,1.4,11-0.6c3.2-1.5,5-4,5.3-7.3
			S539.3,195.2,537.2,189.7z"/>
		<path id="K" class="st7" d="M576.9,305.6c-18.5-24.2-29-26.4-33.9-25.8c-0.9,2.3-7.9,43.6-41.5,36.2c0,0-0.9-9.7-2.2-21.8
			c21,8.9,24.6-18.8,25.3-29.2c0,0-8.8,2.8-28.6,11c0,0-3.2-9-5.7-17.7c44.8-24.6,88.4-19.6,88.4-19.6l4.9,19.5
			c-15.8,0.1-22.5,0.1-38.8,2.7c21.9,0,30.4,15.7,44.8,32.7L576.9,305.6z"/>
	</g>
</g>
<polygon class="st8" points="257.9,348.6 185.8,348.6 185.8,342.1 257.4,342.1 "/>
<path class="st9" d="M502.4,328.9c-0.2,115.8-90.5,209.8-201.9,209.8s-201.9-94-201.9-209.8s90.5-210.5,201.9-209.8
	C412.2,114.9,493.3,140.7,502.4,328.9z"/>
<path id="A_00000168093359631728827320000003464077368105356161_" class="st7" d="M495.6,275c3-1.2,10-4.2,14-5.7
	c4.1-1.6,8.9-3.4,14.5-5.4c-0.1,2.4-0.3,5-0.7,7.8c-0.4,2.8-1.1,5.7-1.8,8.6c-0.7,2.9-1.7,5.8-2.8,8.8c-1.2,2.9-2.3,5.7-3.8,8.3
	c-7,0.4-11.9-1.5-15.4-2.9c1,6.3,1.9,13.9,2.3,21.7c7.1,0.9,14.2,1.8,21.8,1.9s15.2-0.4,23-1.6c6.8-1.1,13-2.9,18.6-5.6
	c5.6-2.7,10.4-6,14.2-9.9c3.9-3.9,6.7-8.4,8.4-13.3s2.2-10.3,1.3-15.7c-0.9-5.5-2.8-10.3-6.1-14.6c-3.3-4.3-7.3-7.8-12.3-10.5
	c-4.9-2.6-10.5-4.6-16.6-5.6c-6.1-1.1-12.5-0.9-19.2,0c-1.7,0.2-3.6,0.5-5.8,1c-2.1,0.4-4.9,1.2-8.2,2c-3.3,1-7.3,2.3-11.9,4.1
	c-4.7,1.8-12.6,4.7-19.4,7.6C489.8,255.9,492.7,264.5,495.6,275z M544.4,260c3.2-0.1,6.3,0.2,9.2,0.9c2.9,0.7,5.5,1.7,7.7,3
	c2.2,1.3,4,3,5.4,4.8c1.4,1.9,2.4,4.1,2.7,6.3c0.4,2.7,0.1,5.3-1,7.8s-2.8,4.6-5.2,6.5c-2.4,1.9-5.1,3.5-8.4,4.9
	c-3.3,1.3-7,2.3-10.9,3c-2.7,0.4-5.3,0.7-7.8,0.8c1.5-2.8,2.6-5.7,3.8-9.1c1.1-3.4,2-6.8,2.7-10.1c0.7-3.4,1.2-6.7,1.6-9.9
	C544.3,265.3,544.4,262.4,544.4,260z"/>
</svg>
