<?xml version="1.0" encoding="utf-8"?>
<!-- Generator: Adobe Illustrator 26.0.1, SVG Export Plug-In . SVG Version: 6.00 Build 0)  -->
<svg version="1.1" id="Layer_1" xmlns="http://www.w3.org/2000/svg" xmlns:xlink="http://www.w3.org/1999/xlink" x="0px" y="0px"
	 viewBox="0 0 600 600" style="enable-background:new 0 0 600 600;" xml:space="preserve">
<style type="text/css">
	.st0{display:none;fill:#2F5A41;}
	.st1{fill:#FFFFFF;stroke:#000000;stroke-width:3;stroke-miterlimit:10;}
</style>
<rect id="Background-Bird" class="st0" width="600" height="600"/>
<g id="Bird">
	<path id="Bird_eye_lg_00000093153663740680004260000012829700541056924342_" class="st1" d="M439.2,478.7
		c-2.9-6.2-11.5-9.1-14.9-9.1c-10.1-1-9.1,4.8,0,15.8C438.3,502.7,443.5,487.3,439.2,478.7z"/>
	<path id="Bird2_00000122680924740017709740000011670148935974499456_" class="st1" d="M132.9,257.3c25.9,20.6,63.9,49.9,135.9,49.9
		c1.4,0,1-2.4-1-3.8C89.2,181,122.4,73.4,122.4,56.6c0-15.8-25,32.2-24.5,60c-1.9,86.4,79.7,151.7,78.7,151.7
		c-30.2-7.7-69.6-53.8-83.1-74.9c-0.5-1-3.4-2.9-1.4,2.9C94.5,205.9,104.6,232.3,132.9,257.3z"/>
	<path id="Bird1_00000160154197706315064100000008316407788755345796_" class="st1" d="M470,180c-26.9-13.9-61-21.1-52.8-15.8
		c0.5,0.5,95.5,66.3,122.4,113.3c41.3,72.5-7.2,152.2-23,157c-1,0.5-0.5-4.3-0.5-10.6c2.9-65.3-58.6-127.2-65.3-133
		c-16.8-13.4-32.2-25-46.6-35.1c14.4-8.2,23.5-35.1,15.8-53.3c-11.5-28.3-31.2-39.9-41.8-45.1c-2.4-1.4-8.6-3.4-5.3,1.9
		c18.7,24.5,4.8,66.7-23,59.5c-2.4-1.4-4.3-3.4-6.7-4.8c-20.2-19.2-49.9-67.2-11.5-156.5c1-1,0.5-4.3-3.4,0.5
		c-6.7,8.2-22.6,30.7-27.8,69.1c-1.4,14.4-1.9,25.4-1,34.1c-8.6-24.5-16.8-74.9,24.5-140.2c-11-6.7-149.8,128.7,17.3,234.8
		c81.1,51.4,111.4,85,121.5,104.2c21.6,41.3,24,97,7.7,130.6c-12.5,25.9-33.1,57.1-35.5,52.3c-5.8-11.5-2.4-49-66.3-72
		c-87.9-31.7-239.6,17.3-300.1-113.3c-29.8-57.6-6.2-134.9-1.4-158.5c0.5-3.8-46.1,14.9-56.2,72.5C1.8,314-4.9,417.7,118,468.6
		c67.7,27.8,145.5,24.5,199.7,24.5c106.1,0,100.8,68.2,110.4,85c0.5,0.5,0.5,1.4,1.9,0c11.5-12,55.2-66.7,84-93.6
		C692.7,315.9,517,204,470,180z"/>
</g>
</svg>
