<?xml version="1.0" encoding="utf-8"?>
<!-- Generator: Adobe Illustrator 26.0.1, SVG Export Plug-In . SVG Version: 6.00 Build 0)  -->
<svg version="1.1" xmlns="http://www.w3.org/2000/svg" xmlns:xlink="http://www.w3.org/1999/xlink" x="0px" y="0px"
	 viewBox="0 0 2400 2400" style="enable-background:new 0 0 2400 2400;" xml:space="preserve">
<style type="text/css">
	.st0{fill:#26503A;}
	.st1{display:none;fill:#242424;stroke:#FFFFFF;stroke-width:0.5;stroke-miterlimit:10;}
	.st2{fill:#FFFFFF;stroke:#231F20;stroke-width:0.5;stroke-miterlimit:10;}
	.st3{fill-rule:evenodd;clip-rule:evenodd;fill:#FFFFFF;stroke:#231F20;stroke-width:0.5;stroke-miterlimit:10;}
	.st4{fill:#FFFFFF;}
	.st5{fill:#424143;stroke:#231F20;stroke-width:2;stroke-miterlimit:10;}
	.st6{fill:#424143;}
	.st7{fill-rule:evenodd;clip-rule:evenodd;fill:#424143;stroke:#231F20;stroke-miterlimit:10;}
	.st8{fill:#424143;stroke:#231F20;stroke-miterlimit:10;}
</style>
<g id="Background">
	<rect class="st0" width="2400" height="2400"/>
	<path class="st1" d="M1122.6,1623c0-3.1,2.5-5,5.6-5h7.5l131,163.3c0,0,0,0,0.6,0v-154.6c0-3.1,2.5-5.6,5.6-5.6h9.9
		c3.1,0,5.6,2.5,5.6,5.6v195c0,3.1-2.5,5-5.6,5h-5.6l-132.9-166.4l0,0v157.7c0,3.1-2.5,5.6-5.6,5.6h-10.6c-3.1,0-5.6-2.5-5.6-5.6
		V1623z"/>
</g>
<g id="AP-Logo_00000026886051949588681230000006510708863788541871_">
	<g id="AP-Logo">
		<g id="Church_of_the_Nazarene">
			<g>
				<path class="st2" d="M536,1805.5c23.7,0,40.8,7.9,56.5,21.7c2,2,2,4.6,0,6.6l-6.6,6.6c-2,2.6-3.9,2-5.9,0
					c-12.5-10.5-28.9-17.8-44.7-17.8c-36.8,0-65.1,30.9-65.1,67.7c0,36.2,28.3,67.1,65.1,67.1c20.4,0,32.2-7.9,44.7-17.8
					c2.6-2,3.9-1.3,5.9-0.7l7.2,6.6c2,1.3,1.3,4.6,0,6.6c-15.8,15.8-36.2,23-57.2,23c-46.7,0-84.8-37.5-84.8-84.1
					C451.9,1843,489.3,1805.5,536,1805.5z"/>
				<path class="st2" d="M658.3,1812.1c0-2.6,2-4.6,4.6-4.6h9.2c2.6,0,4.6,2,4.6,4.6v68.4H772v-68.4c0-2.6,2-4.6,4.6-4.6h9.2
					c2.6,0,4.6,2,4.6,4.6v155.1c0,2.6-2,4.6-4.6,4.6h-9.2c-2.6,0-4.6-2-4.6-4.6v-71h-95.3v71c0,2.6-2,4.6-4.6,4.6h-9.2
					c-2.6,0-4.6-2-4.6-4.6V1812.1z"/>
				<path class="st2" d="M864.7,1812.1c0-2.6,2-4.6,4.6-4.6h9.2c2.6,0,4.6,2,4.6,4.6v98c0,27,16.4,47.3,44,47.3
					c27.6,0,44.7-20.4,44.7-47.3v-98c0-2.6,2-4.6,4.6-4.6h9.2c2.6,0,4.6,2,4.6,4.6v99.3c0,35.5-25,62.5-62.5,62.5
					c-36.8,0-61.8-27-61.8-62.5v-99.3H864.7z"/>
				<path class="st2" d="M1063.3,1812.1c0-2.6,2-4.6,4.6-4.6h60.5c28.3,0,51.3,21.7,51.3,50c0,21.7-14.5,39.4-34.8,48l32.2,59.2
					c1.3,3.3,0,6.6-3.9,6.6h-11.8c-2,0-3.3-1.3-3.9-2l-30.9-61.8h-44.7v59.8c0,2.6-2,4.6-4.6,4.6h-9.2c-2.6,0-4.6-2-4.6-4.6
					L1063.3,1812.1L1063.3,1812.1z M1127.7,1892.3c17.8,0,33.5-15.1,33.5-34.2c0-17.8-15.8-32.9-33.5-32.9h-45.4v67.1H1127.7z"/>
				<path class="st2" d="M1320.3,1805.5c23.7,0,40.8,7.9,56.5,21.7c2,2,2,4.6,0,6.6l-6.6,6.6c-2,2.6-3.9,2-5.9,0
					c-12.5-10.5-28.9-17.8-44.7-17.8c-36.8,0-65.1,30.9-65.1,67.7c0,36.2,28.3,67.1,65.1,67.1c20.4,0,32.2-7.9,44.7-17.8
					c2.6-2,3.9-1.3,5.9-0.7l7.2,6.6c2,1.3,1.3,4.6,0,6.6c-15.8,15.8-36.2,23-57.2,23c-46.7,0-84.8-37.5-84.8-84.1
					C1235.5,1843,1273.6,1805.5,1320.3,1805.5z"/>
				<path class="st2" d="M1442.6,1812.1c0-2.6,2-4.6,4.6-4.6h9.2c2.6,0,4.6,2,4.6,4.6v68.4h95.3v-68.4c0-2.6,2-4.6,4.6-4.6h9.2
					c2.6,0,4.6,2,4.6,4.6v155.1c0,2.6-2,4.6-4.6,4.6h-9.2c-2.6,0-4.6-2-4.6-4.6v-71H1461v71c0,2.6-2,4.6-4.6,4.6h-9.2
					c-2.6,0-4.6-2-4.6-4.6V1812.1z"/>
			</g>
			<g>
				<path class="st2" d="M300,2078.3c0-3.3,2.6-5.3,5.9-5.3h7.9l138.7,172.9c0,0,0,0,0.7,0v-163.7c0-3.3,2.6-5.9,5.9-5.9h10.5
					c3.3,0,5.9,2.6,5.9,5.9v206.4c0,3.3-2.6,5.3-5.9,5.3h-5.9L323,2117.8l0,0v167c0,3.3-2.6,5.9-5.9,5.9h-11.2
					c-3.3,0-5.9-2.6-5.9-5.9V2078.3z"/>
				<path class="st2" d="M541.9,2282.8l93.4-206.4c0.7-2,2.6-3.3,5.3-3.3h3.3c2.6,0,4.6,1.3,5.3,3.3l92.7,206.4
					c2,3.9-0.7,7.9-5.3,7.9H724c-2.6,0-4.6-2-5.3-3.3l-23-50.6H586.6l-22.4,50.6c-0.7,1.3-2.6,3.3-5.3,3.3h-12.5
					C542.6,2291.3,540,2286.7,541.9,2282.8z M687.9,2217.7c-15.1-33.5-29.6-67.1-44.7-100.6h-2.6l-44.7,100.6H687.9z"/>
				<path class="st2" d="M786.5,2279.5L898.2,2098v-0.7h-96.6c-3.3,0-5.9-2.6-5.9-5.9v-9.9c0-3.3,2.6-5.9,5.9-5.9h124.3
					c3.3,0,5.9,2.6,5.9,5.9v3.9L818.7,2269l0,0h101.2c3.3,0,5.9,2.6,5.9,5.9v9.9c0,3.3-2.6,5.9-5.9,5.9H792.4
					c-3.3,0-5.9-2.6-5.9-5.9V2279.5z"/>
				<path class="st2" d="M977.1,2282.8l93.4-206.4c0.7-2,2.6-3.3,5.3-3.3h3.3c2.6,0,4.6,1.3,5.3,3.3l92.7,206.4
					c2,3.9-0.7,7.9-5.3,7.9h-12.5c-2.6,0-4.6-2-5.3-3.3l-23-50.6h-109.1l-22.4,50.6c-0.7,1.3-2.6,3.3-5.3,3.3h-12.5
					C977.8,2291.3,975.2,2286.7,977.1,2282.8z M1123.1,2217.7c-15.1-33.5-29.6-67.1-44.7-100.6h-2.6l-44.7,100.6H1123.1z"/>
				<path class="st2" d="M1244,2081.6c0-3.3,2.6-5.9,5.9-5.9h79.5c36.8,0,67.1,28.9,67.1,65.7c0,28.3-19.1,51.9-45.4,62.5l42.1,78.2
					c2,3.9,0,9.2-5.3,9.2h-15.8c-2.6,0-4.6-1.3-4.6-2.6l-40.8-81.5h-58.5v78.2c0,3.3-2.6,5.9-5.9,5.9h-11.8c-3.3,0-5.9-2.6-5.9-5.9
					v-203.8H1244z M1327.5,2186.8c23.7,0,44-19.7,44-44.7c0-23.7-20.4-43.4-44-43.4h-59.8v88.1H1327.5z"/>
				<path class="st2" d="M1480.7,2081.6c0-3.3,2.6-5.9,5.9-5.9h121c3.3,0,5.9,2.6,5.9,5.9v9.2c0,3.3-2.6,5.9-5.9,5.9h-103.2v74.9
					h88.1c3.3,0,5.9,2.6,5.9,5.9v9.2c0,3.3-2.6,5.9-5.9,5.9h-88.1v78.2h103.2c3.3,0,5.9,2.6,5.9,5.9v9.2c0,3.3-2.6,5.9-5.9,5.9h-121
					c-3.3,0-5.9-2.6-5.9-5.9V2081.6z"/>
				<path class="st2" d="M1696.3,2078.3c0-3.3,2.6-5.3,5.9-5.3h7.9l138.7,172.9c0,0,0,0,0.7,0v-163.7c0-3.3,2.6-5.9,5.9-5.9h10.5
					c3.3,0,5.9,2.6,5.9,5.9v206.4c0,3.3-2.6,5.3-5.9,5.3h-5.3L1720,2117.8l0,0v167c0,3.3-2.6,5.9-5.9,5.9h-10.5
					c-3.3,0-5.9-2.6-5.9-5.9v-206.4H1696.3z"/>
				<path class="st2" d="M1967.9,2081.6c0-3.3,2.6-5.9,5.9-5.9h120.3c3.3,0,5.9,2.6,5.9,5.9v9.2c0,3.3-2.6,5.9-5.9,5.9h-103.2v74.9
					h88.1c3.3,0,5.9,2.6,5.9,5.9v9.2c0,3.3-2.6,5.9-5.9,5.9h-88.1v78.2h103.2c3.3,0,5.9,2.6,5.9,5.9v9.2c0,3.3-2.6,5.9-5.9,5.9h-121
					c-3.3,0-5.9-2.6-5.9-5.9v-204.5H1967.9z"/>
			</g>
			<g>
				<path class="st2" d="M1682.5,1874.5c14.5,0,26.3,11.8,26.3,26.3c0,14.5-11.8,26.3-26.3,26.3c-14.5,0-25.6-11.8-25.6-26.3
					C1656.9,1885.7,1668.1,1874.5,1682.5,1874.5z M1682.5,1917.2c9.2,0,16.4-7.2,16.4-16.4s-7.2-16.4-16.4-16.4
					c-9.2,0-16.4,7.9-16.4,16.4C1666.1,1909.4,1674,1917.2,1682.5,1917.2z"/>
				<path class="st2" d="M1720,1876.5c0-0.7,0.7-1.3,1.3-1.3h29.6c0.7,0,1.3,0.7,1.3,1.3v5.9c0,0.7-0.7,1.3-1.3,1.3h-21.7v13.8h17.8
					c0.7,0,1.3,0.7,1.3,1.3v5.9c0,0.7-0.7,1.3-1.3,1.3h-17.8v18.4c0,0.7-0.7,1.3-1.3,1.3h-6.6c-0.7,0-1.3-0.7-1.3-1.3V1876.5z"/>
				<path class="st2" d="M1787.1,1883.7h-11.2c-0.7,0-1.3-0.7-1.3-1.3v-5.9c0-0.7,0.7-1.3,1.3-1.3h31.6c0.7,0,1.3,0.7,1.3,1.3v5.9
					c0,0.7-0.7,1.3-1.3,1.3h-11.2v40.8c0,0.7-0.7,1.3-1.3,1.3h-6.6c-0.7,0-1.3-0.7-1.3-1.3L1787.1,1883.7L1787.1,1883.7z"/>
				<path class="st2" d="M1818.6,1876.5c0-0.7,0.7-1.3,1.3-1.3h6.6c0.7,0,1.3,0.7,1.3,1.3v19.1h23.7v-19.1c0-0.7,0.7-1.3,1.3-1.3
					h6.6c0.7,0,1.3,0.7,1.3,1.3v48c0,0.7-0.7,1.3-1.3,1.3h-6.6c-0.7,0-1.3-0.7-1.3-1.3v-19.7h-23.7v19.7c0,0.7-0.7,1.3-1.3,1.3h-6.6
					c-0.7,0-1.3-0.7-1.3-1.3V1876.5z"/>
				<path class="st2" d="M1875.8,1876.5c0-0.7,0.7-1.3,1.3-1.3h29.6c0.7,0,1.3,0.7,1.3,1.3v5.9c0,0.7-0.7,1.3-1.3,1.3H1885v11.8
					h17.8c0.7,0,1.3,0.7,1.3,1.3v5.9c0,0.7-0.7,1.3-1.3,1.3H1885v12.5h21.7c0.7,0,1.3,0.7,1.3,1.3v5.9c0,0.7-0.7,1.3-1.3,1.3h-29.6
					c-0.7,0-1.3-0.7-1.3-1.3V1876.5z"/>
			</g>
			<rect x="1656.9" y="1949.5" class="st3" width="253.1" height="11.2"/>
		</g>
		<g id="Avon-Park-Logo_00000070798094431849275280000002615969919565565097_">
			<g id="Avon-Park-Ring_00000164511881898484531090000005712956992516840589_">
				<circle id="Circle-White-Background" class="st4" cx="1216.3" cy="847.2" r="741.2"/>
				<g id="Letter-Centers">
					<path id="R-Center-Gray" class="st5" d="M1751,496.6l-57.7,33.4l24.8,42.9c9.1,15.7,30.1,21.9,46.5,12.4
						c15.4-8.9,20.3-30.1,11.2-45.8L1751,496.6z"/>
					<polygon id="A-Center-Gray_00000050660372696306662640000018319405020431316112_" class="st5" points="1532.2,410 
						1585.9,454.4 1607.3,374.6 1606.3,373.7 					"/>
					<path id="P-Center-Gray" class="st5" d="M1457.7,256.9l-35.8-13.9l-24.6,63.4l35.8,13.9c17.9,7,38.5-1.5,45.7-19.9
						C1485.5,283,1475.6,263.9,1457.7,256.9z"/>
					<polygon id="A-Center-Gray" class="st5" points="612.5,739.1 680.5,785.8 692.8,717.2 612.8,737.7 					"/>
					<path id="O-Center-Gray" class="st5" d="M821.7,343c-31.1,24.4-36.7,70.2-12.7,100.9c24.2,30.9,69.5,35.8,100.6,11.4
						c31.4-24.6,37.4-69.7,13.2-100.6C898.9,324.1,853.1,318.5,821.7,343z"/>
				</g>
				<path id="Avon-Park-Ring" class="st5" d="M1722.7,340.5c-135.2-135.2-315.1-209.7-506.3-209.7c-191.3,0-371.1,74.5-506.3,209.7
					C574.8,475.7,500.3,655.6,500.3,846.8s74.5,371.1,209.7,506.3c135.2,135.2,315.1,209.7,506.3,209.7
					c191.3,0,371.1-74.5,506.3-209.7c135.2-135.2,209.7-315.1,209.7-506.3S1857.9,475.7,1722.7,340.5z M1640.4,331.6l2.1,1.8
					c1.1,0.9,2.1,3.5,1.7,5.3L1592.2,535c-1,3.8-5,5.1-8.2,2.5l-13.5-11.2c-2.6-2.1-3-4.6-2.3-7.2l10.6-39.9l-70.2-58
					c-12.3,6.2-24.7,12-37,18.1c-1.9,0.9-5,1.2-7.6-0.9l-13.5-11.2c-3.2-2.7-2.7-6.8,0.9-8.5l183.4-87.8
					C1636.5,330.2,1639.3,330.7,1640.4,331.6z M1337.3,381.1l65.7-169.2c1-2.6,4-4,6.8-2.9l59.2,23c31.9,12.4,48.2,48.1,36.2,79.1
					c-12.3,31.7-48.5,47.3-80.2,35l-37.6-14.6l-23.3,60.1c-1,2.6-4.2,3.9-6.8,2.9l-16.9-6.6C1337.5,386.7,1336.4,383.6,1337.3,381.1
					z M986.1,215.8l6.8-1.6l149.7,105.5l0.3-0.1l-30.4-126.1c-0.6-2.7,0.9-5.6,3.9-6.3l17.3-4.2c2.7-0.7,5.7,1.2,6.4,3.8l43.2,179.4
					c0.6,2.7-1.3,5.4-4,6l-7,1.7l-150.6-109.2l-0.3,0.1l31.3,129.8c0.6,2.7-0.9,5.6-3.9,6.3l-17.1,4.1c-2.7,0.7-5.7-1.2-6.4-3.8
					l-43.2-179.4C981.5,219.2,983.4,216.4,986.1,215.8z M805,321.3c43.8-34.3,106.1-27.1,139.9,16.1
					c33.8,43.2,25.6,104.9-18.2,139.3S821.2,504,787.4,460.9C753.6,417.7,761.2,355.7,805,321.3z M594.7,596.1l9.7-17.2
					c1.1-1.9,3.5-2.8,5-2.6l148.3,13.3l0.8-1.5l-88.1-120c-0.9-1.2-1.5-3.4-0.3-5.6l9.7-17.2c2.1-3.6,6.3-3.8,8.5-0.6L807,609.7
					c1,1.5,1.4,3.7,0.3,5.6l-1.4,2.4c-1,1.7-3.1,2.7-5,2.6l-202.4-16.7C594.6,603.4,592.6,599.7,594.7,596.1z M766.5,677.5
					l-3.1,17.3c-0.6,3.3-2.6,4.9-5.2,5.6l-40,10.4l-16.1,89.6c11.4,7.7,22.5,15.6,34,23.4c1.7,1.2,3.5,3.7,2.9,7l-3.1,17.3
					c-0.7,4.1-4.6,5.7-7.9,3.4L561.5,734.6c-1.5-1.1-2.4-3.8-2.1-5.2l0.5-2.7c0.2-1.4,2-3.6,3.8-4.1l196.6-51
					C764.1,670.5,767.2,673.4,766.5,677.5z M1216.3,1272.2c-234.6,0-425.4-190.8-425.4-425.4s190.8-425.4,425.4-425.4
					s425.4,190.8,425.4,425.4S1450.9,1272.2,1216.3,1272.2z M1660,669.8l-10.9-18.8c-1.1-1.9-0.8-4.1-0.1-5.1l44.3-68.4l-21-36.4
					l-60.5,35c-2.4,1.4-5.8,0.4-7.2-2l-9.1-15.7c-1.5-2.7-0.5-5.8,1.9-7.2l157.1-90.8c2.4-1.4,5.6-0.7,7.2,2l37.9,65.6
					c16.7,28.9,7.8,65.6-20.4,81.9c-21.8,12.6-48.4,8.3-68.8-7.8l-41.2,67.9C1667.2,673.4,1662.4,673.9,1660,669.8z M1874.4,809.6
					l-93.2-65.5l-76.4,99.8c-2.3,2.7-8.8,2.4-9.8-3.4l-3.8-21.9c-0.5-2.7,0.3-4.6,1-5.3l74.7-95.2l-84,14.6c-3.5,0.6-7-1.9-7.6-5.5
					l-2.8-15.9c-0.7-3.8,1.8-7.1,5.3-7.7L1854,673c3.5-0.6,7,1.6,7.6,5.5l2.8,15.9c0.6,3.6-1.8,7.1-5.3,7.7l-74.8,13l92,63.7
					c1.5,0.9,3.2,2.5,3.6,4.7l3.6,20.6C1884.3,809,1879.1,812.7,1874.4,809.6z"/>
			</g>
			<g id="Bird-Bible">
				<g id="Registered_Mark">
					<path class="st6" d="M937.5,1034.1h-2.8c-0.5,0-0.5,0-0.5,0.5l-0.5,6.6c0,0.5,0,0.5,0.5,0.5h0.5c0.5,0,0.5-0.5,0.5-0.5v-2.6
						h1.4l1.2,2.6l0.5,0.5h0.7c0.5,0,0.5-0.5,0.5-0.7c-0.5-0.7-0.7-1.4-1.2-2.6c0.7,0,1.9-0.7,1.9-2.1
						C940.1,1034.8,938.9,1034.1,937.5,1034.1z M937.3,1037.7h-1.9v-0.2v-2.1h1.9c0.7,0,1.2,0.5,1.2,1.2S938,1037.7,937.3,1037.7z"
						/>
					<path class="st6" d="M936.3,1030.8c-4-0.2-7.1,3.1-7.1,7.1c0,4,3.3,7.1,7.1,7.1c3.8,0,7.1-3.3,7.1-7.1
						C943.4,1034.1,940.1,1030.8,936.3,1030.8z M936.8,1044.1c-3.8-0.5-6.1-2.8-6.1-6.1c0-3.3,2.8-6.1,6.1-6.1s6.1,2.6,6.1,6.1
						C942.9,1041.2,940.3,1044.1,936.8,1044.1z"/>
				</g>
				<g id="Bible">
					<path class="st7" d="M1259.9,1029.9c-2.8,0-47.5-0.5-98.4,0c-42.3,0.5-88.2,0-113,0c-0.7,0.5-1.4,0.7-1.9,1.2
						c-0.7,0.7-3.3,13.2-2.1,13.2c1.7,0,212.8,0,215.4,0c0.7-0.2,0.9-0.7,1.4-1.4c1.2-2.8,1.2-9,0.5-11.6
						C1261.3,1030.6,1260.4,1029.9,1259.9,1029.9z"/>
					<path class="st7" d="M987,1029.9c-0.7,0-4.5,0-5,0c-1.4,0-21.5,0-29.8,0c-0.7,0.5-2.1,0.7-2.6,1.7c0,0.7,0,10.9,0,11.6
						c0,0.5,0.9,1.2,2.1,1.2c8.3,0,28.4,0,30.3,0c0.2,0,4.5,0.2,5.7-1.2C988.2,1042.2,992,1029.9,987,1029.9z"/>
					<path class="st7" d="M1500.4,1030.3c-2.4-0.9-13-0.5-16.3-0.5c-12.5,0-147.3,0-203.6,0c-0.7,0.5-1.7,0.5-1.9,1.2
						c-0.5,0.9-0.5,11.1,0,11.8c0,0.7,0.7,1.4,1.9,1.4c54.9,0,216.6,0.5,219.2,0C1502.3,1043.6,1502.7,1031.3,1500.4,1030.3z"/>
					<path class="st7" d="M1203.8,966c-36.4-9.5-119.4,15.4-182.1,29.1c-23.4,5-52.7,8.3-62.4,10.4c-7.8,1.4-6.4,7.1-6.4,9.2
						c0,2.6,4.3,2.6,4.3,2.6h301c0,0,2.6,0.2,1.4-2.6C1255.4,1005.3,1239.1,975,1203.8,966z"/>
					<path class="st7" d="M1502.5,1011.7c-0.5-1.2-2.1-3.3-4-3.5c-6.9-1.4-27.7-4.3-44-8.3c-44.2-10.9-100.3-31.7-125.3-23.2
						c-22,7.1-37.8,31-42.6,38.5c-1.2,1.9,1.2,2.1,1.2,2.1h213c0,0,1.2,0,1.4-0.5c0.5-0.5,1.2-0.7,1.2-1.4
						C1502.7,1014.5,1502.7,1012.4,1502.5,1011.7z"/>
					<path class="st8" d="M980.2,1069.6c-2.6,2.6-8.7,7.1-9,7.1c2.1,2.1,26.7,1.4,28.8,1.4c0.7,4-0.5,10.4-4.7,24.8
						c15.1-1.4,32.9-16.6,36.7-35c1.2-5,2.8-11.6,4-17.3c1.4-10.2,3.3-19.9,3.3-20.1c-13.5-0.2-27.9-0.2-42.1-0.2
						C995.8,1049.5,988.4,1061.1,980.2,1069.6z M1002.4,1047.6c0.5-0.7,0.7-1.4,1.2-1.4h7.6l2.1-8c0-0.5,0.7-0.7,1.4-0.7h2.8
						c0.7,0,1.2,0.5,1.2,0.7l-2.1,8h7.6c0.9,0.2,0.9,0.9,0.5,1.4l-0.7,2.8c-0.5,0.7-0.7,1.4-1.2,1.4h-7.6l-5,17.3
						c0,0.5-0.7,0.7-1.4,0.7h-2.8c-0.7,0-1.2-0.5-1.2-0.7l5-17.3h-7.6c-0.5,0-0.5-0.7-0.5-1.4L1002.4,1047.6z"/>
				</g>
				<g id="Bird">
					<path class="st8" d="M1266,928.2c-7.6-0.7-6.9,3.5,0,11.8c10.4,13.2,14.4,1.7,11.1-5C1275,930.3,1268.4,928.2,1266,928.2z"/>
					<path class="st8" d="M1148.5,803.8c-134.1-92-109.2-172.6-109.2-185.1c0-11.8-18.7,24.1-18.4,45.2c-1.4,64.8,59.8,114,59.1,114
						c-22.7-5.7-52.3-40.4-62.4-56.3c-0.5-0.7-2.6-2.1-1.2,2.1c2.1,6.9,9.7,26.7,31,45.4c19.4,15.6,48,37.6,101.9,37.6
						C1150.4,806.7,1149.9,804.8,1148.5,803.8z"/>
					<path class="st8" d="M1300.3,710.9c-20.1-10.4-45.9-15.8-39.7-11.8c0.5,0.5,71.6,49.7,92,85.1c31,54.4-5.4,114.2-17.3,117.8
						c-0.7,0.5-0.5-3.3-0.5-8c2.1-48.9-44-95.5-48.9-99.8c-12.5-10.2-24.1-18.7-35-26.2c10.9-6.1,17.7-26.2,11.8-40
						c-8.7-21.3-23.4-30-31.4-33.8c-1.9-1.2-6.4-2.6-4,1.4c14,18.4,3.5,50.1-17.3,44.7c-1.9-1.2-3.3-2.6-5-3.5
						c-15.1-14.4-37.4-50.4-8.7-117.5c0.7-0.7,0.5-3.3-2.6,0.5c-5,6.1-17,23.2-20.8,51.8c-1.2,10.9-1.4,19.2-0.7,25.5
						c-6.4-18.4-12.5-56.3,18.4-105.2c-8.3-5-112.3,96.5,13,176.2c61,38.5,83.7,63.8,91.3,78.3c16.3,31,18,72.8,5.7,98.1
						c-9.5,19.4-24.8,42.8-26.7,39.3c-4.3-8.7-1.9-36.7-49.7-54.1c-66-23.9-179.7,13-225.1-85.1c-22.2-43.3-4.7-101.2-1.2-118.9
						c0.5-2.8-34.5,11.1-42.1,54.4c-6.9,31.7-11.8,109.5,80.4,147.8c50.8,20.8,109.2,18.4,149.9,18.4c79.7,0,75.7,51.1,82.8,63.8
						c0.5,0.5,0.5,1.2,1.4,0c8.7-9,41.4-50.1,63.1-70.2C1467.5,813,1335.6,729.1,1300.3,710.9z"/>
				</g>
			</g>
		</g>
	</g>
</g>
</svg>
