<?xml version="1.0" encoding="utf-8"?>
<!-- Generator: Adobe Illustrator 26.0.1, SVG Export Plug-In . SVG Version: 6.00 Build 0)  -->
<svg version="1.1" xmlns="http://www.w3.org/2000/svg" xmlns:xlink="http://www.w3.org/1999/xlink" x="0px" y="0px"
	 viewBox="0 0 2000 2000" style="enable-background:new 0 0 2000 2000;" xml:space="preserve">
<style type="text/css">
	.st0{display:none;fill:#26503A;}
	.st1{display:none;fill:#242424;stroke:#FFFFFF;stroke-width:0.5;stroke-miterlimit:10;}
	.st2{fill:#FFFFFF;stroke:#231F20;stroke-width:0.5;stroke-miterlimit:10;}
	.st3{fill-rule:evenodd;clip-rule:evenodd;fill:#FFFFFF;stroke:#231F20;stroke-width:0.5;stroke-miterlimit:10;}
	.st4{fill:#FFFFFF;}
	.st5{fill:#424143;stroke:#231F20;stroke-width:2;stroke-miterlimit:10;}
	.st6{fill:#424143;}
	.st7{fill-rule:evenodd;clip-rule:evenodd;fill:#424143;stroke:#231F20;stroke-miterlimit:10;}
	.st8{fill:#424143;stroke:#231F20;stroke-miterlimit:10;}
</style>
<g id="Background">
	<rect class="st0" width="2000" height="2000"/>
	<path class="st1" d="M922.6,1223c0-3.1,2.5-5,5.6-5h7.5l131,163.3c0,0,0,0,0.6,0v-154.6c0-3.1,2.5-5.6,5.6-5.6h9.9
		c3.1,0,5.6,2.5,5.6,5.6v195c0,3.1-2.5,5-5.6,5h-5.6l-132.9-166.4l0,0v157.7c0,3.1-2.5,5.6-5.6,5.6h-10.6c-3.1,0-5.6-2.5-5.6-5.6
		V1223z"/>
</g>
<g id="Avon-Park-Logo">
	<g id="Avon-Park-Logo_00000070798094431849275280000002615969919565565097_">
		<g id="CHURCH_OF_THE_NAZARENE">
			<g>
				<path class="st2" d="M372.9,1421.8c22.4,0,38.5,7.5,53.4,20.5c1.9,1.9,1.9,4.3,0,6.2l-6.2,6.2c-1.9,2.5-3.7,1.9-5.6,0
					c-11.8-9.9-27.3-16.8-42.2-16.8c-34.8,0-61.5,29.2-61.5,64c0,34.1,26.7,63.3,61.5,63.3c19.2,0,30.4-7.5,42.2-16.8
					c2.5-1.9,3.7-1.2,5.6-0.6l6.8,6.2c1.9,1.2,1.2,4.3,0,6.2c-14.9,14.9-34.1,21.7-54,21.7c-44.1,0-80.1-35.4-80.1-79.5
					C293.4,1457.2,328.8,1421.8,372.9,1421.8z"/>
				<path class="st2" d="M488.4,1428.1c0-2.5,1.9-4.3,4.3-4.3h8.7c2.5,0,4.3,1.9,4.3,4.3v64.6h90v-64.6c0-2.5,1.9-4.3,4.3-4.3h8.7
					c2.5,0,4.3,1.9,4.3,4.3v146.5c0,2.5-1.9,4.3-4.3,4.3h-8.7c-2.5,0-4.3-1.9-4.3-4.3v-67.1h-90v67.1c0,2.5-1.9,4.3-4.3,4.3h-8.7
					c-2.5,0-4.3-1.9-4.3-4.3V1428.1z"/>
				<path class="st2" d="M683.3,1428.1c0-2.5,1.9-4.3,4.3-4.3h8.7c2.5,0,4.3,1.9,4.3,4.3v92.5c0,25.5,15.5,44.7,41.6,44.7
					c26.1,0,42.2-19.2,42.2-44.7v-92.5c0-2.5,1.9-4.3,4.3-4.3h8.7c2.5,0,4.3,1.9,4.3,4.3v93.8c0,33.5-23.6,59-59,59
					c-34.8,0-58.4-25.5-58.4-59v-93.8H683.3z"/>
				<path class="st2" d="M870.9,1428.1c0-2.5,1.9-4.3,4.3-4.3h57.1c26.7,0,48.4,20.5,48.4,47.2c0,20.5-13.7,37.3-32.9,45.3
					l30.4,55.9c1.2,3.1,0,6.2-3.7,6.2h-11.2c-1.9,0-3.1-1.2-3.7-1.9l-29.2-58.4h-42.2v56.5c0,2.5-1.9,4.3-4.3,4.3h-8.7
					c-2.5,0-4.3-1.9-4.3-4.3L870.9,1428.1L870.9,1428.1z M931.7,1503.8c16.8,0,31.7-14.3,31.7-32.3c0-16.8-14.9-31-31.7-31h-42.8
					v63.3H931.7z"/>
				<path class="st2" d="M1113.6,1421.8c22.4,0,38.5,7.5,53.4,20.5c1.9,1.9,1.9,4.3,0,6.2l-6.2,6.2c-1.9,2.5-3.7,1.9-5.6,0
					c-11.8-9.9-27.3-16.8-42.2-16.8c-34.8,0-61.5,29.2-61.5,64c0,34.1,26.7,63.3,61.5,63.3c19.2,0,30.4-7.5,42.2-16.8
					c2.5-1.9,3.7-1.2,5.6-0.6l6.8,6.2c1.9,1.2,1.2,4.3,0,6.2c-14.9,14.9-34.1,21.7-54,21.7c-44.1,0-80.1-35.4-80.1-79.5
					C1033.5,1457.2,1069.5,1421.8,1113.6,1421.8z"/>
				<path class="st2" d="M1229.1,1428.1c0-2.5,1.9-4.3,4.3-4.3h8.7c2.5,0,4.3,1.9,4.3,4.3v64.6h90v-64.6c0-2.5,1.9-4.3,4.3-4.3h8.7
					c2.5,0,4.3,1.9,4.3,4.3v146.5c0,2.5-1.9,4.3-4.3,4.3h-8.7c-2.5,0-4.3-1.9-4.3-4.3v-67.1h-90v67.1c0,2.5-1.9,4.3-4.3,4.3h-8.7
					c-2.5,0-4.3-1.9-4.3-4.3V1428.1z"/>
			</g>
			<g>
				<path class="st2" d="M150,1679.5c0-3.1,2.5-5,5.6-5h7.5l131,163.3c0,0,0,0,0.6,0v-154.6c0-3.1,2.5-5.6,5.6-5.6h9.9
					c3.1,0,5.6,2.5,5.6,5.6v195c0,3.1-2.5,5-5.6,5h-5.6l-132.9-166.4l0,0v157.7c0,3.1-2.5,5.6-5.6,5.6h-10.6c-3.1,0-5.6-2.5-5.6-5.6
					V1679.5z"/>
				<path class="st2" d="M378.5,1872.6l88.2-195c0.6-1.9,2.5-3.1,5-3.1h3.1c2.5,0,4.3,1.2,5,3.1l87.5,195c1.9,3.7-0.6,7.5-5,7.5
					h-11.8c-2.5,0-4.3-1.9-5-3.1l-21.7-47.8H420.7l-21.1,47.8c-0.6,1.2-2.5,3.1-5,3.1h-11.8C379.1,1880.7,376.6,1876.3,378.5,1872.6
					z M516.3,1811.1c-14.3-31.7-27.9-63.3-42.2-95h-2.5l-42.2,95H516.3z"/>
				<path class="st2" d="M609.5,1869.5L715,1698.1v-0.6h-91.3c-3.1,0-5.6-2.5-5.6-5.6v-9.3c0-3.1,2.5-5.6,5.6-5.6h117.3
					c3.1,0,5.6,2.5,5.6,5.6v3.7l-106.8,173.2l0,0h95.6c3.1,0,5.6,2.5,5.6,5.6v9.3c0,3.1-2.5,5.6-5.6,5.6H615c-3.1,0-5.6-2.5-5.6-5.6
					V1869.5z"/>
				<path class="st2" d="M789.5,1872.6l88.2-195c0.6-1.9,2.5-3.1,5-3.1h3.1c2.5,0,4.3,1.2,5,3.1l87.5,195c1.9,3.7-0.6,7.5-5,7.5
					h-11.8c-2.5,0-4.3-1.9-5-3.1l-21.7-47.8H831.7l-21.1,47.8c-0.6,1.2-2.5,3.1-5,3.1h-11.8C790.1,1880.7,787.7,1876.3,789.5,1872.6
					z M927.4,1811.1c-14.3-31.7-27.9-63.3-42.2-95h-2.5l-42.2,95H927.4z"/>
				<path class="st2" d="M1041.6,1682.6c0-3.1,2.5-5.6,5.6-5.6h75.1c34.8,0,63.3,27.3,63.3,62.1c0,26.7-18,49.1-42.8,59l39.7,73.9
					c1.9,3.7,0,8.7-5,8.7h-14.9c-2.5,0-4.3-1.2-4.3-2.5l-38.5-77h-55.3v73.9c0,3.1-2.5,5.6-5.6,5.6h-11.2c-3.1,0-5.6-2.5-5.6-5.6
					v-192.5H1041.6z M1120.5,1782c22.4,0,41.6-18.6,41.6-42.2c0-22.4-19.2-41-41.6-41H1064v83.2H1120.5z"/>
				<path class="st2" d="M1265.1,1682.6c0-3.1,2.5-5.6,5.6-5.6H1385c3.1,0,5.6,2.5,5.6,5.6v8.7c0,3.1-2.5,5.6-5.6,5.6h-97.5v70.8
					h83.2c3.1,0,5.6,2.5,5.6,5.6v8.7c0,3.1-2.5,5.6-5.6,5.6h-83.2v73.9h97.5c3.1,0,5.6,2.5,5.6,5.6v8.7c0,3.1-2.5,5.6-5.6,5.6
					h-114.2c-3.1,0-5.6-2.5-5.6-5.6V1682.6z"/>
				<path class="st2" d="M1468.8,1679.5c0-3.1,2.5-5,5.6-5h7.5l131,163.3c0,0,0,0,0.6,0v-154.6c0-3.1,2.5-5.6,5.6-5.6h9.9
					c3.1,0,5.6,2.5,5.6,5.6v195c0,3.1-2.5,5-5.6,5h-5l-132.9-166.4l0,0v157.7c0,3.1-2.5,5.6-5.6,5.6h-9.9c-3.1,0-5.6-2.5-5.6-5.6
					v-195H1468.8z"/>
				<path class="st2" d="M1725.2,1682.6c0-3.1,2.5-5.6,5.6-5.6h113.6c3.1,0,5.6,2.5,5.6,5.6v8.7c0,3.1-2.5,5.6-5.6,5.6h-97.5v70.8
					h83.2c3.1,0,5.6,2.5,5.6,5.6v8.7c0,3.1-2.5,5.6-5.6,5.6h-83.2v73.9h97.5c3.1,0,5.6,2.5,5.6,5.6v8.7c0,3.1-2.5,5.6-5.6,5.6
					h-114.2c-3.1,0-5.6-2.5-5.6-5.6v-193.1H1725.2z"/>
			</g>
			<g>
				<path class="st2" d="M1455.7,1487c13.7,0,24.8,11.2,24.8,24.8s-11.2,24.8-24.8,24.8c-13.7,0-24.2-11.2-24.2-24.8
					C1431.5,1497.6,1442.1,1487,1455.7,1487z M1455.7,1527.4c8.7,0,15.5-6.8,15.5-15.5c0-8.7-6.8-15.5-15.5-15.5
					c-8.7,0-15.5,7.5-15.5,15.5C1440.2,1519.9,1447.7,1527.4,1455.7,1527.4z"/>
				<path class="st2" d="M1491.1,1488.9c0-0.6,0.6-1.2,1.2-1.2h27.9c0.6,0,1.2,0.6,1.2,1.2v5.6c0,0.6-0.6,1.2-1.2,1.2h-20.5v13h16.8
					c0.6,0,1.2,0.6,1.2,1.2v5.6c0,0.6-0.6,1.2-1.2,1.2h-16.8v17.4c0,0.6-0.6,1.2-1.2,1.2h-6.2c-0.6,0-1.2-0.6-1.2-1.2V1488.9z"/>
				<path class="st2" d="M1554.5,1495.7h-10.6c-0.6,0-1.2-0.6-1.2-1.2v-5.6c0-0.6,0.6-1.2,1.2-1.2h29.8c0.6,0,1.2,0.6,1.2,1.2v5.6
					c0,0.6-0.6,1.2-1.2,1.2h-10.6v38.5c0,0.6-0.6,1.2-1.2,1.2h-6.2c-0.6,0-1.2-0.6-1.2-1.2L1554.5,1495.7L1554.5,1495.7z"/>
				<path class="st2" d="M1584.3,1488.9c0-0.6,0.6-1.2,1.2-1.2h6.2c0.6,0,1.2,0.6,1.2,1.2v18h22.4v-18c0-0.6,0.6-1.2,1.2-1.2h6.2
					c0.6,0,1.2,0.6,1.2,1.2v45.3c0,0.6-0.6,1.2-1.2,1.2h-6.2c-0.6,0-1.2-0.6-1.2-1.2v-18.6H1593v18.6c0,0.6-0.6,1.2-1.2,1.2h-6.2
					c-0.6,0-1.2-0.6-1.2-1.2V1488.9z"/>
				<path class="st2" d="M1638.3,1488.9c0-0.6,0.6-1.2,1.2-1.2h27.9c0.6,0,1.2,0.6,1.2,1.2v5.6c0,0.6-0.6,1.2-1.2,1.2H1647v11.2
					h16.8c0.6,0,1.2,0.6,1.2,1.2v5.6c0,0.6-0.6,1.2-1.2,1.2H1647v11.8h20.5c0.6,0,1.2,0.6,1.2,1.2v5.6c0,0.6-0.6,1.2-1.2,1.2h-27.9
					c-0.6,0-1.2-0.6-1.2-1.2V1488.9z"/>
			</g>
			<rect x="1431.5" y="1557.8" class="st3" width="239" height="10.6"/>
		</g>
		<g id="Avon-Park-Ring_00000164511881898484531090000005712956992516840589_">
			<circle id="Circle-White-Background" class="st4" cx="1015.4" cy="666.8" r="550"/>
			<g id="Letter-Centers">
				<path id="R-Center-Gray" class="st5" d="M1412.2,406.7l-42.8,24.8l18.4,31.9c6.7,11.6,22.3,16.2,34.5,9.2
					c11.5-6.6,15.1-22.3,8.3-34L1412.2,406.7z"/>
				<polygon id="A-Center-Gray_00000050660372696306662640000018319405020431316112_" class="st5" points="1249.8,342.4 
					1289.6,375.3 1305.6,316.1 1304.8,315.5 				"/>
				<path id="P-Center-Gray" class="st5" d="M1194.5,228.8l-26.6-10.3l-18.3,47.1l26.6,10.3c13.3,5.2,28.6-1.1,33.9-14.8
					C1215.2,248.2,1207.8,234,1194.5,228.8z"/>
				<polygon id="A-Center-Gray" class="st5" points="567.4,586.6 617.8,621.2 626.9,570.4 567.5,585.5 				"/>
				<path id="O-Center-Gray" class="st5" d="M722.6,292.7c-23.1,18.1-27.2,52.1-9.4,74.8c17.9,22.9,51.5,26.6,74.7,8.5
					c23.3-18.2,27.8-51.7,9.8-74.6C779.8,278.6,745.9,274.5,722.6,292.7z"/>
			</g>
			<path id="Avon-Park-Ring" class="st5" d="M1391.1,290.8c-100.4-100.4-233.8-155.6-375.7-155.6c-141.9,0-275.4,55.3-375.7,155.6
				C539.3,391.2,484.1,524.6,484.1,666.5s55.3,275.4,155.6,375.7c100.4,100.4,233.8,155.6,375.7,155.6
				c141.9,0,275.4-55.3,375.7-155.6c100.4-100.4,155.6-233.8,155.6-375.7S1491.5,391.2,1391.1,290.8z M1330.1,284.2l1.6,1.3
				c0.8,0.7,1.6,2.6,1.3,4l-38.6,145.7c-0.7,2.8-3.7,3.8-6.1,1.8l-10-8.3c-1.9-1.6-2.2-3.4-1.7-5.4l7.9-29.6l-52.1-43
				c-9.1,4.6-18.3,8.9-27.5,13.5c-1.4,0.7-3.7,0.9-5.6-0.7l-10-8.3c-2.4-2-2-5.1,0.7-6.3l136.1-65.1
				C1327.2,283.1,1329.3,283.5,1330.1,284.2z M1105.2,320.9l48.7-125.5c0.7-1.9,2.9-3,5.1-2.2l43.9,17.1
				c23.7,9.2,35.8,35.7,26.9,58.7c-9.1,23.5-36,35.1-59.5,26l-27.9-10.8l-17.3,44.6c-0.7,1.9-3.1,2.9-5.1,2.2l-12.5-4.9
				C1105.4,325.1,1104.5,322.8,1105.2,320.9z M844.6,198.3l5-1.2l111.1,78.3l0.2,0l-22.5-93.5c-0.5-2,0.7-4.1,2.9-4.7l12.9-3.1
				c2-0.5,4.2,0.9,4.7,2.8L991,309.9c0.5,2-0.9,4-3,4.5l-5.2,1.3l-111.8-81l-0.2,0l23.2,96.3c0.5,2-0.7,4.1-2.9,4.7l-12.7,3
				c-2,0.5-4.2-0.9-4.7-2.8l-32.1-133.1C841.2,200.8,842.6,198.7,844.6,198.3z M710.2,276.6c32.5-25.5,78.8-20.1,103.8,12
				c25.1,32,19,77.9-13.5,103.4c-32.5,25.5-78.3,20.3-103.4-11.8C672,348.1,677.7,302.1,710.2,276.6z M554.1,480.5l7.2-12.8
				c0.8-1.4,2.6-2.1,3.7-2l110,9.9l0.6-1.1l-65.4-89.1c-0.7-0.9-1.1-2.5-0.2-4.2l7.2-12.8c1.5-2.7,4.6-2.8,6.3-0.5l88.1,122.5
				c0.8,1.1,1,2.7,0.2,4.2l-1,1.8c-0.7,1.3-2.3,2-3.7,2L557,486.1C554.1,485.9,552.6,483.2,554.1,480.5z M681.6,540.9l-2.3,12.8
				c-0.4,2.4-1.9,3.6-3.8,4.1l-29.7,7.7L633.8,632c8.5,5.7,16.7,11.6,25.2,17.3c1.3,0.9,2.6,2.8,2.2,5.2l-2.3,12.8
				c-0.5,3-3.4,4.2-5.8,2.5l-123.5-86.6c-1.1-0.8-1.8-2.8-1.6-3.9l0.4-2c0.2-1,1.5-2.7,2.8-3.1L677,536.5
				C679.8,535.7,682.1,537.8,681.6,540.9z M1015.4,982.2c-174.1,0-315.7-141.6-315.7-315.7s141.6-315.7,315.7-315.7
				s315.7,141.6,315.7,315.7S1189.5,982.2,1015.4,982.2z M1344.7,535.1l-8.1-14c-0.8-1.4-0.6-3-0.1-3.8l32.9-50.8l-15.6-27l-44.9,26
				c-1.8,1-4.3,0.3-5.3-1.5l-6.7-11.6c-1.1-2-0.4-4.3,1.4-5.3l116.6-67.4c1.8-1,4.2-0.5,5.3,1.5l28.1,48.7
				c12.4,21.5,5.8,48.7-15.1,60.8c-16.2,9.4-35.9,6.2-51.1-5.8l-30.6,50.4C1350,537.8,1346.4,538.2,1344.7,535.1z M1503.8,638.9
				l-69.1-48.6l-56.7,74c-1.7,2-6.5,1.8-7.2-2.5l-2.8-16.3c-0.4-2,0.2-3.4,0.8-3.9L1424,571l-62.3,10.8c-2.6,0.5-5.2-1.4-5.7-4
				L1354,566c-0.5-2.8,1.4-5.3,4-5.7l130.7-22.7c2.6-0.5,5.2,1.2,5.7,4l2.1,11.8c0.5,2.6-1.4,5.3-4,5.7l-55.5,9.7l68.3,47.3
				c1.1,0.6,2.4,1.9,2.7,3.5l2.7,15.3C1511.1,638.5,1507.3,641.2,1503.8,638.9z"/>
		</g>
		<g id="Bird-Bible">
			<g id="Registered_Mark">
				<path class="st6" d="M808.5,805.5h-2.1c-0.4,0-0.4,0-0.4,0.4l-0.4,4.9c0,0.4,0,0.4,0.4,0.4h0.4c0.4,0,0.4-0.4,0.4-0.4v-1.9h1.1
					l0.9,1.9l0.4,0.4h0.5c0.4,0,0.4-0.4,0.4-0.5c-0.4-0.5-0.5-1.1-0.9-1.9c0.5,0,1.4-0.5,1.4-1.6C810.4,806,809.6,805.5,808.5,805.5
					z M808.3,808.2h-1.4V808v-1.6h1.4c0.5,0,0.9,0.4,0.9,0.9C809.2,807.8,808.9,808.2,808.3,808.2z"/>
				<path class="st6" d="M807.6,803.1c-3-0.2-5.3,2.3-5.3,5.3c0,3,2.5,5.3,5.3,5.3c2.8,0,5.3-2.5,5.3-5.3
					C812.9,805.5,810.4,803.1,807.6,803.1z M808,812.9c-2.8-0.4-4.6-2.1-4.6-4.6c0-2.5,2.1-4.6,4.6-4.6s4.6,1.9,4.6,4.6
					C812.5,810.8,810.6,812.9,808,812.9z"/>
			</g>
			<g id="Bible">
				<path class="st7" d="M1047.7,802.4c-2.1,0-35.3-0.4-73,0c-31.4,0.4-65.4,0-83.9,0c-0.5,0.4-1.1,0.5-1.4,0.9
					c-0.5,0.5-2.5,9.8-1.6,9.8c1.2,0,157.9,0,159.9,0c0.5-0.2,0.7-0.5,1.1-1.1c0.9-2.1,0.9-6.7,0.4-8.6
					C1048.8,802.9,1048.1,802.4,1047.7,802.4z"/>
				<path class="st7" d="M845.3,802.4c-0.5,0-3.3,0-3.7,0c-1.1,0-16,0-22.1,0c-0.5,0.4-1.6,0.5-1.9,1.2c0,0.5,0,8.1,0,8.6
					c0,0.4,0.7,0.9,1.6,0.9c6.1,0,21.1,0,22.5,0c0.2,0,3.3,0.2,4.2-0.9C846.1,811.5,848.9,802.4,845.3,802.4z"/>
				<path class="st7" d="M1226.2,802.7c-1.8-0.7-9.7-0.4-12.1-0.4c-9.3,0-109.3,0-151.1,0c-0.5,0.4-1.2,0.4-1.4,0.9
					c-0.4,0.7-0.4,8.2,0,8.8c0,0.5,0.5,1.1,1.4,1.1c40.7,0,160.7,0.4,162.7,0C1227.6,812.5,1228,803.4,1226.2,802.7z"/>
				<path class="st7" d="M1006.2,755c-27-7-88.6,11.4-135.1,21.6c-17.4,3.7-39.1,6.1-46.3,7.7c-5.8,1.1-4.7,5.3-4.7,6.8
					c0,1.9,3.2,1.9,3.2,1.9h223.4c0,0,1.9,0.2,1.1-1.9C1044.4,784.1,1032.3,761.7,1006.2,755z"/>
				<path class="st7" d="M1227.8,788.8c-0.4-0.9-1.6-2.5-3-2.6c-5.1-1.1-20.5-3.2-32.6-6.1c-32.8-8.1-74.4-23.5-93-17.2
					c-16.3,5.3-28.1,23-31.6,28.6c-0.9,1.4,0.9,1.6,0.9,1.6h158.1c0,0,0.9,0,1.1-0.4c0.4-0.4,0.9-0.5,0.9-1.1
					C1228,791,1228,789.4,1227.8,788.8z"/>
				<path class="st8" d="M840.2,831.8c-1.9,1.9-6.5,5.3-6.7,5.3c1.6,1.6,19.8,1.1,21.4,1.1c0.5,3-0.4,7.7-3.5,18.4
					c11.2-1.1,24.4-12.3,27.2-26c0.9-3.7,2.1-8.6,3-12.8c1.1-7.5,2.5-14.7,2.5-14.9c-10-0.2-20.7-0.2-31.2-0.2
					C851.7,816.9,846.3,825.5,840.2,831.8z M856.7,815.5c0.4-0.5,0.5-1.1,0.9-1.1h5.6l1.6-6c0-0.4,0.5-0.5,1.1-0.5h2.1
					c0.5,0,0.9,0.4,0.9,0.5l-1.6,6h5.6c0.7,0.2,0.7,0.7,0.4,1.1l-0.5,2.1c-0.4,0.5-0.5,1.1-0.9,1.1h-5.6l-3.7,12.8
					c0,0.4-0.5,0.5-1.1,0.5h-2.1c-0.5,0-0.9-0.4-0.9-0.5l3.7-12.8h-5.6c-0.4,0-0.4-0.5-0.4-1.1L856.7,815.5z"/>
			</g>
			<g id="Bird">
				<path class="st8" d="M1052.3,726.9c-5.6-0.5-5.1,2.6,0,8.8c7.7,9.8,10.7,1.2,8.2-3.7C1059,728.5,1054.1,726.9,1052.3,726.9z"/>
				<path class="st8" d="M965.1,634.6C865.6,566.4,884,506.5,884,497.2c0-8.8-13.9,17.9-13.7,33.5c-1.1,48.1,44.4,84.6,43.9,84.6
					c-16.8-4.2-38.8-30-46.3-41.8c-0.4-0.5-1.9-1.6-0.9,1.6c1.6,5.1,7.2,19.8,23,33.7c14.4,11.6,35.6,27.9,75.6,27.9
					C966.5,636.7,966.2,635.3,965.1,634.6z"/>
				<path class="st8" d="M1077.8,565.7c-14.9-7.7-34-11.8-29.5-8.8c0.4,0.4,53.2,36.8,68.3,63.2c23,40.4-4,84.8-12.8,87.4
					c-0.5,0.4-0.4-2.5-0.4-6c1.6-36.3-32.6-70.9-36.3-74c-9.3-7.5-17.9-13.9-26-19.5c8.1-4.6,13.2-19.5,8.8-29.7
					c-6.5-15.8-17.4-22.3-23.3-25.1c-1.4-0.9-4.7-1.9-3,1.1c10.4,13.7,2.6,37.2-12.8,33.2c-1.4-0.9-2.5-1.9-3.7-2.6
					c-11.2-10.7-27.7-37.4-6.5-87.2c0.5-0.5,0.4-2.5-1.9,0.4c-3.7,4.6-12.6,17.2-15.4,38.4c-0.9,8.1-1.1,14.2-0.5,19
					c-4.7-13.7-9.3-41.8,13.7-78.1c-6.1-3.7-83.3,71.6,9.7,130.7c45.3,28.6,62.1,47.4,67.7,58.1c12.1,23,13.3,54,4.2,72.8
					c-7,14.4-18.4,31.8-19.8,29.1c-3.2-6.5-1.4-27.2-36.8-40.2c-49-17.7-133.4,9.7-167-63.2c-16.5-32.1-3.5-75.1-0.9-88.3
					c0.4-2.1-25.6,8.2-31.2,40.4c-5.1,23.5-8.8,81.2,59.7,109.7c37.7,15.4,81.1,13.7,111.2,13.7c59.1,0,56.1,37.9,61.4,47.4
					c0.4,0.4,0.4,0.9,1.1,0c6.5-6.7,30.7-37.2,46.8-52.1C1201.8,641.5,1103.9,579.2,1077.8,565.7z"/>
			</g>
		</g>
	</g>
</g>
</svg>
