<?xml version="1.0" encoding="utf-8"?>
<!-- Generator: Adobe Illustrator 26.0.1, SVG Export Plug-In . SVG Version: 6.00 Build 0)  -->
<svg version="1.1" xmlns="http://www.w3.org/2000/svg" xmlns:xlink="http://www.w3.org/1999/xlink" x="0px" y="0px"
	 viewBox="0 0 792 612" style="enable-background:new 0 0 792 612;" xml:space="preserve">
<style type="text/css">
	.st0{fill:#26503A;}
	.st1{fill:#FFFFFF;}
</style>
<g id="Backgroud">
	<rect class="st0" width="792" height="612"/>
</g>
<g id="White_Logo">
	<g>
		<g>
			<path class="st1" d="M111,287.5c5.1,0,8.8,1.8,12.3,4.7c0.4,0.4,0.5,1,0,1.4l-1.4,1.4c-0.4,0.5-0.8,0.5-1.3-0.1
				c-2.6-2.3-6.2-3.8-9.7-3.8c-8,0-14.1,6.7-14.1,14.6c0,7.8,6.1,14.5,14.1,14.5c4.4,0,7-1.8,9.7-3.8c0.5-0.4,0.9-0.4,1.2-0.2
				l1.5,1.4c0.4,0.3,0.3,1-0.1,1.4c-3.4,3.3-7.8,4.9-12.3,4.9c-10.1,0-18.3-8.1-18.3-18.2C92.7,295.6,100.8,287.5,111,287.5z"/>
			<path class="st1" d="M137.5,289c0-0.5,0.5-1,1-1h2c0.6,0,1,0.5,1,1v14.8h20.6V289c0-0.5,0.4-1,1-1h2c0.5,0,1,0.5,1,1v33.6
				c0,0.5-0.5,1-1,1h-2c-0.6,0-1-0.5-1-1v-15.4h-20.6v15.4c0,0.5-0.4,1-1,1h-2c-0.5,0-1-0.5-1-1V289z"/>
			<path class="st1" d="M182.1,289c0-0.5,0.5-1,1-1h1.9c0.6,0,1,0.5,1,1v21.1c0,5.8,3.6,10.3,9.5,10.3c6,0,9.6-4.4,9.6-10.2V289
				c0-0.5,0.4-1,1-1h1.9c0.5,0,1,0.5,1,1v21.4c0,7.7-5.5,13.6-13.5,13.6c-8,0-13.4-5.9-13.4-13.6V289z"/>
			<path class="st1" d="M225.2,289c0-0.5,0.4-1,1-1h13.1c6.1,0,11.1,4.8,11.1,10.8c0,4.7-3.1,8.6-7.5,10.3l6.9,12.9
				c0.4,0.7,0,1.5-0.9,1.5h-2.6c-0.5,0-0.7-0.3-0.8-0.5l-6.7-13.4h-9.7v12.9c0,0.5-0.5,1-1,1h-2c-0.6,0-1-0.5-1-1V289z M239,306.2
				c3.9,0,7.3-3.2,7.3-7.4c0-3.9-3.4-7.1-7.3-7.1h-9.8v14.5H239z"/>
			<path class="st1" d="M280.7,287.5c5.1,0,8.8,1.8,12.3,4.7c0.4,0.4,0.5,1,0.1,1.4l-1.4,1.4c-0.4,0.5-0.8,0.5-1.3-0.1
				c-2.6-2.3-6.2-3.8-9.7-3.8c-8,0-14.1,6.7-14.1,14.6c0,7.8,6.1,14.5,14.1,14.5c4.4,0,7-1.8,9.7-3.8c0.5-0.4,0.9-0.4,1.2-0.2
				l1.5,1.4c0.4,0.3,0.3,1-0.1,1.4c-3.4,3.3-7.8,4.9-12.3,4.9c-10.1,0-18.3-8.1-18.3-18.2C262.4,295.6,270.6,287.5,280.7,287.5z"/>
			<path class="st1" d="M307.2,289c0-0.5,0.5-1,1-1h2c0.6,0,1,0.5,1,1v14.8h20.6V289c0-0.5,0.4-1,1-1h2c0.5,0,1,0.5,1,1v33.6
				c0,0.5-0.5,1-1,1h-2c-0.6,0-1-0.5-1-1v-15.4h-20.6v15.4c0,0.5-0.4,1-1,1h-2c-0.5,0-1-0.5-1-1V289z"/>
		</g>
		<g>
			<path class="st1" d="M402,288.9c0-0.5,0.5-0.9,1-0.9h1.3l22.9,28.5c0,0,0,0,0.1,0v-27c0-0.5,0.4-1,1-1h1.8c0.5,0,1,0.5,1,1v34.1
				c0,0.5-0.5,0.9-1,0.9h-0.9l-23.3-29.1h-0.1V323c0,0.5-0.4,1-1,1H403c-0.5,0-1-0.5-1-1V288.9z"/>
			<path class="st1" d="M442,322.7l15.4-34.1c0.2-0.3,0.4-0.6,0.9-0.6h0.5c0.5,0,0.7,0.3,0.9,0.6l15.3,34.1c0.3,0.7-0.1,1.3-0.9,1.3
				h-2c-0.5,0-0.8-0.3-0.9-0.6l-3.7-8.4h-18l-3.7,8.4c-0.1,0.3-0.4,0.6-0.9,0.6h-2C442.1,324,441.7,323.4,442,322.7z M466.1,311.9
				c-2.5-5.5-4.9-11.1-7.4-16.6h-0.4l-7.4,16.6H466.1z"/>
			<path class="st1" d="M482.4,322.1l18.4-29.9v-0.2h-16c-0.5,0-1-0.5-1-1v-1.6c0-0.5,0.5-1,1-1h20.5c0.5,0,1,0.5,1,1v0.7
				l-18.7,30.3v0.1h16.7c0.6,0,1,0.5,1,1v1.6c0,0.5-0.4,1-1,1h-21c-0.5,0-1-0.5-1-1V322.1z"/>
			<path class="st1" d="M513.8,322.7l15.4-34.1c0.2-0.3,0.4-0.6,0.9-0.6h0.5c0.5,0,0.7,0.3,0.9,0.6l15.3,34.1
				c0.3,0.7-0.1,1.3-0.9,1.3h-2c-0.5,0-0.8-0.3-0.9-0.6l-3.8-8.4h-18l-3.7,8.4c-0.1,0.3-0.4,0.6-0.9,0.6h-2
				C513.9,324,513.5,323.4,513.8,322.7z M537.9,311.9c-2.5-5.5-4.9-11.1-7.4-16.6h-0.4l-7.4,16.6H537.9z"/>
			<path class="st1" d="M557.9,289.5c0-0.5,0.4-1,1-1H572c6.1,0,11.1,4.8,11.1,10.8c0,4.7-3.1,8.6-7.5,10.3l6.9,12.9
				c0.4,0.7,0,1.5-0.9,1.5H579c-0.5,0-0.7-0.3-0.8-0.5l-6.7-13.4h-9.7V323c0,0.5-0.5,1-1,1h-2c-0.6,0-1-0.5-1-1V289.5z M571.7,306.8
				c3.9,0,7.3-3.2,7.3-7.4c0-3.9-3.4-7.1-7.3-7.1h-9.8v14.5H571.7z"/>
			<path class="st1" d="M597,289.5c0-0.5,0.4-1,1-1h20c0.6,0,1,0.5,1,1v1.5c0,0.5-0.4,1-1,1h-17v12.4h14.5c0.5,0,1,0.5,1,1v1.5
				c0,0.6-0.5,1-1,1h-14.5v12.9h17c0.6,0,1,0.5,1,1v1.5c0,0.5-0.4,1-1,1h-20c-0.6,0-1-0.5-1-1V289.5z"/>
			<path class="st1" d="M632.6,288.9c0-0.5,0.5-0.9,1-0.9h1.3l22.9,28.5c0,0,0,0,0.1,0v-27c0-0.5,0.4-1,1-1h1.8c0.5,0,1,0.5,1,1
				v34.1c0,0.5-0.5,0.9-1,0.9h-0.9l-23.3-29.1h-0.1V323c0,0.5-0.4,1-1,1h-1.8c-0.5,0-1-0.5-1-1V288.9z"/>
			<path class="st1" d="M677.4,289.5c0-0.5,0.4-1,1-1h20c0.6,0,1,0.5,1,1v1.5c0,0.5-0.4,1-1,1h-17v12.4h14.6c0.5,0,1,0.5,1,1v1.5
				c0,0.6-0.5,1-1,1h-14.6v12.9h17c0.6,0,1,0.5,1,1v1.5c0,0.5-0.4,1-1,1h-20c-0.6,0-1-0.5-1-1V289.5z"/>
		</g>
		<g>
			<path class="st1" d="M364.6,287.7c3,0,5.4,2.4,5.4,5.4c0,3-2.4,5.4-5.4,5.4c-3,0-5.4-2.4-5.4-5.4
				C359.2,290.1,361.6,287.7,364.6,287.7z M364.6,297.1c2.2,0,3.9-1.8,3.9-3.9c0-2.1-1.8-3.9-3.9-3.9c-2.1,0-3.9,1.8-3.9,3.9
				C360.7,295.3,362.4,297.1,364.6,297.1z"/>
			<path class="st1" d="M374.4,288.2c0-0.2,0.1-0.3,0.3-0.3h6c0.2,0,0.3,0.1,0.3,0.3v0.8c0,0.2-0.1,0.3-0.3,0.3H376v3.5h4
				c0.2,0,0.3,0.1,0.3,0.3v0.8c0,0.2-0.1,0.3-0.3,0.3h-4v4c0,0.2-0.1,0.3-0.3,0.3h-1c-0.2,0-0.3-0.1-0.3-0.3V288.2z"/>
		</g>
		<g>
			<path class="st1" d="M357.2,315h-2.5c-0.2,0-0.3-0.1-0.3-0.3v-0.8c0-0.2,0.1-0.3,0.3-0.3h6.5c0.2,0,0.3,0.1,0.3,0.3v0.8
				c0,0.2-0.1,0.3-0.3,0.3h-2.5v8.9c0,0.2-0.1,0.3-0.3,0.3h-1c-0.1,0-0.3-0.1-0.3-0.3V315z"/>
			<path class="st1" d="M365.4,313.8c0-0.2,0.1-0.3,0.3-0.3h1c0.2,0,0.3,0.1,0.3,0.3v4.2h5.5v-4.2c0-0.2,0.1-0.3,0.3-0.3h1
				c0.1,0,0.3,0.1,0.3,0.3v10c0,0.2-0.1,0.3-0.3,0.3h-1c-0.2,0-0.3-0.1-0.3-0.3v-4.4h-5.5v4.4c0,0.2-0.1,0.3-0.3,0.3h-1
				c-0.2,0-0.3-0.1-0.3-0.3V313.8z"/>
			<path class="st1" d="M379.2,313.8c0-0.2,0.1-0.3,0.3-0.3h6c0.2,0,0.3,0.1,0.3,0.3v0.8c0,0.2-0.1,0.3-0.3,0.3h-4.8v3.1h4
				c0.2,0,0.3,0.1,0.3,0.3v0.8c0,0.2-0.1,0.3-0.3,0.3h-4v3.2h4.8c0.2,0,0.3,0.1,0.3,0.3v0.8c0,0.2-0.1,0.3-0.3,0.3h-6
				c-0.2,0-0.3-0.1-0.3-0.3V313.8z"/>
		</g>
		<g>
			<path class="st1" d="M385.9,303.3c0.5,0,0.9,0.3,0.9,0.6v1.2c0,0.3-0.4,0.6-0.9,0.6h-30.8c-0.5,0-0.9-0.3-0.9-0.6v-1.2
				c0-0.3,0.4-0.6,0.9-0.6H385.9z"/>
		</g>
	</g>
</g>
</svg>
