<?xml version="1.0" encoding="utf-8"?>
<!-- Generator: Adobe Illustrator 26.0.1, SVG Export Plug-In . SVG Version: 6.00 Build 0)  -->
<svg version="1.1" id="Layer_1" xmlns="http://www.w3.org/2000/svg" xmlns:xlink="http://www.w3.org/1999/xlink" x="0px" y="0px"
	 viewBox="0 0 1470 1470" style="enable-background:new 0 0 1470 1470;" xml:space="preserve">
<style type="text/css">
	.st0{fill:#FFFFFF;}
	.st1{fill:#424143;}
	.st2{fill-rule:evenodd;clip-rule:evenodd;fill:#424143;stroke:#221F1F;stroke-miterlimit:10;}
	.st3{fill:#424143;stroke:#221F1F;stroke-miterlimit:10;}
</style>
<g id="Avon-Park-Logo_00000070798094431849275280000002615969919565565097_">
	<g id="Avon-Park-Ring_00000164511881898484531090000005712956992516840589_">
		
			<circle id="Circle-White-Background_00000073697751857955115720000016374236675920610432_" class="st0" cx="735" cy="735" r="735"/>
		<circle id="Circle-Gray-Background" class="st1" cx="735" cy="735" r="716"/>
		<circle id="Circle-White-Background-small" class="st0" cx="735" cy="735.2" r="440"/>
		<g id="NAZ">
			<path id="Z" class="st0" d="M870.5,1386.5l41.4-183l-0.3-1.1l-77.3,24.6c-2.7,0.9-6-0.8-6.9-3.6l-5.1-15.9
				c-0.9-2.7,0.8-6,3.6-6.9l112.6-35.8c2.7-0.9,6,0.8,6.9,3.6l1.1,3.6l-40.9,185.6l0.1,0.3l80-25.4c3-1,6,0.8,6.9,3.6l5,15.6
				c0.9,2.7-0.5,5.9-3.6,6.9L878.9,1395c-2.7,0.9-6-0.8-6.9-3.6L870.5,1386.5z"/>
			<path id="A" class="st0" d="M639.6,1399.7l88.6-193.4c0.9-1.7,3.5-3.2,4.9-3.2l2.9,0c1.4,0,4,1.4,4.9,3.2l87.4,193.7
				c1.7,3.7-0.6,7.5-4.9,7.5l-18.1,0c-3.5,0-5.5-1.7-6.6-4.3l-17.8-39.4l-94-0.2c-5.8,13.2-11.8,26.1-17.6,39.4
				c-0.9,2-3.2,4.3-6.6,4.3l-18.1,0C640.2,1407.2,637.9,1403.5,639.6,1399.7z M769.9,1339l-35.2-78.8l-1.4,0l-35.2,78.7L769.9,1339z
				"/>
			<path id="N" class="st0" d="M484.4,1145.7c1-2.7,4.3-3.9,7-2.8l6.7,2.6l63.8,179.8l0.3,0.1l49.4-126.7c1-2.7,4.1-4.3,7.1-3.1
				l17.1,6.7c2.7,1,4.2,4.4,3.1,7.1l-70.3,180.3c-1,2.7-4.3,3.9-7,2.8l-7-2.7l-62.4-183.6l-0.3-0.1l-50.9,130.5
				c-1,2.7-4.1,4.3-7.1,3.1l-16.9-6.6c-2.7-1-4.2-4.4-3.1-7.1L484.4,1145.7z"/>
		</g>
		<g id="AVON_PARK">
			<path id="K" class="st0" d="M1391.6,595.8c3.7-0.4,7.2,2.6,7.6,7.2l1.9,18.9c0.4,4.2-2.4,8.1-6.1,8.5l-79.3,7.8L1408,722
				c1.6,1.2,3.2,3.3,3.5,5.9l2.4,24.5c0.6,5.9-5.1,9.7-9.9,5.6l-93.4-86L1224,781.3c-2.6,2.9-9.3,1.9-10-4.9l-2.6-26.1
				c-0.3-3.3,0.6-5.3,1.4-6.1l84.5-104.2l-89,8.8c-3.7,0.4-7.2-2.9-7.6-7.2l-1.9-18.9c-0.4-4.6,2.4-8.1,6.1-8.5L1391.6,595.8z"/>
			<path id="R" class="st0" d="M1287.1,348.9c2.5-1.4,6.1-0.3,7.8,2.9l42.3,78.5c18.7,34.6,9.8,75.9-20.3,92.1
				c-23.3,12.5-52,5.3-74.4-15l-43,74.2c-2.2,3.8-7.3,4-10-1l-12.1-22.5c-1.2-2.3-0.9-4.7-0.2-5.8l46.4-74.5l-23.5-43.6l-64.6,34.8
				c-2.5,1.4-6.2,0-7.8-2.9l-10.1-18.8c-1.7-3.2-0.7-6.7,1.9-8.1L1287.1,348.9z M1249.8,474.3c10.1,18.8,32.9,27.7,50.4,18.3
				c16.5-8.9,21.3-32.7,11.2-51.4l-27.7-51.4l-61.5,33.1L1249.8,474.3z"/>
			<path id="A_00000147220809022239615700000001547497453208625547_" class="st0" d="M951,291.5l199.6-88c1.8-0.7,5,0,6.3,1l2.6,2.1
				c1.3,1,2.7,4,2.4,6L1118.7,426c-0.8,4.1-5.2,5.4-9,2.3l-16.1-12.9c-3.1-2.5-3.8-5.2-3.2-8.1l8.8-43.4l-83.6-67.1
				c-13.4,6.2-26.9,12-40.2,18.2c-2,1-5.5,1.1-8.6-1.4l-16.1-12.9C946.8,297.7,947.1,293.2,951,291.5z M1105,336.9l17.8-86.7l-1.3-1
				l-80.5,36.4L1105,336.9z"/>
			<path id="P" class="st0" d="M877.9,77.4c0.9-2.7,4.2-4.4,7.6-3.3L956.6,97c38.4,12.3,61.1,49.9,50.4,83
				c-10.9,33.9-51.3,51.4-89.4,39.2l-45.2-14.6L851.7,269c-0.9,2.7-4.5,4.3-7.6,3.3l-20.3-6.5c-3.4-1.1-5.1-4.4-4.3-7.1L877.9,77.4z
				 M924.1,191.7c21.5,6.9,44.6-2.6,50.9-22.3c6-18.6-7.5-38.7-29.1-45.6L902.9,110l-21.8,67.9L924.1,191.7z"/>
			<path id="N_00000124880036639692046240000018294416339115665086_" class="st0" d="M436.7,126.2c-0.9-2.7,0.8-5.7,3.5-6.7l6.8-2.3
				L612,212.9l0.3-0.1L567.9,84.3c-0.9-2.7,0.4-5.9,3.4-6.9l17.4-6c2.7-0.9,6,0.7,6.9,3.4l63.2,182.9c0.9,2.7-0.8,5.7-3.5,6.7
				l-7.1,2.4l-166.4-99.5l-0.3,0.1l45.7,132.4c0.9,2.7-0.4,5.9-3.4,6.9l-17.1,5.9c-2.7,0.9-6-0.7-6.9-3.4L436.7,126.2z"/>
			<path id="O" class="st0" d="M273.3,239.2c42-39.3,107.2-36.9,146.5,5.1c39.3,42,36.9,106.8-5.1,146.1
				c-42,39.3-106.6,37.1-145.9-4.9C229.5,343.5,231.3,278.5,273.3,239.2z M395.1,369.4c30-28.1,31.8-75.4,3.8-105.5
				C371,234.1,323,232.1,293,260.2c-29.8,27.9-31,75.9-3.2,105.7C317.9,395.9,365.2,397.3,395.1,369.4z"/>
			<path id="V" class="st0" d="M90.6,540.2c-4.1,0-6.5-3.7-4.7-7.6l8.5-18.5c1-2.1,3.4-3.2,4.9-3.1l155.7,2.1l0.7-1.6L153,394.5
				c-1.1-1.1-1.9-3.4-0.8-5.8l8.5-18.5c1.8-3.9,6.2-4.4,8.8-1.3l138.8,161.2c1.2,1.5,1.8,3.7,0.8,5.8l-1.2,2.6
				c-0.8,1.8-3,3.1-4.9,3.1L90.6,540.2z"/>
			<path id="A_00000051383925021296608860000016804666925114866323_" class="st0" d="M248.3,779L64.6,671.8c-1.6-1-2.8-3.7-2.7-5.2
				l0.3-2.9c0.1-1.4,1.8-3.9,3.6-4.5l201.3-67.9c3.9-1.3,7.4,1.3,6.9,5.6l-1.8,18c-0.3,3.4-2.3,5.3-5,6.1l-41,13.8l-9.4,93.6
				c12.6,7,24.9,14.4,37.4,21.4c1.9,1.1,4,3.6,3.6,7l-1.8,18C255.8,779.1,251.9,781.1,248.3,779z M200.7,643.3l-81.9,27.3l-0.1,1.4
				l74.9,42.8L200.7,643.3z"/>
		</g>
	</g>
	<g id="Bird-Bible">
		<g id="Registered_Mark">
			<path class="st1" d="M472.5,922.1h-2.8c-0.5,0-0.5,0-0.5,0.5l-0.5,6.6c0,0.5,0,0.5,0.5,0.5h0.5c0.5,0,0.5-0.5,0.5-0.5v-2.6h1.4
				l1.2,2.6l0.5,0.5h0.7c0.5,0,0.5-0.5,0.5-0.7c-0.5-0.7-0.7-1.4-1.2-2.6c0.7,0,1.9-0.7,1.9-2.1
				C475.1,922.8,473.9,922.1,472.5,922.1z M472.3,925.6h-1.9v-0.2v-2.1h1.9c0.7,0,1.2,0.5,1.2,1.2S473,925.6,472.3,925.6z"/>
			<path class="st1" d="M471.3,918.8c-4-0.2-7.1,3.1-7.1,7.1c0,4,3.3,7.1,7.1,7.1c3.8,0,7.1-3.3,7.1-7.1
				C478.4,922.1,475.1,918.8,471.3,918.8z M471.8,932c-3.8-0.5-6.1-2.8-6.1-6.1c0-3.3,2.8-6.1,6.1-6.1s6.1,2.6,6.1,6.1
				C477.9,929.2,475.3,932,471.8,932z"/>
		</g>
		<g id="Bible">
			<path class="st2" d="M794.9,917.8c-2.8,0-47.5-0.5-98.4,0c-42.3,0.5-88.2,0-113,0c-0.7,0.5-1.4,0.7-1.9,1.2
				c-0.7,0.7-3.3,13.2-2.1,13.2c1.7,0,212.8,0,215.4,0c0.7-0.2,0.9-0.7,1.4-1.4c1.2-2.8,1.2-9,0.5-11.6
				C796.3,918.5,795.4,917.8,794.9,917.8z"/>
			<path class="st2" d="M522,917.8c-0.7,0-4.5,0-5,0c-1.4,0-21.5,0-29.8,0c-0.7,0.5-2.1,0.7-2.6,1.7c0,0.7,0,10.9,0,11.6
				c0,0.5,0.9,1.2,2.1,1.2c8.3,0,28.4,0,30.3,0c0.2,0,4.5,0.2,5.7-1.2C523.2,930.1,527,917.8,522,917.8z"/>
			<path class="st2" d="M1035.4,918.3c-2.4-0.9-13-0.5-16.3-0.5c-12.5,0-147.3,0-203.6,0c-0.7,0.5-1.7,0.5-1.9,1.2
				c-0.5,0.9-0.5,11.1,0,11.8c0,0.7,0.7,1.4,1.9,1.4c54.9,0,216.6,0.5,219.2,0C1037.3,931.5,1037.7,919.2,1035.4,918.3z"/>
			<path class="st2" d="M738.8,854c-36.4-9.5-119.4,15.4-182.1,29.1c-23.4,5-52.7,8.3-62.4,10.4c-7.8,1.4-6.4,7.1-6.4,9.2
				c0,2.6,4.3,2.6,4.3,2.6h301c0,0,2.6,0.2,1.4-2.6C790.4,893.2,774.1,863,738.8,854z"/>
			<path class="st2" d="M1037.5,899.6c-0.5-1.2-2.1-3.3-4-3.5c-6.9-1.4-27.7-4.3-44-8.3c-44.2-10.9-100.3-31.7-125.3-23.2
				c-22,7.1-37.8,31-42.6,38.5c-1.2,1.9,1.2,2.1,1.2,2.1h213c0,0,1.2,0,1.4-0.5c0.5-0.5,1.2-0.7,1.2-1.4
				C1037.7,902.5,1037.7,900.3,1037.5,899.6z"/>
			<path class="st3" d="M515.2,957.6c-2.6,2.6-8.7,7.1-9,7.1c2.1,2.1,26.7,1.4,28.8,1.4c0.7,4-0.5,10.4-4.7,24.8
				c15.1-1.4,32.9-16.6,36.7-35c1.2-5,2.8-11.6,4-17.3c1.4-10.2,3.3-19.9,3.3-20.1c-13.5-0.2-27.9-0.2-42.1-0.2
				C530.8,937.5,523.4,949,515.2,957.6z M537.4,935.6c0.5-0.7,0.7-1.4,1.2-1.4h7.6l2.1-8c0-0.5,0.7-0.7,1.4-0.7h2.8
				c0.7,0,1.2,0.5,1.2,0.7l-2.1,8h7.6c0.9,0.2,0.9,0.9,0.5,1.4l-0.7,2.8c-0.5,0.7-0.7,1.4-1.2,1.4h-7.6l-5,17.3
				c0,0.5-0.7,0.7-1.4,0.7h-2.8c-0.7,0-1.2-0.5-1.2-0.7l5-17.3h-7.6c-0.5,0-0.5-0.7-0.5-1.4L537.4,935.6z"/>
		</g>
		<g id="Bird">
			<path class="st3" d="M801,816.1c-7.6-0.7-6.9,3.5,0,11.8c10.4,13.2,14.4,1.7,11.1-5C810,818.3,803.4,816.1,801,816.1z"/>
			<path class="st3" d="M683.5,691.8c-134.1-92-109.2-172.6-109.2-185.1c0-11.8-18.7,24.1-18.4,45.2c-1.4,64.8,59.8,114,59.1,114
				c-22.7-5.7-52.3-40.4-62.4-56.3c-0.5-0.7-2.6-2.1-1.2,2.1c2.1,6.9,9.7,26.7,31,45.4c19.4,15.6,48,37.6,101.9,37.6
				C685.4,694.6,684.9,692.7,683.5,691.8z"/>
			<path class="st3" d="M835.3,598.8c-20.1-10.4-45.9-15.8-39.7-11.8c0.5,0.5,71.6,49.7,92,85.1c31,54.4-5.4,114.2-17.3,117.8
				c-0.7,0.5-0.5-3.3-0.5-8c2.1-48.9-44-95.5-48.9-99.8c-12.5-10.2-24.1-18.7-35-26.2c10.9-6.1,17.7-26.2,11.8-40
				c-8.7-21.3-23.4-30-31.4-33.8c-1.9-1.2-6.4-2.6-4,1.4c14,18.4,3.5,50.1-17.3,44.7c-1.9-1.2-3.3-2.6-5-3.5
				c-15.1-14.4-37.4-50.4-8.7-117.5c0.7-0.7,0.5-3.3-2.6,0.5c-5,6.1-17,23.2-20.8,51.8c-1.2,10.9-1.4,19.2-0.7,25.5
				c-6.4-18.4-12.5-56.3,18.4-105.2c-8.3-5-112.3,96.5,13,176.2c61,38.5,83.7,63.8,91.3,78.3c16.3,31,18,72.8,5.7,98.1
				c-9.5,19.4-24.8,42.8-26.7,39.3c-4.3-8.7-1.9-36.7-49.7-54.1c-66-23.9-179.7,13-225.1-85.1c-22.2-43.3-4.7-101.2-1.2-118.9
				c0.5-2.8-34.5,11.1-42.1,54.4c-6.9,31.7-11.8,109.5,80.4,147.8c50.8,20.8,109.2,18.4,149.9,18.4c79.7,0,75.7,51.1,82.8,63.8
				c0.5,0.5,0.5,1.2,1.4,0c8.7-9,41.4-50.1,63.1-70.2C1002.5,701,870.6,617.1,835.3,598.8z"/>
		</g>
	</g>
</g>
</svg>
