<?xml version="1.0" encoding="utf-8"?>
<!-- Generator: Adobe Illustrator 26.0.1, SVG Export Plug-In . SVG Version: 6.00 Build 0)  -->
<svg version="1.1" id="Contact" xmlns="http://www.w3.org/2000/svg" xmlns:xlink="http://www.w3.org/1999/xlink" x="0px" y="0px"
	 viewBox="0 0 650.4 487.5" style="enable-background:new 0 0 650.4 487.5;" xml:space="preserve">
<style type="text/css">
	.st0{display:none;}
	.st1{fill:#C69C6D;}
	.st2{fill:#FFFFFF;}
</style>
<g id="Background" class="st0">
	<rect class="st1" width="650.4" height="500.5"/>
</g>
<g id="Pastors">
	<g id="Patricia_Bridewell">
		<g id="l_00000024714104818512578170000015703323150658931896_">
			<path class="st2" d="M538.9,271.4c-0.4,0-0.7-0.4-0.7-0.7V228c0-0.4,0.4-0.7,0.7-0.7h5.5c0.4,0,0.7,0.4,0.7,0.7v42.7
				c0,0.4-0.4,0.7-0.7,0.7H538.9z"/>
			<path d="M544.3,227.8c0.1,0,0.2,0.1,0.2,0.2v42.7c0,0.1-0.1,0.2-0.2,0.2h-5.5c-0.1,0-0.2-0.1-0.2-0.2V228c0-0.1,0.1-0.2,0.2-0.2
				H544.3 M544.3,226.8h-5.5c-0.6,0-1.2,0.6-1.2,1.2v42.7c0,0.6,0.6,1.2,1.2,1.2h5.5c0.6,0,1.2-0.6,1.2-1.2V228
				C545.6,227.4,545,226.8,544.3,226.8L544.3,226.8z"/>
		</g>
		<g id="l">
			<path class="st2" d="M523.2,271.4c-0.4,0-0.7-0.4-0.7-0.7V228c0-0.4,0.4-0.7,0.7-0.7h5.5c0.4,0,0.7,0.4,0.7,0.7v42.7
				c0,0.4-0.4,0.7-0.7,0.7H523.2z"/>
			<path d="M528.6,227.8c0.1,0,0.2,0.1,0.2,0.2v42.7c0,0.1-0.1,0.2-0.2,0.2h-5.5c-0.1,0-0.2-0.1-0.2-0.2V228c0-0.1,0.1-0.2,0.2-0.2
				H528.6 M528.6,226.8h-5.5c-0.6,0-1.2,0.6-1.2,1.2v42.7c0,0.6,0.6,1.2,1.2,1.2h5.5c0.6,0,1.2-0.6,1.2-1.2V228
				C529.9,227.4,529.3,226.8,528.6,226.8L528.6,226.8z"/>
		</g>
		<g id="e_00000122682490746675023710000013100363318509855646_">
			<path class="st2" d="M504.4,272.1c-7.3,0-12.8-5.6-12.8-13c0-7.3,5.6-13,12.7-13c6.6,0,11.6,4.9,11.6,11.5c0,0.4-0.1,1.2-0.1,1.7
				c0,0.4-0.4,0.7-0.7,0.7H498l0,0.5c0.2,3,2.8,6.1,6.7,6.1c1.9,0,3.9-0.6,5.4-1.7c0.3-0.2,0.5-0.2,0.7-0.2c0.1,0,0.2,0,0.3,0.2
				l2.7,3c0.2,0.2,0.3,0.4,0.3,0.5c0,0.1-0.1,0.3-0.3,0.4C512.4,269.9,509.4,272.1,504.4,272.1z M504.2,250.9
				c-2.8,0-5.2,2.1-5.6,4.8l-0.1,0.6h10.9l0-0.5C509.2,253.1,506.8,250.9,504.2,250.9z"/>
			<path d="M504.4,246.5c6.4,0,11.1,4.7,11.1,11c0,0.4-0.1,1.2-0.1,1.6c0,0.1-0.2,0.2-0.2,0.2h-16.6h-1.1l0.1,1.1
				c0.2,3.2,3,6.5,7.2,6.5c1.9,0,4-0.7,5.6-1.8c0.2-0.1,0.3-0.2,0.4-0.2l2.7,3l0,0l0,0c0.1,0.1,0.1,0.1,0.1,0.1c0,0,0,0,0,0
				c0,0,0,0-0.1,0.1l0,0l0,0c-1.3,1.2-4.2,3.3-9,3.3c-7,0-12.3-5.4-12.3-12.5C492.1,252,497.5,246.5,504.4,246.5 M498,256.8h1.1h9.8
				h1.1l-0.1-1.1c-0.2-2.9-2.8-5.3-5.7-5.3c-3.1,0-5.7,2.3-6.1,5.3L498,256.8 M504.4,245.5c-7.7,0-13.2,6.3-13.2,13.5
				c0,7.4,5.5,13.5,13.3,13.5c4.2,0,7.5-1.5,9.7-3.5c0.6-0.5,0.5-1.2,0.1-1.7l-2.7-3c-0.2-0.2-0.5-0.3-0.7-0.3c-0.3,0-0.6,0.1-1,0.3
				c-1.2,0.8-3.1,1.6-5.1,1.6c-3.8,0-6-3-6.2-5.6h16.6c0.6,0,1.2-0.5,1.2-1.1c0.1-0.5,0.1-1.3,0.1-1.7
				C516.5,250.5,511,245.5,504.4,245.5L504.4,245.5z M499.1,255.8c0.3-2.5,2.5-4.4,5.1-4.4c2.5,0,4.5,2,4.7,4.4H499.1L499.1,255.8z"
				/>
		</g>
		<g id="w">
			<path class="st2" d="M478.3,272.1c-0.3,0-0.5-0.1-0.6-0.3l-8.3-15.3h-0.6l-0.2,0.3l-8.1,15c-0.1,0.2-0.3,0.3-0.6,0.3h-0.3
				c-0.4,0-0.6-0.2-0.6-0.4l-8.1-24.3c-0.1-0.2-0.1-0.4,0-0.6c0.1-0.2,0.4-0.3,0.7-0.3h4.7c0.2,0,0.6,0.2,0.7,0.4l4,11.9h0.7
				l0.2-0.3l6.6-12.4c0-0.1,0.2-0.3,0.6-0.3h0.5c0.3,0,0.5,0.1,0.6,0.3l6.7,12.6h0.7l0.2-0.3l3.9-11.5c0.1-0.3,0.3-0.4,1-0.4h4.2
				c0.3,0,0.6,0.1,0.7,0.3c0.1,0.2,0.1,0.4,0,0.5l-8.1,24.3c-0.1,0.2-0.3,0.4-0.7,0.4H478.3z"/>
			<path d="M469.4,246.5c0.1,0,0.1,0,0.1,0c0,0,0,0,0,0c0,0,0,0,0.1,0.1l6.5,12.4l0.3,0.5h0.6h0.1h0.7l0.2-0.7l3.9-11.5
				c0,0,0-0.1,0-0.1c0.1,0,0.2,0,0.5,0h4.2c0.1,0,0.2,0,0.3,0c0,0,0,0,0,0c0,0,0,0,0,0.1l-8.1,24.2c0,0-0.1,0-0.2,0h-0.3
				c-0.1,0-0.1,0-0.2-0.1l-8.2-15l-0.3-0.5h-0.6H469h-0.6l-0.3,0.5l-8.1,15c0,0.1-0.1,0.1-0.2,0.1h-0.3c-0.1,0-0.2,0-0.2,0
				c0,0,0,0,0,0l-8.1-24.3l0-0.1l0-0.1c0,0,0,0,0,0c0,0,0.1,0,0.2,0l4.7,0c0.1,0,0.2,0.1,0.2,0.1l3.9,11.5l0.2,0.7h0.7h0.1h0.6
				l0.3-0.5l6.6-12.4c0,0,0.1,0,0.1,0H469.4 M469.4,245.5h-0.5c-0.6,0-0.9,0.3-1,0.6l-6.6,12.4h-0.1l-3.9-11.5
				c-0.1-0.5-0.8-0.8-1.2-0.8h-4.7c-0.9,0-1.5,0.6-1.1,1.5l8.1,24.3c0.1,0.4,0.5,0.7,1.1,0.7h0.3c0.5,0,0.8-0.3,1-0.6l8.1-15h0.1
				l8.2,15c0.2,0.3,0.5,0.6,1,0.6h0.3c0.6,0,1-0.3,1.2-0.7l8.1-24.3c0.3-0.8-0.3-1.5-1.2-1.5h-4.2c-0.7,0-1.2,0.1-1.5,0.8l-3.9,11.5
				H477l-6.6-12.4C470.3,245.7,470,245.5,469.4,245.5L469.4,245.5z"/>
		</g>
		<g id="e_00000075853550725244394580000013196791107366845867_">
			<path class="st2" d="M435.5,272.1c-7.3,0-12.8-5.6-12.8-13c0-7.3,5.6-13,12.7-13c6.6,0,11.6,4.9,11.6,11.5c0,0.4-0.1,1.2-0.1,1.7
				c0,0.4-0.4,0.7-0.7,0.7h-17.2l0,0.5c0.2,3,2.8,6.1,6.7,6.1c1.9,0,3.9-0.6,5.4-1.7c0.3-0.2,0.5-0.2,0.7-0.2c0.1,0,0.2,0,0.3,0.2
				l2.7,3c0.2,0.2,0.3,0.4,0.3,0.5c0,0.1-0.1,0.3-0.3,0.4C443.5,269.9,440.5,272.1,435.5,272.1z M435.3,250.9
				c-2.8,0-5.2,2.1-5.6,4.8l-0.1,0.6h10.9l0-0.5C440.3,253.1,437.9,250.9,435.3,250.9z"/>
			<path d="M435.5,246.5c6.4,0,11.1,4.7,11.1,11c0,0.4-0.1,1.2-0.1,1.6c0,0.1-0.2,0.2-0.2,0.2h-16.6h-1.1l0.1,1.1
				c0.2,3.2,3,6.5,7.2,6.5c2,0,4-0.7,5.6-1.8c0.2-0.1,0.3-0.2,0.4-0.2l2.7,3l0,0l0,0c0.1,0.1,0.1,0.1,0.1,0.1c0,0,0,0,0,0
				c0,0,0,0-0.1,0.1l0,0l0,0c-1.3,1.2-4.2,3.3-9,3.3c-7,0-12.3-5.4-12.3-12.5C423.2,252,428.6,246.5,435.5,246.5 M429.1,256.8h1.1
				h9.8h1.1l-0.1-1.1c-0.2-2.9-2.8-5.3-5.7-5.3c-3.1,0-5.7,2.3-6.1,5.3L429.1,256.8 M435.5,245.5c-7.7,0-13.2,6.3-13.2,13.5
				c0,7.4,5.5,13.5,13.3,13.5c4.2,0,7.5-1.5,9.7-3.5c0.6-0.5,0.5-1.2,0.1-1.7l-2.7-3c-0.2-0.2-0.5-0.3-0.7-0.3c-0.3,0-0.6,0.1-1,0.3
				c-1.2,0.8-3.1,1.6-5.1,1.6c-3.8,0-6-3-6.2-5.6h16.6c0.6,0,1.2-0.5,1.2-1.1c0.1-0.5,0.1-1.3,0.1-1.7
				C447.6,250.5,442.2,245.5,435.5,245.5L435.5,245.5z M430.2,255.8c0.3-2.5,2.5-4.4,5.1-4.4c2.5,0,4.5,2,4.7,4.4H430.2L430.2,255.8
				z"/>
		</g>
		<g id="d_00000104667332055667454000000011091328963236734132_">
			<path class="st2" d="M402.2,272.1c-6.7,0-12-5.7-12-13c0-7.6,5.2-13,12.4-13c2.4,0,4.2,0.6,5.6,1.1l0.7,0.3V228
				c0-0.4,0.4-0.7,0.7-0.7h5.5c0.4,0,0.7,0.4,0.7,0.7v42.7c0,0.4-0.4,0.7-0.7,0.7h-2.5c-0.4,0-0.6-0.5-0.8-0.9l-0.9-2.9l-0.6,0.7
				C410.3,268.4,407.4,272.1,402.2,272.1z M403.6,252c-3.8,0-6.8,3.1-6.8,7.1s2.8,7.1,6.4,7.1c3.4,0,5.3-2.5,5.9-4.6l0-0.1v-7.8
				l-0.2-0.1C408.9,253.5,407,252,403.6,252z"/>
			<path d="M415.1,227.8c0.1,0,0.2,0.1,0.2,0.2v42.7c0,0.1-0.1,0.2-0.2,0.2l-2.5,0c0,0-0.2-0.1-0.3-0.5l-0.6-2l-0.6-1.8l-1.2,1.5
				c0,0-2.8,3.5-7.7,3.5c-6.4,0-11.5-5.5-11.5-12.5c0-7.3,5-12.5,11.9-12.5c2.3,0,4.1,0.6,5.4,1.1l1.4,0.5v-1.5V228
				c0-0.1,0.1-0.2,0.2-0.2H415.1 M403.2,266.6c3.7,0,5.7-2.6,6.4-4.9l0-0.1v-0.1v-7.5v-0.5l-0.4-0.3c-0.1-0.1-2.1-1.7-5.7-1.7
				c-4.1,0-7.3,3.3-7.3,7.6S399.3,266.6,403.2,266.6 M415.1,226.8h-5.5c-0.6,0-1.2,0.6-1.2,1.2v18.6c-1.2-0.5-3.2-1.2-5.8-1.2
				c-7.7,0-12.9,6-12.9,13.5c0,7.4,5.4,13.5,12.5,13.5c5.5,0,8.5-3.9,8.5-3.9l0.6,2c0.2,0.7,0.6,1.2,1.2,1.2h2.5
				c0.6,0,1.2-0.6,1.2-1.2V228C416.4,227.4,415.8,226.8,415.1,226.8L415.1,226.8z M403.2,265.6c-3.4,0-5.9-3-5.9-6.6
				s2.7-6.6,6.3-6.6c3.2,0,5.1,1.5,5.1,1.5v7.5C408.2,263,406.6,265.6,403.2,265.6L403.2,265.6z"/>
		</g>
		<g id="i_00000141452001127584921440000001757861258468328629_">
			<path class="st2" d="M377.3,271.4c-0.4,0-0.7-0.4-0.7-0.7v-23.4c0-0.4,0.4-0.7,0.7-0.7h5.4c0.4,0,0.7,0.3,0.7,0.7v23.4
				c0,0.4-0.4,0.7-0.7,0.7H377.3z M379.9,236.5c-2.2,0-3.9-1.8-3.9-4s1.8-4,3.9-4c2.2,0,4,1.8,4,4S382.1,236.5,379.9,236.5z"/>
			<path d="M379.9,229.1c2,0,3.5,1.5,3.5,3.5c0,1.9-1.6,3.5-3.5,3.5c-1.9,0-3.4-1.5-3.4-3.5C376.5,230.6,378,229.1,379.9,229.1
				 M382.7,247.1c0.1,0,0.2,0.1,0.2,0.2v23.4c0,0.1-0.1,0.2-0.2,0.2h-5.4c-0.1,0-0.2-0.1-0.2-0.2v-23.4c0-0.2,0.1-0.2,0.2-0.2H382.7
				 M379.9,228.1c-2.5,0-4.4,2-4.4,4.5c0,2.5,1.9,4.5,4.4,4.5c2.5,0,4.5-2,4.5-4.5C384.4,230.1,382.4,228.1,379.9,228.1L379.9,228.1
				z M382.7,246.1h-5.4c-0.6,0-1.2,0.5-1.2,1.2v23.4c0,0.6,0.6,1.2,1.2,1.2h5.4c0.6,0,1.2-0.6,1.2-1.2v-23.4
				C383.9,246.6,383.3,246.1,382.7,246.1L382.7,246.1z"/>
		</g>
		<g id="r_00000146468961943123167220000011287534494966387084_">
			<path class="st2" d="M355.2,271.4c-0.4,0-0.7-0.4-0.7-0.7v-23.4c0-0.4,0.4-0.7,0.7-0.7h2.5c0.2,0,0.5,0.1,0.7,0.5l1.2,3.4
				l0.6-0.8c0.8-1.1,3.1-3.8,6.9-3.8c2.5,0,4.2,0.6,4.5,1.2c0.1,0.1,0.2,0.3,0,0.6l-2.4,4.2c-0.1,0.3-0.4,0.4-0.6,0.4
				c-0.1,0-0.1,0-0.2,0c-0.6-0.2-1.4-0.4-2.1-0.4c-2.8,0-4.5,1.9-5.1,2.9l-0.1,0.1v15.7c0,0.4-0.1,0.7-1,0.7H355.2z"/>
			<path d="M367,246.5c2.7,0,4.1,0.8,4.1,1c0,0,0,0,0,0.1l-2.4,4.2c-0.1,0.1-0.2,0.2-0.2,0.2l-0.1,0l-0.1,0
				c-0.6-0.2-1.5-0.4-2.2-0.4c-3.1,0-4.9,2.1-5.5,3.2l-0.1,0.2v0.2v15.6c0,0.1,0,0.1,0,0.2c0,0-0.2,0.1-0.5,0.1h-5
				c-0.1,0-0.2-0.1-0.2-0.2v-23.4c0-0.2,0.1-0.2,0.2-0.2h2.5c0.1,0,0.2,0,0.2,0.2l0.9,2.5l0.7,1.8l1.1-1.6
				C361.3,249,363.4,246.5,367,246.5 M367,245.5c-4,0-6.4,2.7-7.3,4l-0.9-2.5c-0.2-0.5-0.6-0.8-1.2-0.8h-2.5c-0.6,0-1.2,0.5-1.2,1.2
				v23.4c0,0.6,0.6,1.2,1.2,1.2h5c0.9,0,1.5-0.3,1.5-1.2v-15.6c0.5-0.9,2-2.6,4.6-2.6c0.7,0,1.7,0.3,1.9,0.4
				c0.1,0.1,0.3,0.1,0.4,0.1c0.4,0,0.8-0.3,1.1-0.7l2.4-4.2C372.8,246.5,370.1,245.5,367,245.5L367,245.5z"/>
		</g>
		<g id="B">
			<path class="st2" d="M318.2,271.4c-0.5,0-0.7-0.4-0.7-0.7V228c0-0.3,0.3-0.7,0.7-0.7h14.9c7.5,0,13.2,4.9,13.2,11.4
				c0,4.9-4.1,8.5-6.9,9.8l-1.2,0.5l1.2,0.4c3,1,8.1,4.1,8.1,10c0,6.8-5.9,12-13.7,12H318.2z M324.9,264.8h8.4
				c3.6,0,6.3-2.8,6.3-6.4c0-3.7-3.7-6.1-7.1-6.1h-7.6V264.8z M324.9,246.2h7.4c3.5,0,6.1-2.7,6.1-6.3c0-3.5-2.5-6-6.1-6h-7.4V246.2
				z"/>
			<path d="M333.1,227.8c7.2,0,12.7,4.7,12.7,10.9c0,4.6-3.9,8.1-6.6,9.4l-2.3,1.1l2.4,0.8c2.9,0.9,7.7,4,7.7,9.6
				c0,6.5-5.7,11.5-13.2,11.5h-15.7c-0.2,0-0.2-0.1-0.2-0.2V228c0-0.1,0.1-0.2,0.2-0.2H333.1 M324.4,246.7h1h6.9
				c3.8,0,6.6-2.9,6.6-6.8c0-3.8-2.7-6.5-6.6-6.5h-6.9h-1v1v11.3V246.7 M324.4,265.3h1h7.9c3.8,0,6.8-3,6.8-6.9c0-4-3.9-6.6-7.6-6.6
				h-7.1h-1v1v11.5V265.3 M333.1,226.8h-14.9c-0.7,0-1.2,0.6-1.2,1.2v42.7c0,0.6,0.5,1.2,1.2,1.2h15.7c7.9,0,14.2-5.2,14.2-12.5
				c0-5.9-5-9.4-8.4-10.5c3.1-1.4,7.1-5.3,7.1-10.3C346.8,231.9,340.8,226.8,333.1,226.8L333.1,226.8z M325.4,245.7v-11.3h6.9
				c3.3,0,5.6,2.3,5.6,5.5s-2.3,5.8-5.6,5.8H325.4L325.4,245.7z M325.4,264.3v-11.5h7.1c3.4,0,6.6,2.4,6.6,5.6
				c0,3.4-2.6,5.9-5.8,5.9H325.4L325.4,264.3z"/>
		</g>
		<g id="a_00000111873289514018680020000010182628972841013651_">
			<path class="st2" d="M148.6,272.1c-5,0-8.3-3.3-8.3-8.3c0-4.6,3.9-7.6,9.9-7.6c2.5,0,4.6,0.7,4.6,0.7l0.6,0.2l0-0.7
				c0-1.9-0.3-3.2-1.1-4c-0.6-0.6-1.5-1-2.8-1c-2.4,0-5.9,0.5-7.4,1c-0.1,0-0.2,0-0.3,0c-0.3,0-0.5-0.3-0.6-0.8l-0.6-3.4
				c-0.1-0.6,0.1-0.9,0.6-1.1c0.3-0.1,4.4-1.2,8.7-1.2c7.9,0,9.5,4.1,9.5,10.7v14c0,0.4-0.4,0.7-0.7,0.7h-2.3c-0.2,0-0.4,0-0.6-0.6
				l-1.1-2.4l-0.5,0.5C154.4,270.5,152.2,272.1,148.6,272.1z M151.2,259.8c-2.8,0-4.7,1.6-4.7,4c0,2.2,1.6,3.9,3.9,3.9
				c2.3,0,4.4-1.8,4.9-2.8l0.1-0.1v-4l-0.3-0.1C154.9,260.5,153.1,259.8,151.2,259.8z"/>
			<path d="M151.9,246.5c7.5,0,9,3.7,9,10.2v14c0,0.1-0.1,0.2-0.2,0.2l-2.4,0c0,0-0.1-0.1-0.2-0.3l-0.8-1.7l-0.6-1.3l-1,0.9
				c-1.7,1.5-3.8,3-7.2,3c-4.8,0-7.8-3-7.8-7.8c0-4.3,3.7-7.1,9.4-7.1c2.4,0,4.4,0.7,4.4,0.7l1.3,0.4l0-1.4c0-2.1-0.3-3.5-1.2-4.4
				c-0.7-0.7-1.8-1.1-3.2-1.1c-2.5,0-6,0.5-7.5,1c-0.1,0-0.1,0-0.1,0c0,0-0.1-0.2-0.1-0.4l-0.6-3.4c-0.1-0.3,0-0.4,0.3-0.5
				C144,247.5,148.1,246.5,151.9,246.5 M150.3,268.1c2.5,0,4.8-2,5.4-3.1l0.1-0.2v-0.2V261v-0.7l-0.6-0.3c-0.1,0-2-0.9-4-0.9
				c-3.1,0-5.2,1.8-5.2,4.5C145.9,266.3,147.8,268.1,150.3,268.1 M151.9,245.5c-4.2,0-8.3,1-8.8,1.2c-0.6,0.2-1.1,0.6-0.9,1.6
				l0.6,3.4c0.1,0.7,0.4,1.2,1.1,1.2c0.1,0,0.3,0,0.4-0.1c1.5-0.5,4.9-1,7.3-1c2.4,0,3.4,1.2,3.4,4.5c0,0-2.1-0.7-4.7-0.7
				c-6.6,0-10.4,3.5-10.4,8.1c0,5.5,3.6,8.8,8.8,8.8c4,0,6.4-1.9,7.9-3.3l0.8,1.7c0.3,0.7,0.6,0.9,1.1,0.9h2.3
				c0.6,0,1.2-0.6,1.2-1.2v-14C161.9,249.7,160.1,245.5,151.9,245.5L151.9,245.5z M150.3,267.1c-2,0-3.4-1.4-3.4-3.4
				c0-2.1,1.7-3.5,4.2-3.5c1.9,0,3.6,0.8,3.6,0.8v3.5C154.4,265.4,152.4,267.1,150.3,267.1L150.3,267.1z"/>
		</g>
		<g id="i_00000151503254187618946380000017645852930373445273_">
			<path class="st2" d="M258.5,271.4c-0.4,0-0.7-0.4-0.7-0.7v-23.4c0-0.4,0.4-0.7,0.7-0.7h5.4c0.4,0,0.7,0.3,0.7,0.7v23.4
				c0,0.4-0.4,0.7-0.7,0.7H258.5z M261.1,236.5c-2.2,0-3.9-1.8-3.9-4s1.8-4,3.9-4c2.2,0,4,1.8,4,4S263.3,236.5,261.1,236.5z"/>
			<path d="M261.1,229.1c2,0,3.5,1.5,3.5,3.5c0,1.9-1.6,3.5-3.5,3.5c-1.9,0-3.4-1.5-3.4-3.5C257.7,230.6,259.2,229.1,261.1,229.1
				 M263.9,247.1c0.1,0,0.2,0.1,0.2,0.2v23.4c0,0.1-0.1,0.2-0.2,0.2h-5.4c-0.1,0-0.2-0.1-0.2-0.2v-23.4c0-0.2,0.1-0.2,0.2-0.2H263.9
				 M261.1,228.1c-2.5,0-4.4,2-4.4,4.5c0,2.5,1.9,4.5,4.4,4.5c2.5,0,4.5-2,4.5-4.5C265.6,230.1,263.6,228.1,261.1,228.1L261.1,228.1
				z M263.9,246.1h-5.4c-0.6,0-1.2,0.5-1.2,1.2v23.4c0,0.6,0.6,1.2,1.2,1.2h5.4c0.6,0,1.2-0.6,1.2-1.2v-23.4
				C265.1,246.6,264.5,246.1,263.9,246.1L263.9,246.1z"/>
		</g>
		<g id="c">
			<path class="st2" d="M241.3,272.1c-7.3,0-13.3-5.9-13.3-13c0-7.1,6.1-13,13.3-13c3.7,0,6.8,1.4,9.2,4.4c0.1,0.2,0.2,0.3,0.1,0.5
				c0,0.2-0.2,0.4-0.4,0.5l-3,2.9c-0.1,0.1-0.2,0.1-0.3,0.1c-0.2,0-0.4-0.1-0.7-0.3c-1.2-1.3-3-2.2-4.8-2.2c-3.8,0-6.9,3.2-6.9,7.1
				c0,4,3,7.1,6.8,7.1c2.8,0,4.2-1.3,5.3-2.4l0.2-0.2c0.2-0.2,0.4-0.3,0.6-0.3c0.1,0,0.3,0,0.4,0.1l2.8,2.4c0.8,0.6,0.5,1,0.4,1.1
				C249,270.3,245.6,272.1,241.3,272.1z"/>
			<path d="M241.4,246.5c3.6,0,6.5,1.4,8.8,4.2c0.1,0.1,0.1,0.1,0.1,0.2c0,0.1-0.1,0.1-0.2,0.2l-0.1,0l-0.1,0.1l-3,2.8
				c0,0-0.1-0.1-0.3-0.2c-1.3-1.5-3.3-2.3-5.2-2.3c-4.1,0-7.4,3.4-7.4,7.6c0,4.3,3.2,7.6,7.3,7.6c3,0,4.5-1.4,5.7-2.5l0.2-0.2
				c0.1-0.1,0.2-0.1,0.2-0.1c0,0,0,0,0.1,0l2.8,2.4c0.2,0.2,0.3,0.3,0.3,0.4c0,0,0,0-0.1,0.1c-2.1,3.3-5.3,5-9.4,5
				c-7,0-12.8-5.6-12.8-12.5C228.6,252.2,234.5,246.5,241.4,246.5 M241.4,245.5c-7.3,0-13.8,5.9-13.8,13.5c0,7.7,6.4,13.5,13.8,13.5
				c4.6,0,8.1-2,10.3-5.4c0.5-0.6,0.2-1.3-0.5-1.8l-2.8-2.4c-0.2-0.2-0.4-0.2-0.7-0.2c-0.3,0-0.7,0.2-0.9,0.4
				c-1.2,1.1-2.4,2.5-5.2,2.5c-3.5,0-6.3-2.9-6.3-6.6c0-3.6,2.9-6.6,6.4-6.6c1.8,0,3.4,0.9,4.5,2.1c0.3,0.2,0.6,0.5,1,0.5
				c0.2,0,0.4-0.1,0.6-0.3l3-2.8c0.6-0.5,0.8-1.2,0.3-1.8C248.6,247.1,245.4,245.5,241.4,245.5L241.4,245.5z"/>
		</g>
		<g id="i_00000174572301820611059130000016653839803915675530_">
			<path class="st2" d="M215.2,271.4c-0.4,0-0.7-0.4-0.7-0.7v-23.4c0-0.4,0.4-0.7,0.7-0.7h5.4c0.4,0,0.7,0.3,0.7,0.7v23.4
				c0,0.4-0.4,0.7-0.7,0.7H215.2z M217.8,236.5c-2.2,0-3.9-1.8-3.9-4s1.8-4,3.9-4c2.2,0,4,1.8,4,4S220,236.5,217.8,236.5z"/>
			<path d="M217.8,229.1c2,0,3.5,1.5,3.5,3.5c0,1.9-1.6,3.5-3.5,3.5c-1.9,0-3.4-1.5-3.4-3.5C214.4,230.6,215.9,229.1,217.8,229.1
				 M220.6,247.1c0.1,0,0.2,0.1,0.2,0.2v23.4c0,0.1-0.1,0.2-0.2,0.2h-5.4c-0.1,0-0.2-0.1-0.2-0.2v-23.4c0-0.2,0.1-0.2,0.2-0.2H220.6
				 M217.8,228.1c-2.5,0-4.4,2-4.4,4.5c0,2.5,1.9,4.5,4.4,4.5c2.5,0,4.5-2,4.5-4.5C222.3,230.1,220.3,228.1,217.8,228.1L217.8,228.1
				z M220.6,246.1h-5.4c-0.6,0-1.2,0.5-1.2,1.2v23.4c0,0.6,0.6,1.2,1.2,1.2h5.4c0.6,0,1.2-0.6,1.2-1.2v-23.4
				C221.8,246.6,221.2,246.1,220.6,246.1L220.6,246.1z"/>
		</g>
		<g id="r_00000144337566350634130380000014194683147000974724_">
			<path class="st2" d="M193,271.4c-0.4,0-0.7-0.4-0.7-0.7v-23.4c0-0.4,0.4-0.7,0.7-0.7h2.5c0.2,0,0.5,0.1,0.7,0.5l1.2,3.4l0.6-0.8
				c0.8-1.1,3.1-3.8,6.9-3.8c2.5,0,4.2,0.6,4.5,1.2c0.1,0.1,0.2,0.3,0,0.6l-2.4,4.2c-0.1,0.3-0.4,0.4-0.6,0.4c-0.1,0-0.1,0-0.2,0
				c-0.6-0.2-1.4-0.4-2.1-0.4c-2.8,0-4.5,1.9-5.1,2.9L199,255v15.7c0,0.4-0.1,0.7-1,0.7H193z"/>
			<path d="M204.9,246.5c2.7,0,4.1,0.8,4.1,1c0,0,0,0,0,0.1l-2.4,4.2c-0.1,0.1-0.2,0.2-0.2,0.2l-0.1,0l-0.1,0
				c-0.6-0.2-1.5-0.4-2.2-0.4c-3.1,0-4.9,2.1-5.5,3.2l-0.1,0.2v0.2v15.6c0,0.1,0,0.1,0,0.2c0,0-0.2,0.1-0.5,0.1h-5
				c-0.1,0-0.2-0.1-0.2-0.2v-23.4c0-0.2,0.1-0.2,0.2-0.2h2.5c0.1,0,0.2,0,0.2,0.2l0.9,2.5l0.7,1.8l1.1-1.6
				C199.2,249,201.3,246.5,204.9,246.5 M204.9,245.5c-4,0-6.4,2.7-7.3,4l-0.9-2.5c-0.2-0.5-0.6-0.8-1.2-0.8H193
				c-0.6,0-1.2,0.5-1.2,1.2v23.4c0,0.6,0.6,1.2,1.2,1.2h5c0.9,0,1.5-0.3,1.5-1.2v-15.6c0.5-0.9,2-2.6,4.6-2.6c0.7,0,1.7,0.3,1.9,0.4
				c0.1,0.1,0.3,0.1,0.4,0.1c0.4,0,0.8-0.3,1.1-0.7l2.4-4.2C210.7,246.5,208,245.5,204.9,245.5L204.9,245.5z"/>
		</g>
		<g id="t_00000066488729741516659860000001054879108401615515_">
			<path class="st2" d="M178,272.1c-4.5,0-6.7-2.6-6.7-7.8v-11.9h-2.7c-0.4,0-0.7-0.3-0.7-0.7v-4.3c0-0.4,0.3-0.7,0.7-0.7h2.7V239
				c0-0.4,0.4-0.7,0.7-0.7l5.3-0.1c0.4,0,0.7,0.3,0.7,0.7v7.7h6.2c0.4,0,0.7,0.3,0.7,0.7v4.3c0,0.3-0.3,0.7-0.7,0.7H178v10.8
				c0,2.6,1.9,2.6,2.5,2.6c0.9,0,2-0.2,3.4-0.7c0.1,0,0.2-0.1,0.3-0.1c0.1,0,0.3,0,0.5,0.4l1.3,4.1c0.1,0.2,0.1,0.4,0,0.5
				c-0.1,0.2-0.2,0.3-0.4,0.4C185.1,270.7,181,272.1,178,272.1z"/>
			<path d="M177.3,238.7c0.1,0,0.2,0.1,0.2,0.2v7.2v1h1h5.7c0.2,0,0.2,0.1,0.2,0.2v4.3c0,0.1-0.1,0.2-0.2,0.2h-5.7h-1v1v10.3
				c0,1.4,0.5,3.1,3,3.1c0.9,0,2.1-0.3,3.5-0.8c0,0,0.1,0,0.1,0c0,0,0,0.1,0,0.1l1.3,4.1l0,0l0,0c0,0.1,0,0.1,0,0.1
				c0,0-0.1,0.1-0.2,0.1l0,0l-0.1,0c-0.5,0.2-4.4,1.6-7.3,1.6c-4.2,0-6.2-2.4-6.2-7.3v-11.4v-1h-1h-2.2c-0.1,0-0.2-0.1-0.2-0.2v-4.3
				c0-0.1,0-0.2,0.2-0.2h2.2h1v-1V239c0-0.1,0.1-0.2,0.2-0.2L177.3,238.7 M177.3,237.7l-5.3,0.1c-0.6,0-1.2,0.6-1.2,1.2v7.2h-2.2
				c-0.6,0-1.2,0.5-1.2,1.2v4.3c0,0.6,0.5,1.2,1.2,1.2h2.2v11.4c0,5.2,2.2,8.3,7.2,8.3c3.2,0,7.4-1.5,7.7-1.7c0.6-0.3,1-0.9,0.7-1.5
				l-1.3-4.1c-0.1-0.5-0.5-0.8-1-0.8c-0.1,0-0.3,0-0.5,0.1c-0.7,0.3-2.1,0.7-3.2,0.7c-1,0-2-0.3-2-2.1v-10.3h5.7
				c0.7,0,1.2-0.6,1.2-1.2v-4.3c0-0.7-0.5-1.2-1.2-1.2h-5.7v-7.2C178.5,238.3,178,237.7,177.3,237.7L177.3,237.7z"/>
		</g>
		<g id="a_00000134216690326930050810000015285319802593471383_">
			<path class="st2" d="M279.8,272.1c-5,0-8.3-3.3-8.3-8.3c0-4.6,3.9-7.6,9.9-7.6c2.5,0,4.6,0.7,4.6,0.7l0.6,0.2l0-0.7
				c0-1.9-0.3-3.2-1.1-4c-0.6-0.6-1.5-1-2.8-1c-2.4,0-5.9,0.5-7.4,1c-0.1,0-0.2,0-0.3,0c-0.3,0-0.5-0.3-0.6-0.8l-0.6-3.4
				c-0.1-0.6,0.1-0.9,0.6-1.1c0.3-0.1,4.4-1.2,8.7-1.2c7.9,0,9.5,4.1,9.5,10.7v14c0,0.4-0.4,0.7-0.7,0.7h-2.3c-0.2,0-0.4,0-0.6-0.6
				l-1.1-2.4l-0.5,0.5C285.6,270.5,283.4,272.1,279.8,272.1z M282.4,259.8c-2.8,0-4.7,1.6-4.7,4c0,2.2,1.6,3.9,3.9,3.9
				c2.3,0,4.4-1.8,4.9-2.8l0.1-0.1v-4l-0.3-0.1C286.1,260.5,284.3,259.8,282.4,259.8z"/>
			<path d="M283.2,246.5c7.5,0,9,3.7,9,10.2v14c0,0.1-0.1,0.2-0.2,0.2l-2.4,0c0,0-0.1-0.1-0.2-0.3l-0.8-1.7l-0.6-1.3l-1,0.9
				c-1.7,1.5-3.8,3-7.2,3c-4.8,0-7.8-3-7.8-7.8c0-4.3,3.7-7.1,9.4-7.1c2.4,0,4.4,0.7,4.4,0.7l1.3,0.4l0-1.4c0-2.1-0.3-3.5-1.2-4.4
				c-0.7-0.7-1.8-1.1-3.2-1.1c-2.5,0-6,0.5-7.5,1c-0.1,0-0.1,0-0.1,0c0,0-0.1-0.2-0.1-0.4l-0.6-3.4c-0.1-0.3,0-0.4,0.3-0.5
				C275.2,247.5,279.3,246.5,283.2,246.5 M281.5,268.1c2.5,0,4.8-2,5.4-3.1l0.1-0.2v-0.2V261v-0.7l-0.6-0.3c-0.1,0-2-0.9-4-0.9
				c-3.1,0-5.2,1.8-5.2,4.5C277.2,266.3,279,268.1,281.5,268.1 M283.2,245.5c-4.2,0-8.3,1-8.8,1.2c-0.6,0.2-1.1,0.6-0.9,1.6l0.6,3.4
				c0.1,0.7,0.4,1.2,1.1,1.2c0.1,0,0.3,0,0.4-0.1c1.5-0.5,4.9-1,7.3-1c2.4,0,3.4,1.2,3.4,4.5c0,0-2.1-0.7-4.7-0.7
				c-6.6,0-10.4,3.5-10.4,8.1c0,5.5,3.6,8.8,8.8,8.8c4,0,6.4-1.9,7.9-3.3l0.8,1.7c0.3,0.7,0.6,0.9,1.1,0.9h2.3
				c0.6,0,1.2-0.6,1.2-1.2v-14C293.2,249.7,291.3,245.5,283.2,245.5L283.2,245.5z M281.5,267.1c-2,0-3.4-1.4-3.4-3.4
				c0-2.1,1.7-3.5,4.2-3.5c1.9,0,3.6,0.8,3.6,0.8v3.5C285.6,265.4,283.6,267.1,281.5,267.1L281.5,267.1z"/>
		</g>
		<g id="P_00000051383638133956223000000000627302886195164850_">
			<path class="st2" d="M108.6,271.4c-0.5,0-0.7-0.4-0.7-0.7V228c0-0.3,0.3-0.7,0.7-0.7h15.3c7.7,0,14,6.2,14,13.8
				c0,7.7-6.3,14-14,14h-8.6v15.7c0,0.4-0.4,0.7-0.7,0.7H108.6z M115.3,248.2h8c4,0,7.2-3.2,7.2-7.2c0-3.7-3.2-6.8-7.2-6.8h-8V248.2
				z"/>
			<path d="M123.9,227.8c7.5,0,13.5,5.9,13.5,13.3c0,7.5-6,13.5-13.5,13.5h-8.1h-1v1v15.2c0,0.1-0.1,0.2-0.2,0.2h-6
				c-0.2,0-0.2-0.1-0.2-0.2V228c0-0.1,0.1-0.2,0.2-0.2H123.9 M114.8,248.7h1h7.5c4.2,0,7.7-3.5,7.7-7.7c0-4-3.4-7.3-7.7-7.3h-7.5h-1
				v1v13V248.7 M123.9,226.8h-15.3c-0.7,0-1.2,0.6-1.2,1.2v42.7c0,0.6,0.5,1.2,1.2,1.2h6c0.6,0,1.2-0.6,1.2-1.2v-15.2h8.1
				c7.9,0,14.5-6.5,14.5-14.5C138.4,233.2,131.9,226.8,123.9,226.8L123.9,226.8z M115.8,247.7v-13h7.5c3.6,0,6.7,2.7,6.7,6.3
				c0,3.8-3.1,6.7-6.7,6.7H115.8L115.8,247.7z"/>
		</g>
	</g>
	<g id="Administrative_Pastor">
		<g id=":">
			<path d="M543.4,197.6c-1.7,0-3.1-1.4-3.1-3.1s1.4-3.1,3.1-3.1c1.7,0,3.1,1.4,3.1,3.1S545.1,197.6,543.4,197.6z M543.4,183.8
				c-1.7,0-3.1-1.4-3.1-3.1c0-1.7,1.4-3.1,3.1-3.1c1.7,0,3.1,1.4,3.1,3.1C546.5,182.4,545.1,183.8,543.4,183.8z"/>
			<path d="M543.4,178.1c1.5,0,2.6,1.1,2.6,2.6c0,1.5-1.1,2.6-2.6,2.6c-1.5,0-2.6-1.1-2.6-2.6C540.8,179.3,541.9,178.1,543.4,178.1
				 M543.4,191.9c1.5,0,2.6,1.1,2.6,2.6s-1.1,2.6-2.6,2.6c-1.5,0-2.6-1.1-2.6-2.6S541.9,191.9,543.4,191.9 M543.4,177.1
				c-2,0-3.6,1.6-3.6,3.6c0,2,1.6,3.6,3.6,3.6c2,0,3.6-1.6,3.6-3.6C547,178.7,545.4,177.1,543.4,177.1L543.4,177.1z M543.4,190.9
				c-2,0-3.6,1.6-3.6,3.6s1.6,3.6,3.6,3.6c2,0,3.6-1.6,3.6-3.6S545.4,190.9,543.4,190.9L543.4,190.9z"/>
		</g>
		<g id="r_00000085964573848909667620000009716704143566602649_">
			<path d="M523.6,197.1c-0.2,0-0.5-0.2-0.5-0.5v-18.1c0-0.3,0.2-0.4,0.5-0.4h1.9c0.2,0,0.3,0,0.4,0.3l1,2.9l0.6-0.8
				c0.6-0.9,2.3-2.9,5.2-2.9c1.8,0,3.1,0.5,3.4,0.9c0.1,0.1,0.1,0.2,0,0.4l-1.8,3.2c-0.1,0.2-0.2,0.3-0.4,0.3c0,0-0.1,0-0.1,0
				c-0.4-0.1-1.1-0.4-1.7-0.4c-2.2,0-3.6,1.5-4,2.3l-0.1,0.1v12.2c0,0.2,0,0.5-0.7,0.5H523.6z"/>
			<path d="M532.8,178.1c1.6,0,2.6,0.4,2.9,0.6l-1.8,3.1c-0.5-0.2-1.2-0.3-1.7-0.3c-2.5,0-4,1.7-4.4,2.6l-0.1,0.2v0.2v12
				c0,0-0.1,0-0.2,0h-3.8v-18l1.8,0l0.7,1.9l0.7,1.8l1.1-1.6C528.5,180,530.1,178.1,532.8,178.1 M532.8,177.1c-3.1,0-5,2.1-5.6,3.1
				l-0.7-2c-0.1-0.4-0.5-0.6-0.9-0.6h-1.9c-0.5,0-1,0.4-1,0.9v18.1c0,0.5,0.5,1,1,1h3.9c0.7,0,1.2-0.2,1.2-1v-12.1
				c0.4-0.7,1.5-2.1,3.6-2.1c0.5,0,1.3,0.2,1.4,0.3c0.1,0.1,0.2,0.1,0.3,0.1c0.3,0,0.6-0.2,0.8-0.5l1.9-3.2
				C537.2,177.9,535.1,177.1,532.8,177.1L532.8,177.1z"/>
		</g>
		<g id="o">
			<path d="M508,197.6c-5.4,0-9.8-4.5-9.8-10.1c0-5.4,4.5-10,9.8-10s9.8,4.6,9.8,10C517.7,193.1,513.3,197.6,508,197.6z M508,182
				c-3,0-5.3,2.4-5.3,5.6c0,3.2,2.3,5.7,5.3,5.7c2.9,0,5.3-2.5,5.3-5.7C513.3,184.5,510.9,182,508,182z"/>
			<path d="M508,178.1c5,0,9.3,4.3,9.3,9.5c0,5.3-4.1,9.6-9.3,9.6c-5.1,0-9.3-4.3-9.3-9.6C498.7,182.4,502.9,178.1,508,178.1
				 M508,193.7c3.2,0,5.8-2.8,5.8-6.2c0-3.3-2.6-6.1-5.8-6.1c-3.3,0-5.8,2.7-5.8,6.1C502.2,191,504.7,193.7,508,193.7 M508,177.1
				c-5.7,0-10.3,4.8-10.3,10.5c0,5.8,4.6,10.6,10.3,10.6s10.3-4.8,10.3-10.6C518.2,181.9,513.6,177.1,508,177.1L508,177.1z
				 M508,192.7c-2.7,0-4.8-2.3-4.8-5.2c0-2.8,2.1-5.1,4.8-5.1c2.7,0,4.8,2.3,4.8,5.1C512.8,190.4,510.6,192.7,508,192.7L508,192.7z"
				/>
		</g>
		<g id="t_00000129199301184053689190000010696471147819188893_">
			<path d="M488.6,197.6c-3.4,0-5.1-1.9-5.1-6v-9.3h-2.2c-0.2,0-0.4-0.2-0.4-0.5v-3.4c0-0.3,0.2-0.4,0.4-0.4h2.2v-6.1
				c0-0.2,0.2-0.4,0.5-0.4l4.1-0.1c0.2,0,0.4,0.2,0.4,0.5v6.1h4.9c0.3,0,0.5,0.2,0.5,0.4v3.4c0,0.2-0.2,0.5-0.5,0.5h-4.9v8.5
				c0,2.1,1.5,2.1,2.1,2.1c0.7,0,1.6-0.2,2.6-0.6c0.1,0,0.1,0,0.2,0c0,0,0.2,0,0.3,0.3l1,3.2c0.1,0.3-0.1,0.5-0.3,0.6
				C494,196.5,490.9,197.6,488.6,197.6z"/>
			<path d="M488,172.1v5.5v1h1l4.4,0v3.2H489h-1v1v8c0,1,0.3,2.6,2.6,2.6c0.7,0,1.6-0.2,2.6-0.6l1,3l0,0l0,0
				c-0.4,0.2-3.3,1.2-5.5,1.2c-2,0-4.6-0.6-4.6-5.5v-8.8v-1h-1h-1.6l0-3.2h1.6h1v-1v-5.5L488,172.1 M488.1,171.1l-4.1,0.1
				c-0.5,0-1,0.4-1,0.9v5.6h-1.7c-0.5,0-0.9,0.4-0.9,0.9v3.4c0,0.5,0.4,1,0.9,1h1.7v8.8c0,4.1,1.7,6.5,5.6,6.5c2.5,0,5.7-1.1,6-1.3
				c0.5-0.2,0.8-0.7,0.6-1.2l-1-3.2c-0.1-0.4-0.4-0.6-0.7-0.6c-0.1,0-0.2,0-0.4,0.1c-0.6,0.2-1.6,0.5-2.5,0.5
				c-0.8,0-1.6-0.2-1.6-1.6v-8h4.4c0.5,0,1-0.5,1-1v-3.4c0-0.5-0.4-0.9-1-0.9H489V172C489,171.5,488.6,171.1,488.1,171.1
				L488.1,171.1z"/>
		</g>
		<g id="s_00000103239988305723993770000007527582187392848002_">
			<path d="M469.7,197.6c-3,0-5.2-0.9-6.3-1.7c0,0-0.3-0.2-0.2-0.4l1.4-2.7c0.1-0.2,0.2-0.2,0.2-0.2c0.1,0,0.2,0,0.2,0.1
				c0.1,0.1,2.4,1.3,4.8,1.3c1.4,0,2.2-0.7,2.2-1.8c0-1.3-1.1-2-3.7-3c-3.7-1.4-5.3-3.3-5.3-6.1c0-2.6,1.8-5.4,6.9-5.4
				c2.7,0,4.8,0.8,5.9,1.5c0.2,0.2,0.4,0.4,0.3,0.7l-1.3,2.6c-0.1,0.1-0.2,0.1-0.3,0.1c-0.1,0-0.2,0-0.2,0c-0.1,0-2.3-1.1-4.3-1.1
				c-1.6,0-2.2,0.9-2.2,1.6c0,1.2,1,1.6,2.7,2.3l0.4,0.1c4.1,1.6,6.4,3.2,6.4,6.6C477.1,195.3,474,197.6,469.7,197.6z"/>
			<path d="M469.8,178.1c2.6,0,4.6,0.7,5.6,1.4c0.1,0,0.1,0.1,0.1,0.1c0,0,0,0,0,0l-1.2,2.4c0,0,0,0,0,0c-0.4-0.2-2.6-1.1-4.5-1.1
				c-2,0-2.7,1.2-2.7,2.1c0,1.5,1.3,2,3,2.7l0.4,0.1c4,1.5,6.1,3,6.1,6.1c0,3-2.9,5.1-7,5.1c-3.6,0-5.6-1.3-6-1.6l1.2-2.4
				c0.6,0.3,2.7,1.2,4.9,1.2c2,0,2.7-1.2,2.7-2.2c0-1.7-1.6-2.5-4-3.4c-3.5-1.4-5-3.1-5-5.7C463.5,180.6,465.1,178.1,469.8,178.1
				 M469.8,177.1c-5.1,0-7.4,2.9-7.4,5.9c0,3.1,1.8,5.1,5.7,6.6c2.7,1.1,3.4,1.6,3.4,2.5c0,0.9-0.7,1.2-1.7,1.2
				c-2.3,0-4.6-1.2-4.6-1.2c-0.2-0.1-0.3-0.1-0.5-0.1c-0.3,0-0.5,0.2-0.7,0.5l-1.4,2.7c-0.2,0.4,0,0.8,0.3,1.1
				c1,0.8,3.4,1.9,6.7,1.9c5.1,0,8-2.8,8-6.1c0-3.9-2.9-5.6-6.8-7.1c-1.9-0.8-2.8-1-2.8-2c0-0.6,0.5-1.1,1.7-1.1
				c1.9,0,4.2,1.1,4.2,1.1c0.1,0,0.3,0.1,0.4,0.1c0.3,0,0.6-0.1,0.8-0.4l1.2-2.6c0.2-0.5,0-1.1-0.5-1.4
				C474.9,178,472.8,177.1,469.8,177.1L469.8,177.1z"/>
		</g>
		<g id="a_00000145043189003600717770000018364389533051854465_">
			<path d="M447.8,197.6c-3.8,0-6.2-2.5-6.2-6.4c0-3.5,2.9-5.8,7.5-5.8c1.9,0,3.5,0.5,3.5,0.5l0.6,0.2l0-0.7c0-1.5-0.2-2.6-0.9-3.2
				c-0.5-0.5-1.2-0.8-2.2-0.8c-1.9,0-4.5,0.4-5.7,0.8c-0.1,0-0.1,0-0.2,0c-0.2,0-0.3-0.2-0.3-0.5l-0.5-2.6c-0.1-0.4,0-0.6,0.4-0.7
				c0.4-0.2,3.6-0.9,6.6-0.9c6,0,7.2,3.1,7.2,8.2v10.9c0,0.2-0.2,0.5-0.5,0.5h-1.8c-0.1,0-0.2,0-0.4-0.4l-0.9-2l-0.5,0.5
				C452.2,196.4,450.5,197.6,447.8,197.6z M449.8,188.1c-2.2,0-3.8,1.3-3.8,3.2c0,1.8,1.3,3.1,3.1,3.1c1.8,0,3.5-1.5,3.9-2.2
				l0.1-0.1v-3.2l-0.3-0.1C452.7,188.7,451.3,188.1,449.8,188.1z"/>
			<path d="M450.4,178.1c5,0,6.7,1.9,6.7,7.7v10.8l-1.6,0c0,0,0-0.1-0.1-0.1l-0.6-1.4l-0.6-1.3l-1,0.9c-1.2,1.1-2.9,2.3-5.4,2.3
				c-3.5,0-5.8-2.2-5.8-5.9c0-3.2,2.7-5.3,7-5.3c1.8,0,3.3,0.5,3.3,0.5l1.3,0.4l0-1.4c0-1.7-0.3-2.8-1-3.6c-0.6-0.6-1.5-0.9-2.6-0.9
				c-1.9,0-4.4,0.4-5.8,0.8c0,0,0,0,0-0.1l-0.5-2.6c0,0,0-0.1,0-0.1c0,0,0,0,0.1,0C444.3,178.8,447.4,178.1,450.4,178.1
				 M449.1,194.9c2,0,3.9-1.6,4.3-2.5l0.1-0.2v-0.2v-2.8v-0.6l-0.6-0.3c-0.1,0-1.6-0.7-3.2-0.7c-2.5,0-4.3,1.5-4.3,3.7
				C445.5,193.3,447,194.9,449.1,194.9 M450.4,177.1c-3.2,0-6.4,0.8-6.8,1c-0.4,0.1-0.9,0.5-0.7,1.2l0.4,2.6
				c0.1,0.5,0.3,0.9,0.8,0.9c0.1,0,0.2,0,0.3,0c1.1-0.4,3.8-0.8,5.6-0.8s2.7,0.9,2.6,3.5c0,0-1.6-0.6-3.6-0.6c-5.1,0-8,2.8-8,6.3
				c0,4.3,2.8,6.9,6.8,6.9c3.1,0,5-1.5,6.1-2.6l0.6,1.4c0.2,0.6,0.5,0.7,0.9,0.7h1.8c0.5,0,1-0.5,1-1v-10.9
				C458.1,180.4,456.6,177.1,450.4,177.1L450.4,177.1z M449.1,193.9c-1.5,0-2.6-1.1-2.6-2.6c0-1.6,1.3-2.7,3.3-2.7
				c1.4,0,2.8,0.6,2.8,0.6v2.8C452.3,192.5,450.7,193.9,449.1,193.9L449.1,193.9z"/>
		</g>
		<g id="P">
			<path d="M417,197.1c-0.3,0-0.5-0.2-0.5-0.5v-33.1c0-0.2,0.2-0.4,0.5-0.4h11.8c5.9,0,10.7,4.7,10.7,10.6c0,5.9-4.8,10.8-10.7,10.8
				h-6.8v12.3c0,0.2-0.2,0.5-0.5,0.5H417z M422.1,179.3h6.3c3.1,0,5.7-2.6,5.7-5.7c0-3-2.5-5.4-5.7-5.4h-6.3V179.3z"/>
			<path d="M428.8,163.6c5.6,0,10.2,4.5,10.2,10.1c0,5.7-4.6,10.3-10.2,10.3h-6.3h-1v1v11.7h-4.5v-33H428.8 M421.6,179.8h1h5.8
				c3.4,0,6.2-2.8,6.2-6.2c0-3.2-2.8-5.9-6.2-5.9h-5.8h-1v1v10.1V179.8 M428.8,162.6H417c-0.6,0-1,0.4-1,0.9v33.1c0,0.5,0.4,1,1,1
				h4.6c0.5,0,1-0.5,1-1v-11.8h6.3c6.1,0,11.2-5.1,11.2-11.3C440,167.6,434.9,162.6,428.8,162.6L428.8,162.6z M422.6,178.8v-10.1
				h5.8c2.8,0,5.2,2.1,5.2,4.9c0,3-2.4,5.2-5.2,5.2H422.6L422.6,178.8z"/>
		</g>
		<g id="e">
			<path d="M390,197.6c-5.6,0-9.8-4.3-9.8-10c0-5.6,4.3-10,9.7-10c5,0,8.9,3.8,8.9,8.8c0,0.3,0,0.9-0.1,1.3c0,0.3-0.3,0.4-0.5,0.4
				h-13.3l0,0.5c0.2,2.4,2.2,4.8,5.3,4.8c1.5,0,3-0.5,4.2-1.3c0.2-0.1,0.4-0.2,0.5-0.2c0,0,0.1,0,0.2,0.1l2,2.3
				c0.1,0.1,0.2,0.2,0.2,0.3c0,0.1-0.1,0.2-0.2,0.2C396,196,393.7,197.6,390,197.6z M389.8,181.2c-2.2,0-4.1,1.6-4.4,3.8l-0.1,0.6
				h8.7l0-0.5C393.7,182.9,391.9,181.2,389.8,181.2z"/>
			<path d="M389.9,178.1c4.8,0,8.4,3.6,8.4,8.3c0,0.3,0,0.8-0.1,1.2h-12.8h-1.1l0.1,1.1c0.2,2.6,2.4,5.3,5.8,5.3
				c1.5,0,3.2-0.5,4.4-1.4c0,0,0.1,0,0.1-0.1l1.9,2.2c-1,0.9-3.2,2.4-6.7,2.4c-5.3,0-9.3-4.1-9.3-9.5
				C380.7,182.3,384.7,178.1,389.9,178.1 M384.7,186.1h1.1h7.6h1.1l-0.1-1.1c-0.2-2.4-2.2-4.3-4.6-4.3c-2.5,0-4.6,1.8-4.9,4.3
				L384.7,186.1 M389.9,177.1c-6,0-10.2,4.9-10.2,10.5c0,5.8,4.3,10.5,10.3,10.5c3.3,0,5.8-1.2,7.5-2.8c0.5-0.4,0.4-1,0-1.3l-2-2.4
				c-0.2-0.2-0.3-0.3-0.5-0.3c-0.2,0-0.5,0.1-0.8,0.3c-0.9,0.6-2.4,1.2-3.9,1.2c-2.9,0-4.7-2.3-4.8-4.4h12.8c0.5,0,0.9-0.4,1-0.9
				c0.1-0.4,0.1-1,0.1-1.4C399.3,181,395.1,177.1,389.9,177.1L389.9,177.1z M385.9,185.1c0.2-1.9,1.9-3.4,3.9-3.4
				c1.9,0,3.5,1.5,3.7,3.4H385.9L385.9,185.1z"/>
		</g>
		<g id="v">
			<path d="M367.6,197.6c-0.2,0-0.3-0.1-0.4-0.3l-9.1-18.8c-0.1-0.2-0.1-0.3-0.1-0.4c0-0.1,0.2-0.1,0.3-0.1h4.4
				c0.3,0,0.4,0.1,0.5,0.3l4.2,9.6h0.7l4.4-9.6c0.1-0.2,0.2-0.3,0.7-0.3h3.9c0.2,0,0.3,0.1,0.3,0.1c0,0.1,0,0.2-0.1,0.4l-9.2,18.8
				c-0.1,0.1-0.2,0.2-0.4,0.2H367.6z"/>
			<path d="M376.8,178.6l-9,18.5l-0.2,0l-9-18.5h4c0,0,0,0,0,0l4,9.2l0.3,0.6h0.7h0.1h0.6l0.3-0.6l4.3-9.3c0.1,0,0.1,0,0.3,0H376.8
				 M377.2,177.6h-3.9c-0.6,0-1,0-1.2,0.5l-4.3,9.3c0,0-0.1,0-0.1,0l-4.1-9.3c-0.1-0.3-0.4-0.5-0.9-0.5h-4.4c-0.8,0-1,0.5-0.7,1.2
				l9.1,18.8c0.1,0.2,0.4,0.5,0.9,0.5h0.2c0.4,0,0.7-0.2,0.9-0.5l9.2-18.8C378.2,178.2,377.9,177.6,377.2,177.6L377.2,177.6z"/>
		</g>
		<g id="i_00000046324756109615881560000018077723844236113842_">
			<path d="M349.2,197.1c-0.2,0-0.5-0.2-0.5-0.5v-18.1c0-0.3,0.2-0.4,0.5-0.4h4.2c0.2,0,0.5,0.2,0.5,0.4v18.1c0,0.2-0.2,0.5-0.5,0.5
				H349.2z M351.2,170c-1.6,0-2.9-1.3-2.9-3s1.3-3,2.9-3c1.7,0,3,1.3,3,3S352.9,170,351.2,170z"/>
			<path d="M351.2,164.6c1.4,0,2.5,1.1,2.5,2.5s-1.1,2.5-2.5,2.5c-1.3,0-2.4-1.1-2.4-2.5S349.9,164.6,351.2,164.6 M353.3,178.6v18
				h-4.1v-18H353.3 M351.2,163.6c-1.9,0-3.4,1.5-3.4,3.5c0,1.9,1.5,3.5,3.4,3.5c2,0,3.5-1.6,3.5-3.5
				C354.7,165.2,353.2,163.6,351.2,163.6L351.2,163.6z M353.4,177.6h-4.2c-0.5,0-1,0.4-1,0.9v18.1c0,0.5,0.5,1,1,1h4.2
				c0.5,0,1-0.5,1-1v-18.1C354.3,178,353.9,177.6,353.4,177.6L353.4,177.6z"/>
		</g>
		<g id="t_00000133517189214110789120000015463620311141753778_">
			<path d="M337.6,197.6c-3.4,0-5.1-1.9-5.1-6v-9.3h-2.2c-0.2,0-0.4-0.2-0.4-0.5v-3.4c0-0.3,0.2-0.4,0.4-0.4h2.2v-6.1
				c0-0.2,0.2-0.4,0.5-0.4l4.1-0.1c0.2,0,0.4,0.2,0.4,0.5v6.1h4.9c0.3,0,0.5,0.2,0.5,0.4v3.4c0,0.2-0.2,0.5-0.5,0.5h-4.9v8.5
				c0,2.1,1.5,2.1,2.1,2.1c0.7,0,1.6-0.2,2.6-0.6c0.1,0,0.1,0,0.2,0c0,0,0.2,0,0.3,0.3l1,3.2c0.1,0.3-0.1,0.5-0.3,0.6
				C343,196.5,339.9,197.6,337.6,197.6z"/>
			<path d="M337,172.1v5.5v1h1l4.4,0v3.2H338h-1v1v8c0,1,0.3,2.6,2.6,2.6c0.7,0,1.6-0.2,2.6-0.6l1,3l0,0l0,0
				c-0.4,0.2-3.3,1.2-5.5,1.2c-2,0-4.6-0.6-4.6-5.5v-8.8v-1h-1h-1.6l0-3.2h1.6h1v-1v-5.5L337,172.1 M337.1,171.1l-4.1,0.1
				c-0.5,0-1,0.4-1,0.9v5.6h-1.7c-0.5,0-0.9,0.4-0.9,0.9v3.4c0,0.5,0.4,1,0.9,1h1.7v8.8c0,4.1,1.7,6.5,5.6,6.5c2.5,0,5.7-1.1,6-1.3
				c0.5-0.2,0.8-0.7,0.6-1.2l-1-3.2c-0.1-0.4-0.4-0.6-0.7-0.6c-0.1,0-0.2,0-0.4,0.1c-0.6,0.2-1.6,0.5-2.5,0.5
				c-0.8,0-1.6-0.2-1.6-1.6v-8h4.4c0.5,0,1-0.5,1-1v-3.4c0-0.5-0.4-0.9-1-0.9H338V172C338,171.5,337.6,171.1,337.1,171.1
				L337.1,171.1z"/>
		</g>
		<g id="a">
			<path d="M315,197.6c-3.8,0-6.2-2.5-6.2-6.4c0-3.5,2.9-5.8,7.5-5.8c1.9,0,3.5,0.5,3.5,0.5l0.6,0.2l0-0.7c0-1.5-0.2-2.6-0.9-3.2
				c-0.5-0.5-1.2-0.8-2.2-0.8c-1.9,0-4.5,0.4-5.7,0.8c-0.1,0-0.1,0-0.2,0c-0.2,0-0.3-0.2-0.3-0.5l-0.5-2.6c-0.1-0.4,0-0.6,0.4-0.7
				c0.4-0.2,3.6-0.9,6.6-0.9c6,0,7.2,3.1,7.2,8.2v10.9c0,0.2-0.2,0.5-0.5,0.5h-1.8c-0.1,0-0.2,0-0.4-0.4l-0.9-2l-0.5,0.5
				C319.4,196.4,317.7,197.6,315,197.6z M317,188.1c-2.2,0-3.8,1.3-3.8,3.2c0,1.8,1.3,3.1,3.1,3.1c1.8,0,3.5-1.5,3.9-2.2l0.1-0.1
				v-3.2l-0.3-0.1C319.9,188.7,318.5,188.1,317,188.1z"/>
			<path d="M317.6,178.1c5,0,6.7,1.9,6.7,7.7v10.8l-1.6,0c0,0,0-0.1-0.1-0.1l-0.6-1.4l-0.6-1.3l-1,0.9c-1.2,1.1-2.9,2.3-5.4,2.3
				c-3.5,0-5.8-2.2-5.8-5.9c0-3.2,2.7-5.3,7-5.3c1.8,0,3.3,0.5,3.3,0.5l1.3,0.4l0-1.4c0-1.7-0.3-2.8-1-3.6c-0.6-0.6-1.5-0.9-2.6-0.9
				c-1.9,0-4.4,0.4-5.8,0.8c0,0,0,0,0-0.1l-0.5-2.6c0,0,0-0.1,0-0.1c0,0,0,0,0.1,0C311.5,178.8,314.6,178.1,317.6,178.1
				 M316.3,194.9c2,0,3.9-1.6,4.3-2.5l0.1-0.2v-0.2v-2.8v-0.6l-0.6-0.3c-0.1,0-1.6-0.7-3.2-0.7c-2.5,0-4.3,1.5-4.3,3.7
				C312.7,193.3,314.2,194.9,316.3,194.9 M317.6,177.1c-3.2,0-6.4,0.8-6.8,1c-0.4,0.1-0.9,0.5-0.7,1.2l0.4,2.6
				c0.1,0.5,0.3,0.9,0.8,0.9c0.1,0,0.2,0,0.3,0c1.1-0.4,3.8-0.8,5.6-0.8s2.7,0.9,2.6,3.5c0,0-1.6-0.6-3.6-0.6c-5.1,0-8,2.8-8,6.3
				c0,4.3,2.8,6.9,6.8,6.9c3.1,0,5-1.5,6.1-2.6l0.6,1.4c0.2,0.6,0.5,0.7,0.9,0.7h1.8c0.5,0,1-0.5,1-1v-10.9
				C325.3,180.4,323.8,177.1,317.6,177.1L317.6,177.1z M316.3,193.9c-1.5,0-2.6-1.1-2.6-2.6c0-1.6,1.3-2.7,3.3-2.7
				c1.4,0,2.8,0.6,2.8,0.6v2.8C319.5,192.5,317.9,193.9,316.3,193.9L316.3,193.9z"/>
		</g>
		<g id="r">
			<path d="M293.6,197.1c-0.2,0-0.5-0.2-0.5-0.5v-18.1c0-0.3,0.2-0.4,0.5-0.4h1.9c0.2,0,0.3,0,0.4,0.3l1,2.9l0.6-0.8
				c0.6-0.9,2.3-2.9,5.2-2.9c1.8,0,3.1,0.5,3.4,0.9c0.1,0.1,0.1,0.2,0,0.4l-1.8,3.2c-0.1,0.2-0.2,0.3-0.4,0.3c0,0-0.1,0-0.1,0
				c-0.4-0.1-1.1-0.4-1.7-0.4c-2.2,0-3.6,1.5-4,2.3l-0.1,0.1v12.2c0,0.2,0,0.5-0.7,0.5H293.6z"/>
			<path d="M302.7,178.1c1.6,0,2.6,0.4,2.9,0.6l-1.8,3.1c-0.5-0.2-1.2-0.3-1.7-0.3c-2.5,0-4,1.7-4.4,2.6l-0.1,0.2v0.2v12
				c0,0-0.1,0-0.2,0h-3.8v-18l1.8,0l0.7,1.9l0.7,1.8l1.1-1.6C298.4,180,300,178.1,302.7,178.1 M302.7,177.1c-3.1,0-5,2.1-5.6,3.1
				l-0.7-2c-0.1-0.4-0.5-0.6-0.9-0.6h-1.9c-0.5,0-1,0.4-1,0.9v18.1c0,0.5,0.5,1,1,1h3.9c0.7,0,1.2-0.2,1.2-1v-12.1
				c0.4-0.7,1.5-2.1,3.6-2.1c0.5,0,1.3,0.2,1.4,0.3c0.1,0.1,0.2,0.1,0.3,0.1c0.3,0,0.6-0.2,0.8-0.5l1.9-3.2
				C307.2,177.9,305.1,177.1,302.7,177.1L302.7,177.1z"/>
		</g>
		<g id="t">
			<path d="M282,197.6c-3.4,0-5.1-1.9-5.1-6v-9.3h-2.2c-0.2,0-0.4-0.2-0.4-0.5v-3.4c0-0.3,0.2-0.4,0.4-0.4h2.2v-6.1
				c0-0.2,0.2-0.4,0.5-0.4l4.1-0.1c0.2,0,0.4,0.2,0.4,0.5v6.1h4.9c0.3,0,0.5,0.2,0.5,0.4v3.4c0,0.2-0.2,0.5-0.5,0.5h-4.9v8.5
				c0,2.1,1.5,2.1,2.1,2.1c0.7,0,1.6-0.2,2.6-0.6c0.1,0,0.1,0,0.2,0c0,0,0.2,0,0.3,0.3l1,3.2c0.1,0.3-0.1,0.5-0.3,0.6
				C287.4,196.5,284.3,197.6,282,197.6z"/>
			<path d="M281.4,172.1v5.5v1h1l4.4,0v3.2h-4.4h-1v1v8c0,1,0.3,2.6,2.6,2.6c0.7,0,1.6-0.2,2.6-0.6l1,3l0,0l0,0
				c-0.4,0.2-3.3,1.2-5.5,1.2c-2,0-4.6-0.6-4.6-5.5v-8.8v-1h-1h-1.6l0-3.2h1.6h1v-1v-5.5L281.4,172.1 M281.5,171.1l-4.1,0.1
				c-0.5,0-1,0.4-1,0.9v5.6h-1.7c-0.5,0-0.9,0.4-0.9,0.9v3.4c0,0.5,0.4,1,0.9,1h1.7v8.8c0,4.1,1.7,6.5,5.6,6.5c2.5,0,5.7-1.1,6-1.3
				c0.5-0.2,0.8-0.7,0.6-1.2l-1-3.2c-0.1-0.4-0.4-0.6-0.7-0.6c-0.1,0-0.2,0-0.4,0.1c-0.6,0.2-1.6,0.5-2.5,0.5
				c-0.8,0-1.6-0.2-1.6-1.6v-8h4.4c0.5,0,1-0.5,1-1v-3.4c0-0.5-0.4-0.9-1-0.9h-4.4V172C282.4,171.5,282,171.1,281.5,171.1
				L281.5,171.1z"/>
		</g>
		<g id="s">
			<path d="M263,197.6c-3,0-5.2-0.9-6.3-1.7c0,0-0.3-0.2-0.2-0.4l1.4-2.7c0.1-0.2,0.2-0.2,0.2-0.2c0.1,0,0.2,0,0.2,0.1
				c0.1,0.1,2.4,1.3,4.8,1.3c1.4,0,2.2-0.7,2.2-1.8c0-1.3-1.1-2-3.7-3c-3.7-1.4-5.3-3.3-5.3-6.1c0-2.6,1.8-5.4,6.9-5.4
				c2.7,0,4.8,0.8,5.9,1.5c0.2,0.2,0.4,0.4,0.3,0.7l-1.3,2.6c-0.1,0.1-0.2,0.1-0.3,0.1c-0.1,0-0.2,0-0.2,0c-0.1,0-2.3-1.1-4.3-1.1
				c-1.6,0-2.2,0.9-2.2,1.6c0,1.2,1,1.6,2.7,2.3l0.4,0.1c4.1,1.6,6.4,3.2,6.4,6.6C270.5,195.3,267.4,197.6,263,197.6z"/>
			<path d="M263.2,178.1c2.6,0,4.6,0.7,5.6,1.4c0.1,0,0.1,0.1,0.1,0.1c0,0,0,0,0,0l-1.2,2.4c0,0,0,0,0,0c-0.4-0.2-2.6-1.1-4.5-1.1
				c-2,0-2.7,1.2-2.7,2.1c0,1.5,1.3,2,3,2.7l0.4,0.1c4,1.5,6.1,3,6.1,6.1c0,3-2.9,5.1-7,5.1c-3.6,0-5.6-1.3-6-1.6l1.2-2.4
				c0.6,0.3,2.7,1.2,4.9,1.2c2,0,2.7-1.2,2.7-2.2c0-1.7-1.6-2.5-4-3.4c-3.5-1.4-5-3.1-5-5.7C256.8,180.6,258.5,178.1,263.2,178.1
				 M263.2,177.1c-5.1,0-7.4,2.9-7.4,5.9c0,3.1,1.8,5.1,5.7,6.6c2.7,1.1,3.4,1.6,3.4,2.5c0,0.9-0.7,1.2-1.7,1.2
				c-2.3,0-4.6-1.2-4.6-1.2c-0.2-0.1-0.3-0.1-0.5-0.1c-0.3,0-0.5,0.2-0.7,0.5l-1.4,2.7c-0.2,0.4,0,0.8,0.3,1.1
				c1,0.8,3.4,1.9,6.7,1.9c5.1,0,8-2.8,8-6.1c0-3.9-2.9-5.6-6.8-7.1c-1.9-0.8-2.8-1-2.8-2c0-0.6,0.5-1.1,1.7-1.1
				c1.9,0,4.2,1.1,4.2,1.1c0.1,0,0.3,0.1,0.4,0.1c0.3,0,0.6-0.1,0.8-0.4l1.2-2.6c0.2-0.5,0-1.1-0.5-1.4
				C268.3,178,266.1,177.1,263.2,177.1L263.2,177.1z"/>
		</g>
		<g id="i_00000098213900958199487950000016394358472740577709_">
			<path d="M246.1,197.1c-0.2,0-0.5-0.2-0.5-0.5v-18.1c0-0.3,0.2-0.4,0.5-0.4h4.2c0.2,0,0.5,0.2,0.5,0.4v18.1c0,0.2-0.2,0.5-0.5,0.5
				H246.1z M248.1,170c-1.6,0-2.9-1.3-2.9-3s1.3-3,2.9-3c1.7,0,3,1.3,3,3S249.7,170,248.1,170z"/>
			<path d="M248.1,164.6c1.4,0,2.5,1.1,2.5,2.5s-1.1,2.5-2.5,2.5c-1.3,0-2.4-1.1-2.4-2.5S246.7,164.6,248.1,164.6 M250.2,178.6v18
				h-4.1v-18H250.2 M248.1,163.6c-1.9,0-3.4,1.5-3.4,3.5c0,1.9,1.5,3.5,3.4,3.5c2,0,3.5-1.6,3.5-3.5
				C251.6,165.2,250,163.6,248.1,163.6L248.1,163.6z M250.2,177.6h-4.2c-0.5,0-1,0.4-1,0.9v18.1c0,0.5,0.5,1,1,1h4.2
				c0.5,0,1-0.5,1-1v-18.1C251.2,178,250.7,177.6,250.2,177.6L250.2,177.6z"/>
		</g>
		<g id="n">
			<path d="M234.5,197.1c-0.3,0-0.5-0.2-0.5-0.5v-9.9c0-2.9-1.6-4.8-4.3-4.8c-2.7,0-4.5,1.8-5.2,3.5l0,0.1v11.1c0,0.3,0,0.5-0.8,0.5
				h-3.7c-0.2,0-0.5-0.2-0.5-0.5v-18.1c0-0.3,0.2-0.4,0.5-0.4h1.9c0.2,0,0.3,0,0.4,0.3l1,2.6l0.5-0.6c0.6-0.7,2.9-2.8,6.7-2.8
				c7.8,0,8.4,7.2,8.4,9.5v9.6c0,0.2-0.2,0.5-0.5,0.5H234.5z"/>
			<path d="M230.6,178.1c7.3,0,7.9,6.9,7.9,9v9.6h-4v-9.9c0-3.2-1.9-5.3-4.8-5.3c-2.9,0-4.9,1.9-5.6,3.8l-0.1,0.2v0.2v10.9
				c-0.1,0-0.1,0-0.2,0h-3.7v-18l1.8,0l0.7,1.8l0.6,1.5l1.1-1.2C224.7,180.3,226.9,178.1,230.6,178.1 M230.6,177.1
				c-3.9,0-6.3,2.2-7.1,3l-0.7-1.9c-0.1-0.3-0.4-0.6-0.8-0.6h-1.9c-0.5,0-1,0.4-1,0.9v18.1c0,0.5,0.5,1,1,1h3.7c1,0,1.2-0.2,1.2-1
				v-11c0.5-1.4,2.1-3.2,4.7-3.2c2.4,0,3.8,1.7,3.8,4.3v9.9c0,0.5,0.4,1,1,1h4.1c0.5,0,1-0.5,1-1v-9.6
				C239.5,181.9,237,177.1,230.6,177.1L230.6,177.1z"/>
		</g>
		<g id="i">
			<path d="M208.1,197.1c-0.2,0-0.5-0.2-0.5-0.5v-18.1c0-0.3,0.2-0.4,0.5-0.4h4.2c0.2,0,0.5,0.2,0.5,0.4v18.1c0,0.2-0.2,0.5-0.5,0.5
				H208.1z M210.1,170c-1.6,0-2.9-1.3-2.9-3s1.3-3,2.9-3c1.7,0,3,1.3,3,3S211.7,170,210.1,170z"/>
			<path d="M210.1,164.6c1.4,0,2.5,1.1,2.5,2.5s-1.1,2.5-2.5,2.5c-1.3,0-2.4-1.1-2.4-2.5S208.7,164.6,210.1,164.6 M212.2,178.6v18
				h-4.1v-18H212.2 M210.1,163.6c-1.9,0-3.4,1.5-3.4,3.5c0,1.9,1.5,3.5,3.4,3.5c2,0,3.5-1.6,3.5-3.5
				C213.6,165.2,212,163.6,210.1,163.6L210.1,163.6z M212.2,177.6h-4.2c-0.5,0-1,0.4-1,0.9v18.1c0,0.5,0.5,1,1,1h4.2
				c0.5,0,1-0.5,1-1v-18.1C213.2,178,212.7,177.6,212.2,177.6L212.2,177.6z"/>
		</g>
		<g id="m">
			<path d="M196.5,197.1c-0.3,0-0.5-0.2-0.5-0.5v-9.9c0-3-1.6-4.8-4.2-4.8c-3.1,0-4.6,2.2-4.6,2.3l-0.1,0.1l0,0.2c0,0,0,1,0,1.9
				v10.2c0,0.2-0.2,0.5-0.5,0.5H183c-0.3,0-0.5-0.2-0.5-0.5v-9.9c0-3.1-1.5-4.8-4.2-4.8c-3.1,0-4.3,2.4-4.7,3.5l0,0.1v11.1
				c0,0.2-0.2,0.5-0.5,0.5h-4.1c-0.2,0-0.5-0.2-0.5-0.5v-18.1c0-0.3,0.2-0.4,0.5-0.4h1.9c0.2,0,0.3,0.1,0.4,0.2l1,2.7l0.6-0.6
				c0.6-0.7,2.8-2.8,6.3-2.8c2.6,0,4.5,0.9,6.1,2.9l0.4,0.4l0.4-0.4c0.5-0.5,3-2.9,6.7-2.9c7.4,0,8.3,6.6,8.3,9.5v9.6
				c0,0.2-0.2,0.5-0.4,0.5H196.5z"/>
			<path d="M192.8,178.1c6.7,0,7.8,5.6,7.8,9v9.5h-4v-9.9c0-3.3-1.8-5.3-4.8-5.3c-3.4,0-5,2.5-5.1,2.6l-0.2,0.3l0,0.3c0,0,0,1,0,1.9
				v10.1H183v-9.9c0-3.3-1.7-5.3-4.7-5.3c-2.4,0-4.2,1.4-5.1,3.8l-0.1,0.2v0.2v11h-4v-18l1.8,0l0.7,1.8l0.6,1.6l1.1-1.2
				c0.5-0.6,2.6-2.6,6-2.6c2.4,0,4.2,0.8,5.7,2.7l0.7,0.9l0.8-0.8C186.7,180.6,189.2,178.1,192.8,178.1 M192.8,177.1
				c-3.6,0-6.2,2.2-7.1,3.1c-1.6-2-3.7-3.1-6.5-3.1c-3.6,0-5.9,2-6.7,3l-0.7-1.9c-0.1-0.3-0.4-0.5-0.9-0.5h-1.9c-0.5,0-1,0.4-1,0.9
				v18.1c0,0.5,0.5,1,1,1h4.1c0.5,0,1-0.5,1-1v-11c0.5-1.4,1.7-3.2,4.2-3.2c2.6,0,3.7,1.7,3.7,4.3v9.9c0,0.5,0.4,1,1,1h3.8
				c0.5,0,1-0.5,1-1v-10.2c0-0.9-0.1-1.9-0.1-1.9s1.3-2.1,4.2-2.1c2.5,0,3.8,1.7,3.8,4.3v9.9c0,0.5,0.4,1,1,1h4.1
				c0.5,0,0.9-0.5,0.9-1v-9.6C201.5,181.9,199.2,177.1,192.8,177.1L192.8,177.1z"/>
		</g>
		<g id="d">
			<path d="M151.3,197.6c-5.1,0-9.1-4.4-9.1-10c0-5.8,4-10,9.4-10c1.8,0,3.2,0.5,4.3,0.9l0.7,0.3v-15.2c0-0.2,0.2-0.4,0.5-0.4h4.2
				c0.2,0,0.5,0.2,0.5,0.4v33.1c0,0.2-0.2,0.5-0.5,0.5h-2c-0.2,0-0.4-0.2-0.5-0.6l-0.8-2.5l-0.6,0.7
				C157.4,194.8,155.1,197.6,151.3,197.6z M152.3,182c-3,0-5.4,2.5-5.4,5.6c0,3.1,2.2,5.6,5.1,5.6c2.7,0,4.2-1.9,4.7-3.6l0-0.1v-6.1
				l-0.2-0.1C156.5,183.2,155,182,152.3,182z"/>
			<path d="M161.2,163.6v33h-1.8c0,0-0.1-0.1-0.1-0.3l-0.5-1.5l-0.6-1.8l-1.2,1.5c0,0-2.1,2.6-5.8,2.6c-4.8,0-8.6-4.2-8.6-9.5
				c0-5.5,3.7-9.5,8.9-9.5c1.7,0,3.1,0.4,4.1,0.8l1.4,0.5V178v-14.4H161.2 M152,193.7c3,0,4.6-2.1,5.2-4l0-0.1v-0.1v-5.8v-0.5
				l-0.4-0.3c-0.1-0.1-1.7-1.4-4.5-1.4c-3.3,0-5.9,2.7-5.9,6.1C146.5,191,148.9,193.7,152,193.7 M161.2,162.6H157
				c-0.5,0-1,0.4-1,0.9V178c-0.9-0.4-2.5-0.9-4.5-0.9c-6,0-9.9,4.7-9.9,10.5c0,5.8,4.2,10.5,9.6,10.5c4.2,0,6.6-3,6.6-3l0.5,1.5
				c0.2,0.6,0.5,1,1,1h2c0.5,0,1-0.5,1-1v-33.1C162.2,163.1,161.7,162.6,161.2,162.6L161.2,162.6z M152,192.7
				c-2.6,0-4.6-2.3-4.6-5.1s2.1-5.1,4.9-5.1c2.5,0,3.9,1.2,3.9,1.2v5.8C155.9,190.7,154.7,192.7,152,192.7L152,192.7z"/>
		</g>
		<g id="A">
			<path d="M135.4,197.1c-0.5,0-0.7-0.1-1-0.7l-2.6-5.7h-15.6l-2.6,5.7c-0.1,0.3-0.4,0.7-1,0.7h-4.4c-0.2,0-0.3-0.1-0.4-0.2
				c-0.1-0.1-0.1-0.3,0-0.4l15.6-33.7c0.1-0.2,0.2-0.3,0.4-0.3h0.5c0.2,0,0.3,0.1,0.4,0.3l15.4,33.6c0.1,0.2,0.1,0.3,0,0.4
				c-0.1,0.1-0.2,0.2-0.4,0.2H135.4z M118.2,186.2h11.6l-5.5-12h-0.8L118.2,186.2z"/>
			<path d="M124.3,163.1l15.3,33.5h-4.2c-0.3,0-0.3,0-0.5-0.4l-2.5-5.4l-0.3-0.6h-0.6h-15h-0.6l-0.3,0.6l-2.5,5.4
				c-0.1,0.4-0.4,0.4-0.5,0.4l-4.2,0l15.5-33.5H124.3 M117.4,186.7h1.5H129h1.6l-0.6-1.4l-5-11l-0.3-0.6H124h-0.1h-0.6l-0.3,0.6
				l-4.9,11L117.4,186.7 M124.3,162.1h-0.5c-0.4,0-0.7,0.2-0.9,0.5l-15.6,33.7c-0.3,0.7,0.1,1.3,0.9,1.3h4.4c0.8,0,1.2-0.5,1.5-1
				l2.5-5.4h15l2.5,5.4c0.4,0.7,0.7,1,1.5,1h4.4c0.8,0,1.2-0.6,0.9-1.3l-15.4-33.7C125,162.4,124.8,162.1,124.3,162.1L124.3,162.1z
				 M119,185.7l4.9-11h0.1l5,11H119L119,185.7z"/>
		</g>
	</g>
	<g id="Curt_Napier">
		<g id="r_00000175310167383450503350000007799422469218305706_">
			<path class="st2" d="M397.8,116.9c-0.4,0-0.7-0.4-0.7-0.7V92.8c0-0.4,0.4-0.7,0.7-0.7h2.5c0.2,0,0.5,0.1,0.7,0.5l1.2,3.4l0.6-0.8
				c0.8-1.1,3.1-3.8,6.9-3.8c2.5,0,4.2,0.6,4.5,1.2c0.1,0.1,0.2,0.3,0,0.6l-2.4,4.2c-0.1,0.3-0.4,0.4-0.6,0.4c-0.1,0-0.1,0-0.2,0
				c-0.6-0.2-1.5-0.4-2.1-0.4c-2.8,0-4.5,1.9-5.1,2.9l-0.1,0.1v15.7c0,0.4-0.1,0.7-1,0.7H397.8z"/>
			<path d="M409.7,92c2.7,0,4.1,0.8,4.1,1c0,0,0,0,0,0.1l-2.4,4.2c-0.1,0.1-0.2,0.2-0.2,0.2l-0.1,0l-0.1,0c-0.6-0.2-1.5-0.4-2.2-0.4
				c-3.1,0-4.9,2.1-5.5,3.2l-0.1,0.2v0.2v15.6c0,0.1,0,0.1,0,0.2c0,0-0.2,0.1-0.5,0.1h-5c-0.1,0-0.2-0.1-0.2-0.2V92.8
				c0-0.2,0.1-0.2,0.2-0.2h2.5c0.1,0,0.2,0,0.2,0.2l0.9,2.5l0.7,1.8l1.1-1.6C403.9,94.5,406.1,92,409.7,92 M409.7,91
				c-4,0-6.4,2.7-7.3,4l-0.9-2.5c-0.2-0.5-0.6-0.8-1.2-0.8h-2.5c-0.6,0-1.2,0.5-1.2,1.2v23.4c0,0.6,0.6,1.2,1.2,1.2h5
				c0.9,0,1.5-0.3,1.5-1.2v-15.6c0.5-0.9,2-2.6,4.6-2.6c0.7,0,1.7,0.3,1.9,0.4c0.1,0.1,0.3,0.1,0.4,0.1c0.4,0,0.8-0.3,1.1-0.7
				l2.4-4.2C415.5,91.9,412.7,91,409.7,91L409.7,91z"/>
		</g>
		<g id="e_00000140010240336612001110000010696788499647052723_">
			<path class="st2" d="M379.1,117.6c-7.3,0-12.8-5.6-12.8-13c0-7.3,5.6-13,12.7-13c6.6,0,11.6,4.9,11.6,11.5c0,0.4-0.1,1.2-0.1,1.7
				c0,0.4-0.4,0.7-0.7,0.7h-17.2l0,0.5c0.2,3,2.8,6.1,6.7,6.1c1.9,0,3.9-0.6,5.4-1.7c0.3-0.2,0.5-0.2,0.7-0.2c0.1,0,0.2,0,0.3,0.2
				l2.7,3c0.2,0.2,0.3,0.4,0.3,0.5c0,0.1-0.1,0.3-0.3,0.4C387,115.4,384,117.6,379.1,117.6z M378.8,96.4c-2.8,0-5.2,2.1-5.6,4.8
				l-0.1,0.6h10.9l0-0.5C383.8,98.6,381.5,96.4,378.8,96.4z"/>
			<path d="M379,92c6.4,0,11.1,4.7,11.1,11c0,0.4-0.1,1.2-0.1,1.6c0,0.1-0.2,0.2-0.2,0.2h-16.6h-1.1l0.1,1.1c0.2,3.2,3,6.5,7.2,6.5
				c1.9,0,4-0.7,5.6-1.8c0.2-0.1,0.3-0.2,0.4-0.2l2.7,3l0,0l0,0c0.1,0.1,0.1,0.1,0.1,0.1c0,0,0,0,0,0c0,0,0,0-0.1,0.1l0,0l0,0
				c-1.3,1.2-4.2,3.3-9,3.3c-7,0-12.3-5.4-12.3-12.5C366.7,97.5,372.1,92,379,92 M372.6,102.3h1.1h9.8h1.1l-0.1-1.1
				c-0.2-2.9-2.8-5.3-5.7-5.3c-3.1,0-5.7,2.3-6.1,5.3L372.6,102.3 M379,91c-7.7,0-13.2,6.3-13.2,13.5c0,7.4,5.5,13.5,13.3,13.5
				c4.2,0,7.5-1.5,9.7-3.5c0.6-0.5,0.5-1.2,0.1-1.7l-2.7-3c-0.2-0.2-0.5-0.3-0.7-0.3c-0.3,0-0.6,0.1-1,0.3c-1.2,0.8-3.1,1.6-5.1,1.6
				c-3.8,0-6-3-6.2-5.6h16.6c0.6,0,1.2-0.5,1.2-1.1c0.1-0.5,0.1-1.3,0.1-1.7C391.1,96,385.7,91,379,91L379,91z M373.7,101.3
				c0.3-2.5,2.5-4.4,5.1-4.4c2.5,0,4.5,2,4.7,4.4H373.7L373.7,101.3z"/>
		</g>
		<g id="i_00000073682294523506097910000007310091704921264824_">
			<path class="st2" d="M353.3,116.9c-0.4,0-0.7-0.4-0.7-0.7V92.8c0-0.4,0.4-0.7,0.7-0.7h5.4c0.4,0,0.7,0.3,0.7,0.7v23.4
				c0,0.4-0.4,0.7-0.7,0.7H353.3z M355.9,81.9c-2.2,0-3.9-1.8-3.9-4s1.8-4,3.9-4c2.2,0,4,1.8,4,4S358.1,81.9,355.9,81.9z"/>
			<path d="M355.9,74.5c2,0,3.5,1.5,3.5,3.5c0,1.9-1.6,3.5-3.5,3.5c-1.9,0-3.4-1.5-3.4-3.5C352.5,76.1,354,74.5,355.9,74.5
				 M358.7,92.6c0.1,0,0.2,0.1,0.2,0.2v23.4c0,0.1-0.1,0.2-0.2,0.2h-5.4c-0.1,0-0.2-0.1-0.2-0.2V92.8c0-0.2,0.1-0.2,0.2-0.2H358.7
				 M355.9,73.5c-2.5,0-4.4,2-4.4,4.5c0,2.5,1.9,4.5,4.4,4.5c2.5,0,4.5-2,4.5-4.5C360.4,75.5,358.4,73.5,355.9,73.5L355.9,73.5z
				 M358.7,91.6h-5.4c-0.6,0-1.2,0.5-1.2,1.2v23.4c0,0.6,0.6,1.2,1.2,1.2h5.4c0.6,0,1.2-0.6,1.2-1.2V92.8
				C359.9,92.1,359.3,91.6,358.7,91.6L358.7,91.6z"/>
		</g>
		<g id="p">
			<path class="st2" d="M320.8,136.3c-0.4,0-0.7-0.4-0.7-0.7V92.8c0-0.4,0.4-0.7,0.7-0.7h2.5c0.1,0,0.5,0,0.6,0.5l1.2,3l0.5-0.7
				c0.8-1.1,3.9-3.3,8-3.3c6.7,0,12,5.7,12,13c0,7.2-5.5,13-12.4,13c-2.3,0-4.6-0.8-5.5-1.4l-0.7-0.4v19.8c0,0.3,0,0.7-1.1,0.7
				H320.8z M332.6,97.4c-3.6,0-5.4,2.8-5.8,4.3l0,0.1v8l0.2,0.1c0.1,0.1,2,1.6,5.4,1.6c3.8,0,6.8-3.1,6.8-7.1
				C339.1,100.5,336.3,97.4,332.6,97.4z"/>
			<path d="M333.7,92c6.5,0,11.5,5.5,11.5,12.5c0,6.9-5.3,12.5-11.9,12.5c-2.5,0-4.7-0.9-5.3-1.3l-1.5-0.8v1.7v18.9
				c0,0.1,0,0.1,0,0.2c0,0-0.2,0.1-0.6,0.1h-5.2c-0.1,0-0.2-0.1-0.2-0.2V92.8c0-0.2,0.1-0.2,0.2-0.2h2.5c0.1,0,0.2,0.1,0.2,0.1
				l0.8,2.1l0.7,1.7l1.1-1.4C326.9,94.1,329.7,92,333.7,92 M332.3,112.1c4.1,0,7.3-3.3,7.3-7.6c0-4.3-3-7.6-7-7.6
				c-3.9,0-5.8,3-6.3,4.7l0,0.1v0.1v7.7v0.5l0.4,0.3C326.7,110.4,328.7,112.1,332.3,112.1 M333.7,91c-4.2,0-7.4,2.3-8.4,3.5
				l-0.8-2.1c-0.2-0.5-0.6-0.8-1.1-0.8h-2.5c-0.6,0-1.2,0.5-1.2,1.2v42.7c0,0.6,0.6,1.2,1.2,1.2h5.2c1.2,0,1.6-0.5,1.6-1.2v-18.9
				c0.9,0.5,3.2,1.4,5.8,1.4c7,0,12.9-5.9,12.9-13.5C346.2,97.1,340.8,91,333.7,91L333.7,91z M332.3,111.1c-3.2,0-5.1-1.5-5.1-1.5
				v-7.7c0.4-1.4,2-3.9,5.3-3.9c3.6,0,6,3,6,6.6S335.9,111.1,332.3,111.1L332.3,111.1z"/>
		</g>
		<g id="a_00000174567154354850067810000018239760472884413868_">
			<path class="st2" d="M298.7,117.6c-5,0-8.3-3.3-8.3-8.3c0-4.6,3.9-7.6,9.9-7.6c2.5,0,4.6,0.7,4.6,0.7l0.6,0.2l0-0.7
				c0-1.9-0.3-3.2-1.1-4c-0.6-0.6-1.5-1-2.8-1c-2.4,0-5.9,0.5-7.4,1c-0.1,0-0.2,0-0.3,0c-0.3,0-0.5-0.3-0.6-0.8l-0.6-3.4
				c-0.1-0.6,0.1-0.9,0.6-1.1c0.3-0.1,4.4-1.2,8.7-1.2c7.9,0,9.5,4.1,9.5,10.7v14c0,0.4-0.4,0.7-0.7,0.7h-2.3c-0.2,0-0.4,0-0.6-0.6
				l-1.1-2.4l-0.5,0.5C304.6,116,302.4,117.6,298.7,117.6z M301.3,105.2c-2.8,0-4.7,1.6-4.7,4c0,2.2,1.6,3.9,3.9,3.9
				c2.3,0,4.4-1.8,4.9-2.8l0.1-0.1v-4l-0.3-0.1C305.1,106,303.3,105.2,301.3,105.2z"/>
			<path d="M302.1,92c7.5,0,9,3.7,9,10.2v14c0,0.1-0.1,0.2-0.2,0.2l-2.4,0c0,0-0.1-0.1-0.2-0.3l-0.8-1.7l-0.6-1.3l-1,0.9
				c-1.7,1.5-3.8,3-7.2,3c-4.8,0-7.8-3-7.8-7.8c0-4.3,3.7-7.1,9.4-7.1c2.4,0,4.4,0.7,4.4,0.7l1.3,0.4l0-1.4c0-2.1-0.3-3.5-1.2-4.4
				c-0.7-0.7-1.8-1.1-3.2-1.1c-2.5,0-6,0.5-7.5,1c-0.1,0-0.1,0-0.1,0c0,0-0.1-0.2-0.1-0.4l-0.6-3.4c-0.1-0.3,0-0.4,0.3-0.5
				C294.2,92.9,298.2,92,302.1,92 M300.5,113.6c2.5,0,4.8-2,5.4-3.1l0.1-0.2v-0.2v-3.5v-0.7l-0.6-0.3c-0.1,0-2-0.9-4-0.9
				c-3.1,0-5.2,1.8-5.2,4.5C296.1,111.7,298,113.6,300.5,113.6 M302.1,91c-4.2,0-8.3,1-8.8,1.2c-0.6,0.2-1.1,0.6-0.9,1.6l0.6,3.4
				c0.1,0.7,0.4,1.2,1.1,1.2c0.1,0,0.3,0,0.4-0.1c1.5-0.5,4.9-1,7.3-1c2.4,0,3.4,1.2,3.4,4.5c0,0-2.1-0.7-4.7-0.7
				c-6.6,0-10.4,3.5-10.4,8.1c0,5.5,3.6,8.8,8.8,8.8c4,0,6.4-1.9,7.9-3.3l0.8,1.7c0.3,0.7,0.6,0.9,1.1,0.9h2.3
				c0.6,0,1.2-0.6,1.2-1.2v-14C312.1,95.1,310.2,91,302.1,91L302.1,91z M300.5,112.6c-2,0-3.4-1.4-3.4-3.4c0-2.1,1.7-3.5,4.2-3.5
				c1.9,0,3.6,0.8,3.6,0.8v3.5C304.6,110.8,302.6,112.6,300.5,112.6L300.5,112.6z"/>
		</g>
		<g id="N">
			<path class="st2" d="M281.1,117.6L254,87.9h-0.7l-0.1,0.5v27.7c0,0.3-0.3,0.7-0.7,0.7h-5.9c-0.4,0-0.7-0.4-0.7-0.7V72.8
				c0-0.4,0.3-0.7,0.7-0.7h1.4l27,28.5h0.7l0.1-0.5V73.5c0-0.3,0.3-0.7,0.7-0.7h6c0.4,0,0.7,0.4,0.7,0.7v43.4c0,0.4-0.3,0.7-0.7,0.7
				H281.1z"/>
			<path d="M247.7,72.6l26.7,28.2l0.3,0.3h0.4h0.1h1v-1V73.5c0-0.1,0.1-0.2,0.2-0.2h6c0.1,0,0.2,0.1,0.2,0.2v43.4
				c0,0.1-0.1,0.2-0.2,0.2h-1.1l-26.8-29.3l-0.3-0.3h-0.4h-0.1h-1v1v27.7c0,0.1-0.1,0.2-0.2,0.2h-5.9c-0.1,0-0.2-0.1-0.2-0.2V72.8
				c0-0.1,0.1-0.2,0.2-0.2H247.7 M248.2,71.6h-1.6c-0.6,0-1.2,0.5-1.2,1.2v43.4c0,0.6,0.6,1.2,1.2,1.2h5.9c0.7,0,1.2-0.6,1.2-1.2
				V88.4h0.1l27.1,29.6h1.6c0.6,0,1.2-0.5,1.2-1.2V73.5c0-0.6-0.6-1.2-1.2-1.2h-6c-0.7,0-1.2,0.6-1.2,1.2v26.6h-0.1L248.2,71.6
				L248.2,71.6z"/>
		</g>
		<g id="t_00000095323768733499786200000008251638111262445220_">
			<path class="st2" d="M215.1,117.6c-4.5,0-6.7-2.6-6.7-7.8V97.9h-2.7c-0.4,0-0.7-0.3-0.7-0.7v-4.3c0-0.4,0.3-0.7,0.7-0.7h2.7v-7.7
				c0-0.4,0.4-0.7,0.7-0.7l5.3-0.1c0.4,0,0.7,0.3,0.7,0.7v7.7h6.2c0.4,0,0.7,0.3,0.7,0.7v4.3c0,0.3-0.3,0.7-0.7,0.7h-6.2v10.8
				c0,2.6,1.9,2.6,2.5,2.6c0.9,0,2-0.2,3.4-0.7c0.1,0,0.2-0.1,0.3-0.1c0.1,0,0.3,0,0.5,0.4l1.3,4.1c0.1,0.2,0.1,0.4,0,0.5
				c-0.1,0.2-0.2,0.3-0.4,0.4C222.2,116.1,218.1,117.6,215.1,117.6z"/>
			<path d="M214.5,84.1c0.1,0,0.2,0.1,0.2,0.2v7.2v1h1h5.7c0.2,0,0.2,0.1,0.2,0.2v4.3c0,0.1-0.1,0.2-0.2,0.2h-5.7h-1v1v10.3
				c0,1.4,0.5,3.1,3,3.1c0.9,0,2.1-0.3,3.5-0.8c0,0,0.1,0,0.1,0c0,0,0,0.1,0,0.1l1.3,4.1l0,0l0,0c0,0.1,0,0.1,0,0.1
				c0,0-0.1,0.1-0.2,0.1l0,0l-0.1,0c-0.5,0.2-4.4,1.6-7.3,1.6c-4.2,0-6.2-2.4-6.2-7.3V98.4v-1h-1h-2.2c-0.1,0-0.2-0.1-0.2-0.2v-4.3
				c0-0.1,0-0.2,0.2-0.2h2.2h1v-1v-7.2c0-0.1,0.1-0.2,0.2-0.2L214.5,84.1 M214.5,83.1l-5.3,0.1c-0.6,0-1.2,0.6-1.2,1.2v7.2h-2.2
				c-0.6,0-1.2,0.5-1.2,1.2v4.3c0,0.6,0.5,1.2,1.2,1.2h2.2v11.4c0,5.2,2.2,8.3,7.2,8.3c3.2,0,7.4-1.5,7.7-1.7c0.6-0.3,1-0.9,0.7-1.5
				l-1.3-4.1c-0.1-0.5-0.5-0.8-1-0.8c-0.1,0-0.3,0-0.5,0.1c-0.7,0.3-2.1,0.7-3.2,0.7c-1,0-2-0.3-2-2.1V98.4h5.7
				c0.7,0,1.2-0.6,1.2-1.2v-4.3c0-0.7-0.5-1.2-1.2-1.2h-5.7v-7.2C215.6,83.7,215.1,83.1,214.5,83.1L214.5,83.1z"/>
		</g>
		<g id="r_00000174567060704171849900000011758973384476704417_">
			<path class="st2" d="M185.6,116.9c-0.4,0-0.7-0.4-0.7-0.7V92.8c0-0.4,0.4-0.7,0.7-0.7h2.5c0.2,0,0.5,0.1,0.7,0.5L190,96l0.6-0.8
				c0.8-1.1,3.1-3.8,6.9-3.8c2.5,0,4.2,0.6,4.5,1.2c0.1,0.1,0.2,0.3,0,0.6l-2.4,4.2c-0.1,0.3-0.4,0.4-0.6,0.4c-0.1,0-0.1,0-0.2,0
				c-0.6-0.2-1.5-0.4-2.1-0.4c-2.8,0-4.5,1.9-5.1,2.9l-0.1,0.1v15.7c0,0.4-0.1,0.7-1,0.7H185.6z"/>
			<path d="M197.5,92c2.7,0,4.1,0.8,4.1,1c0,0,0,0,0,0.1l-2.4,4.2c-0.1,0.1-0.2,0.2-0.2,0.2l-0.1,0l-0.1,0c-0.6-0.2-1.5-0.4-2.2-0.4
				c-3.1,0-4.9,2.1-5.5,3.2l-0.1,0.2v0.2v15.6c0,0.1,0,0.1,0,0.2c0,0-0.2,0.1-0.5,0.1h-5c-0.1,0-0.2-0.1-0.2-0.2V92.8
				c0-0.2,0.1-0.2,0.2-0.2h2.5c0.1,0,0.2,0,0.2,0.2l0.9,2.5l0.7,1.8l1.1-1.6C191.8,94.5,193.9,92,197.5,92 M197.5,91
				c-4,0-6.4,2.7-7.3,4l-0.9-2.5c-0.2-0.5-0.6-0.8-1.2-0.8h-2.5c-0.6,0-1.2,0.5-1.2,1.2v23.4c0,0.6,0.6,1.2,1.2,1.2h5
				c0.9,0,1.5-0.3,1.5-1.2v-15.6c0.5-0.9,2-2.6,4.6-2.6c0.7,0,1.7,0.3,1.9,0.4c0.1,0.1,0.3,0.1,0.4,0.1c0.4,0,0.8-0.3,1.1-0.7
				l2.4-4.2C203.3,91.9,200.6,91,197.5,91L197.5,91z"/>
		</g>
		<g id="u">
			<path class="st2" d="M162.3,117.6c-9.5,0-10.5-8.5-10.5-12.2V92.8c0-0.4,0.4-0.7,0.7-0.7h5.3c0.4,0,0.7,0.3,0.7,0.7v12.7
				c0,3.7,2,6,5.2,6c3,0,5.3-2.7,5.7-5.3l0-13.5c0-0.6,0-0.7,0.9-0.7h4.9c0.4,0,0.7,0.3,0.7,0.7v23.4c0,0.4-0.4,0.7-0.7,0.7H173
				c-0.3,0-0.6-0.2-0.8-0.6l-1-2.8l-0.5,0.5c-0.1,0.1-0.2,0.2-0.4,0.3C169,115.4,166.7,117.6,162.3,117.6z"/>
			<path d="M175.4,92.6c0.1,0,0.2,0.1,0.2,0.2v23.4c0,0.1-0.1,0.2-0.2,0.2H173c-0.1,0-0.2,0-0.3-0.3l-0.8-2.1l-0.5-1.4l-1.1,1
				c-0.1,0.1-0.2,0.2-0.4,0.3c-1.3,1.2-3.4,3.1-7.7,3.1c-9,0-10-8.2-10-11.7V92.8c0-0.2,0.1-0.2,0.2-0.2h5.3c0.1,0,0.2,0.1,0.2,0.2
				v12.7c0,4,2.2,6.5,5.7,6.5c3.3,0,5.7-2.9,6.2-5.7l0-0.1v-0.1V92.8c0-0.1,0-0.2,0-0.2c0.1,0,0.2,0,0.4,0H175.4 M175.4,91.6h-4.9
				c-1,0-1.4,0.3-1.4,1.2v13.4c-0.4,2.3-2.5,4.8-5.2,4.8c-3,0-4.7-2.1-4.7-5.5V92.8c0-0.7-0.6-1.2-1.2-1.2h-5.3
				c-0.6,0-1.2,0.5-1.2,1.2v12.5c0,6.6,2.9,12.7,11,12.7c5.1,0,7.5-2.7,8.7-3.7l0.8,2.1c0.2,0.5,0.6,1,1.2,1h2.4
				c0.6,0,1.2-0.6,1.2-1.2V92.8C176.6,92.1,176,91.6,175.4,91.6L175.4,91.6z"/>
		</g>
		<g id="C">
			<path class="st2" d="M130.8,117.6c-12.6,0-22.9-10.2-22.9-22.7c0-12.6,10.3-22.8,22.9-22.8c6.1,0,10.8,1.8,15.4,5.9
				c0.2,0.2,0.3,0.3,0.3,0.5c0,0.2-0.1,0.4-0.2,0.5l-4,4.1c-0.1,0.2-0.3,0.2-0.4,0.2c-0.2,0-0.3-0.1-0.5-0.2c-2.9-2.5-6.6-4-10.4-4
				c-8.4,0-15,6.8-15,15.5c0,8.6,6.6,15.4,15,15.4c3.7,0,7.1-1.3,10.2-3.8c0.2-0.2,0.4-0.2,0.5-0.2c0.2,0,0.3,0.1,0.4,0.2l4,4.1
				c0.1,0.1,0.2,0.2,0.2,0.4c0,0.2-0.1,0.5-0.3,0.6C142.1,115.4,136.8,117.6,130.8,117.6z"/>
			<path d="M130.8,72.6c5.9,0,10.6,1.8,15.1,5.7c0,0,0.1,0.1,0.1,0.2c0,0.1,0,0.1-0.1,0.2l-4,4.1l0,0l0,0c0,0,0,0,0,0
				c0,0-0.1,0-0.1-0.1l0,0l0,0c-2.9-2.6-6.8-4.1-10.7-4.1c-8.7,0-15.5,7-15.5,16c0,8.9,6.8,15.9,15.5,15.9c3.8,0,7.3-1.3,10.6-3.9
				c0.1,0,0.1-0.1,0.2-0.1c0,0,0.1,0,0.1,0c0,0,0,0,0,0l4,4.1l0,0l0,0c0,0,0,0.2-0.1,0.3c-4.1,3.9-9.3,6-15.1,6
				c-6,0-11.7-2.3-15.9-6.5c-4.2-4.2-6.6-9.7-6.6-15.7C108.4,82.6,118.5,72.6,130.8,72.6 M130.8,71.6c-13,0-23.4,10.4-23.4,23.3
				s10.5,23.2,23.4,23.2c5.8,0,11.4-2,15.8-6.3c0.5-0.5,0.6-1.3,0.1-1.7l-4-4.1c-0.2-0.2-0.5-0.3-0.8-0.3c-0.3,0-0.6,0.1-0.8,0.3
				c-2.7,2.2-6,3.7-9.9,3.7c-8.3,0-14.5-6.8-14.5-14.9c0-8.1,6.2-15,14.5-15c3.6,0,7.3,1.4,10,3.8c0.3,0.3,0.6,0.4,0.8,0.4
				s0.6-0.1,0.8-0.4l4-4.1c0.5-0.5,0.5-1.3-0.1-1.8C142.1,73.7,137.4,71.6,130.8,71.6L130.8,71.6z"/>
		</g>
	</g>
	<g id="Lead_Pastor">
		<g id=":_00000028288361547186857830000004668695620178668446_">
			<path d="M339.4,42.9c-1.7,0-3.1-1.3-3.1-3.1s1.4-3.1,3.1-3.1c1.7,0,3.1,1.3,3.1,3.1S341.1,42.9,339.4,42.9z M339.4,29.2
				c-1.7,0-3.1-1.3-3.1-3.1s1.4-3.1,3.1-3.1c1.7,0,3.1,1.3,3.1,3.1S341.1,29.2,339.4,29.2z"/>
			<path d="M339.4,23.6c1.5,0,2.6,1.1,2.6,2.6s-1.1,2.6-2.6,2.6c-1.5,0-2.6-1.1-2.6-2.6S337.9,23.6,339.4,23.6 M339.4,37.3
				c1.5,0,2.6,1.1,2.6,2.6s-1.1,2.6-2.6,2.6c-1.5,0-2.6-1.1-2.6-2.6S337.9,37.3,339.4,37.3 M339.4,22.6c-2,0-3.6,1.6-3.6,3.6
				s1.6,3.6,3.6,3.6c2,0,3.6-1.6,3.6-3.6S341.4,22.6,339.4,22.6L339.4,22.6z M339.4,36.3c-2,0-3.6,1.6-3.6,3.6s1.6,3.6,3.6,3.6
				c2,0,3.6-1.6,3.6-3.6S341.4,36.3,339.4,36.3L339.4,36.3z"/>
		</g>
		<g id="r_00000061454662081984600920000007666128079691793587_">
			<path d="M319.6,42.4c-0.2,0-0.4-0.2-0.4-0.4V24c0-0.3,0.2-0.4,0.4-0.4h1.9c0.2,0,0.3,0,0.4,0.3l1,2.8l0.6-0.8
				c0.6-0.9,2.3-2.9,5.2-2.9c1.8,0,3.1,0.5,3.4,0.9c0.1,0.1,0.1,0.2,0,0.4l-1.8,3.2c-0.1,0.2-0.2,0.3-0.4,0.3c0,0-0.1,0-0.1,0
				c-0.4-0.1-1.1-0.4-1.7-0.4c-2.2,0-3.6,1.5-4,2.3l-0.1,0.1V42c0,0.2,0,0.4-0.6,0.4H319.6z"/>
			<path d="M328.7,23.6c1.6,0,2.6,0.4,2.9,0.6l-1.8,3.1c-0.5-0.2-1.2-0.3-1.7-0.3c-2.5,0-4,1.7-4.4,2.6l-0.1,0.2V30v11.9
				c0,0-0.1,0-0.1,0l-3.8,0V24.1l1.8,0l0.7,1.9l0.7,1.8l1.1-1.6C324.5,25.4,326.1,23.6,328.7,23.6 M328.7,22.6
				c-3.1,0-4.9,2.1-5.6,3.1l-0.7-1.9c-0.1-0.4-0.4-0.6-0.9-0.6h-1.9c-0.5,0-0.9,0.4-0.9,0.9v18c0,0.5,0.4,0.9,0.9,0.9h3.8
				c0.7,0,1.1-0.2,1.1-0.9V30c0.3-0.7,1.5-2,3.5-2c0.5,0,1.3,0.2,1.4,0.3c0.1,0.1,0.2,0.1,0.3,0.1c0.3,0,0.6-0.2,0.8-0.5l1.8-3.2
				C333.2,23.3,331.1,22.6,328.7,22.6L328.7,22.6z"/>
		</g>
		<g id="o_00000055666000300687663700000006930051964736112784_">
			<path d="M304,42.9c-5.4,0-9.7-4.5-9.7-10c0-5.4,4.5-9.9,9.7-9.9c5.3,0,9.7,4.5,9.7,9.9C313.7,38.4,309.3,42.9,304,42.9z
				 M304,27.4c-3,0-5.3,2.4-5.3,5.5c0,3.1,2.3,5.6,5.3,5.6c2.9,0,5.3-2.5,5.3-5.6C309.3,29.9,306.9,27.4,304,27.4z"/>
			<path d="M304,23.6c5,0,9.2,4.3,9.2,9.4c0,5.2-4.1,9.5-9.2,9.5c-5.1,0-9.2-4.2-9.2-9.5C294.7,27.9,299,23.6,304,23.6 M304,39.1
				c3.2,0,5.8-2.7,5.8-6.1c0-3.3-2.6-6-5.8-6c-3.2,0-5.8,2.6-5.8,6C298.2,36.4,300.7,39.1,304,39.1 M304,22.6
				c-5.6,0-10.2,4.8-10.2,10.4c0,5.7,4.6,10.5,10.2,10.5s10.2-4.8,10.2-10.5C314.2,27.3,309.6,22.6,304,22.6L304,22.6z M304,38.1
				c-2.7,0-4.8-2.3-4.8-5.1c0-2.8,2.1-5,4.8-5c2.6,0,4.8,2.2,4.8,5C308.8,35.8,306.6,38.1,304,38.1L304,38.1z"/>
		</g>
		<g id="t_00000114053367244984387370000005336131698148278427_">
			<path d="M284.7,42.9c-3.4,0-5-1.9-5-5.9v-9.2h-2.2c-0.2,0-0.4-0.2-0.4-0.4V24c0-0.3,0.2-0.4,0.4-0.4h2.2v-6
				c0-0.2,0.2-0.4,0.4-0.4l4.1,0c0.2,0,0.4,0.2,0.4,0.4v6.1h4.9c0.3,0,0.4,0.2,0.4,0.4v3.3c0,0.2-0.2,0.4-0.4,0.4h-4.9v8.4
				c0,2.1,1.5,2.1,2,2.1c0.7,0,1.6-0.2,2.6-0.6c0.1,0,0.1,0,0.2,0c0.1,0,0.2,0,0.3,0.3l1,3.1c0.1,0.1,0.1,0.2,0,0.3
				c0,0.1-0.1,0.2-0.3,0.2C290.1,41.8,286.9,42.9,284.7,42.9z"/>
			<path d="M284.1,17.6v5.5v1h1l4.3,0v3.2h-4.3h-1v1v7.9c0,1,0.3,2.6,2.5,2.6c0.7,0,1.6-0.2,2.6-0.6l0.9,3l0,0l0,0
				c-0.4,0.2-3.3,1.2-5.5,1.2c-2,0-4.5-0.6-4.5-5.4v-8.7v-1h-1h-1.6l0-3.2h1.6h1v-1v-5.5L284.1,17.6 M284.2,16.6l-4.1,0
				c-0.5,0-0.9,0.4-0.9,0.9v5.5h-1.7c-0.5,0-0.9,0.4-0.9,0.9v3.3c0,0.5,0.4,0.9,0.9,0.9h1.7V37c0,4,1.7,6.4,5.5,6.4
				c2.4,0,5.7-1.1,5.9-1.3c0.5-0.2,0.7-0.7,0.5-1.2l-1-3.1c-0.1-0.4-0.4-0.6-0.7-0.6c-0.1,0-0.2,0-0.4,0.1c-0.5,0.2-1.6,0.5-2.4,0.5
				c-0.8,0-1.5-0.2-1.5-1.6v-7.9h4.4c0.5,0,0.9-0.4,0.9-0.9V24c0-0.5-0.4-0.9-0.9-0.9h-4.4v-5.6C285.1,17,284.7,16.6,284.2,16.6
				L284.2,16.6z"/>
		</g>
		<g id="s_00000009589109487543663160000007635359058015029637_">
			<path d="M265.7,42.9c-3,0-5.2-0.9-6.3-1.7c0,0-0.2-0.2-0.2-0.4l1.3-2.7c0.1-0.2,0.2-0.2,0.2-0.2c0.1,0,0.2,0,0.2,0.1
				c0.1,0.1,2.4,1.3,4.8,1.3c1.4,0,2.2-0.7,2.2-1.7c0-1.3-1.1-1.9-3.7-2.9c-3.7-1.4-5.3-3.3-5.3-6.1c0-2.6,1.8-5.4,6.8-5.4
				c2.7,0,4.8,0.8,5.9,1.5c0.2,0.2,0.4,0.4,0.3,0.7l-1.2,2.5c0,0.1-0.2,0.1-0.3,0.1c-0.1,0-0.2,0-0.2,0c-0.1,0-2.3-1.1-4.3-1.1
				c-1.6,0-2.2,0.8-2.2,1.6c0,1.2,1,1.6,2.7,2.3l0.4,0.1c4.1,1.6,6.4,3.2,6.4,6.5C273.2,40.6,270.1,42.9,265.7,42.9z"/>
			<path d="M265.9,23.6c2.6,0,4.6,0.7,5.6,1.4c0.1,0,0.1,0.1,0.1,0.1l-1.2,2.4c0,0,0,0,0,0c-0.4-0.2-2.6-1.1-4.5-1.1
				c-2,0-2.7,1.2-2.7,2.1c0,1.5,1.3,2,3,2.7l0.4,0.1c4,1.5,6.1,3,6.1,6.1c0,3-2.9,5.1-6.9,5.1c-3.6,0-5.6-1.3-6-1.6l1.2-2.4
				c0.6,0.3,2.7,1.2,4.9,1.2c2,0,2.7-1.2,2.7-2.2c0-1.7-1.6-2.5-4-3.4c-3.5-1.4-5-3-5-5.6C259.5,26.1,261.2,23.6,265.9,23.6
				 M265.9,22.6c-5.1,0-7.3,2.8-7.3,5.9c0,3,1.8,5.1,5.6,6.5c2.6,1,3.3,1.6,3.3,2.5c0,0.8-0.7,1.2-1.7,1.2c-2.3,0-4.5-1.2-4.5-1.2
				c-0.2-0.1-0.3-0.1-0.5-0.1c-0.3,0-0.5,0.2-0.7,0.5l-1.3,2.7c-0.2,0.4,0,0.8,0.3,1c1,0.8,3.3,1.8,6.6,1.8c5,0,7.9-2.8,7.9-6.1
				c0-3.9-2.9-5.5-6.7-7c-1.8-0.7-2.7-1-2.7-1.9c0-0.6,0.5-1.1,1.7-1.1c1.9,0,4.1,1,4.1,1c0.1,0,0.3,0.1,0.4,0.1
				c0.3,0,0.6-0.1,0.8-0.4l1.2-2.5c0.2-0.5,0-1-0.4-1.3C271,23.4,268.8,22.6,265.9,22.6L265.9,22.6z"/>
		</g>
		<g id="a_00000113319185072114226570000016056901608244943008_">
			<path d="M243.8,42.9c-3.8,0-6.2-2.5-6.2-6.3c0-3.5,2.9-5.8,7.5-5.8c1.9,0,3.5,0.5,3.5,0.5l0.6,0.2l0-0.7c0-1.5-0.2-2.5-0.9-3.2
				c-0.5-0.5-1.2-0.8-2.2-0.8c-1.9,0-4.5,0.4-5.7,0.8c-0.1,0-0.1,0-0.2,0c-0.2,0-0.3-0.2-0.3-0.5l-0.5-2.6c-0.1-0.4,0-0.6,0.4-0.7
				c0.4-0.2,3.6-0.9,6.6-0.9c6,0,7.2,3.1,7.2,8.1V42c0,0.2-0.2,0.4-0.4,0.4h-1.8c-0.1,0-0.2,0-0.4-0.4l-0.9-2l-0.5,0.5
				C248.3,41.7,246.6,42.9,243.8,42.9z M245.8,33.4c-2.2,0-3.7,1.3-3.7,3.2c0,1.8,1.3,3.1,3.1,3.1c1.8,0,3.5-1.5,3.9-2.2l0.1-0.1
				v-3.2l-0.3-0.1C248.8,34.1,247.4,33.4,245.8,33.4z"/>
			<path d="M246.4,23.6c5,0,6.7,1.9,6.7,7.6v10.7l-1.6,0c0,0,0-0.1-0.1-0.1l-0.6-1.3l-0.6-1.3l-1,0.9c-1.2,1.1-2.8,2.3-5.4,2.3
				c-3.5,0-5.7-2.2-5.7-5.8c0-3.2,2.7-5.3,7-5.3c1.8,0,3.3,0.5,3.3,0.5l1.3,0.4l0-1.4c0-1.7-0.3-2.8-1-3.5c-0.6-0.6-1.5-0.9-2.6-0.9
				c-1.9,0-4.4,0.4-5.7,0.7c0,0,0,0,0-0.1l-0.5-2.6c0,0,0-0.1,0-0.1c0,0,0,0,0.1,0C240.4,24.3,243.5,23.6,246.4,23.6 M245.2,40.2
				c2,0,3.9-1.6,4.3-2.5l0.1-0.2v-0.2v-2.7v-0.7l-0.6-0.3c-0.1,0-1.6-0.7-3.2-0.7c-2.5,0-4.2,1.5-4.2,3.7
				C241.6,38.7,243.1,40.2,245.2,40.2 M246.4,22.6c-3.2,0-6.4,0.8-6.8,0.9c-0.4,0.1-0.8,0.5-0.7,1.2l0.4,2.6
				c0.1,0.5,0.3,0.9,0.8,0.9c0.1,0,0.2,0,0.3,0c1.1-0.3,3.7-0.7,5.6-0.7c1.8,0,2.6,0.9,2.6,3.4c0,0-1.6-0.5-3.6-0.5
				c-5.1,0-8,2.7-8,6.3c0,4.2,2.7,6.8,6.7,6.8c3.1,0,4.9-1.5,6.1-2.5l0.6,1.3c0.2,0.5,0.5,0.7,0.8,0.7h1.8c0.5,0,0.9-0.4,0.9-0.9
				V31.2C254.1,25.8,252.7,22.6,246.4,22.6L246.4,22.6z M245.2,39.2c-1.5,0-2.6-1.1-2.6-2.6c0-1.6,1.3-2.7,3.2-2.7
				c1.4,0,2.8,0.6,2.8,0.6v2.7C248.3,37.9,246.8,39.2,245.2,39.2L245.2,39.2z"/>
		</g>
		<g id="P_00000011008524448455227100000007388706182428520101_">
			<path d="M213.1,42.4c-0.3,0-0.4-0.2-0.4-0.4V9.1c0-0.2,0.2-0.4,0.4-0.4h11.7c5.9,0,10.7,4.7,10.7,10.5c0,5.9-4.8,10.7-10.6,10.7
				h-6.7V42c0,0.2-0.2,0.4-0.4,0.4H213.1z M218.2,24.8h6.3c3.1,0,5.6-2.5,5.6-5.7c0-2.9-2.5-5.3-5.6-5.3h-6.3V24.8z"/>
			<path d="M224.9,9.2c5.6,0,10.2,4.5,10.2,10c0,5.6-4.5,10.2-10.1,10.2h-6.2h-1v1v11.6h-4.5V9.2H224.9 M217.7,25.3h1h5.8
				c3.4,0,6.1-2.8,6.1-6.2c0-3.2-2.8-5.8-6.1-5.8h-5.8h-1v1v10V25.3 M224.9,8.2h-11.7c-0.5,0-0.9,0.4-0.9,0.9V42
				c0,0.5,0.4,0.9,0.9,0.9h4.6c0.5,0,0.9-0.4,0.9-0.9V30.3h6.2c6.1,0,11.1-5,11.1-11.2C236.1,13.1,231,8.2,224.9,8.2L224.9,8.2z
				 M218.7,24.3v-10h5.8c2.8,0,5.1,2.1,5.1,4.8c0,2.9-2.3,5.2-5.1,5.2H218.7L218.7,24.3z"/>
		</g>
		<g id="d_00000169528664921338376990000012487640253060203395_">
			<path d="M182.7,42.9c-5.1,0-9.1-4.4-9.1-9.9c0-5.7,3.9-9.9,9.4-9.9c1.8,0,3.2,0.5,4.3,0.9l0.7,0.3V9.1c0-0.2,0.2-0.4,0.4-0.4h4.2
				c0.2,0,0.4,0.2,0.4,0.4V42c0,0.2-0.2,0.4-0.4,0.4h-1.9c-0.2,0-0.4-0.2-0.5-0.6l-0.8-2.4l-0.6,0.7
				C188.8,40.2,186.6,42.9,182.7,42.9z M183.8,27.4c-3,0-5.3,2.4-5.3,5.6s2.2,5.6,5,5.6c2.7,0,4.2-1.9,4.7-3.6l0-0.1v-6.1l-0.2-0.1
				C187.9,28.6,186.4,27.4,183.8,27.4z"/>
			<path d="M192.6,9.2v32.7h-1.8c0,0-0.1-0.1-0.1-0.3l-0.5-1.5l-0.6-1.8l-1.2,1.4c-0.1,0.1-2.1,2.6-5.8,2.6c-4.8,0-8.6-4.1-8.6-9.4
				c0-5.5,3.7-9.4,8.9-9.4c1.7,0,3.1,0.4,4.1,0.8l1.4,0.5v-1.5V9.2H192.6 M183.5,39.1c2.9,0,4.6-2.1,5.2-3.9l0-0.1v-0.1v-5.8v-0.5
				l-0.4-0.3c-0.1-0.1-1.7-1.4-4.5-1.4c-3.3,0-5.8,2.7-5.8,6.1C177.9,36.4,180.4,39.1,183.5,39.1 M192.7,8.2h-4.2
				c-0.5,0-0.9,0.4-0.9,0.9v14.3c-0.9-0.3-2.4-0.9-4.4-0.9c-5.9,0-9.9,4.6-9.9,10.4c0,5.7,4.1,10.4,9.6,10.4c4.2,0,6.5-3,6.5-3
				l0.5,1.5c0.1,0.5,0.5,0.9,0.9,0.9h1.9c0.5,0,0.9-0.4,0.9-0.9V9.1C193.6,8.6,193.2,8.2,192.7,8.2L192.7,8.2z M183.5,38.1
				c-2.6,0-4.5-2.3-4.5-5.1c0-2.8,2-5.1,4.8-5.1c2.5,0,3.9,1.1,3.9,1.1v5.8C187.3,36,186.1,38.1,183.5,38.1L183.5,38.1z"/>
		</g>
		<g id="a_00000025443133451646044600000014000044639356431781_">
			<path d="M158.6,42.9c-3.8,0-6.2-2.5-6.2-6.3c0-3.5,2.9-5.8,7.5-5.8c1.9,0,3.5,0.5,3.5,0.5l0.6,0.2l0-0.7c0-1.5-0.2-2.5-0.9-3.2
				c-0.5-0.5-1.2-0.8-2.2-0.8c-1.9,0-4.5,0.4-5.7,0.8c-0.1,0-0.1,0-0.2,0c-0.2,0-0.3-0.2-0.3-0.5l-0.5-2.6c-0.1-0.4,0-0.6,0.4-0.7
				c0.4-0.2,3.6-0.9,6.6-0.9c6,0,7.2,3.1,7.2,8.1V42c0,0.2-0.2,0.4-0.4,0.4h-1.8c-0.1,0-0.2,0-0.4-0.4l-0.9-2l-0.5,0.5
				C163,41.7,161.3,42.9,158.6,42.9z M160.6,33.4c-2.2,0-3.7,1.3-3.7,3.2c0,1.8,1.3,3.1,3.1,3.1c1.8,0,3.5-1.5,3.9-2.2l0.1-0.1v-3.2
				l-0.3-0.1C163.5,34.1,162.1,33.4,160.6,33.4z"/>
			<path d="M161.2,23.6c5,0,6.7,1.9,6.7,7.6v10.7l-1.6,0c0,0,0-0.1-0.1-0.1l-0.6-1.3l-0.6-1.3l-1,0.9c-1.2,1.1-2.8,2.3-5.4,2.3
				c-3.5,0-5.7-2.2-5.7-5.8c0-3.2,2.7-5.3,7-5.3c1.8,0,3.3,0.5,3.3,0.5l1.3,0.4l0-1.4c0-1.7-0.3-2.8-1-3.5c-0.6-0.6-1.5-0.9-2.6-0.9
				c-1.9,0-4.4,0.4-5.7,0.7c0,0,0,0,0-0.1l-0.5-2.6c0,0,0-0.1,0-0.1c0,0,0,0,0.1,0C155.2,24.3,158.2,23.6,161.2,23.6 M159.9,40.2
				c2,0,3.9-1.6,4.3-2.5l0.1-0.2v-0.2v-2.7v-0.7l-0.6-0.3c-0.1,0-1.6-0.7-3.2-0.7c-2.5,0-4.2,1.5-4.2,3.7
				C156.3,38.7,157.9,40.2,159.9,40.2 M161.2,22.6c-3.2,0-6.4,0.8-6.8,0.9c-0.4,0.1-0.8,0.5-0.7,1.2l0.4,2.6
				c0.1,0.5,0.3,0.9,0.8,0.9c0.1,0,0.2,0,0.3,0c1.1-0.3,3.7-0.7,5.6-0.7c1.8,0,2.6,0.9,2.6,3.4c0,0-1.6-0.5-3.6-0.5
				c-5.1,0-8,2.7-8,6.3c0,4.2,2.7,6.8,6.7,6.8c3.1,0,4.9-1.5,6.1-2.5l0.6,1.3c0.2,0.5,0.5,0.7,0.8,0.7h1.8c0.5,0,0.9-0.4,0.9-0.9
				V31.2C168.9,25.8,167.4,22.6,161.2,22.6L161.2,22.6z M159.9,39.2c-1.5,0-2.6-1.1-2.6-2.6c0-1.6,1.3-2.7,3.2-2.7
				c1.4,0,2.8,0.6,2.8,0.6v2.7C163.1,37.9,161.5,39.2,159.9,39.2L159.9,39.2z"/>
		</g>
		<g id="e_00000087378644253423783240000016478341172738441133_">
			<path d="M139.8,42.9c-5.6,0-9.7-4.3-9.7-9.9c0-5.6,4.3-9.9,9.7-9.9c5,0,8.8,3.8,8.8,8.7c0,0.3,0,0.9-0.1,1.3
				c0,0.3-0.3,0.4-0.5,0.4h-13.3l0,0.5c0.2,2.3,2.2,4.8,5.3,4.8c1.5,0,3-0.5,4.2-1.3c0.2-0.1,0.4-0.2,0.5-0.2c0,0,0.1,0,0.2,0.1
				l2,2.3c0.1,0.1,0.2,0.2,0.2,0.3c0,0.1-0.1,0.2-0.2,0.2C145.9,41.3,143.6,42.9,139.8,42.9z M139.6,26.6c-2.2,0-4.1,1.6-4.4,3.8
				l-0.1,0.6h8.7l0-0.5C143.6,28.4,141.7,26.6,139.6,26.6z"/>
			<path d="M139.8,23.6c4.8,0,8.3,3.5,8.3,8.2c0,0.3,0,0.8-0.1,1.2h-12.7h-1.1l0.1,1.1c0.2,2.6,2.4,5.2,5.8,5.2
				c1.5,0,3.2-0.5,4.4-1.4c0,0,0.1,0,0.1-0.1l1.9,2.2c-1,0.9-3.2,2.4-6.7,2.4c-5.3,0-9.2-4-9.2-9.4
				C130.6,27.7,134.6,23.6,139.8,23.6 M134.6,31.5h1.1h7.5h1.1l-0.1-1.1c-0.2-2.4-2.3-4.3-4.6-4.3c-2.5,0-4.6,1.8-4.9,4.2
				L134.6,31.5 M139.8,22.6c-5.9,0-10.2,4.8-10.2,10.4c0,5.7,4.2,10.4,10.2,10.4c3.2,0,5.8-1.2,7.4-2.7c0.5-0.4,0.4-0.9,0-1.3
				l-2-2.3c-0.2-0.2-0.3-0.3-0.5-0.3c-0.2,0-0.5,0.1-0.8,0.3c-0.9,0.6-2.3,1.2-3.9,1.2c-2.9,0-4.6-2.3-4.8-4.3h12.8
				c0.4,0,0.9-0.3,0.9-0.8c0-0.3,0.1-1,0.1-1.3C149.1,26.4,144.9,22.6,139.8,22.6L139.8,22.6z M135.7,30.5c0.2-1.9,1.9-3.4,3.9-3.4
				c1.9,0,3.5,1.5,3.6,3.4H135.7L135.7,30.5z"/>
		</g>
		<g id="L">
			<path d="M108.4,42.4c-0.3,0-0.4-0.2-0.4-0.4V9.1c0-0.2,0.2-0.4,0.4-0.4h4.6c0.2,0,0.4,0.2,0.4,0.4v28.3h13.2
				c0.3,0,0.4,0.2,0.4,0.4V42c0,0.2-0.2,0.4-0.4,0.4H108.4z"/>
			<path d="M112.9,9.2V37v1h1h12.7v4h-18.2V9.2H112.9 M113,8.2h-4.6c-0.5,0-0.9,0.4-0.9,0.9V42c0,0.5,0.4,0.9,0.9,0.9h18.3
				c0.5,0,0.9-0.4,0.9-0.9v-4.1c0-0.5-0.4-0.9-0.9-0.9h-12.7V9.1C113.9,8.6,113.4,8.2,113,8.2L113,8.2z"/>
		</g>
	</g>
</g>
<g id="City_State_Zip">
	<path d="M44.7,464.4l17.1-36.7c0.2-0.3,0.4-0.6,0.9-0.6h0.5c0.5,0,0.8,0.3,0.9,0.6l16.9,36.7c0.3,0.7-0.1,1.4-0.9,1.4h-4.8
		c-0.8,0-1.2-0.3-1.6-1.1l-2.7-5.9H54.7l-2.7,5.9c-0.2,0.5-0.7,1.1-1.6,1.1h-4.8C44.8,465.8,44.4,465.1,44.7,464.4z M68.4,452.7
		l-5.5-12h-0.2l-5.4,12H68.4z"/>
	<path d="M79.9,445.3c-0.3-0.7-0.1-1.3,0.8-1.3h4.8c0.5,0,0.8,0.3,1,0.6l4.4,10.2c0.1,0,0.1,0,0.1,0l4.7-10.2
		c0.3-0.5,0.7-0.6,1.3-0.6h4.3c0.8,0,1.2,0.6,0.8,1.3L92,465.8c-0.2,0.3-0.4,0.5-0.9,0.5h-0.3c-0.5,0-0.8-0.3-0.9-0.5L79.9,445.3z"
		/>
	<path d="M115.3,443.4c6.2,0,11.3,5.2,11.3,11.4c0,6.3-5.1,11.5-11.3,11.5s-11.3-5.2-11.3-11.5C104.1,448.6,109.1,443.4,115.3,443.4
		z M115.3,460.4c2.9,0,5.3-2.5,5.3-5.6c0-3.1-2.4-5.5-5.3-5.5c-3,0-5.3,2.5-5.3,5.5C110.1,457.9,112.4,460.4,115.3,460.4z"/>
	<path d="M131.5,445c0-0.6,0.5-1,1-1h2.1c0.5,0,0.8,0.3,0.9,0.7l0.8,2c0.8-0.9,3.5-3.2,7.7-3.2c7,0,9.8,5.2,9.8,10.9v10.5
		c0,0.5-0.5,1-1,1h-4.5c-0.6,0-1-0.5-1-1v-10.8c0-2.8-1.5-4.6-4.1-4.6c-2.9,0-4.6,2-5.2,3.4v12c0,0.8-0.3,1-1.4,1h-4.1
		c-0.5,0-1-0.5-1-1V445z"/>
	<path d="M173.8,428.6c0-0.5,0.4-1,1-1h12.9c6.8,0,12.3,5.5,12.3,12.1c0,6.8-5.5,12.3-12.2,12.3H181v12.8c0,0.5-0.5,1-1,1h-5.1
		c-0.6,0-1-0.5-1-1V428.6z M187.4,445.3c3.1,0,5.7-2.5,5.7-5.7c0-3-2.6-5.3-5.7-5.3H181v11H187.4z"/>
	<path d="M210.1,452c2.2,0,4,0.6,4,0.6c0.1-2.8-0.8-3.8-2.9-3.8s-4.9,0.4-6.2,0.8c-0.8,0.2-1.2-0.3-1.3-1l-0.5-2.8
		c-0.2-0.8,0.3-1.2,0.8-1.4c0.4-0.2,4-1,7.5-1c6.9,0,8.5,3.5,8.5,9.5v11.8c0,0.5-0.5,1-1,1h-2c-0.4,0-0.7-0.2-0.9-0.8l-0.7-1.5
		c-1.3,1.1-3.3,2.8-6.7,2.8c-4.4,0-7.4-2.8-7.4-7.5C201.3,455,204.4,452,210.1,452z M210.2,461.7c1.8,0,3.5-1.5,3.8-2.1v-3
		c0,0-1.5-0.7-3.1-0.7c-2.1,0-3.6,1.2-3.6,2.9C207.3,460.5,208.5,461.7,210.2,461.7z"/>
	<path d="M226.3,445c0-0.6,0.5-1,1-1h2.1c0.5,0,0.8,0.3,1,0.7l0.8,2.1c0.8-1.1,2.8-3.4,6.2-3.4c2.6,0,4.9,0.8,4.2,2.2l-2,3.5
		c-0.3,0.5-0.8,0.7-1.3,0.5c-0.2-0.1-1-0.3-1.6-0.3c-2.2,0-3.5,1.5-3.9,2.2v13.2c0,0.8-0.5,1-1.3,1h-4.2c-0.5,0-1-0.5-1-1V445z"/>
	<path d="M245,428.6c0-0.5,0.5-1,1-1h4.7c0.5,0,1,0.5,1,1v23.6l7.6-7.6c0.4-0.3,0.8-0.7,1.4-0.7h5c0.9,0,1.3,1,0.7,1.6l-8.2,8.3
		l9.8,10.4c0.5,0.6,0.2,1.5-0.7,1.5h-5.9c-0.3,0-0.8-0.2-0.9-0.4l-8.7-9.8v9.2c0,0.5-0.5,1-1,1h-4.7c-0.5,0-1-0.5-1-1V428.6z"/>
	<path d="M275.4,457.4c2.4,0,5.5,1.7,5.5,7.1c0,6.7-4.2,10.5-6.3,11.8c-0.5,0.3-0.9,0.4-1.4-0.1l-0.8-0.9c-0.4-0.4-0.3-1,0.2-1.5
		c0.6-0.5,4.4-3.4,4.4-8c-0.1,0-0.9,0.4-2.1,0.4c-2.4,0-4.4-2-4.4-4.4C270.6,459.4,272.6,457.4,275.4,457.4z"/>
	<path d="M300,428.6c0-0.5,0.4-1,1-1h22.4c0.6,0,1,0.5,1,1v4.5c0,0.5-0.4,1-1,1h-16.3v10.3h13.6c0.5,0,1,0.5,1,1v4.5
		c0,0.5-0.5,1-1,1h-13.6v13.8c0,0.5-0.5,1-1,1H301c-0.6,0-1-0.5-1-1V428.6z"/>
	<path d="M328.5,428.6c0-0.5,0.5-1,1-1h4.6c0.5,0,1,0.5,1,1v36.1c0,0.5-0.5,1-1,1h-4.6c-0.5,0-1-0.5-1-1V428.6z"/>
	<path d="M351.3,443.4c6.2,0,11.3,5.2,11.3,11.4c0,6.3-5.1,11.5-11.3,11.5s-11.3-5.2-11.3-11.5C340.1,448.6,345.1,443.4,351.3,443.4
		z M351.3,460.4c2.9,0,5.3-2.5,5.3-5.6c0-3.1-2.4-5.5-5.3-5.5c-3,0-5.3,2.5-5.3,5.5C346.1,457.9,348.4,460.4,351.3,460.4z"/>
	<path d="M367.5,445c0-0.6,0.5-1,1-1h2.1c0.5,0,0.8,0.3,1,0.7l0.8,2.1c0.8-1.1,2.8-3.4,6.2-3.4c2.6,0,4.9,0.8,4.2,2.2l-2,3.5
		c-0.3,0.5-0.8,0.7-1.3,0.5c-0.2-0.1-1-0.3-1.6-0.3c-2.2,0-3.5,1.5-3.9,2.2v13.2c0,0.8-0.5,1-1.3,1h-4.2c-0.5,0-1-0.5-1-1V445z"/>
	<path d="M385.7,432.4c0-2.1,1.6-3.8,3.7-3.8c2.1,0,3.8,1.7,3.8,3.8c0,2.1-1.7,3.8-3.8,3.8C387.4,436.2,385.7,434.5,385.7,432.4z
		 M386.2,445c0-0.6,0.5-1,1-1h4.6c0.5,0,1,0.4,1,1v19.8c0,0.5-0.5,1-1,1h-4.6c-0.5,0-1-0.5-1-1V445z"/>
	<path d="M408.7,443.4c2.2,0,3.9,0.6,4.9,1v-15.8c0-0.5,0.5-1,1-1h4.7c0.5,0,1,0.5,1,1v36.1c0,0.5-0.5,1-1,1h-2.1
		c-0.5,0-0.9-0.4-1-1l-0.5-1.7c0,0-2.6,3.3-7.2,3.3c-6,0-10.5-5.2-10.5-11.5C397.8,448.5,402.2,443.4,408.7,443.4z M409.2,460.4
		c2.9,0,4.2-2.2,4.6-3.5v-6.3c0,0-1.5-1.3-4.3-1.3c-3.1,0-5.3,2.5-5.3,5.6C404.2,457.9,406.3,460.4,409.2,460.4z"/>
	<path d="M434.1,452c2.2,0,4,0.6,4,0.6c0.1-2.8-0.8-3.8-2.9-3.8s-4.9,0.4-6.2,0.8c-0.8,0.2-1.2-0.3-1.3-1l-0.5-2.8
		c-0.2-0.8,0.3-1.2,0.8-1.4c0.4-0.2,4-1,7.5-1c6.9,0,8.5,3.5,8.5,9.5v11.8c0,0.5-0.5,1-1,1h-2c-0.4,0-0.7-0.2-0.9-0.8l-0.7-1.5
		c-1.3,1.1-3.3,2.8-6.7,2.8c-4.4,0-7.4-2.8-7.4-7.5C425.3,455,428.5,452,434.1,452z M434.2,461.7c1.8,0,3.5-1.5,3.8-2.1v-3
		c0,0-1.5-0.7-3.1-0.7c-2.1,0-3.6,1.2-3.6,2.9C431.4,460.5,432.5,461.7,434.2,461.7z"/>
	<path d="M461.3,460.1l2.8-2.7c0.5-0.4,1-0.4,1.4,0c0.2,0.2,3.4,2.9,6.8,2.9c3,0,5.8-2.1,5.8-5.1c0-2.8-2.6-5.4-7.6-5.4h-3.1
		c-0.6,0-1-0.4-1-1.1v-3.4c0-0.7,0.4-1.1,1-1.1h3.1c4.5,0,6.8-2.2,6.8-5c0-3-2.5-5-5.3-5c-2.9,0-4.6,1.5-5.5,2.6
		c-0.4,0.4-1,0.5-1.5,0.1l-2.7-2.5c-0.4-0.4-0.4-1,0-1.4c0,0,4.2-4.8,10.3-4.8c6.4,0,11.7,3.9,11.7,10c0,4.2-3.2,7.4-5.7,8.5v0.2
		c2.6,1.1,6.6,4,6.6,8.9c0,6.2-5.1,10.6-12.6,10.6c-6.9,0-10.2-3.4-11.4-4.9C460.9,461.1,460.9,460.5,461.3,460.1z"/>
	<path d="M489.9,460.1l2.8-2.7c0.5-0.4,1-0.4,1.4,0c0.2,0.2,3.4,2.9,6.8,2.9c3,0,5.8-2.1,5.8-5.1c0-2.8-2.6-5.4-7.6-5.4h-3.1
		c-0.6,0-1-0.4-1-1.1v-3.4c0-0.7,0.4-1.1,1-1.1h3.1c4.5,0,6.8-2.2,6.8-5c0-3-2.5-5-5.3-5c-2.9,0-4.6,1.5-5.5,2.6
		c-0.4,0.4-1,0.5-1.5,0.1l-2.7-2.5c-0.4-0.4-0.4-1,0-1.4c0,0,4.2-4.8,10.3-4.8c6.4,0,11.7,3.9,11.7,10c0,4.2-3.2,7.4-5.7,8.5v0.2
		c2.6,1.1,6.6,4,6.6,8.9c0,6.2-5.1,10.6-12.6,10.6c-6.9,0-10.2-3.4-11.4-4.9C489.6,461.1,489.6,460.5,489.9,460.1z"/>
	<path d="M525.8,446.7v-0.2c-2.3-1.2-5.7-4.2-5.7-8.5c0-6.1,5.3-10,11.9-10c6.9,0,12.1,3.9,12.1,10c0,4.1-3.4,7.1-5.7,8.4v0.2
		c2.5,1.3,6.6,4.4,6.6,9.1c0,5.9-5.1,10.5-13.1,10.5c-7.9,0-12.9-4.5-12.9-10.5C519.2,451.1,524.3,447.5,525.8,446.7z M532.2,460.8
		c3,0,5.7-2,5.7-5c0-2.5-2-5-5.7-5.8c-3.7,0.8-5.7,3.3-5.7,5.8C526.5,458.7,529.2,460.8,532.2,460.8z M537.2,438.4
		c0-2.6-2.3-4.6-5.1-4.6c-2.6,0-4.9,2-4.9,4.6c0,2.5,1.5,4.4,5,5.2C535.6,442.8,537.2,440.7,537.2,438.4z"/>
	<path d="M549.4,463.5c3.6-4.4,10.5-13.3,14.2-18.2c1.7-2.1,2.8-4.2,2.8-6.1c0-2.5-1.9-5-5.8-5c-2.6,0-4.9,1.9-6.2,3.2
		c-0.4,0.4-1,0.4-1.5,0l-2.6-2.6c-0.3-0.3-0.4-1-0.1-1.4c0,0,4.3-5.3,10.8-5.3c7.9,0,12.2,5,12.2,10.9c0,3.5-1.5,5.8-3.7,8.8
		c-2.4,3.3-6.5,8.5-9.4,12.1h11.9c0.5,0,1,0.5,1,1v3.8c0,0.5-0.5,1-1,1h-21.6c-0.6,0-1-0.5-1-1V463.5z"/>
	<path d="M596.9,427.5c0.8-0.2,1.3,0.1,1.5,0.8l1.3,3.2c0.3,0.7,0.1,1.3-1,1.6c-2.6,0.8-10.4,4.5-12.1,10.5c0.9-0.5,3.7-1.5,6.3-1.5
		c5.5,0,11.2,4,11.2,11.8c0,6.9-5.7,12.5-12.4,12.5c-8.6,0-13.1-6.9-13.1-15.1C578.6,435.3,592.1,429,596.9,427.5z M597.8,453.7
		c0-3.5-2.8-6.4-6.3-6.4c-3.6,0-5.8,2.8-6.4,4.7c0,3.7,2,8,6.4,8C595,460.1,597.8,457.2,597.8,453.7z"/>
</g>
<g id="Address">
	<path d="M3.1,387.5l14.3-29.6H2.9c-0.5,0-1-0.5-1-1v-3.8c0-0.5,0.5-1,1-1h22.9c0.5,0,1,0.5,1,1v0.4l-16.4,34.2
		c-0.4,0.9-0.9,1.5-1.9,1.5H4.5c-0.7,0-1.4-0.2-1.4-1V387.5z"/>
	<path d="M29.9,370.6c0-12,5.1-19.1,13.8-19.1s13.8,7.1,13.8,19.1s-5.1,19.1-13.8,19.1S29.9,382.6,29.9,370.6z M50.4,370.6
		c0-8.1-2.4-12.7-6.6-12.7c-4.2,0-6.6,4.6-6.6,12.7c0,8.1,2.4,12.7,6.6,12.7C48,383.3,50.4,378.7,50.4,370.6z"/>
	<path d="M63.5,387.5l14.3-29.6H63.3c-0.5,0-1-0.5-1-1v-3.8c0-0.5,0.5-1,1-1h22.9c0.5,0,1,0.5,1,1v0.4l-16.4,34.2
		c-0.4,0.9-0.9,1.5-1.9,1.5h-4.1c-0.7,0-1.4-0.2-1.4-1V387.5z"/>
	<path d="M100.9,352.3c-0.2-0.8,0.2-1.3,1-1.3h5.1c0.4,0,0.9,0.4,1,0.8l5.7,21.8h0.2l8.7-22.5c0.1-0.3,0.4-0.6,0.9-0.6h1
		c0.5,0,0.8,0.3,0.9,0.6l8.8,22.5h0.2l5.6-21.8c0.1-0.4,0.5-0.8,1-0.8h5.1c0.8,0,1.2,0.5,1,1.3L136.8,389c-0.1,0.4-0.5,0.8-1,0.8
		h-0.9c-0.5,0-0.8-0.3-0.9-0.6l-9.8-24.7h-0.3l-9.7,24.7c-0.2,0.3-0.4,0.6-0.9,0.6h-0.9c-0.4,0-0.9-0.3-1-0.8L100.9,352.3z"/>
	<path d="M169.9,351.2c0.1-0.4,0.4-0.8,1-0.8h0.9c0.4,0,0.8,0.2,0.9,0.5l12.1,25.8c0.1,0,0.1,0,0.2,0L197,351
		c0.2-0.3,0.4-0.5,0.9-0.5h0.9c0.6,0,0.9,0.4,1,0.8l6.5,36.7c0.2,0.8-0.3,1.3-1,1.3h-5c-0.5,0-0.9-0.4-1-0.8l-3.2-20.7
		c-0.1,0-0.2,0-0.2,0l-9.6,21.5c-0.1,0.3-0.4,0.6-0.9,0.6h-1c-0.5,0-0.8-0.3-0.9-0.6l-9.7-21.5c0,0-0.1,0-0.2,0l-3.2,20.7
		c-0.1,0.4-0.5,0.8-1,0.8h-4.9c-0.7,0-1.2-0.5-1-1.3L169.9,351.2z"/>
	<path d="M218.8,375.4c2.2,0,4,0.6,4,0.6c0.1-2.8-0.8-3.8-2.9-3.8s-4.9,0.4-6.2,0.8c-0.8,0.2-1.2-0.3-1.3-1l-0.5-2.8
		c-0.2-0.8,0.3-1.2,0.8-1.4c0.4-0.2,4-1,7.5-1c6.9,0,8.5,3.5,8.5,9.5v11.8c0,0.5-0.5,1-1,1h-2c-0.4,0-0.7-0.2-0.9-0.8l-0.7-1.5
		c-1.3,1.1-3.3,2.8-6.7,2.8c-4.4,0-7.4-2.8-7.4-7.5C210,378.4,213.2,375.4,218.8,375.4z M218.9,385.1c1.8,0,3.5-1.5,3.8-2.1v-3
		c0,0-1.5-0.7-3.1-0.7c-2.1,0-3.6,1.2-3.6,2.9C216,383.9,217.2,385.1,218.9,385.1z"/>
	<path d="M234.6,355.8c0-2.1,1.6-3.8,3.7-3.8c2.1,0,3.8,1.7,3.8,3.8c0,2.1-1.7,3.8-3.8,3.8C236.2,359.6,234.6,357.9,234.6,355.8z
		 M235,368.4c0-0.6,0.5-1,1-1h4.6c0.5,0,1,0.4,1,1v19.8c0,0.5-0.5,1-1,1h-4.6c-0.5,0-1-0.5-1-1V368.4z"/>
	<path d="M248.3,368.4c0-0.6,0.5-1,1-1h2.1c0.5,0,0.8,0.3,0.9,0.7l0.8,2c0.8-0.9,3.5-3.2,7.7-3.2c7,0,9.8,5.2,9.8,10.9v10.5
		c0,0.5-0.5,1-1,1h-4.5c-0.6,0-1-0.5-1-1v-10.8c0-2.8-1.5-4.6-4.1-4.6c-2.9,0-4.6,2-5.2,3.4v12c0,0.8-0.3,1-1.4,1h-4.1
		c-0.5,0-1-0.5-1-1V368.4z"/>
	<path d="M288.4,383.8l2-3.4c0.4-0.8,1.4-0.8,1.9-0.4c0.3,0.2,4.7,3.4,8.3,3.4c2.9,0,5-1.9,5-4.2c0-2.8-2.4-4.7-7-6.5
		c-5.2-2.1-10.3-5.3-10.3-11.8c0-4.9,3.6-10.5,12.4-10.5c5.6,0,9.9,2.8,11,3.7c0.5,0.3,0.7,1.3,0.3,1.8l-2.1,3.1
		c-0.4,0.7-1.3,1.1-1.9,0.7c-0.4-0.3-4.6-3-7.6-3c-3.1,0-4.8,2.1-4.8,3.8c0,2.6,2,4.3,6.5,6.1c5.3,2.1,11.5,5.3,11.5,12.3
		c0,5.6-4.9,10.8-12.6,10.8c-6.9,0-11-3.2-12.1-4.3C288.2,385,287.9,384.7,288.4,383.8z"/>
	<path d="M319,373.1h-1.9c-0.5,0-1-0.5-1-1v-3.7c0-0.6,0.4-1,1-1h1.9v-6.1c0-0.5,0.5-1,1-1l4.5-0.1c0.5,0,1,0.5,1,1v6.1h4.8
		c0.6,0,1,0.4,1,1v3.7c0,0.5-0.4,1-1,1h-4.8v8.7c0,1.5,0.8,1.7,1.7,1.7c0.9,0,2.1-0.4,2.7-0.6s1,0.1,1.2,0.6l1.1,3.4
		c0.2,0.5-0.1,1.1-0.6,1.3c-0.3,0.2-3.8,1.4-6.5,1.4c-4.2,0-6.1-2.6-6.1-7V373.1z"/>
	<path d="M336.8,368.4c0-0.6,0.5-1,1-1h2.1c0.5,0,0.8,0.3,1,0.7l0.8,2.1c0.8-1.1,2.8-3.4,6.2-3.4c2.6,0,4.9,0.8,4.2,2.2l-2,3.5
		c-0.3,0.5-0.8,0.7-1.3,0.5c-0.2-0.1-1-0.3-1.6-0.3c-2.2,0-3.5,1.5-3.9,2.2v13.2c0,0.8-0.5,1-1.3,1h-4.2c-0.5,0-1-0.5-1-1V368.4z"/>
	<path d="M365,366.8c5.7,0,10.3,4.3,10.3,10.2c0,0.4-0.1,1.1-0.1,1.5c-0.1,0.5-0.5,0.9-1,0.9H360c0.2,2.2,2.1,4.7,5.3,4.7
		c1.7,0,3.3-0.7,4.3-1.4c0.5-0.3,1-0.4,1.4,0l2.3,2.6c0.4,0.4,0.5,1-0.1,1.4c-1.8,1.7-4.6,3-8.2,3c-6.6,0-11.3-5.2-11.3-11.5
		C353.8,372.1,358.4,366.8,365,366.8z M368.8,375.5c-0.2-2-1.9-3.7-4-3.7c-2.2,0-4,1.6-4.3,3.7H368.8z"/>
	<path d="M389.4,366.8c5.7,0,10.3,4.3,10.3,10.2c0,0.4-0.1,1.1-0.1,1.5c-0.1,0.5-0.5,0.9-1,0.9h-14.1c0.2,2.2,2.1,4.7,5.3,4.7
		c1.7,0,3.3-0.7,4.3-1.4c0.5-0.3,1-0.4,1.4,0l2.3,2.6c0.4,0.4,0.5,1-0.1,1.4c-1.8,1.7-4.6,3-8.2,3c-6.6,0-11.3-5.2-11.3-11.5
		C378.2,372.1,382.9,366.8,389.4,366.8z M393.3,375.5c-0.2-2-1.9-3.7-4-3.7c-2.2,0-4,1.6-4.3,3.7H393.3z"/>
	<path d="M405.5,373.1h-1.9c-0.5,0-1-0.5-1-1v-3.7c0-0.6,0.4-1,1-1h1.9v-6.1c0-0.5,0.5-1,1-1l4.5-0.1c0.5,0,1,0.5,1,1v6.1h4.8
		c0.6,0,1,0.4,1,1v3.7c0,0.5-0.4,1-1,1H412v8.7c0,1.5,0.8,1.7,1.7,1.7c0.9,0,2.1-0.4,2.7-0.6s1,0.1,1.2,0.6l1.1,3.4
		c0.2,0.5-0.1,1.1-0.6,1.3c-0.3,0.2-3.8,1.4-6.5,1.4c-4.2,0-6.1-2.6-6.1-7V373.1z"/>
	<path d="M435.1,377.7v-3.7c0-0.6,0.4-1,1-1h12.2c0.6,0,1,0.4,1,1v3.7c0,0.5-0.4,1-1,1h-12.2C435.5,378.7,435.1,378.3,435.1,377.7z"
		/>
	<path d="M469.5,352c0-0.5,0.4-1,1-1h12.6c6.5,0,11.6,4.4,11.6,10.1c0,4.2-3.5,7.5-6,8.7c2.9,0.9,7.1,3.9,7.1,8.9
		c0,6.1-5.3,10.5-12,10.5h-13.3c-0.6,0-1-0.5-1-1V352z M482.5,367c2.8,0,4.7-2.2,4.7-4.9c0-2.7-1.9-4.6-4.7-4.6h-5.9v9.6H482.5z
		 M483.2,382.7c2.7,0,4.9-2.1,4.9-5c0-2.7-2.7-4.7-5.6-4.7h-6v9.7H483.2z"/>
	<path d="M510.7,366.8c6.2,0,11.3,5.2,11.3,11.4c0,6.3-5.1,11.5-11.3,11.5s-11.3-5.2-11.3-11.5C499.5,372,504.5,366.8,510.7,366.8z
		 M510.7,383.8c2.9,0,5.3-2.5,5.3-5.6c0-3.1-2.4-5.5-5.3-5.5c-3,0-5.3,2.5-5.3,5.5C505.4,381.3,507.7,383.8,510.7,383.8z"/>
	<path d="M524.6,387.6l7.1-9.6l-6.9-9.1c-0.5-0.7-0.1-1.6,0.8-1.6h4.6c0.7,0,1.3,0.1,1.8,0.8l3.6,5.1h0.1l3.6-5.1
		c0.4-0.6,0.9-0.8,1.6-0.8h4.9c0.9,0,1.2,0.9,0.7,1.6l-6.9,9.1l7,9.6c0.5,0.7,0.2,1.6-0.7,1.6h-4.8c-0.7,0-1.2-0.3-1.5-0.9l-3.9-5.5
		h-0.1l-4.2,5.9c-0.2,0.2-0.6,0.4-0.9,0.4h-5.3C524.3,389.2,524.1,388.3,524.6,387.6z"/>
	<path d="M568,362l-4.8,1c-0.5,0.1-1-0.2-1.1-0.7l-0.3-2.7c-0.1-0.4,0.1-0.8,0.3-1l7.9-6.6h3.8c0.5,0,1,0.5,1,1v35c0,0.5-0.4,1-1,1
		H569c-0.6,0-1-0.5-1-1V362z"/>
	<path d="M587.6,362l-4.8,1c-0.5,0.1-1-0.2-1.1-0.7l-0.3-2.7c-0.1-0.4,0.1-0.8,0.3-1l7.9-6.6h3.8c0.5,0,1,0.5,1,1v35
		c0,0.5-0.4,1-1,1h-4.7c-0.6,0-1-0.5-1-1V362z"/>
	<path d="M607.2,362l-4.8,1c-0.5,0.1-1-0.2-1.1-0.7l-0.3-2.7c-0.1-0.4,0.1-0.8,0.3-1l7.9-6.6h3.8c0.5,0,1,0.5,1,1v35
		c0,0.5-0.4,1-1,1h-4.7c-0.6,0-1-0.5-1-1V362z"/>
	<path d="M628.3,370.1V370c-2.3-1.2-5.7-4.2-5.7-8.5c0-6.1,5.3-10,11.9-10c6.9,0,12.1,3.9,12.1,10c0,4.1-3.4,7.1-5.7,8.4v0.2
		c2.5,1.3,6.6,4.4,6.6,9.1c0,5.9-5.1,10.5-13.1,10.5c-7.9,0-12.9-4.5-12.9-10.5C621.6,374.5,626.7,370.9,628.3,370.1z M634.6,384.1
		c3,0,5.7-2,5.7-5c0-2.5-2-5-5.7-5.8c-3.7,0.8-5.7,3.3-5.7,5.8C628.9,382.1,631.7,384.1,634.6,384.1z M639.6,361.8
		c0-2.6-2.3-4.6-5.1-4.6c-2.6,0-4.9,2-4.9,4.6c0,2.5,1.5,4.4,5,5.2C638.1,366.2,639.6,364.1,639.6,361.8z"/>
</g>
</svg>
