<?xml version="1.0" encoding="utf-8"?>
<!-- Generator: Adobe Illustrator 26.0.1, SVG Export Plug-In . SVG Version: 6.00 Build 0)  -->
<svg version="1.1" xmlns="http://www.w3.org/2000/svg" xmlns:xlink="http://www.w3.org/1999/xlink" x="0px" y="0px"
	 viewBox="0 0 1200 1200" style="enable-background:new 0 0 1200 1200;" xml:space="preserve">
<style type="text/css">
	.st0{display:none;}
	.st1{display:inline;fill:#002A00;stroke:#000000;stroke-miterlimit:10;}
	.st2{fill:#231F20;stroke:#000000;stroke-width:2;stroke-miterlimit:10;}
	.st3{fill:#8E774D;stroke:#000000;stroke-miterlimit:10;}
	.st4{fill:#8E774D;stroke:#000000;stroke-width:2;stroke-miterlimit:10;}
</style>
<g id="Background" class="st0">
	<rect class="st1" width="1200" height="1200"/>
</g>
<g id="English_Seal">
	<g id="Seal">
		<path id="Circle-Background" class="st2" d="M600.2,0c-81.1,0-159.6,15.9-233.6,47.1c-71.4,30.2-135.6,73.5-190.7,128.5
			S77.5,294.9,47.3,366.3C15.9,440.5,0,519,0,600.1s15.9,159.6,47.1,233.6c30.2,71.4,73.5,135.6,128.6,190.7
			c55,55,119.2,98.3,190.7,128.5c74,31.2,152.5,47.1,233.6,47.1s159.6-15.9,233.6-47.1c71.4-30.2,135.6-73.5,190.7-128.5
			c55-55,98.4-119.2,128.6-190.7c31.2-74,47.1-152.5,47.1-233.6s-15.9-159.6-47.1-233.6c-30.2-71.4-73.5-135.6-128.6-190.7
			S905.1,77.5,833.6,47.3C759.8,15.9,681.3,0,600.2,0L600.2,0z"/>
		<g id="Seal-Inner">
			<g id="Letter_Centers_1_">
				<path class="st3" d="M262.8,898.9c-6.9-2.2-30.9-5.2-41.9,4.1c-3.5,8.1,1.7,14.5,5.2,20.9c8.1,9.3,20.7,23.3,28.3,19.7
					c7.6-3.6,14.7-19,16.6-35.2C270.9,908.4,269.9,901.2,262.8,898.9z"/>
				<path class="st3" d="M699.6,1046.6c-14.5-3.5-30.7,0.5-45,4l5.7,32.4c12.1-1.2,24.8-2.8,35.4-9.1c5.2-3.5,10.9-9.8,11.6-16
					C707.9,1051.4,699.6,1046.6,699.6,1046.6z"/>
				<path class="st3" d="M514.9,1045.9c-7.9,2.2-28,16.4-27.4,33c4.7,5.7,13.5,8.3,21.2,10.4c8.3,0.5,20.2,2.6,25.4-4.1
					c1-9.8,1-21.7-5-30C525.8,1049.5,521.1,1045.9,514.9,1045.9z"/>
				<path class="st3" d="M748.7,457.6c0-11.6-3.8-24.7-13.5-24.7c-9,0-14.3,9.3-14.3,29.3c0,11.6,3.8,23.8,13.5,23.8
					C744.4,486.2,748.7,472.4,748.7,457.6z"/>
				<path class="st3" d="M808.6,565.4c9,0,13.1-13.8,13.1-28.5c0-11.6-3.5-24.7-12.4-24.7c-8.1,0-13.1,9.3-13.1,29.3
					C796.2,553,799.8,565.4,808.6,565.4z"/>
				<path class="st3" d="M758.6,649.3c17.9,0,25.9-15.5,25.9-32.3c0-12.9-6.9-28-24.3-28c-16.2,0-25.7,10.5-25.7,33.3
					C734.3,635.3,741.2,649.3,758.6,649.3z"/>
				<path class="st3" d="M833.8,590.1v27.1c12.3,1,18.3-4,18.3-14.5c0-1.4-0.2-2.9-0.5-5C849.5,589.4,840.9,590.1,833.8,590.1z"/>
				<path class="st3" d="M906,590.6v57.1h9.8c16,0,28.3-6.9,28.3-30.5c0-19-10.4-26.4-26.7-26.4H906V590.6z"/>
			</g>
			<g id="Banner_Text_1_">
				<path class="st3" d="M94.6,475.9c2.6-10,7.2-17.1,8.6-22.3c1-4,0.9-7.1,0.2-10.5L133,451c0.2,0,0.2,0,0.2,0.2s-0.2,0.2-0.3,0.3
					c-14.3,5.7-23,13.5-26.1,25.2c-3.3,12.4-1.4,26.9,19.5,32.6c17.8,4.8,26.6-6.4,30.4-20.9s1.2-27.3-4.8-36.9l0.2-0.5
					c16.4,4.7,23.6,19.8,16.6,46.2c-5.5,21-20.2,41.2-48.5,33.6C95.1,524.2,87.8,501,94.6,475.9z"/>
				<path class="st3" d="M128.6,406.7c-3.5-1.9-8.5-0.5-13.3,2.9l17.4-34c0.9,6.2,1.9,9,5.9,11l16.7,8.8l18.6-36.4l-16.7-8.8
					c-3.8-2.1-6.7-1.4-12.3,1.6l17.4-34c-0.2,5.9,1.7,10.7,5.2,12.6l47.3,24.7c3.5,1.9,8.5,0.5,13.3-2.9l-17.4,34
					c-0.9-6.2-1.9-9-5.9-11l-21.4-11.2l-18.6,36.4l21.4,11.2c4,2.1,6.7,1.4,12.3-1.6l-17.4,34c0.2-5.9-1.7-10.7-5.2-12.6
					L128.6,406.7z"/>
				<path class="st3" d="M193.6,290.7c-2.9-2.8-7.9-2.9-13.5-0.7l26.1-28c-0.9,6.2-0.5,9.1,2.6,12.1l29.3,27.8
					c7.4,7.1,14.5,4.8,23.8-5.2c7.8-8.5,12.6-18.6,5-25.7l-29.3-27.8c-3.1-3.1-6-3.1-12.3-1.9l26.1-28c-1.7,5.7-1.4,10.9,1.6,13.6
					l24.8,23.6c15,14.1,14.3,30.2-8.6,54.9c-16.6,17.8-33.3,25-44.2,14.7L193.6,290.7z"/>
				<path class="st3" d="M290.9,194.1c-2.8-4.3-6.6-6.6-13.8-5.5c4.5-2.2,7.9-4.5,13.5-7.9c4.5-2.9,21.2-14.5,28.6-19.3
					c26.4-17.3,39.2-12.9,44-5.5c5.2,8.1,3.1,16.6-7.4,26.4c10-3.1,16.7-4,28,9.3c4.3,5,8.6,7.6,16,7.1l-18.6,12.1
					c-5.9,3.8-8.6,2.1-16.6-7.6c-8.8-10.4-14.2-10.5-30-0.2l-8.1,5.2l10.7,16.7c2.9,4.7,8.3,5.9,14.7,5l-33.3,21.7
					c2.9-5.7,3.6-8.8,0.5-13.5L290.9,194.1z M320.4,198.9l5.9-3.8c16.9-11,23.5-18.5,19-25.4c-4-6.2-11-5.7-24.8,3.3
					c-9,5.9-10.7,9.5-9.3,11.6L320.4,198.9z"/>
				<path class="st3" d="M427.8,107.1c9.7-3.5,18.1-3.8,23.1-5.7c3.8-1.4,6.2-3.3,8.6-5.9l10.4,29.2c0,0.2,0,0.2,0,0.3
					c-0.2,0-0.2,0-0.3-0.2c-12.9-8.6-24-11.4-35.5-7.1c-12.1,4.3-22.8,14.1-15.4,34.9C424.8,170.1,439,171,453,166
					s22.8-14.7,27.4-25h0.5c5.7,16.2-2.6,30.9-28.1,40.2c-20.2,7.4-45.2,6.7-55.2-20.9C388.8,135.3,403.6,115.9,427.8,107.1z"/>
				<path class="st3" d="M508,98c-0.3-4-4.3-7.4-9.8-9.5l37.8-4.1c-4.7,4.1-6.4,6.6-5.9,10.9l2.1,19l40.6-4.5l-2.1-19
					c-0.5-4.3-2.6-6.4-8.1-9.3l37.8-4.1c-5,3.1-7.9,7.4-7.6,11.4l5.9,53.3c0.3,4,4.3,7.4,9.8,9.5l-37.8,4.1
					c4.7-4.1,6.4-6.6,5.9-10.9l-2.6-24.2l-40.6,4.5l2.6,24.2c0.5,4.3,2.6,6.4,8.1,9.3l-37.8,4.1c5-3.1,7.9-7.4,7.6-11.4L508,98z"/>
				<path class="st3" d="M774.3,145.6c-5.9,23.6-22.1,34.5-54.9,26.1c-32.8-8.5-41.9-25.7-35.9-49.3c7.4-29.7,29.9-32.4,54.9-26.1
					C763.4,102.7,781.7,115.9,774.3,145.6z M752.7,140.1c5-19.8-2.1-28.8-17.3-32.8c-15-3.8-25.5,0.7-30.5,20.5
					c-4.5,17.9,0.9,28.6,17.3,32.8C738.4,164.8,748.2,158,752.7,140.1z"/>
				<path class="st3" d="M813.6,137.5c1.7-3.6,0.3-8.6-3.1-13.3l60.1,30.4c4.5,2.2,7.1,2.9,10.9,3.6l-10.5,21
					c-1.4-9.7-9.3-17.3-23.8-24.5c-11.2-5.7-15-4.5-16.9-0.5l-5.2,10.5c1.9,1,5.2,2.9,9.3,4.8c10.4,5.2,14.7,6,23.3,4.8L847.5,195
					c-2.8-6.7-9.1-11.4-17.8-15.7c-3.3-1.7-6.7-3.3-9.5-4.5l-10.4,20.7c-1.7,3.6-0.5,8.6,3.1,13.3l-35.5-17.9
					c5.9,0,10.7-1.9,12.4-5.3L813.6,137.5z"/>
				<path class="st3" d="M956.7,248.5c3.3-3.1,3.5-6.2-1.9-11.7c-8.5-9-19.5-10-29.3-5.5l-0.2-0.2l21.4-20.7c1,2.1,2.6,5.2,5.2,7.8
					l50.4,53.1c2.4,2.6,5.3,4.3,7.4,5.5l-21.4,20.7l-0.2-0.2c4.8-9.7,4.3-20.9-4.1-29.8c-5.3-5.5-8.3-5.5-11.6-2.4l-33.3,32.1
					c-2.9,2.8-3.3,7.9-1.6,13.6l-27.4-28.8c5.5,2.1,10.7,1.9,13.5-0.9L956.7,248.5z"/>
				<path class="st3" d="M1022.8,311.4c3.5-1.9,5.2-6.9,4.7-12.8l18.8,33.3c-5.7-2.8-8.5-3.3-12.3-1l-16.4,9.5l20.2,35.7l16.4-9.5
					c3.8-2.2,4.7-4.8,5.3-11.2l18.8,33.3c-4.8-3.5-9.8-4.5-13.3-2.4l-46.2,26.6c-3.5,1.9-5.2,6.9-4.7,12.8l-18.8-33.3
					c5.7,2.8,8.5,3.3,12.3,1l20.9-11.9l-20-35.7l-20.9,11.9c-3.8,2.2-4.7,4.8-5.3,11.2l-18.8-33.3c4.8,3.5,9.8,4.5,13.3,2.4
					L1022.8,311.4z"/>
				<path class="st3" d="M1082.1,427.9c3.8-1,6.6-5.3,7.6-11.2l20.7,75.1c1.4,4.8,2.6,7.2,4.7,10.5l-23.8,6.7
					c6.6-11.9,6.7-22.6,1.6-41.4c-3.6-13.1-7.1-17.3-12.9-15.7l-10,2.8c0.7,3.5,1.7,7.8,2.9,11.6c3.5,12.3,6.7,21,13.8,25.5
					l-22.8,6.4c3.6-7.4,2.1-16.7-1.4-29c-1-3.8-2.4-8.1-3.5-11.4l-13.6,3.8c-5.9,1.7-6.9,6.2-2.4,22.4c5.3,19.2,12.6,29.7,25.9,35.4
					l-27.4,7.8c0.7-3.6,0.3-7.6-2.1-16.2l-20.5-74c4,4.5,8.5,6.7,12.3,5.7L1082.1,427.9z"/>
			</g>
			<path id="Main_Content_1_" class="st4" d="M602.1,24C283.5,24,25.2,282.3,25.2,600.8s258.3,576.8,576.9,576.8
				s576.9-258.3,576.9-576.8C1178.9,282.1,920.6,24,602.1,24z M115.3,827.8c12.3-18.8,18.6-30.4,24.2-38.3
				c5.5-7.9,17.6-35.9,14.5-43.7c-3.1-7.6-14.8-8.5-27.4-4.3c-12.6,4.1-25.9,13.5-38.3,19.3c-4-9.7-6.2-18.8-10.2-30.9
				c37.1-0.2,72.3-9.3,99.1-31.4c5.9,16,15.4,41.6,21.4,57.5c-9.1,18.6-14.3,26.9-15.7,30.7c-1.6,3.8-12.4,29-13.3,44.2
				c10,1.7,24-3.6,29.9-6.2c5.9-2.4,21.9-13.3,21.9-13.3l12.8,21.9c-33.1,9.8-68.9,21.4-94.4,44.2
				C128.2,863,124.8,850.8,115.3,827.8z M233.1,996.2c4.7-8.5,13.1-18.8,6.7-30c-12.9-19.3-33.3-48.5-49.5-46.4
				c-16.2,2.1-16,2.2-20.9,7.2c-8.5-7.1-14.7-15-21.4-24c0,0-7.1-5.3-0.3-5.2c6.7,0.2,72.5-9.5,102.3-29.5l5-2.8
				c17.6,20.9,33.8,38.3,54.4,57.6c-22.3,29.3-36.2,62.6-42.6,98.5L233.1,996.2z M382.9,664.4c-0.9-12.9-3.8-24.8-8.1-35.7
				c-13.1-21.9-27.4-31.4-52.8-49.7c31.1-22.1,60.9-32.4,91.5-35c-4.1,30.9-0.2,46.2,5.9,66.8c2.9,4.3,6.9,8.8,11.7,13.6
				c12.3,11.2,28.3,16.7,44.5,8.8c9.8-4.3,15.5-12.3,19.2-20.9c7.6-34.5-4.8-54.3-20.7-82.1c36.9,20.5,68.5,59.2,82.5,95.8
				c4.3,22.3,3.3,51.4-26.2,65.6c-29.3,14.3-38.7,25.9-34,32.3c3.5,4.7,13.5,0.7,22.1,5c2.2,1,4.1,2.4,5.7,4.7
				c1,1.2,2.1,2.8,2.9,4.5c2.4,10.5,3.1,22.3,9.8,31.6l-0.7,2.4c0,0-45-19-87.5-4.7s-27.1,17.1-68.9,23.3c-21.6,1-39.7-5.3-55-15.9
				c-0.3-0.2-0.7-0.3-1-0.5c0,0-0.9-0.7-2.4-2.1c-15.7-11.7-28.5-27.6-39.3-44.2c-19.7-38.3-21.4-60.6-9.5-105.6h1.2
				c14.7,45.7,46.9,80.7,67.6,82.3C362.2,706,386.9,701.2,382.9,664.4z M682.8,453.8c3.3,0,6.6-0.3,9.8-0.5v-24.2
				c1.6,0.2,3.3,0.5,4.8,0.5s3.3-0.3,4.8-0.5v61.1c-1.6-0.2-3.3-0.5-4.8-0.5s-3.3,0.3-4.8,0.5v-29.8c-3.3-0.2-6.6-0.5-9.8-0.5
				c-3.3,0-6.6,0.3-9.8,0.5v29.8c-1.6-0.2-3.3-0.5-4.8-0.5s-3.3,0.3-4.8,0.5v-60.9c1.6,0.2,3.3,0.5,4.8,0.5s3.3-0.3,4.8-0.5v24.2
				C676.3,453.6,679.6,453.8,682.8,453.8z M791,482.2c-0.2,1.2-0.3,2.6-0.3,3.8s0.2,2.6,0.3,3.8h-24.3v-60.6
				c1.6,0.2,3.3,0.5,4.8,0.5c1.6,0,3.3-0.3,4.8-0.5v54.3C781.9,483.5,786.7,482.8,791,482.2z M809.7,506.7
				c16.7,0,21.7,17.9,21.7,31.7c0,17.4-8.8,32.1-23.1,32.1c-12.9,0-21.7-11.6-21.7-31.7C786.5,521.1,795,506.7,809.7,506.7z
				 M799.5,490.4v-61.1c1.6,0.2,3.3,0.5,4.8,0.5s3.3-0.3,4.8-0.5v61.1c-1.6-0.2-3.3-0.5-4.8-0.5S801.2,490.2,799.5,490.4z
				 M900.4,446.4c0-10.2,5-18.6,14.8-18.6c4.7,0,8.8,2.4,10.2,4.3c-0.7,2.9-1.4,5.9-2.1,8.8h-1c-1.2-4.7-3.8-7.8-7.4-7.8
				c-5,0-7.1,3.6-7.1,8.8c0,12.1,19.5,9.8,19.5,30.2c0,11.4-7.1,19.7-17.1,19.7c-3.5,0-7.2-1.2-10.4-3.8c0.7-3.8,1.6-7.4,1.9-11.4
				h1.2c1,6.2,4.5,9.8,8.8,9.8c4,0,7.6-3.1,7.6-9.3C919.4,462.6,900.4,467.7,900.4,446.4z M903,508.5v24.2c2.9,0.2,6,0.5,9,0.5
				s6-0.3,9-0.5v-24.2c1.6,0.2,2.9,0.5,4.5,0.5c1.6,0,2.9-0.3,4.5-0.5v61.1c-1.6-0.2-2.9-0.5-4.5-0.5c-1.6,0-2.9,0.3-4.5,0.5v-29.8
				c-2.9-0.2-6-0.5-9-0.5s-6,0.3-9,0.5v29.8c-1.6-0.2-2.9-0.5-4.5-0.5c-1.6,0-2.9,0.3-4.5,0.5v-61.1c1.6,0.2,2.9,0.5,4.5,0.5
				C900.1,508.8,901.6,508.6,903,508.5z M932.5,446.4c0-10.2,5-18.6,14.8-18.6c4.7,0,8.8,2.4,10.2,4.3c-0.7,2.9-1.4,5.9-2.1,8.8h-1
				c-1.2-4.7-3.8-7.8-7.4-7.8c-5,0-7.1,3.6-7.1,8.8c0,12.1,19.5,9.8,19.5,30.2c0,11.4-7.1,19.7-17.1,19.7c-3.5,0-7.2-1.2-10.4-3.8
				c0.7-3.8,1.6-7.4,1.9-11.4h1.2c1,6.2,4.5,9.8,8.8,9.8c4,0,7.6-3.1,7.6-9.3C951.7,462.6,932.5,467.7,932.5,446.4z M962,516.1
				c-3.6-0.7-7.6-1.4-13.6-1.2V534h6c2.6,0,5-0.3,7.2-0.9c-0.2,1.2-0.3,2.6-0.3,3.8s0.2,2.6,0.3,3.8c-2.2-0.5-4.7-0.9-7.2-0.9h-6
				v22.6c6-0.2,10-0.5,13.6-1.2c-0.2,1.2-0.3,2.6-0.3,3.8c0,1.2,0.2,2.6,0.3,3.8h-22.4v-60.7H962c-0.2,1.2-0.3,2.6-0.3,3.8
				C961.9,513.5,962,514.9,962,516.1z M963.2,617.2c0,22.8-18.5,36.4-42.3,36.4h-32.4v-68.8h39.7
				C953.1,585.6,963.2,600.6,963.2,617.2z M894.4,436.9c-4-0.7-8.3-1.4-14.8-1.2v19.2h6.7c2.9,0,5.5-0.3,7.9-0.9
				c-0.2,1.2-0.3,2.6-0.3,3.8c0,1.2,0.2,2.6,0.3,3.8c-2.4-0.5-5-0.9-7.9-0.9h-6.7v22.6c6.6-0.2,10.9-0.5,14.8-1.2
				c-0.2,1.2-0.3,2.6-0.3,3.8s0.2,2.6,0.3,3.8h-24.5v-60.4h24.5c-0.2,1.2-0.3,2.6-0.3,3.8C894,434.3,894.2,435.7,894.4,436.9z
				 M887.5,508.5c-0.2,1.2-0.3,2.4-0.3,3.8c0,1.4,0.2,2.6,0.3,3.8c-3.5-0.7-6.9-1.2-10.5-1.2v54.9c-1.6-0.2-2.9-0.5-4.5-0.5
				c-1.6,0-2.9,0.3-4.5,0.5v-54.9c-4.1,0-7.9,0.7-10.9,1.2c0.2-1.2,0.3-2.4,0.3-3.8c0-1.2-0.2-2.4-0.3-3.8H887.5z M872.5,647.7
				l4.5,6.2c-3.5-0.2-6.9-0.5-10.5-0.5c-3.5,0-6.9,0.3-10.5,0.5l-13.8-21.2c-1.7-2.8-5-7.4-7.6-11.2h-0.9v32.4
				c-2.9-0.2-5.9-0.5-8.6-0.5c-2.9,0-5.9,0.3-8.6,0.5v-69.2h24.7c5.5,0,14-0.2,18.8,2.1c6.6,3.1,10.2,7.6,10.2,14.5
				c0,9.8-7.2,16.2-18.1,18.1C858.3,629.1,865.6,638.4,872.5,647.7z M859.7,490.4h-5.5c-7.4-11.6-14.3-22.4-21.6-33.1l-7.1-10.2
				v43.1c-0.9-0.2-1.7-0.3-2.6-0.3s-1.7,0.2-2.6,0.3v-60.9h6.4c9.1,13.8,18.6,27.4,27.8,41.8v-41.8c0.9,0.2,1.7,0.3,2.6,0.3
				s1.7-0.2,2.6-0.3V490.4z M760.7,582.8c33.1,0,42.8,20.4,43,35.9c0.2,19.7-17.3,36.4-45.7,36.4c-25.7,0-43-13.1-43-36.1
				C714.9,599.2,731.8,582.8,760.7,582.8z M713.2,569c-0.7,0-1.6,0.2-2.4,0.3v-60.9h5.9c8.3,13.8,17.1,27.4,25.4,41.8v-41.8
				c0.7,0.2,1.6,0.3,2.4,0.3c0.7,0,1.6-0.2,2.4-0.3v61.1l-5-0.2c-6.9-11.6-13.1-22.4-19.8-33.1l-6.4-10.2v43.1
				C714.9,569.2,714.1,569,713.2,569z M783.3,508.5c-0.2,1.2-0.3,2.4-0.3,3.8c0,1.4,0.2,2.6,0.3,3.8c-3.5-0.7-6.9-1.2-10.5-1.2v54.9
				c-1.6-0.2-2.9-0.5-4.5-0.5c-1.6,0-2.9,0.3-4.5,0.5v-54.9c-4.1,0-7.9,0.7-10.9,1.2c0.2-1.2,0.3-2.4,0.3-3.8c0-1.2-0.2-2.4-0.3-3.8
				H783.3z M734.1,491.6c-14.2,0-23.8-11.6-23.8-31.7c0-17.8,9.3-32.1,25.4-32.1c18.3,0,23.6,17.9,23.8,31.7
				C759.4,476.7,750,491.6,734.1,491.6z M712,644.8c-0.2,1.4-0.5,2.9-0.5,4.3c0,1.4,0.3,2.9,0.5,4.3h-44v-68.8
				c2.9,0.2,5.9,0.5,8.6,0.5c2.9,0,5.9-0.3,8.6-0.5V646C695.6,646.2,704.2,645.5,712,644.8z M674.5,550.6c0.5,4.3,1,7.1,3.1,10.2
				c1.9,2.8,4.1,3.8,6.7,3.8c5.5,0,8.5-3.1,10.5-10.9c1-4,1-14.1,1-18.5v-26.9c0.7,0.2,1.6,0.3,2.4,0.3c0.7,0,1.6-0.2,2.4-0.3V540
				c-0.2,10.2-0.2,19.5-6.2,25.9c-3.1,3.5-7.2,4.7-11,4.7c-7.1,0-14.8-3.5-17.1-15c-0.7-3.5-0.9-7.4-0.9-11v-36.4
				c1.6,0.2,2.9,0.5,4.5,0.5s2.9-0.3,4.5-0.5v25.4C674,538.7,673.9,545.9,674.5,550.6z M860.9,716.4c19,2.8,10.4,6.6,10.4,6.6
				S681.6,882.2,675.1,887.7c-6.6,5.3-21.7,2.2-21.7,2.2l-258.8-49c-20.2,29.3,2.2,62.5,2.2,62.5l6.4,1.2l10.9,2.1
				c-0.5,2.2-0.7,4.5-1.2,6.4c-1,2.2-2.1,4.3-3.3,6.2l-4.1-0.7c0,0,0,0-0.2,0c-7.4-1.6-15.9-3.3-15.9-3.3
				c-30.4-31.1-13.1-89.7-13.1-89.7l107.3-55.7c2.6,0,5.9-0.3,11.4,0c9.3,0.5,14.7,1.2,18.6,2.1c3.6,0.9,7.1,1.9,12.3,3.6
				c5,1.6,8.1,1.6,8.1,1.6s4,1,7.9-3.1c4-4.1,1.7-8.6,0.9-10.7c-0.9-1.9-4.1-12.8-4.7-14.7c-0.3-1.7-1.2-5.5-1.4-6.4l90.8-47.1
				C627.1,695.2,841.9,713.6,860.9,716.4z M463.3,916c-0.3,1-0.7,2.1-0.9,2.9c-0.5,2.2-0.5,6.9-1,10.9c-1.9,10-9.5,25.9-38.7,29.8
				l-3.3-19.5l-33.6,1c0,0,17.8-7.9,26.4-20.7l0.2-0.3c0,0,0.2-0.2,0.2-0.3l0,0l0,0c0.2-0.3,0.3-0.7,0.7-1c1.2-2.1,2.4-4.5,3.1-7.2
				c1.7-10.5,5.9-23.6,15.5-29.8c0.5-0.3,1-0.5,1.6-0.9l35.4,9.1l8.8,2.2l-3.3,4.1c-0.9,1-1.7,2.4-2.8,4c-2.8,4-5.3,8.3-7.2,12.8
				C464,914.1,463.7,915.1,463.3,916L463.3,916z M404.5,889.1L404.5,889.1h0.2l14,2.6c-1.2,2.4-2.1,5-2.9,7.4l-3.3-0.5l0,0h-0.3
				l-6.2-1L404.5,889.1L404.5,889.1z M403.5,882.9l-0.7-3.8l-0.2-0.9l22.3,4.1c-1.2,1.2-2.2,2.6-3.1,4l-8.3-1.6L403.5,882.9z
				 M473.9,902l23.6,4.5l140.6,26.1c30.4,4.7,33.6-0.3,33.6-0.3v-4.1c-11.2,4.3-32.6,0-32.6,0l-120.6-23.3l0,0l-41.4-7.9
				c1-1.4,2.1-2.8,3.1-4.1l7.4,1.4L638,921.9c30.4,4.7,33.6,0.2,33.6,0.2v-4.5c-11.2,4.3-32.6,0-32.6,0l-149.8-28.6l-36.8-6.9
				c-8.1-2.4-15-4.3-18.3-5.2c-1-0.3-1.9,0-2.1,0c-0.7,0.3-1.4,0.7-1.9,1l-28.6-5.3l-0.2-0.5l0,0l-0.9-5.7l0,0l0,0l100.6,19
				L638,910.5c30.4,4.7,33.6-0.2,33.6-0.2v-4.1c-11.2,4.3-32.6,0-32.6,0l-239.7-46.1l-1.7-10.4c0,0,237.8,45.7,256.6,48.5
				c18.8,2.9,22.4-3.6,22.4-3.6l177.6-141.3v23.1L674,936.5c-7.6,6.9-19.5,3.6-19.5,3.6l-162-27.8l-22.4-3.8
				C471.3,906.3,472.5,904.3,473.9,902z M392.9,1103.4c-42.1-16.2-80.8-41.2-114.8-69l11-15.5c30,1.9,59.5-1,83.3-15.9
				c2.2-2.2,4.1-7.4,1.2-10.4c-13.8-15-33.5-19.2-52.5-22.6l14-21.9c33.5,24.3,70.9,47.6,111.5,63.8l-9.3,16.2
				c-33-0.7-65.4,4.5-91.5,22.9c5.9,8.1,14.2,12.3,21.1,17.6c17.4,9,24.2,10.2,37.8,13.3L392.9,1103.4z M550,1140.1
				c0-9.3-0.5-18.5-7.4-25.5c-20.7-9.3-43.3-16.2-69.4-12.3c-9.8,2.9-14,11.6-17.9,20.2l-31.8-10.5v-3.5
				c25.5-23.6,48.7-51.9,62.6-85.4c26.1,6.4,53.7,10,80.9,13.5c-1.2,39.3,10.7,72.8,26.9,104.7C579.3,1143.1,565,1141.3,550,1140.1z
				 M469,931l-4.3-0.9c0-3.6-0.2-7.1,0.3-9.1c0.3-1.6,0.9-2.9,1.4-4.5l27.4,5.2c73.5,13.8,164.1,30.2,175.7,28.1
				c10.5-1.7,192.9-173.7,192.9-173.7c28.8,1,18.5,6,18.5,6s-203.6,185.8-210.4,187C664.9,970,550,947.2,469,931z M726.3,1127.2
				c-4.5-16.7-30.2-31.9-36.2-32.3s-18.6-1.6-26.7,0.9l3.1,43l-42.6,3.3c1.9-34.7,1.4-71.1-10.2-102.8c38-2.9,97.2-18.5,106.5-18.8
				c9.1-0.3,15,2.9,20.7,7.1c7.4,6.4,7.2,15.9,6.9,24.3s-15.7,24.2-30.2,30c12.8,11.6,31.8,20.4,45.6,33.1
				C751.9,1120.6,738.4,1123.2,726.3,1127.2z M809.1,1101.8c-3.5-36.4-22.4-68.3-49.5-89.7v-1.7c37.6-15.5,70.1-37.4,103-61.6
				l16.7,17.4c-23.1,9.1-54.9,17.8-63.5,45c-1,5.9,2.9,10.9,10.9,10.4c13.8-2.9,27.3-8.6,37.1-21.2l13.8,14.5
				c-14,8.1-33,13.3-40.6,28.8c-3.8,7.4-3.1,14.3,7.4,16.7c30,0,50.9-26.4,64.9-48.3c4,6.9,7.9,16.9,11.6,24.8
				C886.6,1060.9,849.5,1086.3,809.1,1101.8z M1018.3,933.8c-28.6-5.9-56.6-3.6-83.9,0.9c-5.3,3.3-5.7,10.2-3.5,14.3
				c8.5,19.5,28.1,29.7,45.7,38c-6.7,8.5-14.7,16-23.6,23.3c-17.3-28-43.7-58.7-76.8-69.4c12.8-15.7,32.6-30.9,46.8-48.3
				c25.4,2.2,53.1,1.7,75.6-8.1c-7.4-15.9-25.4-29.5-42.5-34.9l15.5-22.4l33.3,31.6l2.8,0.9l2.9,2.8c13.5,9.8,28.1,19.2,44,25.2
				C1045.2,904.3,1034.5,922.4,1018.3,933.8z M1080.8,848c-26.1-24.5-58.2-40-96.5-38.3c17.4-36.8,30.9-74.2,40.4-114.2l23,4
				c-12.4,20-28.5,43.7-20.5,70.7c2.8,7.6,10.7,9.3,15.5,5.5c8.6-10.5,14.7-24.3,14.7-39.9l18.5,5.5c-6.6,15.9-23,35.5-7.4,51.4
				c3.3,2.4,7.1,4.7,14,1c20-17.6,22.1-49.9,17.1-75.6l0.2-2.2c9.1,2.2,17.6,5.5,25.5,10.5C1117.7,769.2,1103.5,811.4,1080.8,848z
				 M1090.8,580.8l-59.5,33.1c0.2-4,0.2-8.1,0.2-12.1c0-218.1-162.6-398.2-372.9-426c4.5,6.7,7.4,11.9,7.4,11.9s16.4,34.7,14.2,61.9
				c-1.7,22.1,0.5,47.4-30.2,86.4c-21.7,31.7-59.7,53.3-89.2,75.6c0,1.2,1.2,1.2,1.7,2.4c38.7-19.3,71.1-44.9,101.8-64.7
				c-24.8,61.9-98.9,82.6-126.7,142.9l16.2-14.7c19.8-19.8,42.8-17.6,62.8-39.9c-32.6,46.8-73.7,87.6-74.4,150.1
				c-9.5-47.6,17.6-85.4,43-118.9c-25.4,10.7-50.6,33-69.4,54.5c16.9-65.4,58.7-87.6,94.2-123l-11,3.6
				c-39.7,20.4-74.4,37.6-102.2,75.4c36.2-82.8,168.8-113.9,173.3-221.5c1.4-39.2-9.3-79.4-36.4-103c10.7,18.6,18.5,44,13.1,69.2
				c-18.3,63.1-60.4,103.9-116.5,132.5c18.1-25.2,40.4-54,55-84.7l-1.2-1.2c-66.3,46.1-135.5,80.2-186.9,137.9
				c-24.7,28.8-44,66.1-59.2,99.7c4.3-31.2,11.6-61.3,25.5-88.9l-1.7-1.2c-47.6,46.8-64.7,117.2-68.5,183.2
				C280.4,487.2,347.5,396,434.2,334.2l7.8-5.3c-29.5,30.5-59.7,65.9-76.1,107.5l1.2,0.7c47.1-72.1,86.1-101.6,195.2-165.5
				l37.6-23.3c-2.4,31.2-19.2,56.2-36.1,79.7c5.2-2.6,5.2-2.9,9.3-6.4c39-36.8,66.3-74.5,65.6-131.8c0-0.9-1-7.9-2.8-16
				c-11.2-0.9-22.6-1.4-34-1.4C364.5,172.4,172,364.7,172,602.2c0,4.1,0,8.3,0.2,12.4l-54.5-33.5l-54.2,30.2c0-3.1-0.2-6-0.2-9.1
				c0-297.5,241.1-538.5,538.6-538.5s538.2,240.7,538.2,538.1c0,3.1,0,6-0.2,9.1L1090.8,580.8z"/>
		</g>
		<g>
			<g>
				<path class="st3" d="M1133,1060.6c0,19.7-15.5,35.2-35.5,35.2c-19.8,0-35.7-15.5-35.7-35.2c0-19.3,15.9-34.7,35.7-34.7
					C1117.7,1025.9,1133,1041.3,1133,1060.6z M1070.8,1060.6c0,15.5,11.4,27.8,27.1,27.8c15.2,0,26.4-12.3,26.4-27.4
					c0-15.5-11.2-28-26.7-28C1082.1,1032.8,1070.8,1045.4,1070.8,1060.6z M1092,1078.7h-8.1V1044c3.1-0.7,7.6-1,13.3-1
					c6.6,0,9.5,1,12.1,2.6c1.9,1.6,3.5,4.3,3.5,7.6c0,3.8-2.9,6.7-7.2,8.1v0.3c3.5,1.2,5.3,3.8,6.4,8.5c1,5.3,1.7,7.4,2.6,8.6h-8.6
					c-1-1.2-1.7-4.5-2.8-8.5c-0.7-3.8-2.8-5.5-7.2-5.5h-3.8V1078.7z M1092.3,1059h3.8c4.5,0,8.1-1.6,8.1-5c0-3.1-2.2-5.3-7.4-5.3
					c-2.1,0-3.6,0.2-4.5,0.3L1092.3,1059L1092.3,1059z"/>
			</g>
		</g>
	</g>
</g>
</svg>
