<?xml version="1.0" encoding="utf-8"?>
<!-- Generator: Adobe Illustrator 26.0.1, SVG Export Plug-In . SVG Version: 6.00 Build 0)  -->
<svg version="1.1" xmlns="http://www.w3.org/2000/svg" xmlns:xlink="http://www.w3.org/1999/xlink" x="0px" y="0px"
	 viewBox="0 0 1200 1800" style="enable-background:new 0 0 1200 1800;" xml:space="preserve">
<style type="text/css">
	.st0{display:none;}
	.st1{display:inline;fill:#26503A;}
	.st2{fill:#242424;stroke:#FFFFFF;stroke-width:0.5;stroke-miterlimit:10;}
	.st3{fill:#FFFFFF;}
	.st4{fill:#424143;stroke:#231F20;stroke-width:2;stroke-miterlimit:10;}
	.st5{fill-rule:evenodd;clip-rule:evenodd;fill:#242424;stroke:#FFFFFF;stroke-width:0.5;stroke-miterlimit:10;}
	.st6{fill:#424143;}
	.st7{fill-rule:evenodd;clip-rule:evenodd;fill:#424143;stroke:#231F20;stroke-miterlimit:10;}
	.st8{fill:#424143;stroke:#231F20;stroke-miterlimit:10;}
</style>
<g id="Background" class="st0">
	<rect class="st1" width="1200" height="1800"/>
	<path class="st2" d="M544.4,1229.3c0-2.1,1.7-3.3,3.7-3.3h5l87.9,109.5c0,0,0,0,0.4,0v-103.7c0-2.1,1.7-3.7,3.7-3.7h6.7
		c2.1,0,3.7,1.7,3.7,3.7v130.7c0,2.1-1.7,3.3-3.7,3.3h-3.7L559,1254.3l0,0v105.8c0,2.1-1.7,3.7-3.7,3.7h-7.1c-2.1,0-3.7-1.7-3.7-3.7
		V1229.3z"/>
</g>
<g id="Avon-Park-Logo">
	<g id="Avon-Park-Logo_00000070798094431849275280000002615969919565565097_">
		<g id="Avon-Park-Ring_00000164511881898484531090000005712956992516840589_">
			<circle id="Circle-White-Background" class="st3" cx="600" cy="675.2" r="550"/>
			<g id="Letter-Centers">
				<path id="R-Center-Gray" class="st4" d="M996.8,415L954,439.7l18.4,31.9c6.7,11.6,22.3,16.2,34.5,9.2c11.5-6.6,15.1-22.3,8.3-34
					L996.8,415z"/>
				<polygon id="A-Center-Gray_00000050660372696306662640000018319405020431316112_" class="st4" points="834.4,350.7 874.2,383.6 
					890.1,324.5 889.3,323.8 				"/>
				<path id="P-Center-Gray" class="st4" d="M779.1,237.1l-26.6-10.3l-18.3,47.1l26.6,10.3c13.3,5.2,28.6-1.1,33.9-14.8
					C799.8,256.5,792.4,242.3,779.1,237.1z"/>
				<polygon id="A-Center-Gray" class="st4" points="151.9,594.9 202.4,629.6 211.5,578.7 152.1,593.9 				"/>
				<path id="O-Center-Gray" class="st4" d="M307.2,301c-23.1,18.1-27.2,52.1-9.4,74.8c17.9,22.9,51.5,26.6,74.7,8.5
					c23.3-18.2,27.8-51.7,9.8-74.6C364.4,286.9,330.4,282.8,307.2,301z"/>
			</g>
			<path id="Avon-Park-Ring" class="st4" d="M975.7,299.1C875.4,198.8,741.9,143.5,600,143.5c-141.9,0-275.4,55.3-375.7,155.6
				C123.9,399.5,68.6,532.9,68.6,674.8s55.3,275.4,155.6,375.7c100.4,100.4,233.8,155.6,375.7,155.6c141.9,0,275.4-55.3,375.7-155.6
				c100.4-100.4,155.6-233.8,155.6-375.7S1076.1,399.5,975.7,299.1z M914.7,292.5l1.6,1.3c0.8,0.7,1.6,2.6,1.3,4l-38.6,145.7
				c-0.7,2.8-3.7,3.8-6.1,1.8l-10-8.3c-1.9-1.6-2.2-3.4-1.7-5.4L869,402l-52.1-43c-9.1,4.6-18.3,8.9-27.5,13.5
				c-1.4,0.7-3.7,0.9-5.6-0.7l-10-8.3c-2.4-2-2-5.1,0.7-6.3L910.5,292C911.8,291.4,913.9,291.8,914.7,292.5z M689.8,329.2
				l48.7-125.5c0.7-1.9,2.9-3,5.1-2.2l43.9,17.1c23.7,9.2,35.8,35.7,26.9,58.7c-9.1,23.5-36,35.1-59.5,26l-27.9-10.8l-17.3,44.6
				c-0.7,1.9-3.1,2.9-5.1,2.2l-12.5-4.9C689.9,333.4,689.1,331.1,689.8,329.2z M429.2,206.6l5-1.2l111.1,78.3l0.2,0L523,190
				c-0.5-2,0.7-4.1,2.9-4.7l12.9-3.1c2-0.5,4.2,0.9,4.7,2.8l32.1,133.1c0.5,2-0.9,4-3,4.5l-5.2,1.3l-111.8-81l-0.2,0l23.2,96.3
				c0.5,2-0.7,4.1-2.9,4.7l-12.7,3c-2,0.5-4.2-0.9-4.7-2.8l-32.1-133.1C425.7,209.1,427.2,207.1,429.2,206.6z M294.8,284.9
				c32.5-25.5,78.8-20.1,103.8,12c25.1,32,19,77.9-13.5,103.4c-32.5,25.5-78.3,20.3-103.4-11.8C256.6,356.4,262.3,310.4,294.8,284.9
				z M138.7,488.8l7.2-12.8c0.8-1.4,2.6-2.1,3.7-2l110,9.9l0.6-1.1l-65.4-89.1c-0.7-0.9-1.1-2.5-0.2-4.2l7.2-12.8
				c1.5-2.7,4.6-2.8,6.3-0.5l88.1,122.5c0.8,1.1,1,2.7,0.2,4.2l-1,1.8c-0.7,1.3-2.3,2-3.7,2l-150.2-12.4
				C138.7,494.2,137.2,491.5,138.7,488.8z M266.2,549.2l-2.3,12.8c-0.4,2.4-1.9,3.6-3.8,4.1l-29.7,7.7l-11.9,66.5
				c8.5,5.7,16.7,11.6,25.2,17.3c1.3,0.9,2.6,2.8,2.2,5.2l-2.3,12.8c-0.5,3-3.4,4.2-5.8,2.5l-123.5-86.6c-1.1-0.8-1.8-2.8-1.6-3.9
				l0.4-2c0.2-1,1.5-2.7,2.8-3.1l145.9-37.8C264.4,544,266.7,546.1,266.2,549.2z M600,990.5c-174.1,0-315.7-141.6-315.7-315.7
				S425.9,359.2,600,359.2s315.7,141.6,315.7,315.7S774.1,990.5,600,990.5z M929.2,543.5l-8.1-14c-0.8-1.4-0.6-3-0.1-3.8L954,475
				l-15.6-27l-44.9,26c-1.8,1-4.3,0.3-5.3-1.5l-6.7-11.6c-1.1-2-0.4-4.3,1.4-5.3l116.6-67.4c1.8-1,4.2-0.5,5.3,1.5l28.1,48.7
				c12.4,21.5,5.8,48.7-15.1,60.8c-16.2,9.4-35.9,6.2-51.1-5.8l-30.6,50.4C934.5,546.1,931,546.5,929.2,543.5z M1088.3,647.2
				l-69.1-48.6l-56.7,74c-1.7,2-6.5,1.8-7.2-2.5l-2.8-16.3c-0.4-2,0.2-3.4,0.8-3.9l55.4-70.7l-62.3,10.8c-2.6,0.5-5.2-1.4-5.7-4
				l-2.1-11.8c-0.5-2.8,1.4-5.3,4-5.7l130.7-22.7c2.6-0.5,5.2,1.2,5.7,4l2.1,11.8c0.5,2.6-1.4,5.3-4,5.7l-55.5,9.7l68.3,47.3
				c1.1,0.6,2.4,1.9,2.7,3.5l2.7,15.3C1095.7,646.8,1091.9,649.5,1088.3,647.2z"/>
		</g>
		<g id="Bird-Bible">
			<g id="CHURCH_OF_THE_NAZARENE">
				<g>
					<path class="st2" d="M179.5,1365.5c15,0,25.8,5,35.8,13.7c1.2,1.2,1.2,2.9,0,4.2l-4.2,4.2c-1.2,1.7-2.5,1.2-3.7,0
						c-7.9-6.7-18.3-11.2-28.3-11.2c-23.3,0-41.2,19.6-41.2,42.9c0,22.9,17.9,42.5,41.2,42.5c12.9,0,20.4-5,28.3-11.2
						c1.7-1.2,2.5-0.8,3.7-0.4l4.6,4.2c1.2,0.8,0.8,2.9,0,4.2c-10,10-22.9,14.6-36.2,14.6c-29.6,0-53.7-23.7-53.7-53.3
						C126.2,1389.2,149.9,1365.5,179.5,1365.5z"/>
					<path class="st2" d="M256.9,1369.7c0-1.7,1.2-2.9,2.9-2.9h5.8c1.7,0,2.9,1.2,2.9,2.9v43.3h60.4v-43.3c0-1.7,1.2-2.9,2.9-2.9
						h5.8c1.7,0,2.9,1.2,2.9,2.9v98.3c0,1.7-1.2,2.9-2.9,2.9h-5.8c-1.7,0-2.9-1.2-2.9-2.9v-45h-60.4v45c0,1.7-1.2,2.9-2.9,2.9h-5.8
						c-1.7,0-2.9-1.2-2.9-2.9V1369.7z"/>
					<path class="st2" d="M387.7,1369.7c0-1.7,1.2-2.9,2.9-2.9h5.8c1.7,0,2.9,1.2,2.9,2.9v62c0,17.1,10.4,30,27.9,30
						s28.3-12.9,28.3-30v-62c0-1.7,1.2-2.9,2.9-2.9h5.8c1.7,0,2.9,1.2,2.9,2.9v62.9c0,22.5-15.8,39.6-39.6,39.6
						c-23.3,0-39.1-17.1-39.1-39.6v-62.9H387.7z"/>
					<path class="st2" d="M513.4,1369.7c0-1.7,1.2-2.9,2.9-2.9h38.3c17.9,0,32.5,13.7,32.5,31.6c0,13.7-9.2,25-22.1,30.4l20.4,37.5
						c0.8,2.1,0,4.2-2.5,4.2h-7.5c-1.2,0-2.1-0.8-2.5-1.2l-19.6-39.1h-28.3v37.9c0,1.7-1.2,2.9-2.9,2.9h-5.8c-1.7,0-2.9-1.2-2.9-2.9
						L513.4,1369.7L513.4,1369.7z M554.2,1420.5c11.2,0,21.2-9.6,21.2-21.7c0-11.2-10-20.8-21.2-20.8h-28.7v42.5H554.2z"/>
					<path class="st2" d="M676.2,1365.5c15,0,25.8,5,35.8,13.7c1.2,1.2,1.2,2.9,0,4.2l-4.2,4.2c-1.2,1.7-2.5,1.2-3.7,0
						c-7.9-6.7-18.3-11.2-28.3-11.2c-23.3,0-41.2,19.6-41.2,42.9c0,22.9,17.9,42.5,41.2,42.5c12.9,0,20.4-5,28.3-11.2
						c1.7-1.2,2.5-0.8,3.7-0.4l4.6,4.2c1.2,0.8,0.8,2.9,0,4.2c-10,10-22.9,14.6-36.2,14.6c-29.6,0-53.7-23.7-53.7-53.3
						C622.5,1389.2,646.6,1365.5,676.2,1365.5z"/>
					<path class="st2" d="M753.6,1369.7c0-1.7,1.2-2.9,2.9-2.9h5.8c1.7,0,2.9,1.2,2.9,2.9v43.3h60.4v-43.3c0-1.7,1.2-2.9,2.9-2.9
						h5.8c1.7,0,2.9,1.2,2.9,2.9v98.3c0,1.7-1.2,2.9-2.9,2.9h-5.8c-1.7,0-2.9-1.2-2.9-2.9v-45h-60.4v45c0,1.7-1.2,2.9-2.9,2.9h-5.8
						c-1.7,0-2.9-1.2-2.9-2.9V1369.7z"/>
				</g>
				<g>
					<path class="st2" d="M30,1538.3c0-2.1,1.7-3.3,3.7-3.3h5l87.9,109.5c0,0,0,0,0.4,0v-103.7c0-2.1,1.7-3.7,3.7-3.7h6.7
						c2.1,0,3.7,1.7,3.7,3.7v130.7c0,2.1-1.7,3.3-3.7,3.3h-3.7l-89.1-111.6l0,0V1669c0,2.1-1.7,3.7-3.7,3.7h-7.1
						c-2.1,0-3.7-1.7-3.7-3.7V1538.3z"/>
					<path class="st2" d="M183.2,1667.8l59.1-130.7c0.4-1.2,1.7-2.1,3.3-2.1h2.1c1.7,0,2.9,0.8,3.3,2.1l58.7,130.7
						c1.2,2.5-0.4,5-3.3,5h-7.9c-1.7,0-2.9-1.2-3.3-2.1l-14.6-32.1h-69.1l-14.2,32.1c-0.4,0.8-1.7,2.1-3.3,2.1h-7.9
						C183.6,1673.2,182,1670.3,183.2,1667.8z M275.7,1626.6c-9.6-21.2-18.7-42.5-28.3-63.7h-1.7l-28.3,63.7H275.7z"/>
					<path class="st2" d="M338.1,1665.7l70.8-114.9v-0.4h-61.2c-2.1,0-3.7-1.7-3.7-3.7v-6.2c0-2.1,1.7-3.7,3.7-3.7h78.7
						c2.1,0,3.7,1.7,3.7,3.7v2.5L358.5,1659l0,0h64.1c2.1,0,3.7,1.7,3.7,3.7v6.2c0,2.1-1.7,3.7-3.7,3.7h-80.8
						c-2.1,0-3.7-1.7-3.7-3.7V1665.7z"/>
					<path class="st2" d="M458.9,1667.8L518,1537c0.4-1.2,1.7-2.1,3.3-2.1h2.1c1.7,0,2.9,0.8,3.3,2.1l58.7,130.7
						c1.2,2.5-0.4,5-3.3,5h-7.9c-1.7,0-2.9-1.2-3.3-2.1l-14.6-32.1h-69.1l-14.2,32.1c-0.4,0.8-1.7,2.1-3.3,2.1h-7.9
						C459.3,1673.2,457.6,1670.3,458.9,1667.8z M551.3,1626.6c-9.6-21.2-18.7-42.5-28.3-63.7h-1.7l-28.3,63.7H551.3z"/>
					<path class="st2" d="M627.9,1540.4c0-2.1,1.7-3.7,3.7-3.7H682c23.3,0,42.5,18.3,42.5,41.6c0,17.9-12.1,32.9-28.7,39.6
						l26.6,49.5c1.2,2.5,0,5.8-3.3,5.8h-10c-1.7,0-2.9-0.8-2.9-1.7l-25.8-51.6h-37.1v49.5c0,2.1-1.7,3.7-3.7,3.7h-7.5
						c-2.1,0-3.7-1.7-3.7-3.7v-129.1H627.9z M680.8,1607c15,0,27.9-12.5,27.9-28.3c0-15-12.9-27.5-27.9-27.5h-37.9v55.8H680.8z"/>
					<path class="st2" d="M777.8,1540.4c0-2.1,1.7-3.7,3.7-3.7h76.6c2.1,0,3.7,1.7,3.7,3.7v5.8c0,2.1-1.7,3.7-3.7,3.7h-65.4v47.5
						h55.8c2.1,0,3.7,1.7,3.7,3.7v5.8c0,2.1-1.7,3.7-3.7,3.7h-55.8v49.5h65.4c2.1,0,3.7,1.7,3.7,3.7v5.8c0,2.1-1.7,3.7-3.7,3.7
						h-76.6c-2.1,0-3.7-1.7-3.7-3.7V1540.4z"/>
					<path class="st2" d="M914.4,1538.3c0-2.1,1.7-3.3,3.7-3.3h5l87.9,109.5c0,0,0,0,0.4,0v-103.7c0-2.1,1.7-3.7,3.7-3.7h6.7
						c2.1,0,3.7,1.7,3.7,3.7v130.7c0,2.1-1.7,3.3-3.7,3.3h-3.3l-89.1-111.6l0,0V1669c0,2.1-1.7,3.7-3.7,3.7h-6.7
						c-2.1,0-3.7-1.7-3.7-3.7v-130.7H914.4z"/>
					<path class="st2" d="M1086.3,1540.4c0-2.1,1.7-3.7,3.7-3.7h76.2c2.1,0,3.7,1.7,3.7,3.7v5.8c0,2.1-1.7,3.7-3.7,3.7h-65.4v47.5
						h55.8c2.1,0,3.7,1.7,3.7,3.7v5.8c0,2.1-1.7,3.7-3.7,3.7h-55.8v49.5h65.4c2.1,0,3.7,1.7,3.7,3.7v5.8c0,2.1-1.7,3.7-3.7,3.7
						h-76.6c-2.1,0-3.7-1.7-3.7-3.7v-129.5H1086.3z"/>
				</g>
				<g>
					<path class="st2" d="M905.6,1409.2c9.2,0,16.7,7.5,16.7,16.7s-7.5,16.7-16.7,16.7c-9.2,0-16.2-7.5-16.2-16.7
						C889.4,1416.3,896.4,1409.2,905.6,1409.2z M905.6,1436.3c5.8,0,10.4-4.6,10.4-10.4s-4.6-10.4-10.4-10.4s-10.4,5-10.4,10.4
						C895.2,1431.3,900.2,1436.3,905.6,1436.3z"/>
					<path class="st2" d="M929.3,1410.5c0-0.4,0.4-0.8,0.8-0.8h18.7c0.4,0,0.8,0.4,0.8,0.8v3.7c0,0.4-0.4,0.8-0.8,0.8h-13.7v8.7
						h11.2c0.4,0,0.8,0.4,0.8,0.8v3.7c0,0.4-0.4,0.8-0.8,0.8h-11.2v11.7c0,0.4-0.4,0.8-0.8,0.8h-4.2c-0.4,0-0.8-0.4-0.8-0.8V1410.5z
						"/>
					<path class="st2" d="M971.8,1415h-7.1c-0.4,0-0.8-0.4-0.8-0.8v-3.7c0-0.4,0.4-0.8,0.8-0.8h20c0.4,0,0.8,0.4,0.8,0.8v3.7
						c0,0.4-0.4,0.8-0.8,0.8h-7.1v25.8c0,0.4-0.4,0.8-0.8,0.8h-4.2c-0.4,0-0.8-0.4-0.8-0.8L971.8,1415L971.8,1415z"/>
					<path class="st2" d="M991.8,1410.5c0-0.4,0.4-0.8,0.8-0.8h4.2c0.4,0,0.8,0.4,0.8,0.8v12.1h15v-12.1c0-0.4,0.4-0.8,0.8-0.8h4.2
						c0.4,0,0.8,0.4,0.8,0.8v30.4c0,0.4-0.4,0.8-0.8,0.8h-4.2c-0.4,0-0.8-0.4-0.8-0.8v-12.5h-15v12.5c0,0.4-0.4,0.8-0.8,0.8h-4.2
						c-0.4,0-0.8-0.4-0.8-0.8V1410.5z"/>
					<path class="st2" d="M1028,1410.5c0-0.4,0.4-0.8,0.8-0.8h18.7c0.4,0,0.8,0.4,0.8,0.8v3.7c0,0.4-0.4,0.8-0.8,0.8h-13.7v7.5h11.2
						c0.4,0,0.8,0.4,0.8,0.8v3.7c0,0.4-0.4,0.8-0.8,0.8h-11.2v7.9h13.7c0.4,0,0.8,0.4,0.8,0.8v3.7c0,0.4-0.4,0.8-0.8,0.8h-18.7
						c-0.4,0-0.8-0.4-0.8-0.8V1410.5z"/>
				</g>
				<rect x="889.4" y="1456.7" class="st5" width="160.3" height="7.1"/>
			</g>
			<g id="Registered_Mark">
				<path class="st6" d="M423.9,813.8h-2.1c-0.4,0-0.4,0-0.4,0.4l-0.4,4.9c0,0.4,0,0.4,0.4,0.4h0.4c0.4,0,0.4-0.4,0.4-0.4v-1.9h1.1
					l0.9,1.9l0.4,0.4h0.5c0.4,0,0.4-0.4,0.4-0.5c-0.4-0.5-0.5-1.1-0.9-1.9c0.5,0,1.4-0.5,1.4-1.6C425.9,814.4,425,813.8,423.9,813.8
					z M423.8,816.5h-1.4v-0.2v-1.6h1.4c0.5,0,0.9,0.4,0.9,0.9S424.3,816.5,423.8,816.5z"/>
				<path class="st6" d="M423.1,811.4c-3-0.2-5.3,2.3-5.3,5.3c0,3,2.5,5.3,5.3,5.3c2.8,0,5.3-2.5,5.3-5.3
					C428.3,813.8,425.9,811.4,423.1,811.4z M423.4,821.2c-2.8-0.4-4.6-2.1-4.6-4.6c0-2.5,2.1-4.6,4.6-4.6s4.6,1.9,4.6,4.6
					C428,819.1,426,821.2,423.4,821.2z"/>
			</g>
			<g id="Bible">
				<path class="st7" d="M663.2,810.7c-2.1,0-35.3-0.4-73,0c-31.4,0.4-65.4,0-83.9,0c-0.5,0.4-1.1,0.5-1.4,0.9
					c-0.5,0.5-2.5,9.8-1.6,9.8c1.2,0,157.9,0,159.9,0c0.5-0.2,0.7-0.5,1.1-1.1c0.9-2.1,0.9-6.7,0.4-8.6
					C664.2,811.2,663.5,810.7,663.2,810.7z"/>
				<path class="st7" d="M460.7,810.7c-0.5,0-3.3,0-3.7,0c-1.1,0-16,0-22.1,0c-0.5,0.4-1.6,0.5-1.9,1.2c0,0.5,0,8.1,0,8.6
					c0,0.4,0.7,0.9,1.6,0.9c6.1,0,21.1,0,22.5,0c0.2,0,3.3,0.2,4.2-0.9C461.6,819.8,464.4,810.7,460.7,810.7z"/>
				<path class="st7" d="M841.6,811c-1.8-0.7-9.7-0.4-12.1-0.4c-9.3,0-109.3,0-151.1,0c-0.5,0.4-1.2,0.4-1.4,0.9
					c-0.4,0.7-0.4,8.2,0,8.8c0,0.5,0.5,1.1,1.4,1.1c40.7,0,160.7,0.4,162.7,0C843,820.9,843.4,811.7,841.6,811z"/>
				<path class="st7" d="M621.6,763.3c-27-7-88.6,11.4-135.1,21.6c-17.4,3.7-39.1,6.1-46.3,7.7c-5.8,1.1-4.7,5.3-4.7,6.8
					c0,1.9,3.2,1.9,3.2,1.9h223.4c0,0,1.9,0.2,1.1-1.9C659.8,792.4,647.7,770,621.6,763.3z"/>
				<path class="st7" d="M843.2,797.2c-0.4-0.9-1.6-2.5-3-2.6c-5.1-1.1-20.5-3.2-32.6-6.1c-32.8-8.1-74.4-23.5-93-17.2
					c-16.3,5.3-28.1,23-31.6,28.6c-0.9,1.4,0.9,1.6,0.9,1.6H842c0,0,0.9,0,1.1-0.4c0.4-0.4,0.9-0.5,0.9-1.1
					C843.4,799.3,843.4,797.7,843.2,797.2z"/>
				<path class="st8" d="M455.6,840.2c-1.9,1.9-6.5,5.3-6.7,5.3c1.6,1.6,19.8,1.1,21.4,1.1c0.5,3-0.4,7.7-3.5,18.4
					c11.2-1.1,24.4-12.3,27.2-26c0.9-3.7,2.1-8.6,3-12.8c1.1-7.5,2.5-14.7,2.5-14.9c-10-0.2-20.7-0.2-31.2-0.2
					C467.2,825.2,461.7,833.8,455.6,840.2z M472.1,823.8c0.4-0.5,0.5-1.1,0.9-1.1h5.6l1.6-6c0-0.4,0.5-0.5,1.1-0.5h2.1
					c0.5,0,0.9,0.4,0.9,0.5l-1.6,6h5.6c0.7,0.2,0.7,0.7,0.4,1.1l-0.5,2.1c-0.4,0.5-0.5,1.1-0.9,1.1h-5.6l-3.7,12.8
					c0,0.4-0.5,0.5-1.1,0.5h-2.1c-0.5,0-0.9-0.4-0.9-0.5l3.7-12.8h-5.6c-0.4,0-0.4-0.5-0.4-1.1L472.1,823.8z"/>
			</g>
			<g id="Bird">
				<path class="st8" d="M667.7,735.2c-5.6-0.5-5.1,2.6,0,8.8c7.7,9.8,10.7,1.2,8.2-3.7C674.4,736.8,669.5,735.2,667.7,735.2z"/>
				<path class="st8" d="M580.5,642.9c-99.5-68.3-81.1-128.1-81.1-137.4c0-8.8-13.9,17.9-13.7,33.5c-1.1,48.1,44.4,84.6,43.9,84.6
					c-16.8-4.2-38.8-30-46.3-41.8c-0.4-0.5-1.9-1.6-0.9,1.6c1.6,5.1,7.2,19.8,23,33.7C519.8,628.7,541,645,581,645
					C581.9,645,581.6,643.6,580.5,642.9z"/>
				<path class="st8" d="M693.2,574c-14.9-7.7-34-11.8-29.5-8.8c0.4,0.4,53.2,36.8,68.3,63.2c23,40.4-4,84.8-12.8,87.4
					c-0.5,0.4-0.4-2.5-0.4-6c1.6-36.3-32.6-70.9-36.3-74c-9.3-7.5-17.9-13.9-26-19.5c8.1-4.6,13.2-19.5,8.8-29.7
					c-6.5-15.8-17.4-22.3-23.3-25.1c-1.4-0.9-4.7-1.9-3,1.1c10.4,13.7,2.6,37.2-12.8,33.2c-1.4-0.9-2.5-1.9-3.7-2.6
					c-11.2-10.7-27.7-37.4-6.5-87.2c0.5-0.5,0.4-2.5-1.9,0.4c-3.7,4.6-12.6,17.2-15.4,38.4c-0.9,8.1-1.1,14.2-0.5,19
					c-4.7-13.7-9.3-41.8,13.7-78.1c-6.1-3.7-83.3,71.6,9.7,130.7c45.3,28.6,62.1,47.4,67.7,58.1c12.1,23,13.3,54,4.2,72.8
					c-7,14.4-18.4,31.8-19.8,29.1c-3.2-6.5-1.4-27.2-36.8-40.2c-49-17.7-133.4,9.7-167-63.2c-16.5-32.1-3.5-75.1-0.9-88.3
					c0.4-2.1-25.6,8.2-31.2,40.4c-5.1,23.5-8.8,81.2,59.7,109.7c37.7,15.4,81.1,13.7,111.2,13.7c59.1,0,56.1,37.9,61.4,47.4
					c0.4,0.4,0.4,0.9,1.1,0c6.5-6.7,30.7-37.2,46.8-52.1C817.2,649.8,719.3,587.5,693.2,574z"/>
			</g>
		</g>
	</g>
</g>
</svg>
