<?xml version="1.0" encoding="utf-8"?>
<!-- Generator: Adobe Illustrator 26.0.1, SVG Export Plug-In . SVG Version: 6.00 Build 0)  -->
<svg version="1.1" xmlns="http://www.w3.org/2000/svg" xmlns:xlink="http://www.w3.org/1999/xlink" x="0px" y="0px"
	 viewBox="0 0 372.4 568.7" style="enable-background:new 0 0 372.4 568.7;" xml:space="preserve">
<style type="text/css">
	.st0{display:none;fill:#002A0F;}
	.st1{fill:#FFFFFF;}
</style>
<g id="Background">
	<rect id="Rectangle" x="-111.8" y="-13.5" class="st0" width="600" height="600"/>
</g>
<g id="Cross">
	<path id="Cross-Black" d="M236.9,568.7H135.7V210.6H2.2v-91.1h133.5V2.2h101.2v117.4h135.4l0.2,89H236.9
		C236.9,208.5,236.9,568.7,236.9,568.7z M162.1,544.5l46.4-0.1V184.3h139.6v-38.4H208.5V24.4H164v121.4H26.4v38.4H162L162.1,544.5z"
		/>
	<path id="Cross-White" class="st1" d="M234.7,566.6H133.5V208.4H0v-91.1h133.5V0h101.2v117.4h135.6v89H234.7
		C234.7,206.4,234.7,566.6,234.7,566.6z M159.8,542.3h46.5V182.1H346v-38.4H206.4V22.3h-44.5v121.4H24.3v38.4h135.6V542.3z"/>
</g>
</svg>
