<?xml version="1.0" encoding="utf-8"?>
<!-- Generator: Adobe Illustrator 26.0.1, SVG Export Plug-In . SVG Version: 6.00 Build 0)  -->
<svg version="1.1" xmlns="http://www.w3.org/2000/svg" xmlns:xlink="http://www.w3.org/1999/xlink" x="0px" y="0px"
	 viewBox="0 0 1200 1200" style="enable-background:new 0 0 1200 1200;" xml:space="preserve">
<style type="text/css">
	.st0{display:none;}
	.st1{display:inline;fill:#26503A;}
	.st2{fill:#FFFFFF;}
	.st3{fill:#4A4B4D;stroke:#231F20;stroke-width:2;stroke-miterlimit:10;}
	.st4{fill:#010101;}
	.st5{fill-rule:evenodd;clip-rule:evenodd;fill:#4B4C4D;stroke:#231F20;stroke-miterlimit:10;}
	.st6{fill:#4B4C4D;stroke:#231F20;stroke-miterlimit:10;}
</style>
<g id="Background" class="st0">
	<rect class="st1" width="1200" height="1200"/>
</g>
<g id="Avon-Park-Logo">
	<g id="Avon-Park-Ring_00000164511881898484531090000005712956992516840589_">
		<circle id="Circle-White-Background" class="st2" cx="600" cy="600" r="590"/>
		<g id="Letter-Centers">
			<path id="R-Center-Gray" class="st3" d="M1025.6,320.9l-45.9,26.6l19.8,34.2c7.2,12.5,23.9,17.4,37,9.9
				c12.3-7.1,16.2-23.9,8.9-36.4L1025.6,320.9z"/>
			<polygon id="A-Center-Gray_00000050660372696306662640000018319405020431316112_" class="st3" points="851.4,252 894.2,287.3 
				911.2,223.8 910.4,223.1 			"/>
			<path id="P-Center-Gray" class="st3" d="M792.1,130.1L763.6,119L744,169.5l28.5,11.1c14.3,5.5,30.7-1.2,36.4-15.9
				C814.3,150.9,806.4,135.6,792.1,130.1z"/>
			<polygon id="A-Center-Gray" class="st3" points="119.3,513.9 173.4,551.1 183.2,496.5 119.5,512.8 			"/>
			<path id="O-Center-Gray" class="st3" d="M285.9,198.6c-24.8,19.4-29.2,55.9-10.1,80.3c19.3,24.6,55.3,28.5,80.1,9.1
				c25-19.6,29.8-55.5,10.5-80.1C347.3,183.6,310.8,179.1,285.9,198.6z"/>
		</g>
		<path id="Avon-Park-Ring" class="st3" d="M1003.3,196.7C895.6,89,752.3,29.7,600,29.7c-152.3,0-295.6,59.3-403.3,167
			C89,304.4,29.7,447.7,29.7,600s59.3,295.6,167,403.3c107.7,107.7,250.9,167,403.3,167c152.3,0,295.6-59.3,403.3-167
			c107.7-107.7,167-250.9,167-403.3S1111,304.4,1003.3,196.7z M937.8,189.6l1.7,1.4c0.9,0.7,1.7,2.8,1.4,4.3l-41.5,156.4
			c-0.8,3-4,4.1-6.5,2l-10.8-8.9c-2.1-1.7-2.4-3.7-1.8-5.8l8.5-31.8l-55.9-46.2c-9.8,4.9-19.7,9.5-29.5,14.4c-1.5,0.8-4,1-6-0.7
			l-10.8-8.9c-2.6-2.1-2.1-5.4,0.7-6.8l146.1-69.9C934.7,188.5,936.9,188.9,937.8,189.6z M696.4,229l52.3-134.7
			c0.8-2,3.2-3.2,5.4-2.3l47.1,18.3c25.4,9.9,38.4,38.3,28.8,63c-9.8,25.2-38.7,37.7-63.9,27.9l-30-11.6l-18.6,47.8
			c-0.8,2-3.4,3.1-5.4,2.3l-13.4-5.2C696.5,233.5,695.6,231.1,696.4,229z M416.7,97.4l5.4-1.3l119.3,84l0.2-0.1L517.3,79.6
			c-0.5-2.1,0.8-4.4,3.1-5l13.8-3.3c2.2-0.5,4.6,0.9,5.1,3l34.4,142.9c0.5,2.1-1,4.3-3.2,4.8l-5.6,1.4l-120-87l-0.2,0.1l24.9,103.4
			c0.5,2.1-0.8,4.4-3.1,5l-13.6,3.3c-2.2,0.5-4.6-0.9-5.1-3l-34.4-142.9C413,100.1,414.5,97.9,416.7,97.4z M272.4,181.5
			c34.9-27.3,84.5-21.6,111.5,12.8c26.9,34.4,20.4,83.6-14.5,110.9s-84.1,21.8-111-12.6C231.4,258.2,237.5,208.8,272.4,181.5z
			 M104.9,400.3l7.7-13.7c0.9-1.5,2.8-2.3,3.9-2.1l118.1,10.6l0.7-1.2l-70.2-95.6c-0.7-0.9-1.2-2.7-0.2-4.5l7.7-13.7
			c1.6-2.9,5-3,6.8-0.5L274,411.2c0.8,1.2,1.1,2.9,0.2,4.5l-1.1,1.9c-0.8,1.4-2.5,2.2-3.9,2.1l-161.2-13.3
			C104.8,406.2,103.2,403.2,104.9,400.3z M241.7,465.1l-2.5,13.8c-0.5,2.6-2,3.9-4.1,4.4l-31.9,8.2l-12.8,71.4
			c9.1,6.1,17.9,12.5,27,18.6c1.4,0.9,2.8,3,2.3,5.6l-2.5,13.8c-0.6,3.3-3.7,4.5-6.3,2.7l-132.6-93c-1.2-0.9-1.9-3-1.7-4.1l0.4-2.2
			c0.2-1.1,1.6-2.9,3-3.3l156.6-40.6C239.8,459.6,242.3,461.8,241.7,465.1z M600,938.8c-186.8,0-338.8-152-338.8-338.8
			s152-338.8,338.8-338.8s338.8,152,338.8,338.8S786.8,938.8,600,938.8z M953.4,459l-8.7-15c-0.9-1.5-0.6-3.2-0.1-4.1l35.3-54.5
			l-16.8-29L915,384.3c-1.9,1.1-4.6,0.3-5.7-1.6l-7.2-12.5c-1.2-2.1-0.4-4.6,1.5-5.7l125.1-72.3c1.9-1.1,4.5-0.5,5.7,1.6l30.2,52.2
			c13.3,23,6.2,52.2-16.2,65.2c-17.4,10.1-38.5,6.6-54.8-6.2l-32.8,54.1C959.1,461.8,955.3,462.3,953.4,459z M1124.2,570.3
			l-74.2-52.1l-60.9,79.5c-1.8,2.1-7,1.9-7.8-2.7l-3-17.5c-0.4-2.2,0.3-3.6,0.8-4.2l59.5-75.8l-66.9,11.6c-2.8,0.5-5.6-1.5-6.1-4.3
			l-2.2-12.7c-0.5-3.1,1.5-5.7,4.3-6.1l140.3-24.4c2.8-0.5,5.5,1.3,6.1,4.3l2.2,12.7c0.5,2.8-1.5,5.7-4.3,6.1l-59.6,10.4l73.3,50.7
			c1.2,0.7,2.6,2,2.9,3.8l2.8,16.4C1132.1,569.9,1127.9,572.8,1124.2,570.3z"/>
	</g>
	<g id="Bird-Bible">
		<g id="Registered_Mark">
			<path class="st4" d="M411.1,748.8h-2.3c-0.4,0-0.4,0-0.4,0.4l-0.4,5.3c0,0.4,0,0.4,0.4,0.4h0.4c0.4,0,0.4-0.4,0.4-0.4v-2.1h1.1
				l0.9,2.1l0.4,0.4h0.6c0.4,0,0.4-0.4,0.4-0.6c-0.4-0.6-0.6-1.1-0.9-2.1c0.6,0,1.5-0.6,1.5-1.7
				C413.2,749.3,412.3,748.8,411.1,748.8z M410.9,751.6h-1.5v-0.2v-1.7h1.5c0.6,0,0.9,0.4,0.9,0.9S411.5,751.6,410.9,751.6z"/>
			<path class="st4" d="M410.2,746.1c-3.2-0.2-5.6,2.4-5.6,5.6c0,3.2,2.6,5.6,5.6,5.6c3,0,5.6-2.6,5.6-5.6
				C415.8,748.8,413.2,746.1,410.2,746.1z M410.6,756.7c-3-0.4-4.9-2.3-4.9-4.9c0-2.6,2.3-4.9,4.9-4.9s4.9,2.1,4.9,4.9
				C415.5,754.4,413.4,756.7,410.6,756.7z"/>
		</g>
		<g id="Bible">
			<path class="st5" d="M667.8,745.4c-2.3,0-37.8-0.4-78.3,0c-33.7,0.4-70.2,0-90,0c-0.6,0.4-1.1,0.6-1.5,0.9
				c-0.6,0.6-2.6,10.5-1.7,10.5c1.3,0,169.4,0,171.5,0c0.6-0.2,0.8-0.6,1.1-1.1c0.9-2.3,0.9-7.2,0.4-9.2
				C668.9,745.9,668.1,745.4,667.8,745.4z"/>
			<path class="st5" d="M450.5,745.4c-0.6,0-3.6,0-4,0c-1.1,0-17.1,0-23.7,0c-0.6,0.4-1.7,0.6-2.1,1.3c0,0.6,0,8.7,0,9.2
				c0,0.4,0.8,0.9,1.7,0.9c6.6,0,22.6,0,24.1,0c0.2,0,3.6,0.2,4.5-0.9C451.5,755.2,454.5,745.4,450.5,745.4z"/>
			<path class="st5" d="M859.2,745.8c-1.9-0.8-10.4-0.4-13-0.4c-10,0-117.3,0-162.1,0c-0.6,0.4-1.3,0.4-1.5,0.9
				c-0.4,0.8-0.4,8.8,0,9.4c0,0.6,0.6,1.1,1.5,1.1c43.7,0,172.4,0.4,174.5,0C860.7,756.3,861.1,746.5,859.2,745.8z"/>
			<path class="st5" d="M623.2,694.6c-29-7.5-95.1,12.2-144.9,23.2c-18.6,4-42,6.6-49.7,8.3c-6.2,1.1-5.1,5.6-5.1,7.3
				c0,2.1,3.4,2.1,3.4,2.1h239.6c0,0,2.1,0.2,1.1-2.1C664.2,725.8,651.2,701.7,623.2,694.6z"/>
			<path class="st5" d="M860.9,730.9c-0.4-0.9-1.7-2.6-3.2-2.8c-5.5-1.1-22-3.4-35-6.6c-35.2-8.7-79.8-25.2-99.8-18.4
				c-17.5,5.6-30.1,24.7-33.9,30.7c-0.9,1.5,0.9,1.7,0.9,1.7h169.6c0,0,0.9,0,1.1-0.4c0.4-0.4,0.9-0.6,0.9-1.1
				C861.1,733.1,861.1,731.5,860.9,730.9z"/>
			<path class="st6" d="M445.1,777c-2.1,2.1-7,5.6-7.2,5.6c1.7,1.7,21.3,1.1,23,1.1c0.6,3.2-0.4,8.3-3.8,19.8
				c12-1.1,26.2-13.2,29.2-27.9c0.9-4,2.3-9.2,3.2-13.7c1.1-8.1,2.6-15.8,2.6-16c-10.7-0.2-22.2-0.2-33.5-0.2
				C457.5,761,451.7,770.2,445.1,777z M462.8,759.5c0.4-0.6,0.6-1.1,0.9-1.1h6l1.7-6.4c0-0.4,0.6-0.6,1.1-0.6h2.3
				c0.6,0,0.9,0.4,0.9,0.6l-1.7,6.4h6c0.8,0.2,0.8,0.8,0.4,1.1l-0.6,2.3c-0.4,0.6-0.6,1.1-0.9,1.1h-6l-4,13.7c0,0.4-0.6,0.6-1.1,0.6
				h-2.3c-0.6,0-0.9-0.4-0.9-0.6l4-13.7h-6c-0.4,0-0.4-0.6-0.4-1.1L462.8,759.5z"/>
		</g>
		<g id="Bird">
			<path class="st6" d="M672.7,664.4c-6-0.6-5.5,2.8,0,9.4c8.3,10.5,11.5,1.3,8.8-4C679.8,666.1,674.5,664.4,672.7,664.4z"/>
			<path class="st6" d="M579.1,565.4c-106.7-73.2-87-137.4-87-147.4c0-9.4-14.9,19.2-14.7,36c-1.1,51.6,47.6,90.7,47.1,90.7
				c-18.1-4.5-41.6-32.2-49.7-44.8c-0.4-0.6-2.1-1.7-0.9,1.7c1.7,5.5,7.7,21.3,24.7,36.1c15.4,12.4,38.2,29.9,81.1,29.9
				C580.6,567.7,580.2,566.2,579.1,565.4z"/>
			<path class="st6" d="M699.9,491.5c-16-8.3-36.5-12.6-31.6-9.4c0.4,0.4,57,39.5,73.2,67.8c24.7,43.3-4.3,90.9-13.7,93.7
				c-0.6,0.4-0.4-2.6-0.4-6.4c1.7-39-35-76-39-79.4c-10-8.1-19.2-14.9-27.9-20.9c8.7-4.9,14.1-20.9,9.4-31.8
				c-7-16.9-18.6-23.9-25-26.9c-1.5-0.9-5.1-2.1-3.2,1.1c11.1,14.7,2.8,39.9-13.7,35.6c-1.5-0.9-2.6-2.1-4-2.8
				c-12-11.5-29.7-40.1-7-93.5c0.6-0.6,0.4-2.6-2.1,0.4c-4,4.9-13.6,18.4-16.6,41.2c-0.9,8.7-1.1,15.2-0.6,20.3
				c-5.1-14.7-10-44.8,14.7-83.8c-6.6-4-89.4,76.8,10.4,140.2c48.6,30.7,66.6,50.8,72.7,62.3c13,24.7,14.3,58,4.5,78.1
				c-7.5,15.4-19.8,34.1-21.3,31.2c-3.4-7-1.5-29.2-39.5-43.1c-52.5-19-143.1,10.4-179.2-67.8c-17.7-34.4-3.8-80.6-0.9-94.7
				c0.4-2.3-27.5,8.8-33.5,43.3c-5.5,25.2-9.4,87.2,64,117.6c40.5,16.6,87,14.7,119.3,14.7c63.4,0,60.2,40.7,65.9,50.8
				c0.4,0.4,0.4,0.9,1.1,0c7-7.2,32.9-39.9,50.3-55.9C833,572.8,728,506,699.9,491.5z"/>
		</g>
	</g>
</g>
</svg>
