<?xml version="1.0" encoding="utf-8"?>
<!-- Generator: Adobe Illustrator 26.0.1, SVG Export Plug-In . SVG Version: 6.00 Build 0)  -->
<svg version="1.1" xmlns="http://www.w3.org/2000/svg" xmlns:xlink="http://www.w3.org/1999/xlink" x="0px" y="0px"
	 viewBox="0 0 600 600" style="enable-background:new 0 0 600 600;" xml:space="preserve">
<style type="text/css">
	.st0{fill:#010101;}
	.st1{display:none;fill:#242424;stroke:#FFFFFF;stroke-width:0.5;stroke-miterlimit:10;}
	.st2{display:none;fill:#FFFFFF;}
	.st3{fill:#FFFFFF;stroke:#231F20;stroke-width:0.5;stroke-miterlimit:10;}
	.st4{fill-rule:evenodd;clip-rule:evenodd;fill:#FFFFFF;stroke:#231F20;stroke-width:0.5;stroke-miterlimit:10;}
	.st5{fill:#FFFFFF;}
	.st6{fill:#424143;}
	.st7{fill-rule:evenodd;clip-rule:evenodd;fill:#424143;stroke:#231F20;stroke-miterlimit:10;}
	.st8{fill:#424143;stroke:#231F20;stroke-miterlimit:10;}
</style>
<g id="Background">
	<rect class="st0" width="600" height="600"/>
	<path class="st1" d="M222.6,723c0-3.1,2.5-5,5.6-5h7.5l131,163.3c0,0,0,0,0.6,0V726.7c0-3.1,2.5-5.6,5.6-5.6h9.9
		c3.1,0,5.6,2.5,5.6,5.6v195c0,3.1-2.5,5-5.6,5h-5.6L244.3,760.2l0,0v157.7c0,3.1-2.5,5.6-5.6,5.6h-10.6c-3.1,0-5.6-2.5-5.6-5.6V723
		z"/>
	<circle id="Lettering-Template" class="st2" cx="316.3" cy="-54.4" r="423"/>
</g>
<g id="AP-Logo_00000026886051949588681230000006510708863788541871_">
	<g id="AP-Logo">
		<g id="Church_of_the_Nazarene">
			<g>
				<path class="st3" d="M134,451.4c5.9,0,10.2,2,14.1,5.4c0.5,0.5,0.5,1.2,0,1.6l-1.6,1.6c-0.5,0.7-1,0.5-1.5,0
					c-3.1-2.6-7.2-4.4-11.2-4.4c-9.2,0-16.3,7.7-16.3,16.9c0,9,7.1,16.8,16.3,16.8c5.1,0,8.1-2,11.2-4.4c0.7-0.5,1-0.3,1.5-0.2
					l1.8,1.6c0.5,0.3,0.3,1.2,0,1.6c-3.9,3.9-9,5.8-14.3,5.8c-11.7,0-21.2-9.4-21.2-21C113,460.7,122.3,451.4,134,451.4z"/>
				<path class="st3" d="M164.6,453c0-0.7,0.5-1.2,1.2-1.2h2.3c0.7,0,1.2,0.5,1.2,1.2v17.1H193V453c0-0.7,0.5-1.2,1.2-1.2h2.3
					c0.7,0,1.2,0.5,1.2,1.2v38.8c0,0.7-0.5,1.2-1.2,1.2h-2.3c-0.7,0-1.2-0.5-1.2-1.2v-17.8h-23.8v17.8c0,0.7-0.5,1.2-1.2,1.2h-2.3
					c-0.7,0-1.2-0.5-1.2-1.2V453z"/>
				<path class="st3" d="M216.2,453c0-0.7,0.5-1.2,1.2-1.2h2.3c0.7,0,1.2,0.5,1.2,1.2v24.5c0,6.7,4.1,11.8,11,11.8
					c6.9,0,11.2-5.1,11.2-11.8V453c0-0.7,0.5-1.2,1.2-1.2h2.3c0.7,0,1.2,0.5,1.2,1.2v24.8c0,8.9-6.2,15.6-15.6,15.6
					c-9.2,0-15.4-6.7-15.4-15.6V453H216.2z"/>
				<path class="st3" d="M265.8,453c0-0.7,0.5-1.2,1.2-1.2h15.1c7.1,0,12.8,5.4,12.8,12.5c0,5.4-3.6,9.9-8.7,12l8.1,14.8
					c0.3,0.8,0,1.6-1,1.6h-3c-0.5,0-0.8-0.3-1-0.5l-7.7-15.4h-11.2v15c0,0.7-0.5,1.2-1.2,1.2H267c-0.7,0-1.2-0.5-1.2-1.2L265.8,453
					L265.8,453z M281.9,473.1c4.4,0,8.4-3.8,8.4-8.5c0-4.4-3.9-8.2-8.4-8.2h-11.3v16.8H281.9z"/>
				<path class="st3" d="M330.1,451.4c5.9,0,10.2,2,14.1,5.4c0.5,0.5,0.5,1.2,0,1.6l-1.6,1.6c-0.5,0.7-1,0.5-1.5,0
					c-3.1-2.6-7.2-4.4-11.2-4.4c-9.2,0-16.3,7.7-16.3,16.9c0,9,7.1,16.8,16.3,16.8c5.1,0,8.1-2,11.2-4.4c0.7-0.5,1-0.3,1.5-0.2
					l1.8,1.6c0.5,0.3,0.3,1.2,0,1.6c-3.9,3.9-9,5.8-14.3,5.8c-11.7,0-21.2-9.4-21.2-21C308.9,460.7,318.4,451.4,330.1,451.4z"/>
				<path class="st3" d="M360.6,453c0-0.7,0.5-1.2,1.2-1.2h2.3c0.7,0,1.2,0.5,1.2,1.2v17.1h23.8V453c0-0.7,0.5-1.2,1.2-1.2h2.3
					c0.7,0,1.2,0.5,1.2,1.2v38.8c0,0.7-0.5,1.2-1.2,1.2h-2.3c-0.7,0-1.2-0.5-1.2-1.2v-17.8h-23.8v17.8c0,0.7-0.5,1.2-1.2,1.2h-2.3
					c-0.7,0-1.2-0.5-1.2-1.2V453z"/>
			</g>
			<g>
				<path class="st3" d="M75,519.6c0-0.8,0.7-1.3,1.5-1.3h2l34.7,43.2c0,0,0,0,0.2,0v-40.9c0-0.8,0.7-1.5,1.5-1.5h2.6
					c0.8,0,1.5,0.7,1.5,1.5v51.6c0,0.8-0.7,1.3-1.5,1.3h-1.5l-35.2-44l0,0v41.7c0,0.8-0.7,1.5-1.5,1.5h-2.8c-0.8,0-1.5-0.7-1.5-1.5
					V519.6z"/>
				<path class="st3" d="M135.5,570.7l23.3-51.6c0.2-0.5,0.7-0.8,1.3-0.8h0.8c0.7,0,1.2,0.3,1.3,0.8l23.2,51.6c0.5,1-0.2,2-1.3,2
					H181c-0.7,0-1.2-0.5-1.3-0.8l-5.8-12.7h-27.3l-5.6,12.7c-0.2,0.3-0.7,0.8-1.3,0.8h-3.1C135.6,572.8,135,571.7,135.5,570.7z
					 M172,554.4c-3.8-8.4-7.4-16.8-11.2-25.1h-0.7L149,554.4H172z"/>
				<path class="st3" d="M196.6,569.9l27.9-45.4v-0.2h-24.2c-0.8,0-1.5-0.7-1.5-1.5v-2.5c0-0.8,0.7-1.5,1.5-1.5h31.1
					c0.8,0,1.5,0.7,1.5,1.5v1l-28.3,45.9l0,0H230c0.8,0,1.5,0.7,1.5,1.5v2.5c0,0.8-0.7,1.5-1.5,1.5h-31.9c-0.8,0-1.5-0.7-1.5-1.5
					V569.9z"/>
				<path class="st3" d="M244.3,570.7l23.3-51.6c0.2-0.5,0.7-0.8,1.3-0.8h0.8c0.7,0,1.2,0.3,1.3,0.8l23.2,51.6c0.5,1-0.2,2-1.3,2
					h-3.1c-0.7,0-1.2-0.5-1.3-0.8l-5.8-12.7h-27.3l-5.6,12.7c-0.2,0.3-0.7,0.8-1.3,0.8h-3.1C244.4,572.8,243.8,571.7,244.3,570.7z
					 M280.8,554.4c-3.8-8.4-7.4-16.8-11.2-25.1h-0.7l-11.2,25.1H280.8z"/>
				<path class="st3" d="M311,520.4c0-0.8,0.7-1.5,1.5-1.5h19.9c9.2,0,16.8,7.2,16.8,16.4c0,7.1-4.8,13-11.3,15.6l10.5,19.6
					c0.5,1,0,2.3-1.3,2.3h-3.9c-0.7,0-1.2-0.3-1.2-0.7l-10.2-20.4h-14.6v19.6c0,0.8-0.7,1.5-1.5,1.5h-3c-0.8,0-1.5-0.7-1.5-1.5
					v-50.9H311z M331.9,546.7c5.9,0,11-4.9,11-11.2c0-5.9-5.1-10.8-11-10.8h-15v22H331.9z"/>
				<path class="st3" d="M370.2,520.4c0-0.8,0.7-1.5,1.5-1.5h30.2c0.8,0,1.5,0.7,1.5,1.5v2.3c0,0.8-0.7,1.5-1.5,1.5h-25.8v18.7h22
					c0.8,0,1.5,0.7,1.5,1.5v2.3c0,0.8-0.7,1.5-1.5,1.5h-22v19.6h25.8c0.8,0,1.5,0.7,1.5,1.5v2.3c0,0.8-0.7,1.5-1.5,1.5h-30.2
					c-0.8,0-1.5-0.7-1.5-1.5V520.4z"/>
				<path class="st3" d="M424.1,519.6c0-0.8,0.7-1.3,1.5-1.3h2l34.7,43.2c0,0,0,0,0.2,0v-40.9c0-0.8,0.7-1.5,1.5-1.5h2.6
					c0.8,0,1.5,0.7,1.5,1.5v51.6c0,0.8-0.7,1.3-1.5,1.3h-1.3l-35.2-44l0,0v41.7c0,0.8-0.7,1.5-1.5,1.5h-2.6c-0.8,0-1.5-0.7-1.5-1.5
					v-51.6H424.1z"/>
				<path class="st3" d="M492,520.4c0-0.8,0.7-1.5,1.5-1.5h30.1c0.8,0,1.5,0.7,1.5,1.5v2.3c0,0.8-0.7,1.5-1.5,1.5h-25.8v18.7h22
					c0.8,0,1.5,0.7,1.5,1.5v2.3c0,0.8-0.7,1.5-1.5,1.5h-22v19.6h25.8c0.8,0,1.5,0.7,1.5,1.5v2.3c0,0.8-0.7,1.5-1.5,1.5h-30.2
					c-0.8,0-1.5-0.7-1.5-1.5v-51.1H492z"/>
			</g>
			<g>
				<path class="st3" d="M420.6,468.6c3.6,0,6.6,3,6.6,6.6c0,3.6-3,6.6-6.6,6.6c-3.6,0-6.4-3-6.4-6.6
					C414.2,471.4,417,468.6,420.6,468.6z M420.6,479.3c2.3,0,4.1-1.8,4.1-4.1s-1.8-4.1-4.1-4.1c-2.3,0-4.1,2-4.1,4.1
					C416.5,477.3,418.5,479.3,420.6,479.3z"/>
				<path class="st3" d="M430,469.1c0-0.2,0.2-0.3,0.3-0.3h7.4c0.2,0,0.3,0.2,0.3,0.3v1.5c0,0.2-0.2,0.3-0.3,0.3h-5.4v3.5h4.4
					c0.2,0,0.3,0.2,0.3,0.3v1.5c0,0.2-0.2,0.3-0.3,0.3h-4.4v4.6c0,0.2-0.2,0.3-0.3,0.3h-1.6c-0.2,0-0.3-0.2-0.3-0.3V469.1z"/>
				<path class="st3" d="M446.8,470.9H444c-0.2,0-0.3-0.2-0.3-0.3v-1.5c0-0.2,0.2-0.3,0.3-0.3h7.9c0.2,0,0.3,0.2,0.3,0.3v1.5
					c0,0.2-0.2,0.3-0.3,0.3h-2.8v10.2c0,0.2-0.2,0.3-0.3,0.3h-1.6c-0.2,0-0.3-0.2-0.3-0.3L446.8,470.9L446.8,470.9z"/>
				<path class="st3" d="M454.7,469.1c0-0.2,0.2-0.3,0.3-0.3h1.6c0.2,0,0.3,0.2,0.3,0.3v4.8h5.9v-4.8c0-0.2,0.2-0.3,0.3-0.3h1.6
					c0.2,0,0.3,0.2,0.3,0.3v12c0,0.2-0.2,0.3-0.3,0.3h-1.6c-0.2,0-0.3-0.2-0.3-0.3v-4.9H457v4.9c0,0.2-0.2,0.3-0.3,0.3H455
					c-0.2,0-0.3-0.2-0.3-0.3V469.1z"/>
				<path class="st3" d="M469,469.1c0-0.2,0.2-0.3,0.3-0.3h7.4c0.2,0,0.3,0.2,0.3,0.3v1.5c0,0.2-0.2,0.3-0.3,0.3h-5.4v3h4.4
					c0.2,0,0.3,0.2,0.3,0.3v1.5c0,0.2-0.2,0.3-0.3,0.3h-4.4v3.1h5.4c0.2,0,0.3,0.2,0.3,0.3v1.5c0,0.2-0.2,0.3-0.3,0.3h-7.4
					c-0.2,0-0.3-0.2-0.3-0.3V469.1z"/>
			</g>
			<rect x="414.2" y="487.4" class="st4" width="63.3" height="2.8"/>
		</g>
		<g id="Avon-Park-Logo_00000070798094431849275280000002615969919565565097_">
			<g id="Avon-Park-Ring_00000164511881898484531090000005712956992516840589_">
				
					<circle id="Circle-White-Background_00000073697751857955115720000016374236675920610432_" class="st5" cx="300" cy="211.8" r="183.8"/>
				<circle id="Circle-Gray-Background" class="st6" cx="300" cy="211.8" r="179"/>
				<circle id="Circle-White-Background-small" class="st5" cx="300" cy="211.8" r="110"/>
				<g id="NAZ">
					<path id="Z" class="st5" d="M333.9,374.6l10.3-45.8l-0.1-0.3l-19.3,6.1c-0.7,0.2-1.5-0.2-1.7-0.9l-1.3-4
						c-0.2-0.7,0.2-1.5,0.9-1.7l28.2-9c0.7-0.2,1.5,0.2,1.7,0.9l0.3,0.9l-10.2,46.4l0,0.1l20-6.4c0.8-0.2,1.5,0.2,1.7,0.9l1.2,3.9
						c0.2,0.7-0.1,1.5-0.9,1.7l-28.8,9.1c-0.7,0.2-1.5-0.2-1.7-0.9L333.9,374.6z"/>
					<path id="A" class="st5" d="M276.1,377.9l22.1-48.3c0.2-0.4,0.9-0.8,1.2-0.8l0.7,0c0.4,0,1,0.4,1.2,0.8l21.8,48.4
						c0.4,0.9-0.1,1.9-1.2,1.9l-4.5,0c-0.9,0-1.4-0.4-1.7-1.1l-4.4-9.9l-23.5,0c-1.4,3.3-3,6.5-4.4,9.8c-0.2,0.5-0.8,1.1-1.7,1.1
						l-4.5,0C276.3,379.8,275.7,378.9,276.1,377.9z M308.7,362.8l-8.8-19.7l-0.4,0l-8.8,19.7L308.7,362.8z"/>
					<path id="N" class="st5" d="M237.4,314.4c0.3-0.7,1.1-1,1.7-0.7l1.7,0.7l16,45l0.1,0l12.3-31.7c0.3-0.7,1-1.1,1.8-0.8l4.3,1.7
						c0.7,0.3,1,1.1,0.8,1.8l-17.6,45.1c-0.3,0.7-1.1,1-1.7,0.7l-1.7-0.7l-15.6-45.9l-0.1,0l-12.7,32.6c-0.3,0.7-1,1.1-1.8,0.8
						l-4.2-1.6c-0.7-0.3-1-1.1-0.8-1.8L237.4,314.4z"/>
				</g>
				<g id="AVON_PARK">
					<path id="K" class="st5" d="M464.1,177c0.9-0.1,1.8,0.6,1.9,1.8l0.5,4.7c0.1,1.1-0.6,2-1.5,2.1l-19.8,1.9l23.1,21
						c0.4,0.3,0.8,0.8,0.9,1.5l0.6,6.1c0.1,1.5-1.3,2.4-2.5,1.4L443.9,196l-21.7,27.3c-0.7,0.7-2.3,0.5-2.5-1.2l-0.6-6.5
						c-0.1-0.8,0.2-1.3,0.4-1.5l21.1-26l-22.2,2.2c-0.9,0.1-1.8-0.7-1.9-1.8l-0.5-4.7c-0.1-1.1,0.6-2,1.5-2.1L464.1,177z"/>
					<path id="R" class="st5" d="M438,115.2c0.6-0.3,1.5-0.1,1.9,0.7l10.6,19.6c4.7,8.7,2.5,19-5.1,23c-5.8,3.1-13,1.3-18.6-3.8
						l-10.8,18.5c-0.6,0.9-1.8,1-2.5-0.2l-3-5.6c-0.3-0.6-0.2-1.2-0.1-1.5l11.6-18.6l-5.9-10.9l-16.1,8.7c-0.6,0.3-1.6,0-1.9-0.7
						l-2.5-4.7c-0.4-0.8-0.2-1.7,0.5-2L438,115.2z M428.7,146.6c2.5,4.7,8.2,6.9,12.6,4.6c4.1-2.2,5.3-8.2,2.8-12.9l-6.9-12.8
						l-15.4,8.3L428.7,146.6z"/>
					<path id="A_00000147220809022239615700000001547497453208625547_" class="st5" d="M354,100.9l49.9-22c0.5-0.2,1.3,0,1.6,0.3
						l0.6,0.5c0.3,0.3,0.7,1,0.6,1.5l-10.8,53.4c-0.2,1-1.3,1.4-2.3,0.6l-4-3.2c-0.8-0.6-0.9-1.3-0.8-2l2.2-10.9l-20.9-16.8
						c-3.3,1.6-6.7,3-10.1,4.6c-0.5,0.2-1.4,0.3-2.1-0.3l-4-3.2C353,102.4,353,101.3,354,100.9z M392.5,112.2l4.5-21.7l-0.3-0.3
						l-20.1,9.1L392.5,112.2z"/>
					<path id="P" class="st5" d="M335.7,47.4c0.2-0.7,1-1.1,1.9-0.8l17.8,5.7C365,55.4,370.7,64.7,368,73
						c-2.7,8.5-12.8,12.9-22.4,9.8l-11.3-3.6l-5.2,16.1c-0.2,0.7-1.1,1.1-1.9,0.8l-5.1-1.6c-0.9-0.3-1.3-1.1-1.1-1.8L335.7,47.4z
						 M347.3,75.9c5.4,1.7,11.1-0.6,12.7-5.6c1.5-4.7-1.9-9.7-7.3-11.4L342,55.5l-5.5,17L347.3,75.9z"/>
					<path id="N_00000124880036639692046240000018294416339115665086_" class="st5" d="M225.4,59.6c-0.2-0.7,0.2-1.4,0.9-1.7
						l1.7-0.6l41.3,23.9l0.1,0l-11.1-32.1c-0.2-0.7,0.1-1.5,0.8-1.7l4.3-1.5c0.7-0.2,1.5,0.2,1.7,0.8l15.8,45.7
						c0.2,0.7-0.2,1.4-0.9,1.7l-1.8,0.6l-41.6-24.9l-0.1,0l11.4,33.1c0.2,0.7-0.1,1.5-0.8,1.7l-4.3,1.5c-0.7,0.2-1.5-0.2-1.7-0.8
						L225.4,59.6z"/>
					<path id="O" class="st5" d="M184.6,87.8c10.5-9.8,26.8-9.2,36.6,1.3c9.8,10.5,9.2,26.7-1.3,36.5c-10.5,9.8-26.7,9.3-36.5-1.2
						C173.6,113.9,174.1,97.6,184.6,87.8z M215,120.4c7.5-7,8-18.9,0.9-26.4c-7-7.5-19-8-26.5-0.9c-7.5,7-7.8,19-0.8,26.4
						C195.7,127,207.6,127.3,215,120.4z"/>
					<path id="V" class="st5" d="M138.9,163.1c-1,0-1.6-0.9-1.2-1.9l2.1-4.6c0.2-0.5,0.8-0.8,1.2-0.8l38.9,0.5l0.2-0.4l-25.7-29.3
						c-0.3-0.3-0.5-0.9-0.2-1.4l2.1-4.6c0.5-1,1.5-1.1,2.2-0.3l34.7,40.3c0.3,0.4,0.4,0.9,0.2,1.4l-0.3,0.7
						c-0.2,0.5-0.7,0.8-1.2,0.8L138.9,163.1z"/>
					<path id="A_00000051383925021296608860000016804666925114866323_" class="st5" d="M178.3,222.8L132.4,196
						c-0.4-0.3-0.7-0.9-0.7-1.3l0.1-0.7c0-0.4,0.5-1,0.9-1.1l50.3-17c1-0.3,1.8,0.3,1.7,1.4l-0.5,4.5c-0.1,0.9-0.6,1.3-1.2,1.5
						l-10.2,3.4l-2.4,23.4c3.1,1.8,6.2,3.6,9.4,5.3c0.5,0.3,1,0.9,0.9,1.8l-0.5,4.5C180.2,222.8,179.2,223.3,178.3,222.8z
						 M166.4,188.8l-20.5,6.8l0,0.4l18.7,10.7L166.4,188.8z"/>
				</g>
			</g>
			<g id="Bird-Bible">
				<g id="Registered_Mark">
					<path class="st6" d="M234.4,258.5h-0.7c-0.1,0-0.1,0-0.1,0.1l-0.1,1.7c0,0.1,0,0.1,0.1,0.1h0.1c0.1,0,0.1-0.1,0.1-0.1v-0.7h0.4
						l0.3,0.7l0.1,0.1h0.2c0.1,0,0.1-0.1,0.1-0.2c-0.1-0.2-0.2-0.4-0.3-0.7c0.2,0,0.5-0.2,0.5-0.5
						C235,258.7,234.7,258.5,234.4,258.5z M234.3,259.4h-0.5v-0.1v-0.5h0.5c0.2,0,0.3,0.1,0.3,0.3S234.5,259.4,234.3,259.4z"/>
					<path class="st6" d="M234.1,257.7c-1-0.1-1.8,0.8-1.8,1.8c0,1,0.8,1.8,1.8,1.8c0.9,0,1.8-0.8,1.8-1.8
						C235.9,258.5,235,257.7,234.1,257.7z M234.2,261c-0.9-0.1-1.5-0.7-1.5-1.5c0-0.8,0.7-1.5,1.5-1.5s1.5,0.7,1.5,1.5
						C235.7,260.3,235.1,261,234.2,261z"/>
				</g>
				<g id="Bible">
					<path class="st7" d="M315,257.5c-0.7,0-11.9-0.1-24.6,0c-10.6,0.1-22,0-28.3,0c-0.2,0.1-0.4,0.2-0.5,0.3
						c-0.2,0.2-0.8,3.3-0.5,3.3c0.4,0,53.2,0,53.9,0c0.2-0.1,0.2-0.2,0.4-0.4c0.3-0.7,0.3-2.2,0.1-2.9
						C315.3,257.6,315.1,257.5,315,257.5z"/>
					<path class="st7" d="M246.8,257.5c-0.2,0-1.1,0-1.2,0c-0.4,0-5.4,0-7.4,0c-0.2,0.1-0.5,0.2-0.7,0.4c0,0.2,0,2.7,0,2.9
						c0,0.1,0.2,0.3,0.5,0.3c2.1,0,7.1,0,7.6,0c0.1,0,1.1,0.1,1.4-0.3C247,260.5,248,257.5,246.8,257.5z"/>
					<path class="st7" d="M375.1,257.6c-0.6-0.2-3.3-0.1-4.1-0.1c-3.1,0-36.8,0-50.9,0c-0.2,0.1-0.4,0.1-0.5,0.3
						c-0.1,0.2-0.1,2.8,0,3c0,0.2,0.2,0.4,0.5,0.4c13.7,0,54.1,0.1,54.8,0C375.6,260.9,375.7,257.8,375.1,257.6z"/>
					<path class="st7" d="M301,241.5c-9.1-2.4-29.9,3.8-45.5,7.3c-5.9,1.2-13.2,2.1-15.6,2.6c-2,0.4-1.6,1.8-1.6,2.3
						c0,0.7,1.1,0.7,1.1,0.7h75.3c0,0,0.7,0.1,0.4-0.7C313.8,251.3,309.8,243.8,301,241.5z"/>
					<path class="st7" d="M375.6,252.9c-0.1-0.3-0.5-0.8-1-0.9c-1.7-0.4-6.9-1.1-11-2.1c-11.1-2.7-25.1-7.9-31.3-5.8
						c-5.5,1.8-9.5,7.7-10.6,9.6c-0.3,0.5,0.3,0.5,0.3,0.5h53.3c0,0,0.3,0,0.4-0.1c0.1-0.1,0.3-0.2,0.3-0.4
						C375.7,253.6,375.7,253.1,375.6,252.9z"/>
					<path class="st8" d="M245,267.4c-0.7,0.7-2.2,1.8-2.2,1.8c0.5,0.5,6.7,0.4,7.2,0.4c0.2,1-0.1,2.6-1.2,6.2
						c3.8-0.4,8.2-4.1,9.2-8.7c0.3-1.2,0.7-2.9,1-4.3c0.4-2.5,0.8-5,0.8-5c-3.4-0.1-7-0.1-10.5-0.1
						C248.9,262.4,247.1,265.3,245,267.4z M250.6,261.9c0.1-0.2,0.2-0.4,0.3-0.4h1.9l0.5-2c0-0.1,0.2-0.2,0.4-0.2h0.7
						c0.2,0,0.3,0.1,0.3,0.2l-0.5,2h1.9c0.2,0.1,0.2,0.2,0.1,0.4l-0.2,0.7c-0.1,0.2-0.2,0.4-0.3,0.4h-1.9l-1.2,4.3
						c0,0.1-0.2,0.2-0.4,0.2h-0.7c-0.2,0-0.3-0.1-0.3-0.2l1.2-4.3h-1.9c-0.1,0-0.1-0.2-0.1-0.4L250.6,261.9z"/>
				</g>
				<g id="Bird">
					<path class="st8" d="M316.5,232c-1.9-0.2-1.7,0.9,0,3c2.6,3.3,3.6,0.4,2.8-1.2C318.8,232.6,317.1,232,316.5,232z"/>
					<path class="st8" d="M287.1,201c-33.5-23-27.3-43.2-27.3-46.3c0-3-4.7,6-4.6,11.3c-0.4,16.2,15,28.5,14.8,28.5
						c-5.7-1.4-13.1-10.1-15.6-14.1c-0.1-0.2-0.7-0.5-0.3,0.5c0.5,1.7,2.4,6.7,7.7,11.4c4.8,3.9,12,9.4,25.5,9.4
						C287.6,201.7,287.5,201.2,287.1,201z"/>
					<path class="st8" d="M325.1,177.7c-5-2.6-11.5-4-9.9-3c0.1,0.1,17.9,12.4,23,21.3c7.7,13.6-1.4,28.6-4.3,29.4
						c-0.2,0.1-0.1-0.8-0.1-2c0.5-12.2-11-23.9-12.2-24.9c-3.1-2.5-6-4.7-8.7-6.6c2.7-1.5,4.4-6.6,3-10c-2.2-5.3-5.9-7.5-7.9-8.5
						c-0.5-0.3-1.6-0.7-1,0.4c3.5,4.6,0.9,12.5-4.3,11.2c-0.5-0.3-0.8-0.7-1.2-0.9c-3.8-3.6-9.3-12.6-2.2-29.4
						c0.2-0.2,0.1-0.8-0.7,0.1c-1.2,1.5-4.3,5.8-5.2,12.9c-0.3,2.7-0.4,4.8-0.2,6.4c-1.6-4.6-3.1-14.1,4.6-26.3
						c-2.1-1.2-28.1,24.1,3.3,44c15.3,9.6,20.9,16,22.8,19.6c4.1,7.7,4.5,18.2,1.4,24.5c-2.4,4.8-6.2,10.7-6.7,9.8
						c-1.1-2.2-0.5-9.2-12.4-13.5c-16.5-6-44.9,3.3-56.3-21.3c-5.6-10.8-1.2-25.3-0.3-29.7c0.1-0.7-8.6,2.8-10.5,13.6
						c-1.7,7.9-3,27.4,20.1,36.9c12.7,5.2,27.3,4.6,37.5,4.6c19.9,0,18.9,12.8,20.7,16c0.1,0.1,0.1,0.3,0.4,0
						c2.2-2.2,10.3-12.5,15.8-17.6C366.9,203.3,333.9,182.3,325.1,177.7z"/>
				</g>
			</g>
		</g>
	</g>
</g>
</svg>
