<?xml version="1.0" encoding="utf-8"?>
<!-- Generator: Adobe Illustrator 26.0.1, SVG Export Plug-In . SVG Version: 6.00 Build 0)  -->
<svg version="1.1" xmlns="http://www.w3.org/2000/svg" xmlns:xlink="http://www.w3.org/1999/xlink" x="0px" y="0px"
	 viewBox="0 0 792 612" style="enable-background:new 0 0 792 612;" xml:space="preserve">
<style type="text/css">
	.st0{fill:#265039;}
	.st1{fill-rule:evenodd;clip-rule:evenodd;fill:#242424;}
	.st2{fill:#242424;}
	.st3{fill:#FFFFFF;stroke:#FFFFFF;stroke-width:2.500000e-02;stroke-miterlimit:10;}
	.st4{fill:#242424;stroke:#FFFFFF;stroke-width:2.500000e-02;stroke-miterlimit:10;}
</style>
<g id="Background">
	<rect x="101.8" y="51" class="st0" width="588.5" height="510"/>
</g>
<g id="Bird-Bible">
	<g id="Bible">
		<g id="Cover">
			<path id="Cover-5" class="st1" d="M226.2,481.3c25.2,0,71.6,0,114.3-0.4c51.5-0.4,96.4,0.4,99.3,0.4c0.4,0,1.5,0.7,1.8,1.5
				c0.7,2.6,0.7,8.4-0.4,10.9c-0.4,0.7-0.7,1.1-1.5,1.5c-2.6,0-215.9,0-218,0c-1.1,0,1.5-12,2.2-12.8
				C224.7,481.7,225.4,481.3,226.2,481.3z"/>
			<path id="Cover-4" class="st1" d="M129,481.3c8.4,0,28.9,0,30.3,0c0.4,0,4.4,0,5.1,0c5.1,0,1.1,12,0.7,12.8
				c-1.1,1.1-5.5,1.1-5.8,1.1c-1.8,0-22.3,0-30.3,0c-1.1,0-2.2-0.7-2.2-1.1c0-0.7,0-10.2,0-10.9C126.8,481.7,127.9,481.3,129,481.3z
				"/>
			<path id="Cover-3" class="st1" d="M461,481.3c57,0,193.2,0,206,0c3.3,0,13.9-0.4,16.1,0.4c2.2,0.4,1.8,12.8-0.7,13.5
				c-2.6,0.4-166.2,0-221.7,0c-1.1,0-1.8-1.1-1.8-1.5c-0.4-0.7-0.4-10.6,0-11.3C459.2,481.3,459.9,481.3,461,481.3z"/>
			<path id="Cover-2" class="st1" d="M136.3,457.6c9.9-1.8,39.4-5.1,63.2-9.8c63.6-13.1,147.2-36.8,184.1-28.1
				c35.4,8.4,52.2,37.9,56.6,46.7c1.1,2.6-1.5,2.6-1.5,2.6H134.1c0,0-4.4,0-4.4-2.6C129.4,464.6,127.9,459.1,136.3,457.6z"/>
			<path id="Cover-1" class="st1" d="M685.6,463.5c-0.4-1.1-2.2-3.3-4-3.6c-6.9-1.1-28.1-4-44.6-8c-44.9-10.6-101.2-30.3-127.1-22.2
				c-22.3,6.9-38.4,29.9-43.1,36.8c-1.1,1.8,1.1,2.2,1.1,2.2h215.5c0,0,1.1,0,1.5-0.4c0.4-0.4,1.1-0.7,1.1-1.5
				C685.6,466.4,686,464.2,685.6,463.5z"/>
		</g>
		<path id="Ribbon" class="st2" d="M174.3,481.3c-1.5,18.2-8.8,29.2-17.2,37.6c-2.6,2.6-8.8,6.9-9.1,6.9c2.2,2.2,27,1.5,29.2,1.5
			c0.7,3.6-0.4,10.2-4.4,23.7c15.3-1.5,33.2-15.7,37.3-33.6c1.1-4.7,2.9-10.9,4-16.8c1.5-9.8,3.3-19,3.3-19.3
			C203.2,481.3,188.5,481.3,174.3,481.3z M202.1,498.1l-0.7,2.6c-0.4,0.7-0.7,1.1-1.1,1.1h-7.7l-5.1,16.4c0,0.4-0.7,0.7-1.5,0.7
			h-2.9c-0.7,0-1.1-0.4-1.1-0.7l5.1-16.4h-7.7c-0.4,0-0.4-0.7-0.4-1.1l0.7-2.6c0.4-0.7,0.7-1.1,1.1-1.1h7.7l2.2-7.7
			c0-0.4,0.7-0.7,1.5-0.7h2.9c0.7,0,1.1,0.4,1.1,0.7L194,497h7.7C202.4,497,202.4,497.4,202.1,498.1z"/>
		<g id="Register">
			<path class="st2" d="M112.2,487.9v-2.2h1.8c0.7,0,1.1,0.4,1.1,1.1c0,0.7-0.4,1.1-1.1,1.1L112.2,487.9L112.2,487.9z M111.1,491.6
				c0,0.4,0,0.4,0.4,0.4h0.4c0.4,0,0.4-0.4,0.4-0.4V489h1.5l1.1,2.6l0.4,0.4h0.7c0.4,0,0.4-0.4,0.4-0.7c-0.4-0.7-0.7-1.5-1.1-2.6
				c0.7,0,1.8-0.7,1.8-2.2c0-1.5-1.1-2.2-2.6-2.2h-2.9c-0.4,0-0.4,0-0.4,0.4L111.1,491.6L111.1,491.6z M107.5,488.3
				c0-3.3,2.9-6.2,6.2-6.2c3.3,0,6.2,2.6,6.2,6.2c0,3.3-2.6,6.2-6.2,6.2C110,494.5,107.5,491.6,107.5,488.3 M106,488.3
				c0,4,3.3,7.3,7.3,7.3s7.3-3.3,7.3-7.3c0-4-3.3-7.3-7.3-7.3S106,484.3,106,488.3"/>
		</g>
	</g>
	<g id="Bird">
		<g id="Bird-White">
			<path id="Bird_eye_lg_00000093153663740680004260000012829700541056924342_" class="st3" d="M457.8,390
				c-2.3-4.4-8.8-6.4-11.4-6.6c-7.6-0.6-6.8,3.5-0.2,11.3C457.1,407.4,461,396.2,457.8,390z"/>
			<path id="Bird2_00000122680924740017709740000011670148935974499456_" class="st3" d="M225.3,230.9c19.7,14.8,48.3,35.9,103,35.7
				c1.2,0,0.6-1.8-0.8-2.7C192.1,175.9,216.9,98.4,216.9,86.5c0-11.4-19,23.1-18.4,43c-1.3,62.3,60.4,109.1,59.7,109
				c-23-5.6-52.7-38.7-63.2-53.9c-0.4-0.6-2.7-1.9-1.3,2.1C196.2,194.2,203.8,212.9,225.3,230.9z"/>
			<path id="Bird1_00000160154197706315064100000008316407788755345796_" class="st3" d="M481,175.3c-20.5-9.9-46.3-15.1-39.9-11.4
				c0.4,0.2,72.4,47.6,92.7,81.4c31.3,52.2-5.6,109.3-17.3,112.8c-0.8,0.2-0.3-3-0.2-7.4c2-47-44.3-91.6-49.6-95.7
				c-12.6-9.8-24.4-18.1-35.4-25.4c11-5.8,17.8-25.2,12.1-38.2c-8.8-20.3-23.8-28.8-31.6-32.5c-2-1-6.7-2.4-4.1,1.3
				c14.1,17.7,3.6,48.1-17.6,42.8c-1.7-1.1-3.3-2.3-4.9-3.4c-15.2-13.9-37.7-48.4-8.7-112.4c0.6-0.8,0.2-3.1-2.5,0.2
				c-5.2,6-17.2,22-21.3,49.7c-1.1,10.2-1.4,18.2-0.8,24.6c-6.5-17.5-12.9-54,18.5-100.7c-8.3-4.9-113.5,92.5,12.9,168.7
				c61.4,37,84.4,61.2,92,75c16.4,29.7,18.2,69.8,5.8,94c-9.6,18.8-25,41.2-26.9,37.8c-4.4-8.3-1.7-35.3-50.2-51.9
				c-66.7-22.9-181.6,12.5-227.5-81.5c-22.7-41.4-4.7-97.2-1.2-114.1c0.5-2.6-35,10.6-42.7,52c-7,30.3-12.1,104.9,81.3,141.4
				c51.3,20,110.2,17.7,151.5,17.7c80.4,0.1,76.4,49.1,83.5,61c0.2,0.3,0.5,0.9,1.5,0c8.8-8.7,42.2-47.8,64-67.3
				C650.1,273,516.8,192.5,481,175.3z"/>
		</g>
		<g id="Bird-Black_00000091717733450531639020000017869034867852984510_">
			<path id="Bird_eye_lg_00000039131896994232507890000004694423004760393111_" class="st4" d="M457.8,390
				c-2.3-4.4-8.8-6.4-11.4-6.6c-7.6-0.6-6.8,3.5-0.2,11.3C457.1,407.4,461,396.2,457.8,390z"/>
			<path id="Bird2_00000084507393046869779300000006471565033563898533_" class="st4" d="M225.3,230.9c19.7,14.8,48.3,35.9,103,35.7
				c1.2,0,0.6-1.8-0.8-2.7C192.1,175.9,216.9,98.4,216.9,86.5c0-11.4-19,23.1-18.4,43c-1.4,62.3,60.4,109.1,59.7,109
				c-23-5.6-52.7-38.7-63.2-53.9c-0.4-0.6-2.7-1.9-1.3,2.1C196.2,194.2,203.8,212.9,225.3,230.9z"/>
			<path id="Bird1_00000022533339734034142420000018055486367844263562_" class="st4" d="M481,175.3c-20.5-9.9-46.3-15.1-39.9-11.4
				c0.4,0.2,72.4,47.6,92.7,81.4c31.3,52.2-5.6,109.3-17.3,112.8c-0.8,0.2-0.3-3-0.2-7.4c2-47-44.3-91.6-49.6-95.7
				c-12.6-9.8-24.4-18.1-35.4-25.4c11-5.8,17.8-25.2,12.1-38.2c-8.8-20.3-23.8-28.8-31.6-32.5c-2-1-6.7-2.4-4.1,1.3
				c14.1,17.7,3.6,48.1-17.6,42.8c-1.7-1.1-3.3-2.3-4.9-3.4c-15.2-13.9-37.7-48.4-8.7-112.4c0.6-0.8,0.2-3.1-2.5,0.2
				c-5.2,6-17.2,22-21.3,49.7c-1.1,10.2-1.4,18.2-0.8,24.6c-6.5-17.5-12.9-54,18.5-100.7c-8.3-4.9-113.5,92.5,12.9,168.7
				c61.4,37,84.4,61.2,92,75c16.4,29.7,18.2,69.8,5.8,94c-9.6,18.8-25,41.2-26.9,37.8c-4.4-8.3-1.7-35.3-50.2-51.9
				c-66.7-22.9-181.6,12.5-227.5-81.5c-22.7-41.4-4.7-97.2-1.2-114.1c0.5-2.6-35,10.6-42.7,52c-7,30.3-12.1,104.9,81.3,141.4
				c51.3,20,110.2,17.7,151.5,17.7c80.4,0.1,76.4,49.1,83.5,61c0.2,0.3,0.5,0.9,1.5,0c8.8-8.7,42.2-47.8,64-67.3
				C650.1,273,516.8,192.5,481,175.3z"/>
		</g>
	</g>
</g>
</svg>
