<?xml version="1.0" encoding="utf-8"?>
<!-- Generator: Adobe Illustrator 26.0.1, SVG Export Plug-In . SVG Version: 6.00 Build 0)  -->
<svg version="1.1" xmlns="http://www.w3.org/2000/svg" xmlns:xlink="http://www.w3.org/1999/xlink" x="0px" y="0px"
	 viewBox="0 0 620 400" style="enable-background:new 0 0 620 400;" xml:space="preserve">
<style type="text/css">
	.st0{display:none;}
	.st1{fill:#FFCCCC;}
	.st2{fill:#FFFFFF;}
</style>
<g id="Background_00000004515877592924797860000012951814590962037124_" class="st0">
	<rect id="Background" class="st1" width="620" height="400"/>
</g>
<g id="People_00000072253271461342806140000002880026527615755913_">
	<path id="People" class="st2" d="M13,228.3l1.4-9.4c1.4-4,4.1-17.5,5.4-29.6l4.1-21.6l-2.7-2.7c-4.1-5.4-4.1-8.1,0-14.8
		c5.4-9.4,6.8-14.8,4.1-33.7c-2.7-16.2,0-27,8.1-32.3c4.1-1.3,8.1-4,10.8-5.4c5.4-2.7,6.8-8.1,6.8-13.5c0-2.7,0-4-4.1-8.1
		c-2.7-2.7-5.4-4-5.4-4s-2.7-1.3-4.1-2.7c-2.7-1.3-2.7-4-2.7-5.4c0-1.3,0-4,0-6.7C33.3,32.9,36,24.8,40,20.8
		C49.5,12.7,54.9,10,63,10c5.4,0,8.1,1.3,13.5,6.7c2.7,4,6.8,16.2,6.8,22.9c0,5.4-4.1,12.1-9.5,16.2c-5.4,4-5.4,5.4-2.7,10.8
		c2.7,4,9.5,6.7,17.6,9.4c6.8,1.3,10.8,4,13.5,9.4c1.4,2.7,2.7,5.4,2.7,5.4s14.9-8.1,18.9-10.8c2.7-1.3,1.4-1.3-1.4-5.4
		c-6.8-6.7-9.5-25.6-5.4-33.7c4.1-8.1,13.5-14.8,23-14.8c4.1,0,6.8,0,9.5,4c5.4,4,8.1,10.8,9.5,17.5c0,2.7,0,5.4,1.4,6.7
		c1.4,1.3,1.4,6.7-2.7,12.1c-2.7,5.4-4.1,9.4-1.4,9.4c0,0,1.4,1.3,4.1,2.7c1.4,1.3,6.8,5.4,12.2,8.1c5.4,4,10.8,8.1,12.2,9.4
		c10.8,10.8,17.6,29.6,18.9,53.9c0,14.8,0,14.8-8.1,24.3l-5.4,5.4l-1.4,12.1c-1.4,18.9-2.7,35-4.1,39.1c-1.4,2.7-2.7,4-5.4,5.4
		c-4.1,1.3-5.4,2.7-6.8,9.4c-4.1,10.8-4.1,14.8-1.4,20.2c1.4,2.7,5.4,10.8,8.1,17.5c9.5,20.2,12.2,25.6,16.2,39.1
		c2.7,6.7,6.8,17.5,8.1,21.6c2.7,8.1,2.7,9.4,1.4,10.8c-1.4,1.3-1.4,2.7,0,8.1c1.4,4,1.4,6.7,1.4,8.1c-1.4,1.3-23,8.1-31.1,9.4
		c-8.1,0-10.8-1.3-5.4-4c6.8-5.4,8.1-8.1,8.1-9.4c0-1.3,0-2.7,1.4-5.4c1.4-2.7,1.4-2.7,0-4c-2.7-2.7-5.4-6.7-8.1-14.8
		c-1.4-4-2.7-6.7-2.7-8.1c0,0-1.4-1.3-1.4-2.7s-4.1-9.4-9.5-20.2l-9.5-18.9l-1.4,2.7c-4.1,6.7-10.8,28.3-13.5,37.7
		c-8.1,32.3-9.5,35-12.2,37.7c-2.7,1.3-2.7,2.7-2.7,6.7c0,5.4-1.4,6.7-6.8,8.1c-2.7,0-6.8,1.3-10.8,2.7c-8.1,0-17.6,1.3-23,0
		c-4.1-1.3-1.4-4,6.8-9.4c8.1-4,12.2-9.4,9.5-9.4c-1.4,0-2.7,0-4.1-1.3c-1.4-1.3-1.4-1.3,0-8.1c2.7-6.7,5.4-17.5,6.8-27
		c0-2.7,2.7-10.8,2.7-16.2c1.4-5.4,2.7-13.5,4.1-16.2c2.7-10.8,4.1-20.2,9.5-35c2.7-8.1,5.4-17.5,5.4-20.2l1.4-4h-4.1
		c-5.4,0-5.4,0-6.8-13.5c0-8.1-4.1-37.7-4.1-37.7s-1.4-1.3-4.1-1.3c-8.1-1.3-9.5-4-10.8-14.8c0-5.4-1.4-9.4-1.4-10.8h-1.4
		c-1.4,0-1.4,1.3-1.4,4c1.4,2.7,4.1,27,5.4,45.8c0,6.7,1.4,13.5,1.4,14.8c1.4,4,2.7,47.2,2.7,47.2s-12.2,2.7-18.9,4l-4.1,2.7
		l-1.4,6.7c-1.4,8.1-4.1,24.3-5.4,36.4c-2.7,13.5-1.4,20.2,4.1,25.6c5.4,5.4,8.1,10.8,6.8,13.5c0,2.7-1.4,2.7-8.1,1.3h-6.8l-1.4,4
		c-1.4,6.7-6.8,12.1-12.2,12.1c-2.7,0-4.1,0-4.1-2.7c-1.4-4,0-8.1,2.7-14.8c2.7-6.7,1.4-16.2-1.4-31c-2.7-13.5-5.4-29.6-6.8-40.4
		c0-2.7-1.4-6.7-1.4-6.7s-4.1-1.3-9.5-1.3c-5.4-1.3-10.8-2.7-13.5-2.7l-4.1-4v-9.4c0-5.4,0-16.2,1.4-22.9l1.4-12.1L13,228.3z
		 M91.4,132.6v-8.1l-2.7,6.7c-1.4,4-2.7,8.1-2.7,9.4c-1.4,1.3,0,1.3,1.4,1.3C91.4,140.7,91.4,139.4,91.4,132.6L91.4,132.6z
		 M444.5,386c-1.4-2.7-1.4-5.4,1.4-14.8c2.7-13.5,2.7-13.5-4.1-41.8c-1.4-8.1-4.1-17.5-4.1-22.9c-1.4-13.5-2.7-13.5-8.1-13.5
		c-5.4,0-13.5-1.3-17.6-2.7c-1.4,0-1.4,1.3-2.7,13.5c-1.4,8.1-1.4,22.9-2.7,33.7c-1.4,22.9-1.4,25.6-4.1,25.6c-1.4,0-2.7,1.3-2.7,4
		s0,5.4-1.4,5.4c-1.4,1.3-10.8,4-12.2,4c-1.4,0-17.6,1.3-20.3,1.3c-1.4,0-2.7,2.7-2.7,4c-1.4,4-5.4,6.7-9.5,5.4
		c-2.7-1.3-5.4-8.1-4.1-17.5c0-6.7,0-6.7-2.7-8.1c-4.1-1.3-4.1-4-1.4-5.4c2.7-1.3,2.7-1.3,0-8.1c-1.4-4-5.4-13.5-9.5-21.6
		s-8.1-20.2-10.8-27c-5.4-13.5-5.4-12.1-20.3-13.5c-17.6-1.3-14.9-2.7-18.9,9.4c-1.4,5.4-5.4,17.5-8.1,28.3c-6.8,21.6-8.1,27-5.4,35
		c1.4,5.4,1.4,6.7,0,10.8c-2.7,6.7-5.4,6.7-5.4,2.7c0-1.3,0-2.7-1.4-2.7s-2.7,1.3-6.8,4c-2.7,2.7-8.1,5.4-9.5,5.4
		c-5.4,1.3-13.5,1.3-13.5,0c0-1.3,2.7-4,6.8-8.1c8.1-8.1,12.2-13.5,14.9-27c2.7-10.8,8.1-62,6.8-63.3c0,0-4.1-1.3-9.5-4
		c-12.2-4-12.2-4-9.5-14.8c6.8-25.6,8.1-32.3,8.1-35c0-1.3-1.4-2.7-5.4-2.7s-5.4-1.3-6.8-2.7c0-1.3,2.7-16.2,5.4-24.3
		c0-1.3,1.4-5.4,2.7-8.1c1.4-4,2.7-5.4,4.1-6.7c1.4-1.3,4.1-4,5.4-8.1c1.4-4,2.7-6.7,2.7-8.1c0-1.3-4.1-1.3-8.1,1.3
		c-4.1,2.7-9.5,1.3-13.5-1.3c-1.4-1.3-4.1-2.7-4.1-4c0,0,1.4-1.3,4.1-2.7c4.1-1.3,4.1-2.7,2.7-2.7c-2.7-1.3-2.7-2.7,0-2.7
		c1.4,0,2.7-1.3,4.1-2.7c4.1-2.7,6.8-2.7,14.9,0l6.8,2.7l1.4-4c0-2.7,1.4-8.1,2.7-13.5c2.7-16.2,6.8-31,10.8-36.4
		c2.7-4,2.7-6.7,2.7-10.8s0-5.4,4.1-9.4c5.4-5.4,5.4-8.1,1.4-8.1c-1.4,0-4.1-1.3-5.4-1.3c-1.4,0-4.1-1.3-5.4-1.3
		c-2.7,0-4.1-1.3-6.8-2.7c-2.7-2.7-2.7-2.7-2.7-12.1c0-12.1,2.7-20.2,8.1-24.3c5.4-5.4,8.1-8.1,14.9-8.1c8.1-1.3,13.5,1.3,18.9,9.4
		c8.1,12.1,8.1,25.6,2.7,33.7c-4.1,5.4-4.1,8.1-1.4,8.1c4.1,0,6.8,1.3,6.8,5.4c0,2.7,1.4,2.7,5.4,4c8.1,2.7,12.2,4,12.2,5.4
		c2.7,2.7,8.1,14.8,10.8,25.6c1.4,5.4,4.1,10.8,4.1,10.8s9.5-17.5,12.2-24.3c1.4-2.7,4.1-10.8,5.4-16.2c1.4-5.4,4.1-12.1,5.4-12.1
		c4.1-2.7,2.7-5.4-2.7-6.7c-4.1,0-5.4-1.3-9.5-6.7c-5.4-6.7-6.8-10.8-8.1-22.9c0-8.1,0-9.4,1.4-13.5c4.1-6.7,9.5-10.8,17.6-10.8
		c9.5,0,14.9,4,17.6,13.5c6.8-2.7,8.1,1.3,9.5,1.3c2.7,1.3,2.7,1.3,0,16.2c-1.4,6.7,1.4,12.1,5.4,13.5c1.4,0,4.1,1.3,4.1,2.7
		c0,1.3,4.1,5.4,6.8,8.1c6.8,6.7,6.8,9.4,8.1,21.6l1.4,9.4l8.1-5.4c12.2-8.1,13.5-9.4,13.5-16.2c0-4,0-5.4-2.7-6.7
		c-4.1-2.7-12.2-9.4-12.2-12.1c0-4,0-5.4,0-10.8c-1.4-9.4,4.1-17.5,14.9-24.3c8.1-4,16.2-4,23,0c2.7,1.3,5.4,5.4,6.8,8.1
		c2.7,5.4,5.4,14.8,5.4,20.2c0,4-4.1,10.8-8.1,12.1c-5.4,2.7-8.1,5.4-6.8,9.4c1.4,5.4,4.1,8.1,12.2,9.4c13.5,2.7,13.5,2.7,17.6,8.1
		l2.7,4l4.1-8.1c5.4-10.8,6.8-12.1,12.2-14.8c2.7-1.3,5.4-2.7,6.8-4c0,0,0,0-2.7-2.7c-4.1-2.7-5.4-9.4-5.4-21.6s2.7-17.5,8.1-21.6
		c4.1-2.7,13.5-5.4,18.9-4c8.1,1.3,14.9,9.4,14.9,18.9c0,2.7,0,4,1.4,5.4c2.7,1.3,0,10.8-2.7,14.8c-5.4,6.7-4.1,8.1,9.5,13.5
		c13.5,6.7,23,13.5,25.7,18.9c8.1,13.5,16.2,57.9,12.2,67.4c-1.4,1.3-4.1,5.4-8.1,8.1l-6.8,5.4l-1.4,24.3c-1.4,13.5-1.4,25.6-2.7,27
		c0,2.7-2.7,4-5.4,5.4c-5.4,2.7-5.4,2.7-8.1,10.8l-2.7,8.1l4.1,6.7c1.4,4,8.1,16.2,12.2,27c5.4,10.8,10.8,22.9,12.2,28.3
		c4.1,12.1,10.8,37.7,10.8,41.8c0,2.7,0,5.4,0,8.1c1.4,4,1.4,4-4.1,5.4c-2.7,1.3-8.1,2.7-13.5,4c-9.5,2.7-23,4-24.3,2.7
		c-1.4-1.3,0-2.7,8.1-6.7c5.4-4,5.4-4,5.4-8.1c0-2.7,0-4,1.4-4l1.4-1.3c0,0,0-1.3-1.4-1.3c-1.4,0-2.7-1.3-4.1-2.7
		c-1.4-1.3-2.7-4-4.1-9.4c0-4-2.7-10.8-8.1-21.6c-12.2-24.3-16.2-31-17.6-31s-13.5,28.3-13.5,32.3c0,1.3,0,4-1.4,5.4
		c0,1.3-2.7,9.4-4.1,18.9c-2.7,18.9-4.1,21.6-6.8,21.6c-1.4,0-2.7,2.7-2.7,8.1c0,2.7-1.4,4-5.4,4c-2.7,0-9.5,2.7-13.5,4
		c-10.8,2.7-21.6,4-21.6,1.3c0-1.3,4.1-5.4,9.5-8.1c9.5-6.7,12.2-9.4,6.8-9.4c-1.4,0-2.7-1.3-1.4-2.7c2.7-9.4,10.8-51.2,12.2-68.7
		c0-2.7,2.7-9.4,5.4-17.5c6.8-18.9,10.8-37.7,9.5-37.7c0,0-2.7,0-4.1,0c-1.4,0-2.7,0-2.7,0c-1.4-1.3-4.1-20.2-6.8-35
		c-2.7-14.8-2.7-16.2-6.8-17.5c-5.4-1.3-6.8-4-6.8-6.7c0-1.3,0-2.7,0-4c0,0-4.1,1.3-6.8,2.7c-5.4,2.7-6.8,2.7-6.8,5.4
		c0,1.3,1.4,6.7,2.7,10.8c1.4,5.4,2.7,12.1,4.1,14.8c1.4,6.7,5.4,48.5,5.4,68.7v10.8l-4.1,2.7c-2.7,1.3-8.1,2.7-12.2,4l-8.1,2.7
		l-2.7,13.5c-5.4,25.6-6.8,39.1-5.4,44.5c0,2.7,2.7,6.7,5.4,9.4c5.4,5.4,6.8,9.4,5.4,10.8c0,0-4.1,1.3-6.8,1.3c-5.4,0-5.4,0-6.8,5.4
		c-1.4,6.7-4.1,10.8-6.8,12.1C448.6,390,445.8,390,444.5,386L444.5,386z M370.1,365.7l2.7-2.7h-4.1c-4.1,0-4.1,0-4.1,2.7
		C364.7,368.4,366,368.4,370.1,365.7L370.1,365.7z M363.3,348.2c1.4-1.3,1.4-2.7,1.4-4c0-1.3,2.7-4,4.1-6.7l4.1-4l-4.1-2.7
		c-4.1-4-4.1-2.7-5.4-28.3c0-8.1-1.4-20.2-2.7-24.3c-1.4-5.4-2.7-16.2-2.7-25.6c0-9.4-1.4-20.2-1.4-27l-1.4-10.8l-5.4-2.7
		c-6.8-2.7-8.1-5.4-8.1-13.5c0-4,0-6.7-1.4-6.7c0,0-2.7,1.3-5.4,4c-4.1,4-4.1,4-4.1,10.8c0,4,1.4,13.5,1.4,20.2
		c1.4,14.8,2.7,28.3,6.8,41.8c1.4,5.4,2.7,12.1,2.7,16.2c0,4,1.4,9.4,1.4,10.8c2.7,10.8,12.2,51.2,12.2,55.2
		C359.3,352.3,360.6,350.9,363.3,348.2L363.3,348.2z M408,262c0-4,1.4-9.4,1.4-12.1c2.7-13.5,5.4-32.3,5.4-33.7c0,0-4.1,0-6.8,0
		l-6.8,1.3v5.4c0,2.7,0,8.1,1.4,10.8c0,2.7,1.4,12.1,2.7,20.2c1.4,8.1,1.4,14.8,2.7,14.8C406.6,268.7,408,264.7,408,262L408,262z
		 M420.1,193.3c2.7-10.8,2.7-16.2,0-17.5c-2.7-2.7-2.7-6.7,0-16.2c2.7-6.7,4.1-9.4,4.1-17.5c0-13.5-1.4-14.8-4.1-5.4
		c-1.4,5.4-4.1,12.1-5.4,17.5c-4.1,10.8-4.1,21.6-2.7,36.4c2.7,13.5,2.7,16.2,4.1,13.5C418.8,204,420.1,198.7,420.1,193.3
		L420.1,193.3z M267.3,169c-1.4-1.3-2.7,2.7-4.1,9.4c-1.4,4-1.4,5.4,0,6.7C264.6,185.2,268.6,170.4,267.3,169L267.3,169z
		 M336.3,170.4c2.7-4,5.4-9.4,6.8-12.1c2.7-5.4,2.7-5.4,0-12.1c-2.7-8.1-2.7-8.1-4.1-5.4c0,1.3-2.7,6.7-5.4,12.1
		c-2.7,6.7-4.1,10.8-4.1,16.2c0,4,0,6.7,1.4,6.7C332.2,175.7,333.6,173,336.3,170.4L336.3,170.4z M489.1,151.5
		c1.4-1.3,1.4-2.7,0-8.1c0-4-1.4-5.4-1.4-5.4s-1.4,4-2.7,8.1l-2.7,8.1l2.7-1.3C486.4,152.8,487.8,151.5,489.1,151.5L489.1,151.5z"/>
</g>
</svg>
