<?xml version="1.0" encoding="utf-8"?>
<!-- Generator: Adobe Illustrator 26.0.1, SVG Export Plug-In . SVG Version: 6.00 Build 0)  -->
<svg version="1.1" xmlns="http://www.w3.org/2000/svg" xmlns:xlink="http://www.w3.org/1999/xlink" x="0px" y="0px"
	 viewBox="0 0 1240 1180" style="enable-background:new 0 0 1240 1180;" xml:space="preserve">
<style type="text/css">
	.st0{display:none;fill:#4A4B4C;}
	.st1{fill:#FFFFFF;}
	.st2{display:none;}
	.st3{display:inline;}
</style>
<g id="Background">
	<rect id="Background_Rectangle" class="st0" width="1240" height="1180"/>
</g>
<g id="Layer_1">
	<g id="Bird-White">
		<path id="Bird_eye_lg_00000093153663740680004260000012829700541056924342_" class="st1" d="M906.1,956.4
			c-6.1-12.5-23.7-18.3-30.8-18.9c-20.6-1.6-18.4,10.1-0.4,32.2C904.1,1005.8,914.8,974,906.1,956.4z"/>
		<path id="Bird2_00000122680924740017709740000011670148935974499456_" class="st1" d="M278.3,503.7
			c53.1,42.2,130.5,102.2,278,101.6c3.3,0,1.7-5.2-2.3-7.7C188.7,347.4,255.8,126.9,255.8,93c0-32.5-51.3,65.8-49.8,122.4
			C202.4,392.5,369,525.7,367.2,525.2C305,509.4,225,415.3,196.7,372c-1.2-1.8-7.3-5.5-3.4,6C199.9,399.4,220.3,452.7,278.3,503.7z"
			/>
		<path id="Bird1_00000160154197706315064100000008316407788755345796_" class="st1" d="M968.8,345.6
			c-55.2-28.1-125-43.1-107.7-32.5c1,0.6,195.5,135.2,250.4,231.4c84.5,148.3-15.2,310.8-46.7,320.8c-2,0.6-0.8-8.4-0.5-21.2
			c5.5-133.7-119.6-260.6-133.9-272.2c-34.1-27.9-66-51.3-95.6-72.1c29.7-16.4,48-71.5,32.8-108.6c-23.8-57.8-64.2-81.8-85.3-92.6
			c-5.4-2.7-18.1-6.8-11,3.7c38.1,50.2,9.7,136.9-47.4,121.6c-4.6-3.2-9-6.5-13.3-9.6c-40.9-39.6-101.8-137.5-23.4-319.6
			c1.5-2.4,0.6-8.8-6.6,0.7c-13.9,17.1-46.4,62.7-57.4,141.4c-3,29-3.8,51.7-2.2,70.1c-17.5-49.8-34.8-153.6,49.9-286.4
			c-22.3-13.9-306.3,263.1,34.9,479.8c165.8,105.3,227.8,174,248.4,213.3C998.1,798,1003,912.1,969.5,981
			c-26,53.4-67.6,117.3-72.5,107.5c-12-23.7-4.6-100.3-135.4-147.6c-180-65-490.2,35.4-614.1-231.9
			c-61.3-117.9-12.6-276.3-3.1-324.4c1.5-7.5-94.4,30.2-115.2,147.8c-19,86.1-32.6,298.3,219.5,402.1
			c138.5,57,297.4,50.3,408.8,50.5c217,0.3,206.9,139.9,226.1,173.8c0.5,0.9,1.4,2.6,3.9-0.1c23.8-24.7,113.1-136.2,172.1-191.6
			C1425,623.4,1065.1,394.7,968.8,345.6z"/>
	</g>
	<g id="Bird-Black_00000091717733450531639020000017869034867852984510_" class="st2">
		<path id="Bird_eye_lg_00000039131896994232507890000004694423004760393111_" class="st3" d="M906.1,956.4
			c-6.1-12.5-23.7-18.3-30.8-18.9c-20.6-1.6-18.4,10.1-0.4,32.2C904.1,1005.8,914.8,974,906.1,956.4z"/>
		<path id="Bird2_00000084507393046869779300000006471565033563898533_" class="st3" d="M278.3,503.7
			c53.1,42.2,130.5,102.2,278,101.6c3.3,0,1.7-5.2-2.3-7.7C188.7,347.4,255.8,126.9,255.8,93c0-32.5-51.3,65.8-49.8,122.4
			C202.4,392.5,369,525.7,367.2,525.2C305,509.4,225,415.3,196.7,372c-1.2-1.8-7.3-5.5-3.4,6C199.9,399.4,220.3,452.7,278.3,503.7z"
			/>
		<path id="Bird1_00000022533339734034142420000018055486367844263562_" class="st3" d="M968.8,345.6
			c-55.2-28.1-125-43.1-107.7-32.5c1,0.6,195.5,135.2,250.4,231.4c84.5,148.3-15.2,310.8-46.7,320.8c-2,0.6-0.8-8.4-0.5-21.2
			c5.5-133.7-119.6-260.6-133.9-272.2c-34.1-27.9-66-51.3-95.6-72.1c29.7-16.4,48-71.5,32.8-108.6c-23.8-57.8-64.2-81.8-85.3-92.6
			c-5.4-2.7-18.1-6.8-11,3.7c38.1,50.2,9.7,136.9-47.4,121.6c-4.6-3.2-9-6.5-13.3-9.6c-40.9-39.6-101.8-137.5-23.4-319.6
			c1.5-2.4,0.6-8.8-6.6,0.7c-13.9,17.1-46.4,62.7-57.4,141.4c-3,29-3.8,51.7-2.2,70.1c-17.5-49.8-34.8-153.6,49.9-286.4
			c-22.3-13.9-306.3,263.1,34.9,479.8c165.8,105.3,227.8,174,248.4,213.3C998.1,798,1003,912.1,969.5,981
			c-26,53.4-67.6,117.3-72.5,107.5c-12-23.7-4.6-100.3-135.4-147.6c-180-65-490.2,35.4-614.1-231.9
			c-61.3-117.9-12.6-276.3-3.1-324.4c1.5-7.5-94.4,30.2-115.2,147.8c-19,86.1-32.6,298.3,219.5,402.1
			c138.5,57,297.4,50.3,408.8,50.5c217,0.3,206.9,139.9,226.1,173.8c0.5,0.9,1.4,2.6,3.9-0.1c23.8-24.7,113.1-136.2,172.1-191.6
			C1425,623.4,1065.1,394.7,968.8,345.6z"/>
	</g>
</g>
</svg>
